G04 #@! TF.GenerationSoftware,KiCad,Pcbnew,(5.0.0-3-g5ebb6b6)*
G04 #@! TF.CreationDate,2018-09-05T22:17:08-06:00*
G04 #@! TF.ProjectId,Hak5-unify,48616B352D756E6966792E6B69636164,rev?*
G04 #@! TF.SameCoordinates,Original*
G04 #@! TF.FileFunction,Legend,Top*
G04 #@! TF.FilePolarity,Positive*
%FSLAX46Y46*%
G04 Gerber Fmt 4.6, Leading zero omitted, Abs format (unit mm)*
G04 Created by KiCad (PCBNEW (5.0.0-3-g5ebb6b6)) date Wednesday, September 05, 2018 at 10:17:08 PM*
%MOMM*%
%LPD*%
G01*
G04 APERTURE LIST*
%ADD10C,0.300000*%
%ADD11C,0.125000*%
%ADD12C,0.162500*%
%ADD13C,0.120000*%
%ADD14C,0.150000*%
G04 APERTURE END LIST*
D10*
X109692857Y-91435714D02*
X109621428Y-91507142D01*
X109407142Y-91578571D01*
X109264285Y-91578571D01*
X109050000Y-91507142D01*
X108907142Y-91364285D01*
X108835714Y-91221428D01*
X108764285Y-90935714D01*
X108764285Y-90721428D01*
X108835714Y-90435714D01*
X108907142Y-90292857D01*
X109050000Y-90150000D01*
X109264285Y-90078571D01*
X109407142Y-90078571D01*
X109621428Y-90150000D01*
X109692857Y-90221428D01*
X110978571Y-90578571D02*
X110978571Y-91578571D01*
X110335714Y-90578571D02*
X110335714Y-91364285D01*
X110407142Y-91507142D01*
X110550000Y-91578571D01*
X110764285Y-91578571D01*
X110907142Y-91507142D01*
X110978571Y-91435714D01*
X111478571Y-90578571D02*
X112050000Y-90578571D01*
X111692857Y-90078571D02*
X111692857Y-91364285D01*
X111764285Y-91507142D01*
X111907142Y-91578571D01*
X112050000Y-91578571D01*
X113978571Y-90078571D02*
X114264285Y-90078571D01*
X114407142Y-90150000D01*
X114550000Y-90292857D01*
X114621428Y-90578571D01*
X114621428Y-91078571D01*
X114550000Y-91364285D01*
X114407142Y-91507142D01*
X114264285Y-91578571D01*
X113978571Y-91578571D01*
X113835714Y-91507142D01*
X113692857Y-91364285D01*
X113621428Y-91078571D01*
X113621428Y-90578571D01*
X113692857Y-90292857D01*
X113835714Y-90150000D01*
X113978571Y-90078571D01*
X115907142Y-90578571D02*
X115907142Y-91578571D01*
X115264285Y-90578571D02*
X115264285Y-91364285D01*
X115335714Y-91507142D01*
X115478571Y-91578571D01*
X115692857Y-91578571D01*
X115835714Y-91507142D01*
X115907142Y-91435714D01*
X116407142Y-90578571D02*
X116978571Y-90578571D01*
X116621428Y-90078571D02*
X116621428Y-91364285D01*
X116692857Y-91507142D01*
X116835714Y-91578571D01*
X116978571Y-91578571D01*
D11*
X122126190Y-96019047D02*
X122126190Y-95733333D01*
X122626190Y-95876190D02*
X122126190Y-95876190D01*
X122126190Y-95614285D02*
X122626190Y-95280952D01*
X122126190Y-95280952D02*
X122626190Y-95614285D01*
X122626190Y-94828571D02*
X122626190Y-95114285D01*
X122626190Y-94971428D02*
X122126190Y-94971428D01*
X122197619Y-95019047D01*
X122245238Y-95066666D01*
X122269047Y-95114285D01*
X102026190Y-89497619D02*
X102526190Y-89330952D01*
X102026190Y-89164285D01*
X102026190Y-88902380D02*
X102026190Y-88807142D01*
X102050000Y-88759523D01*
X102097619Y-88711904D01*
X102192857Y-88688095D01*
X102359523Y-88688095D01*
X102454761Y-88711904D01*
X102502380Y-88759523D01*
X102526190Y-88807142D01*
X102526190Y-88902380D01*
X102502380Y-88950000D01*
X102454761Y-88997619D01*
X102359523Y-89021428D01*
X102192857Y-89021428D01*
X102097619Y-88997619D01*
X102050000Y-88950000D01*
X102026190Y-88902380D01*
X102192857Y-88259523D02*
X102526190Y-88259523D01*
X102192857Y-88473809D02*
X102454761Y-88473809D01*
X102502380Y-88450000D01*
X102526190Y-88402380D01*
X102526190Y-88330952D01*
X102502380Y-88283333D01*
X102478571Y-88259523D01*
X102192857Y-88092857D02*
X102192857Y-87902380D01*
X102026190Y-88021428D02*
X102454761Y-88021428D01*
X102502380Y-87997619D01*
X102526190Y-87950000D01*
X102526190Y-87902380D01*
D12*
X103144047Y-97592857D02*
X103144047Y-97902380D01*
X103453571Y-97933333D01*
X103422619Y-97902380D01*
X103391666Y-97840476D01*
X103391666Y-97685714D01*
X103422619Y-97623809D01*
X103453571Y-97592857D01*
X103515476Y-97561904D01*
X103670238Y-97561904D01*
X103732142Y-97592857D01*
X103763095Y-97623809D01*
X103794047Y-97685714D01*
X103794047Y-97840476D01*
X103763095Y-97902380D01*
X103732142Y-97933333D01*
X103360714Y-97345238D02*
X103794047Y-97190476D01*
X103360714Y-97035714D01*
D11*
X101533273Y-86854594D02*
X101981108Y-87066726D01*
X101768976Y-86618891D01*
X101886827Y-86171057D02*
X101933967Y-86123917D01*
X102004678Y-86100346D01*
X102051818Y-86100346D01*
X102122529Y-86123917D01*
X102240380Y-86194627D01*
X102358231Y-86312478D01*
X102428942Y-86430330D01*
X102452512Y-86501040D01*
X102452512Y-86548181D01*
X102428942Y-86618891D01*
X102381801Y-86666032D01*
X102311091Y-86689602D01*
X102263950Y-86689602D01*
X102193240Y-86666032D01*
X102075389Y-86595321D01*
X101957537Y-86477470D01*
X101886827Y-86359619D01*
X101863256Y-86288908D01*
X101863256Y-86241768D01*
X101886827Y-86171057D01*
X102711785Y-86241768D02*
X102758925Y-86241768D01*
X102758925Y-86288908D01*
X102711785Y-86288908D01*
X102711785Y-86241768D01*
X102758925Y-86288908D01*
X102452512Y-85605372D02*
X102758925Y-85298959D01*
X102782495Y-85652512D01*
X102853206Y-85581801D01*
X102923917Y-85558231D01*
X102971057Y-85558231D01*
X103041768Y-85581801D01*
X103159619Y-85699653D01*
X103183189Y-85770363D01*
X103183189Y-85817504D01*
X103159619Y-85888214D01*
X103018198Y-86029636D01*
X102947487Y-86053206D01*
X102900346Y-86053206D01*
X103418891Y-85534661D02*
X103466032Y-85534661D01*
X103466032Y-85581801D01*
X103418891Y-85581801D01*
X103418891Y-85534661D01*
X103466032Y-85581801D01*
X103301040Y-84756844D02*
X103348181Y-84709703D01*
X103418891Y-84686133D01*
X103466032Y-84686133D01*
X103536743Y-84709703D01*
X103654594Y-84780414D01*
X103772445Y-84898265D01*
X103843155Y-85016116D01*
X103866726Y-85086827D01*
X103866726Y-85133967D01*
X103843155Y-85204678D01*
X103796015Y-85251818D01*
X103725304Y-85275389D01*
X103678164Y-85275389D01*
X103607453Y-85251818D01*
X103489602Y-85181108D01*
X103371751Y-85063256D01*
X103301040Y-84945405D01*
X103277470Y-84874695D01*
X103277470Y-84827554D01*
X103301040Y-84756844D01*
X100702943Y-86944890D02*
X100207968Y-86449915D01*
X100443671Y-86685618D02*
X100726513Y-86402775D01*
X100985786Y-86662047D02*
X100490811Y-86167073D01*
X101433620Y-86214213D02*
X101174348Y-85954941D01*
X101103637Y-85931370D01*
X101032926Y-85954941D01*
X100938645Y-86049221D01*
X100915075Y-86119932D01*
X101410050Y-86190643D02*
X101386480Y-86261354D01*
X101268629Y-86379205D01*
X101197918Y-86402775D01*
X101127207Y-86379205D01*
X101080067Y-86332064D01*
X101056497Y-86261354D01*
X101080067Y-86190643D01*
X101197918Y-86072792D01*
X101221488Y-86002081D01*
X101292199Y-85695668D02*
X101716463Y-85931370D01*
X101575042Y-85601387D01*
X101905025Y-85742809D01*
X101669322Y-85318544D01*
X102187867Y-85459966D02*
X101692893Y-84964991D01*
X102046446Y-85224264D02*
X102376429Y-85271404D01*
X102046446Y-84941421D02*
X102046446Y-85318544D01*
X102022876Y-84635008D02*
X102682842Y-84964991D01*
X102352859Y-84305025D01*
X103012825Y-84635008D02*
X102682842Y-84305025D01*
X102517851Y-84140033D02*
X102517851Y-84187174D01*
X102564991Y-84187174D01*
X102564991Y-84140033D01*
X102517851Y-84140033D01*
X102564991Y-84187174D01*
X103201387Y-84399306D02*
X103272098Y-84375735D01*
X103366379Y-84281455D01*
X103389949Y-84210744D01*
X103366379Y-84140033D01*
X103342809Y-84116463D01*
X103272098Y-84092893D01*
X103201387Y-84116463D01*
X103130677Y-84187174D01*
X103059966Y-84210744D01*
X102989255Y-84187174D01*
X102965685Y-84163603D01*
X102942115Y-84092893D01*
X102965685Y-84022182D01*
X103036396Y-83951471D01*
X103107106Y-83927901D01*
X103649221Y-83998612D02*
X103319238Y-83668629D01*
X103154247Y-83503637D02*
X103154247Y-83550778D01*
X103201387Y-83550778D01*
X103201387Y-83503637D01*
X103154247Y-83503637D01*
X103201387Y-83550778D01*
X103955634Y-83692199D02*
X103884924Y-83715769D01*
X103837783Y-83715769D01*
X103767073Y-83692199D01*
X103625651Y-83550778D01*
X103602081Y-83480067D01*
X103602081Y-83432926D01*
X103625651Y-83362216D01*
X103696362Y-83291505D01*
X103767073Y-83267935D01*
X103814213Y-83267935D01*
X103884924Y-83291505D01*
X104026345Y-83432926D01*
X104049915Y-83503637D01*
X104049915Y-83550778D01*
X104026345Y-83621488D01*
X103955634Y-83692199D01*
X104002775Y-82985092D02*
X104332758Y-83315075D01*
X104049915Y-83032233D02*
X104049915Y-82985092D01*
X104073486Y-82914381D01*
X104144196Y-82843671D01*
X104214907Y-82820101D01*
X104285618Y-82843671D01*
X104544890Y-83102943D01*
D13*
G04 #@! TO.C,J2*
X102930000Y-89790000D02*
X100270000Y-89790000D01*
X102930000Y-94930000D02*
X102930000Y-89790000D01*
X100270000Y-94930000D02*
X100270000Y-89790000D01*
X102930000Y-94930000D02*
X100270000Y-94930000D01*
X102930000Y-96200000D02*
X102930000Y-97530000D01*
X102930000Y-97530000D02*
X101600000Y-97530000D01*
G04 #@! TO.C,J1*
X124530000Y-84650000D02*
X121870000Y-84650000D01*
X124530000Y-92330000D02*
X124530000Y-84650000D01*
X121870000Y-92330000D02*
X121870000Y-84650000D01*
X124530000Y-92330000D02*
X121870000Y-92330000D01*
X124530000Y-93600000D02*
X124530000Y-94930000D01*
X124530000Y-94930000D02*
X123200000Y-94930000D01*
G04 #@! TO.C,R1*
X104860000Y-88450000D02*
X103140000Y-88450000D01*
X103140000Y-88450000D02*
X103140000Y-92170000D01*
X103140000Y-92170000D02*
X104860000Y-92170000D01*
X104860000Y-92170000D02*
X104860000Y-88450000D01*
X104000000Y-87380000D02*
X104000000Y-88450000D01*
X104000000Y-93240000D02*
X104000000Y-92170000D01*
G04 #@! TO.C,U1*
D14*
X109988095Y-94802380D02*
X109988095Y-95611904D01*
X110035714Y-95707142D01*
X110083333Y-95754761D01*
X110178571Y-95802380D01*
X110369047Y-95802380D01*
X110464285Y-95754761D01*
X110511904Y-95707142D01*
X110559523Y-95611904D01*
X110559523Y-94802380D01*
X111559523Y-95802380D02*
X110988095Y-95802380D01*
X111273809Y-95802380D02*
X111273809Y-94802380D01*
X111178571Y-94945238D01*
X111083333Y-95040476D01*
X110988095Y-95088095D01*
G04 #@! TO.C,J2*
X107702380Y-94933333D02*
X108416666Y-94933333D01*
X108559523Y-94980952D01*
X108654761Y-95076190D01*
X108702380Y-95219047D01*
X108702380Y-95314285D01*
X107797619Y-94504761D02*
X107750000Y-94457142D01*
X107702380Y-94361904D01*
X107702380Y-94123809D01*
X107750000Y-94028571D01*
X107797619Y-93980952D01*
X107892857Y-93933333D01*
X107988095Y-93933333D01*
X108130952Y-93980952D01*
X108702380Y-94552380D01*
X108702380Y-93933333D01*
G04 #@! TO.C,J1*
X117702380Y-94933333D02*
X118416666Y-94933333D01*
X118559523Y-94980952D01*
X118654761Y-95076190D01*
X118702380Y-95219047D01*
X118702380Y-95314285D01*
X118702380Y-93933333D02*
X118702380Y-94504761D01*
X118702380Y-94219047D02*
X117702380Y-94219047D01*
X117845238Y-94314285D01*
X117940476Y-94409523D01*
X117988095Y-94504761D01*
G04 #@! TO.C,R1*
X104552380Y-90666666D02*
X104076190Y-91000000D01*
X104552380Y-91238095D02*
X103552380Y-91238095D01*
X103552380Y-90857142D01*
X103600000Y-90761904D01*
X103647619Y-90714285D01*
X103742857Y-90666666D01*
X103885714Y-90666666D01*
X103980952Y-90714285D01*
X104028571Y-90761904D01*
X104076190Y-90857142D01*
X104076190Y-91238095D01*
X104552380Y-89714285D02*
X104552380Y-90285714D01*
X104552380Y-90000000D02*
X103552380Y-90000000D01*
X103695238Y-90095238D01*
X103790476Y-90190476D01*
X103838095Y-90285714D01*
G04 #@! TD*
M02*
