M48
;DRILL file {KiCad (5.0.0-3-g5ebb6b6)} date Sunday, September 02, 2018 at 05:25:43 PM
;FORMAT={-:-/ absolute / inch / decimal}
FMAT,2
INCH,TZ
T1C0.0276
T2C0.0300
T3C0.0394
%
G90
G05
M72
T1
X6.4567Y-1.7882
X6.4567Y-2.0882
X5.2756Y-0.9795
X5.2756Y-1.2795
X5.2756Y-3.4055
X5.2756Y-3.7055
X4.0945Y-3.4055
X4.0945Y-3.7055
X6.4567Y-3.4055
X6.4567Y-3.7055
X5.2756Y-1.7882
X5.2756Y-2.0882
X6.4567Y-2.5969
X6.4567Y-2.8969
X6.4567Y-0.9795
X6.4567Y-1.2795
X4.0945Y-0.9795
X4.0945Y-1.2795
X4.0945Y-1.7882
X4.0945Y-2.0882
X4.0945Y-2.5969
X4.0945Y-2.8969
X5.2756Y-2.5969
X5.2756Y-2.8969
T2
X6.5295Y-0.9697
X6.5295Y-1.0484
X6.5295Y-1.1272
X6.5295Y-1.2059
X6.5295Y-1.2846
X6.5295Y-1.3634
X6.878Y-0.8988
X7.0197Y-0.8988
X7.1181Y-1.3516
X7.122Y-1.2256
X6.5295Y-2.587
X6.5295Y-2.6657
X6.5295Y-2.7445
X6.5295Y-2.8232
X6.5295Y-2.902
X6.5295Y-2.9807
X6.878Y-2.5161
X7.0197Y-2.5161
X7.1181Y-2.9689
X7.122Y-2.8429
X5.3484Y-1.7783
X5.3484Y-1.8571
X5.3484Y-1.9358
X5.3484Y-2.0146
X5.3484Y-2.0933
X5.3484Y-2.172
X5.6969Y-1.7075
X5.8386Y-1.7075
X5.937Y-2.1602
X5.9409Y-2.0343
X4.1673Y-2.587
X4.1673Y-2.6657
X4.1673Y-2.7445
X4.1673Y-2.8232
X4.1673Y-2.902
X4.1673Y-2.9807
X4.5157Y-2.5161
X4.6575Y-2.5161
X4.7559Y-2.9689
X4.7598Y-2.8429
X5.3484Y-3.3957
X5.3484Y-3.4744
X5.3484Y-3.5531
X5.3484Y-3.6319
X5.3484Y-3.7106
X5.3484Y-3.7894
X5.6969Y-3.3248
X5.8386Y-3.3248
X5.937Y-3.7776
X5.9409Y-3.6516
X5.3484Y-0.9697
X5.3484Y-1.0484
X5.3484Y-1.1272
X5.3484Y-1.2059
X5.3484Y-1.2846
X5.3484Y-1.3634
X5.6969Y-0.8988
X5.8386Y-0.8988
X5.937Y-1.3516
X5.9409Y-1.2256
X5.3484Y-2.587
X5.3484Y-2.6657
X5.3484Y-2.7445
X5.3484Y-2.8232
X5.3484Y-2.902
X5.3484Y-2.9807
X5.6969Y-2.5161
X5.8386Y-2.5161
X5.937Y-2.9689
X5.9409Y-2.8429
X6.5295Y-3.3957
X6.5295Y-3.4744
X6.5295Y-3.5531
X6.5295Y-3.6319
X6.5295Y-3.7106
X6.5295Y-3.7894
X6.878Y-3.3248
X7.0197Y-3.3248
X7.1181Y-3.7776
X7.122Y-3.6516
X4.1673Y-1.7783
X4.1673Y-1.8571
X4.1673Y-1.9358
X4.1673Y-2.0146
X4.1673Y-2.0933
X4.1673Y-2.172
X4.5157Y-1.7075
X4.6575Y-1.7075
X4.7559Y-2.1602
X4.7598Y-2.0343
X4.1673Y-0.9697
X4.1673Y-1.0484
X4.1673Y-1.1272
X4.1673Y-1.2059
X4.1673Y-1.2846
X4.1673Y-1.3634
X4.5157Y-0.8988
X4.6575Y-0.8988
X4.7559Y-1.3516
X4.7598Y-1.2256
X6.5295Y-1.7783
X6.5295Y-1.8571
X6.5295Y-1.9358
X6.5295Y-2.0146
X6.5295Y-2.0933
X6.5295Y-2.172
X6.878Y-1.7075
X7.0197Y-1.7075
X7.1181Y-2.1602
X7.122Y-2.0343
X4.1673Y-3.3957
X4.1673Y-3.4744
X4.1673Y-3.5531
X4.1673Y-3.6319
X4.1673Y-3.7106
X4.1673Y-3.7894
X4.5157Y-3.3248
X4.6575Y-3.3248
X4.7559Y-3.7776
X4.7598Y-3.6516
T3
X4.8504Y-3.385
X4.8504Y-3.485
X4.8504Y-3.585
X4.8504Y-3.685
X5.1811Y-3.5874
X5.1811Y-3.6874
X5.1811Y-3.7874
X4.Y-2.7787
X4.Y-2.8787
X4.Y-2.9787
X6.3622Y-2.7787
X6.3622Y-2.8787
X6.3622Y-2.9787
X7.2126Y-3.385
X7.2126Y-3.485
X7.2126Y-3.585
X7.2126Y-3.685
X6.0315Y-2.5764
X6.0315Y-2.6764
X6.0315Y-2.7764
X6.0315Y-2.8764
X4.8504Y-1.7677
X4.8504Y-1.8677
X4.8504Y-1.9677
X4.8504Y-2.0677
X7.2126Y-1.7677
X7.2126Y-1.8677
X7.2126Y-1.9677
X7.2126Y-2.0677
X6.0315Y-0.9591
X6.0315Y-1.0591
X6.0315Y-1.1591
X6.0315Y-1.2591
X5.1811Y-1.9701
X5.1811Y-2.0701
X5.1811Y-2.1701
X4.Y-1.1614
X4.Y-1.2614
X4.Y-1.3614
X4.Y-3.5874
X4.Y-3.6874
X4.Y-3.7874
X6.3622Y-1.1614
X6.3622Y-1.2614
X6.3622Y-1.3614
X6.3622Y-3.5874
X6.3622Y-3.6874
X6.3622Y-3.7874
X5.1811Y-2.7787
X5.1811Y-2.8787
X5.1811Y-2.9787
X6.0315Y-3.385
X6.0315Y-3.485
X6.0315Y-3.585
X6.0315Y-3.685
X4.8504Y-2.5764
X4.8504Y-2.6764
X4.8504Y-2.7764
X4.8504Y-2.8764
X4.Y-1.9701
X4.Y-2.0701
X4.Y-2.1701
X7.2126Y-2.5764
X7.2126Y-2.6764
X7.2126Y-2.7764
X7.2126Y-2.8764
X6.0315Y-1.7677
X6.0315Y-1.8677
X6.0315Y-1.9677
X6.0315Y-2.0677
X4.8504Y-0.9591
X4.8504Y-1.0591
X4.8504Y-1.1591
X4.8504Y-1.2591
X7.2126Y-0.9591
X7.2126Y-1.0591
X7.2126Y-1.1591
X7.2126Y-1.2591
X6.3622Y-1.9701
X6.3622Y-2.0701
X6.3622Y-2.1701
X5.1811Y-1.1614
X5.1811Y-1.2614
X5.1811Y-1.3614
T0
M30
