G04 #@! TF.GenerationSoftware,KiCad,Pcbnew,(5.0.0-3-g5ebb6b6)*
G04 #@! TF.CreationDate,2018-09-02T17:25:40-06:00*
G04 #@! TF.ProjectId,Hak5-unify,48616B352D756E6966792E6B69636164,rev?*
G04 #@! TF.SameCoordinates,Original*
G04 #@! TF.FileFunction,Legend,Top*
G04 #@! TF.FilePolarity,Positive*
%FSLAX46Y46*%
G04 Gerber Fmt 4.6, Leading zero omitted, Abs format (unit mm)*
G04 Created by KiCad (PCBNEW (5.0.0-3-g5ebb6b6)) date Sunday, September 02, 2018 at 05:25:40 PM*
%MOMM*%
%LPD*%
G01*
G04 APERTURE LIST*
%ADD10C,0.300000*%
%ADD11C,0.125000*%
%ADD12C,0.162500*%
%ADD13C,0.120000*%
%ADD14C,0.150000*%
G04 APERTURE END LIST*
D10*
X169692857Y-29815714D02*
X169621428Y-29887142D01*
X169407142Y-29958571D01*
X169264285Y-29958571D01*
X169050000Y-29887142D01*
X168907142Y-29744285D01*
X168835714Y-29601428D01*
X168764285Y-29315714D01*
X168764285Y-29101428D01*
X168835714Y-28815714D01*
X168907142Y-28672857D01*
X169050000Y-28530000D01*
X169264285Y-28458571D01*
X169407142Y-28458571D01*
X169621428Y-28530000D01*
X169692857Y-28601428D01*
X170978571Y-28958571D02*
X170978571Y-29958571D01*
X170335714Y-28958571D02*
X170335714Y-29744285D01*
X170407142Y-29887142D01*
X170550000Y-29958571D01*
X170764285Y-29958571D01*
X170907142Y-29887142D01*
X170978571Y-29815714D01*
X171478571Y-28958571D02*
X172050000Y-28958571D01*
X171692857Y-28458571D02*
X171692857Y-29744285D01*
X171764285Y-29887142D01*
X171907142Y-29958571D01*
X172050000Y-29958571D01*
X173978571Y-28458571D02*
X174264285Y-28458571D01*
X174407142Y-28530000D01*
X174550000Y-28672857D01*
X174621428Y-28958571D01*
X174621428Y-29458571D01*
X174550000Y-29744285D01*
X174407142Y-29887142D01*
X174264285Y-29958571D01*
X173978571Y-29958571D01*
X173835714Y-29887142D01*
X173692857Y-29744285D01*
X173621428Y-29458571D01*
X173621428Y-28958571D01*
X173692857Y-28672857D01*
X173835714Y-28530000D01*
X173978571Y-28458571D01*
X175907142Y-28958571D02*
X175907142Y-29958571D01*
X175264285Y-28958571D02*
X175264285Y-29744285D01*
X175335714Y-29887142D01*
X175478571Y-29958571D01*
X175692857Y-29958571D01*
X175835714Y-29887142D01*
X175907142Y-29815714D01*
X176407142Y-28958571D02*
X176978571Y-28958571D01*
X176621428Y-28458571D02*
X176621428Y-29744285D01*
X176692857Y-29887142D01*
X176835714Y-29958571D01*
X176978571Y-29958571D01*
X139692857Y-29815714D02*
X139621428Y-29887142D01*
X139407142Y-29958571D01*
X139264285Y-29958571D01*
X139050000Y-29887142D01*
X138907142Y-29744285D01*
X138835714Y-29601428D01*
X138764285Y-29315714D01*
X138764285Y-29101428D01*
X138835714Y-28815714D01*
X138907142Y-28672857D01*
X139050000Y-28530000D01*
X139264285Y-28458571D01*
X139407142Y-28458571D01*
X139621428Y-28530000D01*
X139692857Y-28601428D01*
X140978571Y-28958571D02*
X140978571Y-29958571D01*
X140335714Y-28958571D02*
X140335714Y-29744285D01*
X140407142Y-29887142D01*
X140550000Y-29958571D01*
X140764285Y-29958571D01*
X140907142Y-29887142D01*
X140978571Y-29815714D01*
X141478571Y-28958571D02*
X142050000Y-28958571D01*
X141692857Y-28458571D02*
X141692857Y-29744285D01*
X141764285Y-29887142D01*
X141907142Y-29958571D01*
X142050000Y-29958571D01*
X143978571Y-28458571D02*
X144264285Y-28458571D01*
X144407142Y-28530000D01*
X144550000Y-28672857D01*
X144621428Y-28958571D01*
X144621428Y-29458571D01*
X144550000Y-29744285D01*
X144407142Y-29887142D01*
X144264285Y-29958571D01*
X143978571Y-29958571D01*
X143835714Y-29887142D01*
X143692857Y-29744285D01*
X143621428Y-29458571D01*
X143621428Y-28958571D01*
X143692857Y-28672857D01*
X143835714Y-28530000D01*
X143978571Y-28458571D01*
X145907142Y-28958571D02*
X145907142Y-29958571D01*
X145264285Y-28958571D02*
X145264285Y-29744285D01*
X145335714Y-29887142D01*
X145478571Y-29958571D01*
X145692857Y-29958571D01*
X145835714Y-29887142D01*
X145907142Y-29815714D01*
X146407142Y-28958571D02*
X146978571Y-28958571D01*
X146621428Y-28458571D02*
X146621428Y-29744285D01*
X146692857Y-29887142D01*
X146835714Y-29958571D01*
X146978571Y-29958571D01*
X109692857Y-29815714D02*
X109621428Y-29887142D01*
X109407142Y-29958571D01*
X109264285Y-29958571D01*
X109050000Y-29887142D01*
X108907142Y-29744285D01*
X108835714Y-29601428D01*
X108764285Y-29315714D01*
X108764285Y-29101428D01*
X108835714Y-28815714D01*
X108907142Y-28672857D01*
X109050000Y-28530000D01*
X109264285Y-28458571D01*
X109407142Y-28458571D01*
X109621428Y-28530000D01*
X109692857Y-28601428D01*
X110978571Y-28958571D02*
X110978571Y-29958571D01*
X110335714Y-28958571D02*
X110335714Y-29744285D01*
X110407142Y-29887142D01*
X110550000Y-29958571D01*
X110764285Y-29958571D01*
X110907142Y-29887142D01*
X110978571Y-29815714D01*
X111478571Y-28958571D02*
X112050000Y-28958571D01*
X111692857Y-28458571D02*
X111692857Y-29744285D01*
X111764285Y-29887142D01*
X111907142Y-29958571D01*
X112050000Y-29958571D01*
X113978571Y-28458571D02*
X114264285Y-28458571D01*
X114407142Y-28530000D01*
X114550000Y-28672857D01*
X114621428Y-28958571D01*
X114621428Y-29458571D01*
X114550000Y-29744285D01*
X114407142Y-29887142D01*
X114264285Y-29958571D01*
X113978571Y-29958571D01*
X113835714Y-29887142D01*
X113692857Y-29744285D01*
X113621428Y-29458571D01*
X113621428Y-28958571D01*
X113692857Y-28672857D01*
X113835714Y-28530000D01*
X113978571Y-28458571D01*
X115907142Y-28958571D02*
X115907142Y-29958571D01*
X115264285Y-28958571D02*
X115264285Y-29744285D01*
X115335714Y-29887142D01*
X115478571Y-29958571D01*
X115692857Y-29958571D01*
X115835714Y-29887142D01*
X115907142Y-29815714D01*
X116407142Y-28958571D02*
X116978571Y-28958571D01*
X116621428Y-28458571D02*
X116621428Y-29744285D01*
X116692857Y-29887142D01*
X116835714Y-29958571D01*
X116978571Y-29958571D01*
X169692857Y-50355714D02*
X169621428Y-50427142D01*
X169407142Y-50498571D01*
X169264285Y-50498571D01*
X169050000Y-50427142D01*
X168907142Y-50284285D01*
X168835714Y-50141428D01*
X168764285Y-49855714D01*
X168764285Y-49641428D01*
X168835714Y-49355714D01*
X168907142Y-49212857D01*
X169050000Y-49070000D01*
X169264285Y-48998571D01*
X169407142Y-48998571D01*
X169621428Y-49070000D01*
X169692857Y-49141428D01*
X170978571Y-49498571D02*
X170978571Y-50498571D01*
X170335714Y-49498571D02*
X170335714Y-50284285D01*
X170407142Y-50427142D01*
X170550000Y-50498571D01*
X170764285Y-50498571D01*
X170907142Y-50427142D01*
X170978571Y-50355714D01*
X171478571Y-49498571D02*
X172050000Y-49498571D01*
X171692857Y-48998571D02*
X171692857Y-50284285D01*
X171764285Y-50427142D01*
X171907142Y-50498571D01*
X172050000Y-50498571D01*
X173978571Y-48998571D02*
X174264285Y-48998571D01*
X174407142Y-49070000D01*
X174550000Y-49212857D01*
X174621428Y-49498571D01*
X174621428Y-49998571D01*
X174550000Y-50284285D01*
X174407142Y-50427142D01*
X174264285Y-50498571D01*
X173978571Y-50498571D01*
X173835714Y-50427142D01*
X173692857Y-50284285D01*
X173621428Y-49998571D01*
X173621428Y-49498571D01*
X173692857Y-49212857D01*
X173835714Y-49070000D01*
X173978571Y-48998571D01*
X175907142Y-49498571D02*
X175907142Y-50498571D01*
X175264285Y-49498571D02*
X175264285Y-50284285D01*
X175335714Y-50427142D01*
X175478571Y-50498571D01*
X175692857Y-50498571D01*
X175835714Y-50427142D01*
X175907142Y-50355714D01*
X176407142Y-49498571D02*
X176978571Y-49498571D01*
X176621428Y-48998571D02*
X176621428Y-50284285D01*
X176692857Y-50427142D01*
X176835714Y-50498571D01*
X176978571Y-50498571D01*
X139692857Y-50355714D02*
X139621428Y-50427142D01*
X139407142Y-50498571D01*
X139264285Y-50498571D01*
X139050000Y-50427142D01*
X138907142Y-50284285D01*
X138835714Y-50141428D01*
X138764285Y-49855714D01*
X138764285Y-49641428D01*
X138835714Y-49355714D01*
X138907142Y-49212857D01*
X139050000Y-49070000D01*
X139264285Y-48998571D01*
X139407142Y-48998571D01*
X139621428Y-49070000D01*
X139692857Y-49141428D01*
X140978571Y-49498571D02*
X140978571Y-50498571D01*
X140335714Y-49498571D02*
X140335714Y-50284285D01*
X140407142Y-50427142D01*
X140550000Y-50498571D01*
X140764285Y-50498571D01*
X140907142Y-50427142D01*
X140978571Y-50355714D01*
X141478571Y-49498571D02*
X142050000Y-49498571D01*
X141692857Y-48998571D02*
X141692857Y-50284285D01*
X141764285Y-50427142D01*
X141907142Y-50498571D01*
X142050000Y-50498571D01*
X143978571Y-48998571D02*
X144264285Y-48998571D01*
X144407142Y-49070000D01*
X144550000Y-49212857D01*
X144621428Y-49498571D01*
X144621428Y-49998571D01*
X144550000Y-50284285D01*
X144407142Y-50427142D01*
X144264285Y-50498571D01*
X143978571Y-50498571D01*
X143835714Y-50427142D01*
X143692857Y-50284285D01*
X143621428Y-49998571D01*
X143621428Y-49498571D01*
X143692857Y-49212857D01*
X143835714Y-49070000D01*
X143978571Y-48998571D01*
X145907142Y-49498571D02*
X145907142Y-50498571D01*
X145264285Y-49498571D02*
X145264285Y-50284285D01*
X145335714Y-50427142D01*
X145478571Y-50498571D01*
X145692857Y-50498571D01*
X145835714Y-50427142D01*
X145907142Y-50355714D01*
X146407142Y-49498571D02*
X146978571Y-49498571D01*
X146621428Y-48998571D02*
X146621428Y-50284285D01*
X146692857Y-50427142D01*
X146835714Y-50498571D01*
X146978571Y-50498571D01*
X109692857Y-50355714D02*
X109621428Y-50427142D01*
X109407142Y-50498571D01*
X109264285Y-50498571D01*
X109050000Y-50427142D01*
X108907142Y-50284285D01*
X108835714Y-50141428D01*
X108764285Y-49855714D01*
X108764285Y-49641428D01*
X108835714Y-49355714D01*
X108907142Y-49212857D01*
X109050000Y-49070000D01*
X109264285Y-48998571D01*
X109407142Y-48998571D01*
X109621428Y-49070000D01*
X109692857Y-49141428D01*
X110978571Y-49498571D02*
X110978571Y-50498571D01*
X110335714Y-49498571D02*
X110335714Y-50284285D01*
X110407142Y-50427142D01*
X110550000Y-50498571D01*
X110764285Y-50498571D01*
X110907142Y-50427142D01*
X110978571Y-50355714D01*
X111478571Y-49498571D02*
X112050000Y-49498571D01*
X111692857Y-48998571D02*
X111692857Y-50284285D01*
X111764285Y-50427142D01*
X111907142Y-50498571D01*
X112050000Y-50498571D01*
X113978571Y-48998571D02*
X114264285Y-48998571D01*
X114407142Y-49070000D01*
X114550000Y-49212857D01*
X114621428Y-49498571D01*
X114621428Y-49998571D01*
X114550000Y-50284285D01*
X114407142Y-50427142D01*
X114264285Y-50498571D01*
X113978571Y-50498571D01*
X113835714Y-50427142D01*
X113692857Y-50284285D01*
X113621428Y-49998571D01*
X113621428Y-49498571D01*
X113692857Y-49212857D01*
X113835714Y-49070000D01*
X113978571Y-48998571D01*
X115907142Y-49498571D02*
X115907142Y-50498571D01*
X115264285Y-49498571D02*
X115264285Y-50284285D01*
X115335714Y-50427142D01*
X115478571Y-50498571D01*
X115692857Y-50498571D01*
X115835714Y-50427142D01*
X115907142Y-50355714D01*
X116407142Y-49498571D02*
X116978571Y-49498571D01*
X116621428Y-48998571D02*
X116621428Y-50284285D01*
X116692857Y-50427142D01*
X116835714Y-50498571D01*
X116978571Y-50498571D01*
X169692857Y-70895714D02*
X169621428Y-70967142D01*
X169407142Y-71038571D01*
X169264285Y-71038571D01*
X169050000Y-70967142D01*
X168907142Y-70824285D01*
X168835714Y-70681428D01*
X168764285Y-70395714D01*
X168764285Y-70181428D01*
X168835714Y-69895714D01*
X168907142Y-69752857D01*
X169050000Y-69610000D01*
X169264285Y-69538571D01*
X169407142Y-69538571D01*
X169621428Y-69610000D01*
X169692857Y-69681428D01*
X170978571Y-70038571D02*
X170978571Y-71038571D01*
X170335714Y-70038571D02*
X170335714Y-70824285D01*
X170407142Y-70967142D01*
X170550000Y-71038571D01*
X170764285Y-71038571D01*
X170907142Y-70967142D01*
X170978571Y-70895714D01*
X171478571Y-70038571D02*
X172050000Y-70038571D01*
X171692857Y-69538571D02*
X171692857Y-70824285D01*
X171764285Y-70967142D01*
X171907142Y-71038571D01*
X172050000Y-71038571D01*
X173978571Y-69538571D02*
X174264285Y-69538571D01*
X174407142Y-69610000D01*
X174550000Y-69752857D01*
X174621428Y-70038571D01*
X174621428Y-70538571D01*
X174550000Y-70824285D01*
X174407142Y-70967142D01*
X174264285Y-71038571D01*
X173978571Y-71038571D01*
X173835714Y-70967142D01*
X173692857Y-70824285D01*
X173621428Y-70538571D01*
X173621428Y-70038571D01*
X173692857Y-69752857D01*
X173835714Y-69610000D01*
X173978571Y-69538571D01*
X175907142Y-70038571D02*
X175907142Y-71038571D01*
X175264285Y-70038571D02*
X175264285Y-70824285D01*
X175335714Y-70967142D01*
X175478571Y-71038571D01*
X175692857Y-71038571D01*
X175835714Y-70967142D01*
X175907142Y-70895714D01*
X176407142Y-70038571D02*
X176978571Y-70038571D01*
X176621428Y-69538571D02*
X176621428Y-70824285D01*
X176692857Y-70967142D01*
X176835714Y-71038571D01*
X176978571Y-71038571D01*
X139692857Y-70895714D02*
X139621428Y-70967142D01*
X139407142Y-71038571D01*
X139264285Y-71038571D01*
X139050000Y-70967142D01*
X138907142Y-70824285D01*
X138835714Y-70681428D01*
X138764285Y-70395714D01*
X138764285Y-70181428D01*
X138835714Y-69895714D01*
X138907142Y-69752857D01*
X139050000Y-69610000D01*
X139264285Y-69538571D01*
X139407142Y-69538571D01*
X139621428Y-69610000D01*
X139692857Y-69681428D01*
X140978571Y-70038571D02*
X140978571Y-71038571D01*
X140335714Y-70038571D02*
X140335714Y-70824285D01*
X140407142Y-70967142D01*
X140550000Y-71038571D01*
X140764285Y-71038571D01*
X140907142Y-70967142D01*
X140978571Y-70895714D01*
X141478571Y-70038571D02*
X142050000Y-70038571D01*
X141692857Y-69538571D02*
X141692857Y-70824285D01*
X141764285Y-70967142D01*
X141907142Y-71038571D01*
X142050000Y-71038571D01*
X143978571Y-69538571D02*
X144264285Y-69538571D01*
X144407142Y-69610000D01*
X144550000Y-69752857D01*
X144621428Y-70038571D01*
X144621428Y-70538571D01*
X144550000Y-70824285D01*
X144407142Y-70967142D01*
X144264285Y-71038571D01*
X143978571Y-71038571D01*
X143835714Y-70967142D01*
X143692857Y-70824285D01*
X143621428Y-70538571D01*
X143621428Y-70038571D01*
X143692857Y-69752857D01*
X143835714Y-69610000D01*
X143978571Y-69538571D01*
X145907142Y-70038571D02*
X145907142Y-71038571D01*
X145264285Y-70038571D02*
X145264285Y-70824285D01*
X145335714Y-70967142D01*
X145478571Y-71038571D01*
X145692857Y-71038571D01*
X145835714Y-70967142D01*
X145907142Y-70895714D01*
X146407142Y-70038571D02*
X146978571Y-70038571D01*
X146621428Y-69538571D02*
X146621428Y-70824285D01*
X146692857Y-70967142D01*
X146835714Y-71038571D01*
X146978571Y-71038571D01*
X109692857Y-70895714D02*
X109621428Y-70967142D01*
X109407142Y-71038571D01*
X109264285Y-71038571D01*
X109050000Y-70967142D01*
X108907142Y-70824285D01*
X108835714Y-70681428D01*
X108764285Y-70395714D01*
X108764285Y-70181428D01*
X108835714Y-69895714D01*
X108907142Y-69752857D01*
X109050000Y-69610000D01*
X109264285Y-69538571D01*
X109407142Y-69538571D01*
X109621428Y-69610000D01*
X109692857Y-69681428D01*
X110978571Y-70038571D02*
X110978571Y-71038571D01*
X110335714Y-70038571D02*
X110335714Y-70824285D01*
X110407142Y-70967142D01*
X110550000Y-71038571D01*
X110764285Y-71038571D01*
X110907142Y-70967142D01*
X110978571Y-70895714D01*
X111478571Y-70038571D02*
X112050000Y-70038571D01*
X111692857Y-69538571D02*
X111692857Y-70824285D01*
X111764285Y-70967142D01*
X111907142Y-71038571D01*
X112050000Y-71038571D01*
X113978571Y-69538571D02*
X114264285Y-69538571D01*
X114407142Y-69610000D01*
X114550000Y-69752857D01*
X114621428Y-70038571D01*
X114621428Y-70538571D01*
X114550000Y-70824285D01*
X114407142Y-70967142D01*
X114264285Y-71038571D01*
X113978571Y-71038571D01*
X113835714Y-70967142D01*
X113692857Y-70824285D01*
X113621428Y-70538571D01*
X113621428Y-70038571D01*
X113692857Y-69752857D01*
X113835714Y-69610000D01*
X113978571Y-69538571D01*
X115907142Y-70038571D02*
X115907142Y-71038571D01*
X115264285Y-70038571D02*
X115264285Y-70824285D01*
X115335714Y-70967142D01*
X115478571Y-71038571D01*
X115692857Y-71038571D01*
X115835714Y-70967142D01*
X115907142Y-70895714D01*
X116407142Y-70038571D02*
X116978571Y-70038571D01*
X116621428Y-69538571D02*
X116621428Y-70824285D01*
X116692857Y-70967142D01*
X116835714Y-71038571D01*
X116978571Y-71038571D01*
X169692857Y-91435714D02*
X169621428Y-91507142D01*
X169407142Y-91578571D01*
X169264285Y-91578571D01*
X169050000Y-91507142D01*
X168907142Y-91364285D01*
X168835714Y-91221428D01*
X168764285Y-90935714D01*
X168764285Y-90721428D01*
X168835714Y-90435714D01*
X168907142Y-90292857D01*
X169050000Y-90150000D01*
X169264285Y-90078571D01*
X169407142Y-90078571D01*
X169621428Y-90150000D01*
X169692857Y-90221428D01*
X170978571Y-90578571D02*
X170978571Y-91578571D01*
X170335714Y-90578571D02*
X170335714Y-91364285D01*
X170407142Y-91507142D01*
X170550000Y-91578571D01*
X170764285Y-91578571D01*
X170907142Y-91507142D01*
X170978571Y-91435714D01*
X171478571Y-90578571D02*
X172050000Y-90578571D01*
X171692857Y-90078571D02*
X171692857Y-91364285D01*
X171764285Y-91507142D01*
X171907142Y-91578571D01*
X172050000Y-91578571D01*
X173978571Y-90078571D02*
X174264285Y-90078571D01*
X174407142Y-90150000D01*
X174550000Y-90292857D01*
X174621428Y-90578571D01*
X174621428Y-91078571D01*
X174550000Y-91364285D01*
X174407142Y-91507142D01*
X174264285Y-91578571D01*
X173978571Y-91578571D01*
X173835714Y-91507142D01*
X173692857Y-91364285D01*
X173621428Y-91078571D01*
X173621428Y-90578571D01*
X173692857Y-90292857D01*
X173835714Y-90150000D01*
X173978571Y-90078571D01*
X175907142Y-90578571D02*
X175907142Y-91578571D01*
X175264285Y-90578571D02*
X175264285Y-91364285D01*
X175335714Y-91507142D01*
X175478571Y-91578571D01*
X175692857Y-91578571D01*
X175835714Y-91507142D01*
X175907142Y-91435714D01*
X176407142Y-90578571D02*
X176978571Y-90578571D01*
X176621428Y-90078571D02*
X176621428Y-91364285D01*
X176692857Y-91507142D01*
X176835714Y-91578571D01*
X176978571Y-91578571D01*
X139692857Y-91435714D02*
X139621428Y-91507142D01*
X139407142Y-91578571D01*
X139264285Y-91578571D01*
X139050000Y-91507142D01*
X138907142Y-91364285D01*
X138835714Y-91221428D01*
X138764285Y-90935714D01*
X138764285Y-90721428D01*
X138835714Y-90435714D01*
X138907142Y-90292857D01*
X139050000Y-90150000D01*
X139264285Y-90078571D01*
X139407142Y-90078571D01*
X139621428Y-90150000D01*
X139692857Y-90221428D01*
X140978571Y-90578571D02*
X140978571Y-91578571D01*
X140335714Y-90578571D02*
X140335714Y-91364285D01*
X140407142Y-91507142D01*
X140550000Y-91578571D01*
X140764285Y-91578571D01*
X140907142Y-91507142D01*
X140978571Y-91435714D01*
X141478571Y-90578571D02*
X142050000Y-90578571D01*
X141692857Y-90078571D02*
X141692857Y-91364285D01*
X141764285Y-91507142D01*
X141907142Y-91578571D01*
X142050000Y-91578571D01*
X143978571Y-90078571D02*
X144264285Y-90078571D01*
X144407142Y-90150000D01*
X144550000Y-90292857D01*
X144621428Y-90578571D01*
X144621428Y-91078571D01*
X144550000Y-91364285D01*
X144407142Y-91507142D01*
X144264285Y-91578571D01*
X143978571Y-91578571D01*
X143835714Y-91507142D01*
X143692857Y-91364285D01*
X143621428Y-91078571D01*
X143621428Y-90578571D01*
X143692857Y-90292857D01*
X143835714Y-90150000D01*
X143978571Y-90078571D01*
X145907142Y-90578571D02*
X145907142Y-91578571D01*
X145264285Y-90578571D02*
X145264285Y-91364285D01*
X145335714Y-91507142D01*
X145478571Y-91578571D01*
X145692857Y-91578571D01*
X145835714Y-91507142D01*
X145907142Y-91435714D01*
X146407142Y-90578571D02*
X146978571Y-90578571D01*
X146621428Y-90078571D02*
X146621428Y-91364285D01*
X146692857Y-91507142D01*
X146835714Y-91578571D01*
X146978571Y-91578571D01*
D11*
X183226190Y-34799047D02*
X183226190Y-34513333D01*
X183726190Y-34656190D02*
X183226190Y-34656190D01*
X183226190Y-34394285D02*
X183726190Y-34060952D01*
X183226190Y-34060952D02*
X183726190Y-34394285D01*
X183726190Y-33608571D02*
X183726190Y-33894285D01*
X183726190Y-33751428D02*
X183226190Y-33751428D01*
X183297619Y-33799047D01*
X183345238Y-33846666D01*
X183369047Y-33894285D01*
X153226190Y-34799047D02*
X153226190Y-34513333D01*
X153726190Y-34656190D02*
X153226190Y-34656190D01*
X153226190Y-34394285D02*
X153726190Y-34060952D01*
X153226190Y-34060952D02*
X153726190Y-34394285D01*
X153726190Y-33608571D02*
X153726190Y-33894285D01*
X153726190Y-33751428D02*
X153226190Y-33751428D01*
X153297619Y-33799047D01*
X153345238Y-33846666D01*
X153369047Y-33894285D01*
X123226190Y-34799047D02*
X123226190Y-34513333D01*
X123726190Y-34656190D02*
X123226190Y-34656190D01*
X123226190Y-34394285D02*
X123726190Y-34060952D01*
X123226190Y-34060952D02*
X123726190Y-34394285D01*
X123726190Y-33608571D02*
X123726190Y-33894285D01*
X123726190Y-33751428D02*
X123226190Y-33751428D01*
X123297619Y-33799047D01*
X123345238Y-33846666D01*
X123369047Y-33894285D01*
X183226190Y-55339047D02*
X183226190Y-55053333D01*
X183726190Y-55196190D02*
X183226190Y-55196190D01*
X183226190Y-54934285D02*
X183726190Y-54600952D01*
X183226190Y-54600952D02*
X183726190Y-54934285D01*
X183726190Y-54148571D02*
X183726190Y-54434285D01*
X183726190Y-54291428D02*
X183226190Y-54291428D01*
X183297619Y-54339047D01*
X183345238Y-54386666D01*
X183369047Y-54434285D01*
X153226190Y-55339047D02*
X153226190Y-55053333D01*
X153726190Y-55196190D02*
X153226190Y-55196190D01*
X153226190Y-54934285D02*
X153726190Y-54600952D01*
X153226190Y-54600952D02*
X153726190Y-54934285D01*
X153726190Y-54148571D02*
X153726190Y-54434285D01*
X153726190Y-54291428D02*
X153226190Y-54291428D01*
X153297619Y-54339047D01*
X153345238Y-54386666D01*
X153369047Y-54434285D01*
X123226190Y-55339047D02*
X123226190Y-55053333D01*
X123726190Y-55196190D02*
X123226190Y-55196190D01*
X123226190Y-54934285D02*
X123726190Y-54600952D01*
X123226190Y-54600952D02*
X123726190Y-54934285D01*
X123726190Y-54148571D02*
X123726190Y-54434285D01*
X123726190Y-54291428D02*
X123226190Y-54291428D01*
X123297619Y-54339047D01*
X123345238Y-54386666D01*
X123369047Y-54434285D01*
X183226190Y-75879047D02*
X183226190Y-75593333D01*
X183726190Y-75736190D02*
X183226190Y-75736190D01*
X183226190Y-75474285D02*
X183726190Y-75140952D01*
X183226190Y-75140952D02*
X183726190Y-75474285D01*
X183726190Y-74688571D02*
X183726190Y-74974285D01*
X183726190Y-74831428D02*
X183226190Y-74831428D01*
X183297619Y-74879047D01*
X183345238Y-74926666D01*
X183369047Y-74974285D01*
X153226190Y-75879047D02*
X153226190Y-75593333D01*
X153726190Y-75736190D02*
X153226190Y-75736190D01*
X153226190Y-75474285D02*
X153726190Y-75140952D01*
X153226190Y-75140952D02*
X153726190Y-75474285D01*
X153726190Y-74688571D02*
X153726190Y-74974285D01*
X153726190Y-74831428D02*
X153226190Y-74831428D01*
X153297619Y-74879047D01*
X153345238Y-74926666D01*
X153369047Y-74974285D01*
X123226190Y-75879047D02*
X123226190Y-75593333D01*
X123726190Y-75736190D02*
X123226190Y-75736190D01*
X123226190Y-75474285D02*
X123726190Y-75140952D01*
X123226190Y-75140952D02*
X123726190Y-75474285D01*
X123726190Y-74688571D02*
X123726190Y-74974285D01*
X123726190Y-74831428D02*
X123226190Y-74831428D01*
X123297619Y-74879047D01*
X123345238Y-74926666D01*
X123369047Y-74974285D01*
X183226190Y-96419047D02*
X183226190Y-96133333D01*
X183726190Y-96276190D02*
X183226190Y-96276190D01*
X183226190Y-96014285D02*
X183726190Y-95680952D01*
X183226190Y-95680952D02*
X183726190Y-96014285D01*
X183726190Y-95228571D02*
X183726190Y-95514285D01*
X183726190Y-95371428D02*
X183226190Y-95371428D01*
X183297619Y-95419047D01*
X183345238Y-95466666D01*
X183369047Y-95514285D01*
X153226190Y-96419047D02*
X153226190Y-96133333D01*
X153726190Y-96276190D02*
X153226190Y-96276190D01*
X153226190Y-96014285D02*
X153726190Y-95680952D01*
X153226190Y-95680952D02*
X153726190Y-96014285D01*
X153726190Y-95228571D02*
X153726190Y-95514285D01*
X153726190Y-95371428D02*
X153226190Y-95371428D01*
X153297619Y-95419047D01*
X153345238Y-95466666D01*
X153369047Y-95514285D01*
X162026190Y-27877619D02*
X162526190Y-27710952D01*
X162026190Y-27544285D01*
X162026190Y-27282380D02*
X162026190Y-27187142D01*
X162050000Y-27139523D01*
X162097619Y-27091904D01*
X162192857Y-27068095D01*
X162359523Y-27068095D01*
X162454761Y-27091904D01*
X162502380Y-27139523D01*
X162526190Y-27187142D01*
X162526190Y-27282380D01*
X162502380Y-27330000D01*
X162454761Y-27377619D01*
X162359523Y-27401428D01*
X162192857Y-27401428D01*
X162097619Y-27377619D01*
X162050000Y-27330000D01*
X162026190Y-27282380D01*
X162192857Y-26639523D02*
X162526190Y-26639523D01*
X162192857Y-26853809D02*
X162454761Y-26853809D01*
X162502380Y-26830000D01*
X162526190Y-26782380D01*
X162526190Y-26710952D01*
X162502380Y-26663333D01*
X162478571Y-26639523D01*
X162192857Y-26472857D02*
X162192857Y-26282380D01*
X162026190Y-26401428D02*
X162454761Y-26401428D01*
X162502380Y-26377619D01*
X162526190Y-26330000D01*
X162526190Y-26282380D01*
X132026190Y-27877619D02*
X132526190Y-27710952D01*
X132026190Y-27544285D01*
X132026190Y-27282380D02*
X132026190Y-27187142D01*
X132050000Y-27139523D01*
X132097619Y-27091904D01*
X132192857Y-27068095D01*
X132359523Y-27068095D01*
X132454761Y-27091904D01*
X132502380Y-27139523D01*
X132526190Y-27187142D01*
X132526190Y-27282380D01*
X132502380Y-27330000D01*
X132454761Y-27377619D01*
X132359523Y-27401428D01*
X132192857Y-27401428D01*
X132097619Y-27377619D01*
X132050000Y-27330000D01*
X132026190Y-27282380D01*
X132192857Y-26639523D02*
X132526190Y-26639523D01*
X132192857Y-26853809D02*
X132454761Y-26853809D01*
X132502380Y-26830000D01*
X132526190Y-26782380D01*
X132526190Y-26710952D01*
X132502380Y-26663333D01*
X132478571Y-26639523D01*
X132192857Y-26472857D02*
X132192857Y-26282380D01*
X132026190Y-26401428D02*
X132454761Y-26401428D01*
X132502380Y-26377619D01*
X132526190Y-26330000D01*
X132526190Y-26282380D01*
X102026190Y-27877619D02*
X102526190Y-27710952D01*
X102026190Y-27544285D01*
X102026190Y-27282380D02*
X102026190Y-27187142D01*
X102050000Y-27139523D01*
X102097619Y-27091904D01*
X102192857Y-27068095D01*
X102359523Y-27068095D01*
X102454761Y-27091904D01*
X102502380Y-27139523D01*
X102526190Y-27187142D01*
X102526190Y-27282380D01*
X102502380Y-27330000D01*
X102454761Y-27377619D01*
X102359523Y-27401428D01*
X102192857Y-27401428D01*
X102097619Y-27377619D01*
X102050000Y-27330000D01*
X102026190Y-27282380D01*
X102192857Y-26639523D02*
X102526190Y-26639523D01*
X102192857Y-26853809D02*
X102454761Y-26853809D01*
X102502380Y-26830000D01*
X102526190Y-26782380D01*
X102526190Y-26710952D01*
X102502380Y-26663333D01*
X102478571Y-26639523D01*
X102192857Y-26472857D02*
X102192857Y-26282380D01*
X102026190Y-26401428D02*
X102454761Y-26401428D01*
X102502380Y-26377619D01*
X102526190Y-26330000D01*
X102526190Y-26282380D01*
X162026190Y-48417619D02*
X162526190Y-48250952D01*
X162026190Y-48084285D01*
X162026190Y-47822380D02*
X162026190Y-47727142D01*
X162050000Y-47679523D01*
X162097619Y-47631904D01*
X162192857Y-47608095D01*
X162359523Y-47608095D01*
X162454761Y-47631904D01*
X162502380Y-47679523D01*
X162526190Y-47727142D01*
X162526190Y-47822380D01*
X162502380Y-47870000D01*
X162454761Y-47917619D01*
X162359523Y-47941428D01*
X162192857Y-47941428D01*
X162097619Y-47917619D01*
X162050000Y-47870000D01*
X162026190Y-47822380D01*
X162192857Y-47179523D02*
X162526190Y-47179523D01*
X162192857Y-47393809D02*
X162454761Y-47393809D01*
X162502380Y-47370000D01*
X162526190Y-47322380D01*
X162526190Y-47250952D01*
X162502380Y-47203333D01*
X162478571Y-47179523D01*
X162192857Y-47012857D02*
X162192857Y-46822380D01*
X162026190Y-46941428D02*
X162454761Y-46941428D01*
X162502380Y-46917619D01*
X162526190Y-46870000D01*
X162526190Y-46822380D01*
X132026190Y-48417619D02*
X132526190Y-48250952D01*
X132026190Y-48084285D01*
X132026190Y-47822380D02*
X132026190Y-47727142D01*
X132050000Y-47679523D01*
X132097619Y-47631904D01*
X132192857Y-47608095D01*
X132359523Y-47608095D01*
X132454761Y-47631904D01*
X132502380Y-47679523D01*
X132526190Y-47727142D01*
X132526190Y-47822380D01*
X132502380Y-47870000D01*
X132454761Y-47917619D01*
X132359523Y-47941428D01*
X132192857Y-47941428D01*
X132097619Y-47917619D01*
X132050000Y-47870000D01*
X132026190Y-47822380D01*
X132192857Y-47179523D02*
X132526190Y-47179523D01*
X132192857Y-47393809D02*
X132454761Y-47393809D01*
X132502380Y-47370000D01*
X132526190Y-47322380D01*
X132526190Y-47250952D01*
X132502380Y-47203333D01*
X132478571Y-47179523D01*
X132192857Y-47012857D02*
X132192857Y-46822380D01*
X132026190Y-46941428D02*
X132454761Y-46941428D01*
X132502380Y-46917619D01*
X132526190Y-46870000D01*
X132526190Y-46822380D01*
X102026190Y-48417619D02*
X102526190Y-48250952D01*
X102026190Y-48084285D01*
X102026190Y-47822380D02*
X102026190Y-47727142D01*
X102050000Y-47679523D01*
X102097619Y-47631904D01*
X102192857Y-47608095D01*
X102359523Y-47608095D01*
X102454761Y-47631904D01*
X102502380Y-47679523D01*
X102526190Y-47727142D01*
X102526190Y-47822380D01*
X102502380Y-47870000D01*
X102454761Y-47917619D01*
X102359523Y-47941428D01*
X102192857Y-47941428D01*
X102097619Y-47917619D01*
X102050000Y-47870000D01*
X102026190Y-47822380D01*
X102192857Y-47179523D02*
X102526190Y-47179523D01*
X102192857Y-47393809D02*
X102454761Y-47393809D01*
X102502380Y-47370000D01*
X102526190Y-47322380D01*
X102526190Y-47250952D01*
X102502380Y-47203333D01*
X102478571Y-47179523D01*
X102192857Y-47012857D02*
X102192857Y-46822380D01*
X102026190Y-46941428D02*
X102454761Y-46941428D01*
X102502380Y-46917619D01*
X102526190Y-46870000D01*
X102526190Y-46822380D01*
X162026190Y-68957619D02*
X162526190Y-68790952D01*
X162026190Y-68624285D01*
X162026190Y-68362380D02*
X162026190Y-68267142D01*
X162050000Y-68219523D01*
X162097619Y-68171904D01*
X162192857Y-68148095D01*
X162359523Y-68148095D01*
X162454761Y-68171904D01*
X162502380Y-68219523D01*
X162526190Y-68267142D01*
X162526190Y-68362380D01*
X162502380Y-68410000D01*
X162454761Y-68457619D01*
X162359523Y-68481428D01*
X162192857Y-68481428D01*
X162097619Y-68457619D01*
X162050000Y-68410000D01*
X162026190Y-68362380D01*
X162192857Y-67719523D02*
X162526190Y-67719523D01*
X162192857Y-67933809D02*
X162454761Y-67933809D01*
X162502380Y-67910000D01*
X162526190Y-67862380D01*
X162526190Y-67790952D01*
X162502380Y-67743333D01*
X162478571Y-67719523D01*
X162192857Y-67552857D02*
X162192857Y-67362380D01*
X162026190Y-67481428D02*
X162454761Y-67481428D01*
X162502380Y-67457619D01*
X162526190Y-67410000D01*
X162526190Y-67362380D01*
X132026190Y-68957619D02*
X132526190Y-68790952D01*
X132026190Y-68624285D01*
X132026190Y-68362380D02*
X132026190Y-68267142D01*
X132050000Y-68219523D01*
X132097619Y-68171904D01*
X132192857Y-68148095D01*
X132359523Y-68148095D01*
X132454761Y-68171904D01*
X132502380Y-68219523D01*
X132526190Y-68267142D01*
X132526190Y-68362380D01*
X132502380Y-68410000D01*
X132454761Y-68457619D01*
X132359523Y-68481428D01*
X132192857Y-68481428D01*
X132097619Y-68457619D01*
X132050000Y-68410000D01*
X132026190Y-68362380D01*
X132192857Y-67719523D02*
X132526190Y-67719523D01*
X132192857Y-67933809D02*
X132454761Y-67933809D01*
X132502380Y-67910000D01*
X132526190Y-67862380D01*
X132526190Y-67790952D01*
X132502380Y-67743333D01*
X132478571Y-67719523D01*
X132192857Y-67552857D02*
X132192857Y-67362380D01*
X132026190Y-67481428D02*
X132454761Y-67481428D01*
X132502380Y-67457619D01*
X132526190Y-67410000D01*
X132526190Y-67362380D01*
X102026190Y-68957619D02*
X102526190Y-68790952D01*
X102026190Y-68624285D01*
X102026190Y-68362380D02*
X102026190Y-68267142D01*
X102050000Y-68219523D01*
X102097619Y-68171904D01*
X102192857Y-68148095D01*
X102359523Y-68148095D01*
X102454761Y-68171904D01*
X102502380Y-68219523D01*
X102526190Y-68267142D01*
X102526190Y-68362380D01*
X102502380Y-68410000D01*
X102454761Y-68457619D01*
X102359523Y-68481428D01*
X102192857Y-68481428D01*
X102097619Y-68457619D01*
X102050000Y-68410000D01*
X102026190Y-68362380D01*
X102192857Y-67719523D02*
X102526190Y-67719523D01*
X102192857Y-67933809D02*
X102454761Y-67933809D01*
X102502380Y-67910000D01*
X102526190Y-67862380D01*
X102526190Y-67790952D01*
X102502380Y-67743333D01*
X102478571Y-67719523D01*
X102192857Y-67552857D02*
X102192857Y-67362380D01*
X102026190Y-67481428D02*
X102454761Y-67481428D01*
X102502380Y-67457619D01*
X102526190Y-67410000D01*
X102526190Y-67362380D01*
X162026190Y-89497619D02*
X162526190Y-89330952D01*
X162026190Y-89164285D01*
X162026190Y-88902380D02*
X162026190Y-88807142D01*
X162050000Y-88759523D01*
X162097619Y-88711904D01*
X162192857Y-88688095D01*
X162359523Y-88688095D01*
X162454761Y-88711904D01*
X162502380Y-88759523D01*
X162526190Y-88807142D01*
X162526190Y-88902380D01*
X162502380Y-88950000D01*
X162454761Y-88997619D01*
X162359523Y-89021428D01*
X162192857Y-89021428D01*
X162097619Y-88997619D01*
X162050000Y-88950000D01*
X162026190Y-88902380D01*
X162192857Y-88259523D02*
X162526190Y-88259523D01*
X162192857Y-88473809D02*
X162454761Y-88473809D01*
X162502380Y-88450000D01*
X162526190Y-88402380D01*
X162526190Y-88330952D01*
X162502380Y-88283333D01*
X162478571Y-88259523D01*
X162192857Y-88092857D02*
X162192857Y-87902380D01*
X162026190Y-88021428D02*
X162454761Y-88021428D01*
X162502380Y-87997619D01*
X162526190Y-87950000D01*
X162526190Y-87902380D01*
X132026190Y-89497619D02*
X132526190Y-89330952D01*
X132026190Y-89164285D01*
X132026190Y-88902380D02*
X132026190Y-88807142D01*
X132050000Y-88759523D01*
X132097619Y-88711904D01*
X132192857Y-88688095D01*
X132359523Y-88688095D01*
X132454761Y-88711904D01*
X132502380Y-88759523D01*
X132526190Y-88807142D01*
X132526190Y-88902380D01*
X132502380Y-88950000D01*
X132454761Y-88997619D01*
X132359523Y-89021428D01*
X132192857Y-89021428D01*
X132097619Y-88997619D01*
X132050000Y-88950000D01*
X132026190Y-88902380D01*
X132192857Y-88259523D02*
X132526190Y-88259523D01*
X132192857Y-88473809D02*
X132454761Y-88473809D01*
X132502380Y-88450000D01*
X132526190Y-88402380D01*
X132526190Y-88330952D01*
X132502380Y-88283333D01*
X132478571Y-88259523D01*
X132192857Y-88092857D02*
X132192857Y-87902380D01*
X132026190Y-88021428D02*
X132454761Y-88021428D01*
X132502380Y-87997619D01*
X132526190Y-87950000D01*
X132526190Y-87902380D01*
D12*
X163144047Y-35972857D02*
X163144047Y-36282380D01*
X163453571Y-36313333D01*
X163422619Y-36282380D01*
X163391666Y-36220476D01*
X163391666Y-36065714D01*
X163422619Y-36003809D01*
X163453571Y-35972857D01*
X163515476Y-35941904D01*
X163670238Y-35941904D01*
X163732142Y-35972857D01*
X163763095Y-36003809D01*
X163794047Y-36065714D01*
X163794047Y-36220476D01*
X163763095Y-36282380D01*
X163732142Y-36313333D01*
X163360714Y-35725238D02*
X163794047Y-35570476D01*
X163360714Y-35415714D01*
X133144047Y-35972857D02*
X133144047Y-36282380D01*
X133453571Y-36313333D01*
X133422619Y-36282380D01*
X133391666Y-36220476D01*
X133391666Y-36065714D01*
X133422619Y-36003809D01*
X133453571Y-35972857D01*
X133515476Y-35941904D01*
X133670238Y-35941904D01*
X133732142Y-35972857D01*
X133763095Y-36003809D01*
X133794047Y-36065714D01*
X133794047Y-36220476D01*
X133763095Y-36282380D01*
X133732142Y-36313333D01*
X133360714Y-35725238D02*
X133794047Y-35570476D01*
X133360714Y-35415714D01*
X103144047Y-35972857D02*
X103144047Y-36282380D01*
X103453571Y-36313333D01*
X103422619Y-36282380D01*
X103391666Y-36220476D01*
X103391666Y-36065714D01*
X103422619Y-36003809D01*
X103453571Y-35972857D01*
X103515476Y-35941904D01*
X103670238Y-35941904D01*
X103732142Y-35972857D01*
X103763095Y-36003809D01*
X103794047Y-36065714D01*
X103794047Y-36220476D01*
X103763095Y-36282380D01*
X103732142Y-36313333D01*
X103360714Y-35725238D02*
X103794047Y-35570476D01*
X103360714Y-35415714D01*
X163144047Y-56512857D02*
X163144047Y-56822380D01*
X163453571Y-56853333D01*
X163422619Y-56822380D01*
X163391666Y-56760476D01*
X163391666Y-56605714D01*
X163422619Y-56543809D01*
X163453571Y-56512857D01*
X163515476Y-56481904D01*
X163670238Y-56481904D01*
X163732142Y-56512857D01*
X163763095Y-56543809D01*
X163794047Y-56605714D01*
X163794047Y-56760476D01*
X163763095Y-56822380D01*
X163732142Y-56853333D01*
X163360714Y-56265238D02*
X163794047Y-56110476D01*
X163360714Y-55955714D01*
X133144047Y-56512857D02*
X133144047Y-56822380D01*
X133453571Y-56853333D01*
X133422619Y-56822380D01*
X133391666Y-56760476D01*
X133391666Y-56605714D01*
X133422619Y-56543809D01*
X133453571Y-56512857D01*
X133515476Y-56481904D01*
X133670238Y-56481904D01*
X133732142Y-56512857D01*
X133763095Y-56543809D01*
X133794047Y-56605714D01*
X133794047Y-56760476D01*
X133763095Y-56822380D01*
X133732142Y-56853333D01*
X133360714Y-56265238D02*
X133794047Y-56110476D01*
X133360714Y-55955714D01*
X103144047Y-56512857D02*
X103144047Y-56822380D01*
X103453571Y-56853333D01*
X103422619Y-56822380D01*
X103391666Y-56760476D01*
X103391666Y-56605714D01*
X103422619Y-56543809D01*
X103453571Y-56512857D01*
X103515476Y-56481904D01*
X103670238Y-56481904D01*
X103732142Y-56512857D01*
X103763095Y-56543809D01*
X103794047Y-56605714D01*
X103794047Y-56760476D01*
X103763095Y-56822380D01*
X103732142Y-56853333D01*
X103360714Y-56265238D02*
X103794047Y-56110476D01*
X103360714Y-55955714D01*
X163144047Y-77052857D02*
X163144047Y-77362380D01*
X163453571Y-77393333D01*
X163422619Y-77362380D01*
X163391666Y-77300476D01*
X163391666Y-77145714D01*
X163422619Y-77083809D01*
X163453571Y-77052857D01*
X163515476Y-77021904D01*
X163670238Y-77021904D01*
X163732142Y-77052857D01*
X163763095Y-77083809D01*
X163794047Y-77145714D01*
X163794047Y-77300476D01*
X163763095Y-77362380D01*
X163732142Y-77393333D01*
X163360714Y-76805238D02*
X163794047Y-76650476D01*
X163360714Y-76495714D01*
X133144047Y-77052857D02*
X133144047Y-77362380D01*
X133453571Y-77393333D01*
X133422619Y-77362380D01*
X133391666Y-77300476D01*
X133391666Y-77145714D01*
X133422619Y-77083809D01*
X133453571Y-77052857D01*
X133515476Y-77021904D01*
X133670238Y-77021904D01*
X133732142Y-77052857D01*
X133763095Y-77083809D01*
X133794047Y-77145714D01*
X133794047Y-77300476D01*
X133763095Y-77362380D01*
X133732142Y-77393333D01*
X133360714Y-76805238D02*
X133794047Y-76650476D01*
X133360714Y-76495714D01*
X103144047Y-77052857D02*
X103144047Y-77362380D01*
X103453571Y-77393333D01*
X103422619Y-77362380D01*
X103391666Y-77300476D01*
X103391666Y-77145714D01*
X103422619Y-77083809D01*
X103453571Y-77052857D01*
X103515476Y-77021904D01*
X103670238Y-77021904D01*
X103732142Y-77052857D01*
X103763095Y-77083809D01*
X103794047Y-77145714D01*
X103794047Y-77300476D01*
X103763095Y-77362380D01*
X103732142Y-77393333D01*
X103360714Y-76805238D02*
X103794047Y-76650476D01*
X103360714Y-76495714D01*
X163144047Y-97592857D02*
X163144047Y-97902380D01*
X163453571Y-97933333D01*
X163422619Y-97902380D01*
X163391666Y-97840476D01*
X163391666Y-97685714D01*
X163422619Y-97623809D01*
X163453571Y-97592857D01*
X163515476Y-97561904D01*
X163670238Y-97561904D01*
X163732142Y-97592857D01*
X163763095Y-97623809D01*
X163794047Y-97685714D01*
X163794047Y-97840476D01*
X163763095Y-97902380D01*
X163732142Y-97933333D01*
X163360714Y-97345238D02*
X163794047Y-97190476D01*
X163360714Y-97035714D01*
X133144047Y-97592857D02*
X133144047Y-97902380D01*
X133453571Y-97933333D01*
X133422619Y-97902380D01*
X133391666Y-97840476D01*
X133391666Y-97685714D01*
X133422619Y-97623809D01*
X133453571Y-97592857D01*
X133515476Y-97561904D01*
X133670238Y-97561904D01*
X133732142Y-97592857D01*
X133763095Y-97623809D01*
X133794047Y-97685714D01*
X133794047Y-97840476D01*
X133763095Y-97902380D01*
X133732142Y-97933333D01*
X133360714Y-97345238D02*
X133794047Y-97190476D01*
X133360714Y-97035714D01*
D11*
X161533273Y-25234594D02*
X161981108Y-25446726D01*
X161768976Y-24998891D01*
X161886827Y-24551057D02*
X161933967Y-24503917D01*
X162004678Y-24480346D01*
X162051818Y-24480346D01*
X162122529Y-24503917D01*
X162240380Y-24574627D01*
X162358231Y-24692478D01*
X162428942Y-24810330D01*
X162452512Y-24881040D01*
X162452512Y-24928181D01*
X162428942Y-24998891D01*
X162381801Y-25046032D01*
X162311091Y-25069602D01*
X162263950Y-25069602D01*
X162193240Y-25046032D01*
X162075389Y-24975321D01*
X161957537Y-24857470D01*
X161886827Y-24739619D01*
X161863256Y-24668908D01*
X161863256Y-24621768D01*
X161886827Y-24551057D01*
X162711785Y-24621768D02*
X162758925Y-24621768D01*
X162758925Y-24668908D01*
X162711785Y-24668908D01*
X162711785Y-24621768D01*
X162758925Y-24668908D01*
X162523223Y-24008942D02*
X162523223Y-23961801D01*
X162546793Y-23891091D01*
X162664644Y-23773240D01*
X162735355Y-23749669D01*
X162782495Y-23749669D01*
X162853206Y-23773240D01*
X162900346Y-23820380D01*
X162947487Y-23914661D01*
X162947487Y-24480346D01*
X163253900Y-24173933D01*
X163418891Y-23914661D02*
X163466032Y-23914661D01*
X163466032Y-23961801D01*
X163418891Y-23961801D01*
X163418891Y-23914661D01*
X163466032Y-23961801D01*
X163961007Y-23466827D02*
X163678164Y-23749669D01*
X163819585Y-23608248D02*
X163324610Y-23113273D01*
X163348181Y-23231124D01*
X163348181Y-23325405D01*
X163324610Y-23396116D01*
X131533273Y-25234594D02*
X131981108Y-25446726D01*
X131768976Y-24998891D01*
X131886827Y-24551057D02*
X131933967Y-24503917D01*
X132004678Y-24480346D01*
X132051818Y-24480346D01*
X132122529Y-24503917D01*
X132240380Y-24574627D01*
X132358231Y-24692478D01*
X132428942Y-24810330D01*
X132452512Y-24881040D01*
X132452512Y-24928181D01*
X132428942Y-24998891D01*
X132381801Y-25046032D01*
X132311091Y-25069602D01*
X132263950Y-25069602D01*
X132193240Y-25046032D01*
X132075389Y-24975321D01*
X131957537Y-24857470D01*
X131886827Y-24739619D01*
X131863256Y-24668908D01*
X131863256Y-24621768D01*
X131886827Y-24551057D01*
X132711785Y-24621768D02*
X132758925Y-24621768D01*
X132758925Y-24668908D01*
X132711785Y-24668908D01*
X132711785Y-24621768D01*
X132758925Y-24668908D01*
X132523223Y-24008942D02*
X132523223Y-23961801D01*
X132546793Y-23891091D01*
X132664644Y-23773240D01*
X132735355Y-23749669D01*
X132782495Y-23749669D01*
X132853206Y-23773240D01*
X132900346Y-23820380D01*
X132947487Y-23914661D01*
X132947487Y-24480346D01*
X133253900Y-24173933D01*
X133418891Y-23914661D02*
X133466032Y-23914661D01*
X133466032Y-23961801D01*
X133418891Y-23961801D01*
X133418891Y-23914661D01*
X133466032Y-23961801D01*
X133961007Y-23466827D02*
X133678164Y-23749669D01*
X133819585Y-23608248D02*
X133324610Y-23113273D01*
X133348181Y-23231124D01*
X133348181Y-23325405D01*
X133324610Y-23396116D01*
X101533273Y-25234594D02*
X101981108Y-25446726D01*
X101768976Y-24998891D01*
X101886827Y-24551057D02*
X101933967Y-24503917D01*
X102004678Y-24480346D01*
X102051818Y-24480346D01*
X102122529Y-24503917D01*
X102240380Y-24574627D01*
X102358231Y-24692478D01*
X102428942Y-24810330D01*
X102452512Y-24881040D01*
X102452512Y-24928181D01*
X102428942Y-24998891D01*
X102381801Y-25046032D01*
X102311091Y-25069602D01*
X102263950Y-25069602D01*
X102193240Y-25046032D01*
X102075389Y-24975321D01*
X101957537Y-24857470D01*
X101886827Y-24739619D01*
X101863256Y-24668908D01*
X101863256Y-24621768D01*
X101886827Y-24551057D01*
X102711785Y-24621768D02*
X102758925Y-24621768D01*
X102758925Y-24668908D01*
X102711785Y-24668908D01*
X102711785Y-24621768D01*
X102758925Y-24668908D01*
X102523223Y-24008942D02*
X102523223Y-23961801D01*
X102546793Y-23891091D01*
X102664644Y-23773240D01*
X102735355Y-23749669D01*
X102782495Y-23749669D01*
X102853206Y-23773240D01*
X102900346Y-23820380D01*
X102947487Y-23914661D01*
X102947487Y-24480346D01*
X103253900Y-24173933D01*
X103418891Y-23914661D02*
X103466032Y-23914661D01*
X103466032Y-23961801D01*
X103418891Y-23961801D01*
X103418891Y-23914661D01*
X103466032Y-23961801D01*
X103961007Y-23466827D02*
X103678164Y-23749669D01*
X103819585Y-23608248D02*
X103324610Y-23113273D01*
X103348181Y-23231124D01*
X103348181Y-23325405D01*
X103324610Y-23396116D01*
X161533273Y-45774594D02*
X161981108Y-45986726D01*
X161768976Y-45538891D01*
X161886827Y-45091057D02*
X161933967Y-45043917D01*
X162004678Y-45020346D01*
X162051818Y-45020346D01*
X162122529Y-45043917D01*
X162240380Y-45114627D01*
X162358231Y-45232478D01*
X162428942Y-45350330D01*
X162452512Y-45421040D01*
X162452512Y-45468181D01*
X162428942Y-45538891D01*
X162381801Y-45586032D01*
X162311091Y-45609602D01*
X162263950Y-45609602D01*
X162193240Y-45586032D01*
X162075389Y-45515321D01*
X161957537Y-45397470D01*
X161886827Y-45279619D01*
X161863256Y-45208908D01*
X161863256Y-45161768D01*
X161886827Y-45091057D01*
X162711785Y-45161768D02*
X162758925Y-45161768D01*
X162758925Y-45208908D01*
X162711785Y-45208908D01*
X162711785Y-45161768D01*
X162758925Y-45208908D01*
X162523223Y-44548942D02*
X162523223Y-44501801D01*
X162546793Y-44431091D01*
X162664644Y-44313240D01*
X162735355Y-44289669D01*
X162782495Y-44289669D01*
X162853206Y-44313240D01*
X162900346Y-44360380D01*
X162947487Y-44454661D01*
X162947487Y-45020346D01*
X163253900Y-44713933D01*
X163418891Y-44454661D02*
X163466032Y-44454661D01*
X163466032Y-44501801D01*
X163418891Y-44501801D01*
X163418891Y-44454661D01*
X163466032Y-44501801D01*
X163961007Y-44006827D02*
X163678164Y-44289669D01*
X163819585Y-44148248D02*
X163324610Y-43653273D01*
X163348181Y-43771124D01*
X163348181Y-43865405D01*
X163324610Y-43936116D01*
X131533273Y-45774594D02*
X131981108Y-45986726D01*
X131768976Y-45538891D01*
X131886827Y-45091057D02*
X131933967Y-45043917D01*
X132004678Y-45020346D01*
X132051818Y-45020346D01*
X132122529Y-45043917D01*
X132240380Y-45114627D01*
X132358231Y-45232478D01*
X132428942Y-45350330D01*
X132452512Y-45421040D01*
X132452512Y-45468181D01*
X132428942Y-45538891D01*
X132381801Y-45586032D01*
X132311091Y-45609602D01*
X132263950Y-45609602D01*
X132193240Y-45586032D01*
X132075389Y-45515321D01*
X131957537Y-45397470D01*
X131886827Y-45279619D01*
X131863256Y-45208908D01*
X131863256Y-45161768D01*
X131886827Y-45091057D01*
X132711785Y-45161768D02*
X132758925Y-45161768D01*
X132758925Y-45208908D01*
X132711785Y-45208908D01*
X132711785Y-45161768D01*
X132758925Y-45208908D01*
X132523223Y-44548942D02*
X132523223Y-44501801D01*
X132546793Y-44431091D01*
X132664644Y-44313240D01*
X132735355Y-44289669D01*
X132782495Y-44289669D01*
X132853206Y-44313240D01*
X132900346Y-44360380D01*
X132947487Y-44454661D01*
X132947487Y-45020346D01*
X133253900Y-44713933D01*
X133418891Y-44454661D02*
X133466032Y-44454661D01*
X133466032Y-44501801D01*
X133418891Y-44501801D01*
X133418891Y-44454661D01*
X133466032Y-44501801D01*
X133961007Y-44006827D02*
X133678164Y-44289669D01*
X133819585Y-44148248D02*
X133324610Y-43653273D01*
X133348181Y-43771124D01*
X133348181Y-43865405D01*
X133324610Y-43936116D01*
X101533273Y-45774594D02*
X101981108Y-45986726D01*
X101768976Y-45538891D01*
X101886827Y-45091057D02*
X101933967Y-45043917D01*
X102004678Y-45020346D01*
X102051818Y-45020346D01*
X102122529Y-45043917D01*
X102240380Y-45114627D01*
X102358231Y-45232478D01*
X102428942Y-45350330D01*
X102452512Y-45421040D01*
X102452512Y-45468181D01*
X102428942Y-45538891D01*
X102381801Y-45586032D01*
X102311091Y-45609602D01*
X102263950Y-45609602D01*
X102193240Y-45586032D01*
X102075389Y-45515321D01*
X101957537Y-45397470D01*
X101886827Y-45279619D01*
X101863256Y-45208908D01*
X101863256Y-45161768D01*
X101886827Y-45091057D01*
X102711785Y-45161768D02*
X102758925Y-45161768D01*
X102758925Y-45208908D01*
X102711785Y-45208908D01*
X102711785Y-45161768D01*
X102758925Y-45208908D01*
X102523223Y-44548942D02*
X102523223Y-44501801D01*
X102546793Y-44431091D01*
X102664644Y-44313240D01*
X102735355Y-44289669D01*
X102782495Y-44289669D01*
X102853206Y-44313240D01*
X102900346Y-44360380D01*
X102947487Y-44454661D01*
X102947487Y-45020346D01*
X103253900Y-44713933D01*
X103418891Y-44454661D02*
X103466032Y-44454661D01*
X103466032Y-44501801D01*
X103418891Y-44501801D01*
X103418891Y-44454661D01*
X103466032Y-44501801D01*
X103961007Y-44006827D02*
X103678164Y-44289669D01*
X103819585Y-44148248D02*
X103324610Y-43653273D01*
X103348181Y-43771124D01*
X103348181Y-43865405D01*
X103324610Y-43936116D01*
X161533273Y-66314594D02*
X161981108Y-66526726D01*
X161768976Y-66078891D01*
X161886827Y-65631057D02*
X161933967Y-65583917D01*
X162004678Y-65560346D01*
X162051818Y-65560346D01*
X162122529Y-65583917D01*
X162240380Y-65654627D01*
X162358231Y-65772478D01*
X162428942Y-65890330D01*
X162452512Y-65961040D01*
X162452512Y-66008181D01*
X162428942Y-66078891D01*
X162381801Y-66126032D01*
X162311091Y-66149602D01*
X162263950Y-66149602D01*
X162193240Y-66126032D01*
X162075389Y-66055321D01*
X161957537Y-65937470D01*
X161886827Y-65819619D01*
X161863256Y-65748908D01*
X161863256Y-65701768D01*
X161886827Y-65631057D01*
X162711785Y-65701768D02*
X162758925Y-65701768D01*
X162758925Y-65748908D01*
X162711785Y-65748908D01*
X162711785Y-65701768D01*
X162758925Y-65748908D01*
X162523223Y-65088942D02*
X162523223Y-65041801D01*
X162546793Y-64971091D01*
X162664644Y-64853240D01*
X162735355Y-64829669D01*
X162782495Y-64829669D01*
X162853206Y-64853240D01*
X162900346Y-64900380D01*
X162947487Y-64994661D01*
X162947487Y-65560346D01*
X163253900Y-65253933D01*
X163418891Y-64994661D02*
X163466032Y-64994661D01*
X163466032Y-65041801D01*
X163418891Y-65041801D01*
X163418891Y-64994661D01*
X163466032Y-65041801D01*
X163961007Y-64546827D02*
X163678164Y-64829669D01*
X163819585Y-64688248D02*
X163324610Y-64193273D01*
X163348181Y-64311124D01*
X163348181Y-64405405D01*
X163324610Y-64476116D01*
X131533273Y-66314594D02*
X131981108Y-66526726D01*
X131768976Y-66078891D01*
X131886827Y-65631057D02*
X131933967Y-65583917D01*
X132004678Y-65560346D01*
X132051818Y-65560346D01*
X132122529Y-65583917D01*
X132240380Y-65654627D01*
X132358231Y-65772478D01*
X132428942Y-65890330D01*
X132452512Y-65961040D01*
X132452512Y-66008181D01*
X132428942Y-66078891D01*
X132381801Y-66126032D01*
X132311091Y-66149602D01*
X132263950Y-66149602D01*
X132193240Y-66126032D01*
X132075389Y-66055321D01*
X131957537Y-65937470D01*
X131886827Y-65819619D01*
X131863256Y-65748908D01*
X131863256Y-65701768D01*
X131886827Y-65631057D01*
X132711785Y-65701768D02*
X132758925Y-65701768D01*
X132758925Y-65748908D01*
X132711785Y-65748908D01*
X132711785Y-65701768D01*
X132758925Y-65748908D01*
X132523223Y-65088942D02*
X132523223Y-65041801D01*
X132546793Y-64971091D01*
X132664644Y-64853240D01*
X132735355Y-64829669D01*
X132782495Y-64829669D01*
X132853206Y-64853240D01*
X132900346Y-64900380D01*
X132947487Y-64994661D01*
X132947487Y-65560346D01*
X133253900Y-65253933D01*
X133418891Y-64994661D02*
X133466032Y-64994661D01*
X133466032Y-65041801D01*
X133418891Y-65041801D01*
X133418891Y-64994661D01*
X133466032Y-65041801D01*
X133961007Y-64546827D02*
X133678164Y-64829669D01*
X133819585Y-64688248D02*
X133324610Y-64193273D01*
X133348181Y-64311124D01*
X133348181Y-64405405D01*
X133324610Y-64476116D01*
X101533273Y-66314594D02*
X101981108Y-66526726D01*
X101768976Y-66078891D01*
X101886827Y-65631057D02*
X101933967Y-65583917D01*
X102004678Y-65560346D01*
X102051818Y-65560346D01*
X102122529Y-65583917D01*
X102240380Y-65654627D01*
X102358231Y-65772478D01*
X102428942Y-65890330D01*
X102452512Y-65961040D01*
X102452512Y-66008181D01*
X102428942Y-66078891D01*
X102381801Y-66126032D01*
X102311091Y-66149602D01*
X102263950Y-66149602D01*
X102193240Y-66126032D01*
X102075389Y-66055321D01*
X101957537Y-65937470D01*
X101886827Y-65819619D01*
X101863256Y-65748908D01*
X101863256Y-65701768D01*
X101886827Y-65631057D01*
X102711785Y-65701768D02*
X102758925Y-65701768D01*
X102758925Y-65748908D01*
X102711785Y-65748908D01*
X102711785Y-65701768D01*
X102758925Y-65748908D01*
X102523223Y-65088942D02*
X102523223Y-65041801D01*
X102546793Y-64971091D01*
X102664644Y-64853240D01*
X102735355Y-64829669D01*
X102782495Y-64829669D01*
X102853206Y-64853240D01*
X102900346Y-64900380D01*
X102947487Y-64994661D01*
X102947487Y-65560346D01*
X103253900Y-65253933D01*
X103418891Y-64994661D02*
X103466032Y-64994661D01*
X103466032Y-65041801D01*
X103418891Y-65041801D01*
X103418891Y-64994661D01*
X103466032Y-65041801D01*
X103961007Y-64546827D02*
X103678164Y-64829669D01*
X103819585Y-64688248D02*
X103324610Y-64193273D01*
X103348181Y-64311124D01*
X103348181Y-64405405D01*
X103324610Y-64476116D01*
X161533273Y-86854594D02*
X161981108Y-87066726D01*
X161768976Y-86618891D01*
X161886827Y-86171057D02*
X161933967Y-86123917D01*
X162004678Y-86100346D01*
X162051818Y-86100346D01*
X162122529Y-86123917D01*
X162240380Y-86194627D01*
X162358231Y-86312478D01*
X162428942Y-86430330D01*
X162452512Y-86501040D01*
X162452512Y-86548181D01*
X162428942Y-86618891D01*
X162381801Y-86666032D01*
X162311091Y-86689602D01*
X162263950Y-86689602D01*
X162193240Y-86666032D01*
X162075389Y-86595321D01*
X161957537Y-86477470D01*
X161886827Y-86359619D01*
X161863256Y-86288908D01*
X161863256Y-86241768D01*
X161886827Y-86171057D01*
X162711785Y-86241768D02*
X162758925Y-86241768D01*
X162758925Y-86288908D01*
X162711785Y-86288908D01*
X162711785Y-86241768D01*
X162758925Y-86288908D01*
X162523223Y-85628942D02*
X162523223Y-85581801D01*
X162546793Y-85511091D01*
X162664644Y-85393240D01*
X162735355Y-85369669D01*
X162782495Y-85369669D01*
X162853206Y-85393240D01*
X162900346Y-85440380D01*
X162947487Y-85534661D01*
X162947487Y-86100346D01*
X163253900Y-85793933D01*
X163418891Y-85534661D02*
X163466032Y-85534661D01*
X163466032Y-85581801D01*
X163418891Y-85581801D01*
X163418891Y-85534661D01*
X163466032Y-85581801D01*
X163961007Y-85086827D02*
X163678164Y-85369669D01*
X163819585Y-85228248D02*
X163324610Y-84733273D01*
X163348181Y-84851124D01*
X163348181Y-84945405D01*
X163324610Y-85016116D01*
X131533273Y-86854594D02*
X131981108Y-87066726D01*
X131768976Y-86618891D01*
X131886827Y-86171057D02*
X131933967Y-86123917D01*
X132004678Y-86100346D01*
X132051818Y-86100346D01*
X132122529Y-86123917D01*
X132240380Y-86194627D01*
X132358231Y-86312478D01*
X132428942Y-86430330D01*
X132452512Y-86501040D01*
X132452512Y-86548181D01*
X132428942Y-86618891D01*
X132381801Y-86666032D01*
X132311091Y-86689602D01*
X132263950Y-86689602D01*
X132193240Y-86666032D01*
X132075389Y-86595321D01*
X131957537Y-86477470D01*
X131886827Y-86359619D01*
X131863256Y-86288908D01*
X131863256Y-86241768D01*
X131886827Y-86171057D01*
X132711785Y-86241768D02*
X132758925Y-86241768D01*
X132758925Y-86288908D01*
X132711785Y-86288908D01*
X132711785Y-86241768D01*
X132758925Y-86288908D01*
X132523223Y-85628942D02*
X132523223Y-85581801D01*
X132546793Y-85511091D01*
X132664644Y-85393240D01*
X132735355Y-85369669D01*
X132782495Y-85369669D01*
X132853206Y-85393240D01*
X132900346Y-85440380D01*
X132947487Y-85534661D01*
X132947487Y-86100346D01*
X133253900Y-85793933D01*
X133418891Y-85534661D02*
X133466032Y-85534661D01*
X133466032Y-85581801D01*
X133418891Y-85581801D01*
X133418891Y-85534661D01*
X133466032Y-85581801D01*
X133961007Y-85086827D02*
X133678164Y-85369669D01*
X133819585Y-85228248D02*
X133324610Y-84733273D01*
X133348181Y-84851124D01*
X133348181Y-84945405D01*
X133324610Y-85016116D01*
X160702943Y-25324890D02*
X160207968Y-24829915D01*
X160443671Y-25065618D02*
X160726513Y-24782775D01*
X160985786Y-25042047D02*
X160490811Y-24547073D01*
X161433620Y-24594213D02*
X161174348Y-24334941D01*
X161103637Y-24311370D01*
X161032926Y-24334941D01*
X160938645Y-24429221D01*
X160915075Y-24499932D01*
X161410050Y-24570643D02*
X161386480Y-24641354D01*
X161268629Y-24759205D01*
X161197918Y-24782775D01*
X161127207Y-24759205D01*
X161080067Y-24712064D01*
X161056497Y-24641354D01*
X161080067Y-24570643D01*
X161197918Y-24452792D01*
X161221488Y-24382081D01*
X161292199Y-24075668D02*
X161716463Y-24311370D01*
X161575042Y-23981387D01*
X161905025Y-24122809D01*
X161669322Y-23698544D01*
X162187867Y-23839966D02*
X161692893Y-23344991D01*
X162046446Y-23604264D02*
X162376429Y-23651404D01*
X162046446Y-23321421D02*
X162046446Y-23698544D01*
X162022876Y-23015008D02*
X162682842Y-23344991D01*
X162352859Y-22685025D01*
X163012825Y-23015008D02*
X162682842Y-22685025D01*
X162517851Y-22520033D02*
X162517851Y-22567174D01*
X162564991Y-22567174D01*
X162564991Y-22520033D01*
X162517851Y-22520033D01*
X162564991Y-22567174D01*
X163201387Y-22779306D02*
X163272098Y-22755735D01*
X163366379Y-22661455D01*
X163389949Y-22590744D01*
X163366379Y-22520033D01*
X163342809Y-22496463D01*
X163272098Y-22472893D01*
X163201387Y-22496463D01*
X163130677Y-22567174D01*
X163059966Y-22590744D01*
X162989255Y-22567174D01*
X162965685Y-22543603D01*
X162942115Y-22472893D01*
X162965685Y-22402182D01*
X163036396Y-22331471D01*
X163107106Y-22307901D01*
X163649221Y-22378612D02*
X163319238Y-22048629D01*
X163154247Y-21883637D02*
X163154247Y-21930778D01*
X163201387Y-21930778D01*
X163201387Y-21883637D01*
X163154247Y-21883637D01*
X163201387Y-21930778D01*
X163955634Y-22072199D02*
X163884924Y-22095769D01*
X163837783Y-22095769D01*
X163767073Y-22072199D01*
X163625651Y-21930778D01*
X163602081Y-21860067D01*
X163602081Y-21812926D01*
X163625651Y-21742216D01*
X163696362Y-21671505D01*
X163767073Y-21647935D01*
X163814213Y-21647935D01*
X163884924Y-21671505D01*
X164026345Y-21812926D01*
X164049915Y-21883637D01*
X164049915Y-21930778D01*
X164026345Y-22001488D01*
X163955634Y-22072199D01*
X164002775Y-21365092D02*
X164332758Y-21695075D01*
X164049915Y-21412233D02*
X164049915Y-21365092D01*
X164073486Y-21294381D01*
X164144196Y-21223671D01*
X164214907Y-21200101D01*
X164285618Y-21223671D01*
X164544890Y-21482943D01*
X130702943Y-25324890D02*
X130207968Y-24829915D01*
X130443671Y-25065618D02*
X130726513Y-24782775D01*
X130985786Y-25042047D02*
X130490811Y-24547073D01*
X131433620Y-24594213D02*
X131174348Y-24334941D01*
X131103637Y-24311370D01*
X131032926Y-24334941D01*
X130938645Y-24429221D01*
X130915075Y-24499932D01*
X131410050Y-24570643D02*
X131386480Y-24641354D01*
X131268629Y-24759205D01*
X131197918Y-24782775D01*
X131127207Y-24759205D01*
X131080067Y-24712064D01*
X131056497Y-24641354D01*
X131080067Y-24570643D01*
X131197918Y-24452792D01*
X131221488Y-24382081D01*
X131292199Y-24075668D02*
X131716463Y-24311370D01*
X131575042Y-23981387D01*
X131905025Y-24122809D01*
X131669322Y-23698544D01*
X132187867Y-23839966D02*
X131692893Y-23344991D01*
X132046446Y-23604264D02*
X132376429Y-23651404D01*
X132046446Y-23321421D02*
X132046446Y-23698544D01*
X132022876Y-23015008D02*
X132682842Y-23344991D01*
X132352859Y-22685025D01*
X133012825Y-23015008D02*
X132682842Y-22685025D01*
X132517851Y-22520033D02*
X132517851Y-22567174D01*
X132564991Y-22567174D01*
X132564991Y-22520033D01*
X132517851Y-22520033D01*
X132564991Y-22567174D01*
X133201387Y-22779306D02*
X133272098Y-22755735D01*
X133366379Y-22661455D01*
X133389949Y-22590744D01*
X133366379Y-22520033D01*
X133342809Y-22496463D01*
X133272098Y-22472893D01*
X133201387Y-22496463D01*
X133130677Y-22567174D01*
X133059966Y-22590744D01*
X132989255Y-22567174D01*
X132965685Y-22543603D01*
X132942115Y-22472893D01*
X132965685Y-22402182D01*
X133036396Y-22331471D01*
X133107106Y-22307901D01*
X133649221Y-22378612D02*
X133319238Y-22048629D01*
X133154247Y-21883637D02*
X133154247Y-21930778D01*
X133201387Y-21930778D01*
X133201387Y-21883637D01*
X133154247Y-21883637D01*
X133201387Y-21930778D01*
X133955634Y-22072199D02*
X133884924Y-22095769D01*
X133837783Y-22095769D01*
X133767073Y-22072199D01*
X133625651Y-21930778D01*
X133602081Y-21860067D01*
X133602081Y-21812926D01*
X133625651Y-21742216D01*
X133696362Y-21671505D01*
X133767073Y-21647935D01*
X133814213Y-21647935D01*
X133884924Y-21671505D01*
X134026345Y-21812926D01*
X134049915Y-21883637D01*
X134049915Y-21930778D01*
X134026345Y-22001488D01*
X133955634Y-22072199D01*
X134002775Y-21365092D02*
X134332758Y-21695075D01*
X134049915Y-21412233D02*
X134049915Y-21365092D01*
X134073486Y-21294381D01*
X134144196Y-21223671D01*
X134214907Y-21200101D01*
X134285618Y-21223671D01*
X134544890Y-21482943D01*
X100702943Y-25324890D02*
X100207968Y-24829915D01*
X100443671Y-25065618D02*
X100726513Y-24782775D01*
X100985786Y-25042047D02*
X100490811Y-24547073D01*
X101433620Y-24594213D02*
X101174348Y-24334941D01*
X101103637Y-24311370D01*
X101032926Y-24334941D01*
X100938645Y-24429221D01*
X100915075Y-24499932D01*
X101410050Y-24570643D02*
X101386480Y-24641354D01*
X101268629Y-24759205D01*
X101197918Y-24782775D01*
X101127207Y-24759205D01*
X101080067Y-24712064D01*
X101056497Y-24641354D01*
X101080067Y-24570643D01*
X101197918Y-24452792D01*
X101221488Y-24382081D01*
X101292199Y-24075668D02*
X101716463Y-24311370D01*
X101575042Y-23981387D01*
X101905025Y-24122809D01*
X101669322Y-23698544D01*
X102187867Y-23839966D02*
X101692893Y-23344991D01*
X102046446Y-23604264D02*
X102376429Y-23651404D01*
X102046446Y-23321421D02*
X102046446Y-23698544D01*
X102022876Y-23015008D02*
X102682842Y-23344991D01*
X102352859Y-22685025D01*
X103012825Y-23015008D02*
X102682842Y-22685025D01*
X102517851Y-22520033D02*
X102517851Y-22567174D01*
X102564991Y-22567174D01*
X102564991Y-22520033D01*
X102517851Y-22520033D01*
X102564991Y-22567174D01*
X103201387Y-22779306D02*
X103272098Y-22755735D01*
X103366379Y-22661455D01*
X103389949Y-22590744D01*
X103366379Y-22520033D01*
X103342809Y-22496463D01*
X103272098Y-22472893D01*
X103201387Y-22496463D01*
X103130677Y-22567174D01*
X103059966Y-22590744D01*
X102989255Y-22567174D01*
X102965685Y-22543603D01*
X102942115Y-22472893D01*
X102965685Y-22402182D01*
X103036396Y-22331471D01*
X103107106Y-22307901D01*
X103649221Y-22378612D02*
X103319238Y-22048629D01*
X103154247Y-21883637D02*
X103154247Y-21930778D01*
X103201387Y-21930778D01*
X103201387Y-21883637D01*
X103154247Y-21883637D01*
X103201387Y-21930778D01*
X103955634Y-22072199D02*
X103884924Y-22095769D01*
X103837783Y-22095769D01*
X103767073Y-22072199D01*
X103625651Y-21930778D01*
X103602081Y-21860067D01*
X103602081Y-21812926D01*
X103625651Y-21742216D01*
X103696362Y-21671505D01*
X103767073Y-21647935D01*
X103814213Y-21647935D01*
X103884924Y-21671505D01*
X104026345Y-21812926D01*
X104049915Y-21883637D01*
X104049915Y-21930778D01*
X104026345Y-22001488D01*
X103955634Y-22072199D01*
X104002775Y-21365092D02*
X104332758Y-21695075D01*
X104049915Y-21412233D02*
X104049915Y-21365092D01*
X104073486Y-21294381D01*
X104144196Y-21223671D01*
X104214907Y-21200101D01*
X104285618Y-21223671D01*
X104544890Y-21482943D01*
X160702943Y-45864890D02*
X160207968Y-45369915D01*
X160443671Y-45605618D02*
X160726513Y-45322775D01*
X160985786Y-45582047D02*
X160490811Y-45087073D01*
X161433620Y-45134213D02*
X161174348Y-44874941D01*
X161103637Y-44851370D01*
X161032926Y-44874941D01*
X160938645Y-44969221D01*
X160915075Y-45039932D01*
X161410050Y-45110643D02*
X161386480Y-45181354D01*
X161268629Y-45299205D01*
X161197918Y-45322775D01*
X161127207Y-45299205D01*
X161080067Y-45252064D01*
X161056497Y-45181354D01*
X161080067Y-45110643D01*
X161197918Y-44992792D01*
X161221488Y-44922081D01*
X161292199Y-44615668D02*
X161716463Y-44851370D01*
X161575042Y-44521387D01*
X161905025Y-44662809D01*
X161669322Y-44238544D01*
X162187867Y-44379966D02*
X161692893Y-43884991D01*
X162046446Y-44144264D02*
X162376429Y-44191404D01*
X162046446Y-43861421D02*
X162046446Y-44238544D01*
X162022876Y-43555008D02*
X162682842Y-43884991D01*
X162352859Y-43225025D01*
X163012825Y-43555008D02*
X162682842Y-43225025D01*
X162517851Y-43060033D02*
X162517851Y-43107174D01*
X162564991Y-43107174D01*
X162564991Y-43060033D01*
X162517851Y-43060033D01*
X162564991Y-43107174D01*
X163201387Y-43319306D02*
X163272098Y-43295735D01*
X163366379Y-43201455D01*
X163389949Y-43130744D01*
X163366379Y-43060033D01*
X163342809Y-43036463D01*
X163272098Y-43012893D01*
X163201387Y-43036463D01*
X163130677Y-43107174D01*
X163059966Y-43130744D01*
X162989255Y-43107174D01*
X162965685Y-43083603D01*
X162942115Y-43012893D01*
X162965685Y-42942182D01*
X163036396Y-42871471D01*
X163107106Y-42847901D01*
X163649221Y-42918612D02*
X163319238Y-42588629D01*
X163154247Y-42423637D02*
X163154247Y-42470778D01*
X163201387Y-42470778D01*
X163201387Y-42423637D01*
X163154247Y-42423637D01*
X163201387Y-42470778D01*
X163955634Y-42612199D02*
X163884924Y-42635769D01*
X163837783Y-42635769D01*
X163767073Y-42612199D01*
X163625651Y-42470778D01*
X163602081Y-42400067D01*
X163602081Y-42352926D01*
X163625651Y-42282216D01*
X163696362Y-42211505D01*
X163767073Y-42187935D01*
X163814213Y-42187935D01*
X163884924Y-42211505D01*
X164026345Y-42352926D01*
X164049915Y-42423637D01*
X164049915Y-42470778D01*
X164026345Y-42541488D01*
X163955634Y-42612199D01*
X164002775Y-41905092D02*
X164332758Y-42235075D01*
X164049915Y-41952233D02*
X164049915Y-41905092D01*
X164073486Y-41834381D01*
X164144196Y-41763671D01*
X164214907Y-41740101D01*
X164285618Y-41763671D01*
X164544890Y-42022943D01*
X130702943Y-45864890D02*
X130207968Y-45369915D01*
X130443671Y-45605618D02*
X130726513Y-45322775D01*
X130985786Y-45582047D02*
X130490811Y-45087073D01*
X131433620Y-45134213D02*
X131174348Y-44874941D01*
X131103637Y-44851370D01*
X131032926Y-44874941D01*
X130938645Y-44969221D01*
X130915075Y-45039932D01*
X131410050Y-45110643D02*
X131386480Y-45181354D01*
X131268629Y-45299205D01*
X131197918Y-45322775D01*
X131127207Y-45299205D01*
X131080067Y-45252064D01*
X131056497Y-45181354D01*
X131080067Y-45110643D01*
X131197918Y-44992792D01*
X131221488Y-44922081D01*
X131292199Y-44615668D02*
X131716463Y-44851370D01*
X131575042Y-44521387D01*
X131905025Y-44662809D01*
X131669322Y-44238544D01*
X132187867Y-44379966D02*
X131692893Y-43884991D01*
X132046446Y-44144264D02*
X132376429Y-44191404D01*
X132046446Y-43861421D02*
X132046446Y-44238544D01*
X132022876Y-43555008D02*
X132682842Y-43884991D01*
X132352859Y-43225025D01*
X133012825Y-43555008D02*
X132682842Y-43225025D01*
X132517851Y-43060033D02*
X132517851Y-43107174D01*
X132564991Y-43107174D01*
X132564991Y-43060033D01*
X132517851Y-43060033D01*
X132564991Y-43107174D01*
X133201387Y-43319306D02*
X133272098Y-43295735D01*
X133366379Y-43201455D01*
X133389949Y-43130744D01*
X133366379Y-43060033D01*
X133342809Y-43036463D01*
X133272098Y-43012893D01*
X133201387Y-43036463D01*
X133130677Y-43107174D01*
X133059966Y-43130744D01*
X132989255Y-43107174D01*
X132965685Y-43083603D01*
X132942115Y-43012893D01*
X132965685Y-42942182D01*
X133036396Y-42871471D01*
X133107106Y-42847901D01*
X133649221Y-42918612D02*
X133319238Y-42588629D01*
X133154247Y-42423637D02*
X133154247Y-42470778D01*
X133201387Y-42470778D01*
X133201387Y-42423637D01*
X133154247Y-42423637D01*
X133201387Y-42470778D01*
X133955634Y-42612199D02*
X133884924Y-42635769D01*
X133837783Y-42635769D01*
X133767073Y-42612199D01*
X133625651Y-42470778D01*
X133602081Y-42400067D01*
X133602081Y-42352926D01*
X133625651Y-42282216D01*
X133696362Y-42211505D01*
X133767073Y-42187935D01*
X133814213Y-42187935D01*
X133884924Y-42211505D01*
X134026345Y-42352926D01*
X134049915Y-42423637D01*
X134049915Y-42470778D01*
X134026345Y-42541488D01*
X133955634Y-42612199D01*
X134002775Y-41905092D02*
X134332758Y-42235075D01*
X134049915Y-41952233D02*
X134049915Y-41905092D01*
X134073486Y-41834381D01*
X134144196Y-41763671D01*
X134214907Y-41740101D01*
X134285618Y-41763671D01*
X134544890Y-42022943D01*
X100702943Y-45864890D02*
X100207968Y-45369915D01*
X100443671Y-45605618D02*
X100726513Y-45322775D01*
X100985786Y-45582047D02*
X100490811Y-45087073D01*
X101433620Y-45134213D02*
X101174348Y-44874941D01*
X101103637Y-44851370D01*
X101032926Y-44874941D01*
X100938645Y-44969221D01*
X100915075Y-45039932D01*
X101410050Y-45110643D02*
X101386480Y-45181354D01*
X101268629Y-45299205D01*
X101197918Y-45322775D01*
X101127207Y-45299205D01*
X101080067Y-45252064D01*
X101056497Y-45181354D01*
X101080067Y-45110643D01*
X101197918Y-44992792D01*
X101221488Y-44922081D01*
X101292199Y-44615668D02*
X101716463Y-44851370D01*
X101575042Y-44521387D01*
X101905025Y-44662809D01*
X101669322Y-44238544D01*
X102187867Y-44379966D02*
X101692893Y-43884991D01*
X102046446Y-44144264D02*
X102376429Y-44191404D01*
X102046446Y-43861421D02*
X102046446Y-44238544D01*
X102022876Y-43555008D02*
X102682842Y-43884991D01*
X102352859Y-43225025D01*
X103012825Y-43555008D02*
X102682842Y-43225025D01*
X102517851Y-43060033D02*
X102517851Y-43107174D01*
X102564991Y-43107174D01*
X102564991Y-43060033D01*
X102517851Y-43060033D01*
X102564991Y-43107174D01*
X103201387Y-43319306D02*
X103272098Y-43295735D01*
X103366379Y-43201455D01*
X103389949Y-43130744D01*
X103366379Y-43060033D01*
X103342809Y-43036463D01*
X103272098Y-43012893D01*
X103201387Y-43036463D01*
X103130677Y-43107174D01*
X103059966Y-43130744D01*
X102989255Y-43107174D01*
X102965685Y-43083603D01*
X102942115Y-43012893D01*
X102965685Y-42942182D01*
X103036396Y-42871471D01*
X103107106Y-42847901D01*
X103649221Y-42918612D02*
X103319238Y-42588629D01*
X103154247Y-42423637D02*
X103154247Y-42470778D01*
X103201387Y-42470778D01*
X103201387Y-42423637D01*
X103154247Y-42423637D01*
X103201387Y-42470778D01*
X103955634Y-42612199D02*
X103884924Y-42635769D01*
X103837783Y-42635769D01*
X103767073Y-42612199D01*
X103625651Y-42470778D01*
X103602081Y-42400067D01*
X103602081Y-42352926D01*
X103625651Y-42282216D01*
X103696362Y-42211505D01*
X103767073Y-42187935D01*
X103814213Y-42187935D01*
X103884924Y-42211505D01*
X104026345Y-42352926D01*
X104049915Y-42423637D01*
X104049915Y-42470778D01*
X104026345Y-42541488D01*
X103955634Y-42612199D01*
X104002775Y-41905092D02*
X104332758Y-42235075D01*
X104049915Y-41952233D02*
X104049915Y-41905092D01*
X104073486Y-41834381D01*
X104144196Y-41763671D01*
X104214907Y-41740101D01*
X104285618Y-41763671D01*
X104544890Y-42022943D01*
X160702943Y-66404890D02*
X160207968Y-65909915D01*
X160443671Y-66145618D02*
X160726513Y-65862775D01*
X160985786Y-66122047D02*
X160490811Y-65627073D01*
X161433620Y-65674213D02*
X161174348Y-65414941D01*
X161103637Y-65391370D01*
X161032926Y-65414941D01*
X160938645Y-65509221D01*
X160915075Y-65579932D01*
X161410050Y-65650643D02*
X161386480Y-65721354D01*
X161268629Y-65839205D01*
X161197918Y-65862775D01*
X161127207Y-65839205D01*
X161080067Y-65792064D01*
X161056497Y-65721354D01*
X161080067Y-65650643D01*
X161197918Y-65532792D01*
X161221488Y-65462081D01*
X161292199Y-65155668D02*
X161716463Y-65391370D01*
X161575042Y-65061387D01*
X161905025Y-65202809D01*
X161669322Y-64778544D01*
X162187867Y-64919966D02*
X161692893Y-64424991D01*
X162046446Y-64684264D02*
X162376429Y-64731404D01*
X162046446Y-64401421D02*
X162046446Y-64778544D01*
X162022876Y-64095008D02*
X162682842Y-64424991D01*
X162352859Y-63765025D01*
X163012825Y-64095008D02*
X162682842Y-63765025D01*
X162517851Y-63600033D02*
X162517851Y-63647174D01*
X162564991Y-63647174D01*
X162564991Y-63600033D01*
X162517851Y-63600033D01*
X162564991Y-63647174D01*
X163201387Y-63859306D02*
X163272098Y-63835735D01*
X163366379Y-63741455D01*
X163389949Y-63670744D01*
X163366379Y-63600033D01*
X163342809Y-63576463D01*
X163272098Y-63552893D01*
X163201387Y-63576463D01*
X163130677Y-63647174D01*
X163059966Y-63670744D01*
X162989255Y-63647174D01*
X162965685Y-63623603D01*
X162942115Y-63552893D01*
X162965685Y-63482182D01*
X163036396Y-63411471D01*
X163107106Y-63387901D01*
X163649221Y-63458612D02*
X163319238Y-63128629D01*
X163154247Y-62963637D02*
X163154247Y-63010778D01*
X163201387Y-63010778D01*
X163201387Y-62963637D01*
X163154247Y-62963637D01*
X163201387Y-63010778D01*
X163955634Y-63152199D02*
X163884924Y-63175769D01*
X163837783Y-63175769D01*
X163767073Y-63152199D01*
X163625651Y-63010778D01*
X163602081Y-62940067D01*
X163602081Y-62892926D01*
X163625651Y-62822216D01*
X163696362Y-62751505D01*
X163767073Y-62727935D01*
X163814213Y-62727935D01*
X163884924Y-62751505D01*
X164026345Y-62892926D01*
X164049915Y-62963637D01*
X164049915Y-63010778D01*
X164026345Y-63081488D01*
X163955634Y-63152199D01*
X164002775Y-62445092D02*
X164332758Y-62775075D01*
X164049915Y-62492233D02*
X164049915Y-62445092D01*
X164073486Y-62374381D01*
X164144196Y-62303671D01*
X164214907Y-62280101D01*
X164285618Y-62303671D01*
X164544890Y-62562943D01*
X130702943Y-66404890D02*
X130207968Y-65909915D01*
X130443671Y-66145618D02*
X130726513Y-65862775D01*
X130985786Y-66122047D02*
X130490811Y-65627073D01*
X131433620Y-65674213D02*
X131174348Y-65414941D01*
X131103637Y-65391370D01*
X131032926Y-65414941D01*
X130938645Y-65509221D01*
X130915075Y-65579932D01*
X131410050Y-65650643D02*
X131386480Y-65721354D01*
X131268629Y-65839205D01*
X131197918Y-65862775D01*
X131127207Y-65839205D01*
X131080067Y-65792064D01*
X131056497Y-65721354D01*
X131080067Y-65650643D01*
X131197918Y-65532792D01*
X131221488Y-65462081D01*
X131292199Y-65155668D02*
X131716463Y-65391370D01*
X131575042Y-65061387D01*
X131905025Y-65202809D01*
X131669322Y-64778544D01*
X132187867Y-64919966D02*
X131692893Y-64424991D01*
X132046446Y-64684264D02*
X132376429Y-64731404D01*
X132046446Y-64401421D02*
X132046446Y-64778544D01*
X132022876Y-64095008D02*
X132682842Y-64424991D01*
X132352859Y-63765025D01*
X133012825Y-64095008D02*
X132682842Y-63765025D01*
X132517851Y-63600033D02*
X132517851Y-63647174D01*
X132564991Y-63647174D01*
X132564991Y-63600033D01*
X132517851Y-63600033D01*
X132564991Y-63647174D01*
X133201387Y-63859306D02*
X133272098Y-63835735D01*
X133366379Y-63741455D01*
X133389949Y-63670744D01*
X133366379Y-63600033D01*
X133342809Y-63576463D01*
X133272098Y-63552893D01*
X133201387Y-63576463D01*
X133130677Y-63647174D01*
X133059966Y-63670744D01*
X132989255Y-63647174D01*
X132965685Y-63623603D01*
X132942115Y-63552893D01*
X132965685Y-63482182D01*
X133036396Y-63411471D01*
X133107106Y-63387901D01*
X133649221Y-63458612D02*
X133319238Y-63128629D01*
X133154247Y-62963637D02*
X133154247Y-63010778D01*
X133201387Y-63010778D01*
X133201387Y-62963637D01*
X133154247Y-62963637D01*
X133201387Y-63010778D01*
X133955634Y-63152199D02*
X133884924Y-63175769D01*
X133837783Y-63175769D01*
X133767073Y-63152199D01*
X133625651Y-63010778D01*
X133602081Y-62940067D01*
X133602081Y-62892926D01*
X133625651Y-62822216D01*
X133696362Y-62751505D01*
X133767073Y-62727935D01*
X133814213Y-62727935D01*
X133884924Y-62751505D01*
X134026345Y-62892926D01*
X134049915Y-62963637D01*
X134049915Y-63010778D01*
X134026345Y-63081488D01*
X133955634Y-63152199D01*
X134002775Y-62445092D02*
X134332758Y-62775075D01*
X134049915Y-62492233D02*
X134049915Y-62445092D01*
X134073486Y-62374381D01*
X134144196Y-62303671D01*
X134214907Y-62280101D01*
X134285618Y-62303671D01*
X134544890Y-62562943D01*
X100702943Y-66404890D02*
X100207968Y-65909915D01*
X100443671Y-66145618D02*
X100726513Y-65862775D01*
X100985786Y-66122047D02*
X100490811Y-65627073D01*
X101433620Y-65674213D02*
X101174348Y-65414941D01*
X101103637Y-65391370D01*
X101032926Y-65414941D01*
X100938645Y-65509221D01*
X100915075Y-65579932D01*
X101410050Y-65650643D02*
X101386480Y-65721354D01*
X101268629Y-65839205D01*
X101197918Y-65862775D01*
X101127207Y-65839205D01*
X101080067Y-65792064D01*
X101056497Y-65721354D01*
X101080067Y-65650643D01*
X101197918Y-65532792D01*
X101221488Y-65462081D01*
X101292199Y-65155668D02*
X101716463Y-65391370D01*
X101575042Y-65061387D01*
X101905025Y-65202809D01*
X101669322Y-64778544D01*
X102187867Y-64919966D02*
X101692893Y-64424991D01*
X102046446Y-64684264D02*
X102376429Y-64731404D01*
X102046446Y-64401421D02*
X102046446Y-64778544D01*
X102022876Y-64095008D02*
X102682842Y-64424991D01*
X102352859Y-63765025D01*
X103012825Y-64095008D02*
X102682842Y-63765025D01*
X102517851Y-63600033D02*
X102517851Y-63647174D01*
X102564991Y-63647174D01*
X102564991Y-63600033D01*
X102517851Y-63600033D01*
X102564991Y-63647174D01*
X103201387Y-63859306D02*
X103272098Y-63835735D01*
X103366379Y-63741455D01*
X103389949Y-63670744D01*
X103366379Y-63600033D01*
X103342809Y-63576463D01*
X103272098Y-63552893D01*
X103201387Y-63576463D01*
X103130677Y-63647174D01*
X103059966Y-63670744D01*
X102989255Y-63647174D01*
X102965685Y-63623603D01*
X102942115Y-63552893D01*
X102965685Y-63482182D01*
X103036396Y-63411471D01*
X103107106Y-63387901D01*
X103649221Y-63458612D02*
X103319238Y-63128629D01*
X103154247Y-62963637D02*
X103154247Y-63010778D01*
X103201387Y-63010778D01*
X103201387Y-62963637D01*
X103154247Y-62963637D01*
X103201387Y-63010778D01*
X103955634Y-63152199D02*
X103884924Y-63175769D01*
X103837783Y-63175769D01*
X103767073Y-63152199D01*
X103625651Y-63010778D01*
X103602081Y-62940067D01*
X103602081Y-62892926D01*
X103625651Y-62822216D01*
X103696362Y-62751505D01*
X103767073Y-62727935D01*
X103814213Y-62727935D01*
X103884924Y-62751505D01*
X104026345Y-62892926D01*
X104049915Y-62963637D01*
X104049915Y-63010778D01*
X104026345Y-63081488D01*
X103955634Y-63152199D01*
X104002775Y-62445092D02*
X104332758Y-62775075D01*
X104049915Y-62492233D02*
X104049915Y-62445092D01*
X104073486Y-62374381D01*
X104144196Y-62303671D01*
X104214907Y-62280101D01*
X104285618Y-62303671D01*
X104544890Y-62562943D01*
X160702943Y-86944890D02*
X160207968Y-86449915D01*
X160443671Y-86685618D02*
X160726513Y-86402775D01*
X160985786Y-86662047D02*
X160490811Y-86167073D01*
X161433620Y-86214213D02*
X161174348Y-85954941D01*
X161103637Y-85931370D01*
X161032926Y-85954941D01*
X160938645Y-86049221D01*
X160915075Y-86119932D01*
X161410050Y-86190643D02*
X161386480Y-86261354D01*
X161268629Y-86379205D01*
X161197918Y-86402775D01*
X161127207Y-86379205D01*
X161080067Y-86332064D01*
X161056497Y-86261354D01*
X161080067Y-86190643D01*
X161197918Y-86072792D01*
X161221488Y-86002081D01*
X161292199Y-85695668D02*
X161716463Y-85931370D01*
X161575042Y-85601387D01*
X161905025Y-85742809D01*
X161669322Y-85318544D01*
X162187867Y-85459966D02*
X161692893Y-84964991D01*
X162046446Y-85224264D02*
X162376429Y-85271404D01*
X162046446Y-84941421D02*
X162046446Y-85318544D01*
X162022876Y-84635008D02*
X162682842Y-84964991D01*
X162352859Y-84305025D01*
X163012825Y-84635008D02*
X162682842Y-84305025D01*
X162517851Y-84140033D02*
X162517851Y-84187174D01*
X162564991Y-84187174D01*
X162564991Y-84140033D01*
X162517851Y-84140033D01*
X162564991Y-84187174D01*
X163201387Y-84399306D02*
X163272098Y-84375735D01*
X163366379Y-84281455D01*
X163389949Y-84210744D01*
X163366379Y-84140033D01*
X163342809Y-84116463D01*
X163272098Y-84092893D01*
X163201387Y-84116463D01*
X163130677Y-84187174D01*
X163059966Y-84210744D01*
X162989255Y-84187174D01*
X162965685Y-84163603D01*
X162942115Y-84092893D01*
X162965685Y-84022182D01*
X163036396Y-83951471D01*
X163107106Y-83927901D01*
X163649221Y-83998612D02*
X163319238Y-83668629D01*
X163154247Y-83503637D02*
X163154247Y-83550778D01*
X163201387Y-83550778D01*
X163201387Y-83503637D01*
X163154247Y-83503637D01*
X163201387Y-83550778D01*
X163955634Y-83692199D02*
X163884924Y-83715769D01*
X163837783Y-83715769D01*
X163767073Y-83692199D01*
X163625651Y-83550778D01*
X163602081Y-83480067D01*
X163602081Y-83432926D01*
X163625651Y-83362216D01*
X163696362Y-83291505D01*
X163767073Y-83267935D01*
X163814213Y-83267935D01*
X163884924Y-83291505D01*
X164026345Y-83432926D01*
X164049915Y-83503637D01*
X164049915Y-83550778D01*
X164026345Y-83621488D01*
X163955634Y-83692199D01*
X164002775Y-82985092D02*
X164332758Y-83315075D01*
X164049915Y-83032233D02*
X164049915Y-82985092D01*
X164073486Y-82914381D01*
X164144196Y-82843671D01*
X164214907Y-82820101D01*
X164285618Y-82843671D01*
X164544890Y-83102943D01*
X130702943Y-86944890D02*
X130207968Y-86449915D01*
X130443671Y-86685618D02*
X130726513Y-86402775D01*
X130985786Y-86662047D02*
X130490811Y-86167073D01*
X131433620Y-86214213D02*
X131174348Y-85954941D01*
X131103637Y-85931370D01*
X131032926Y-85954941D01*
X130938645Y-86049221D01*
X130915075Y-86119932D01*
X131410050Y-86190643D02*
X131386480Y-86261354D01*
X131268629Y-86379205D01*
X131197918Y-86402775D01*
X131127207Y-86379205D01*
X131080067Y-86332064D01*
X131056497Y-86261354D01*
X131080067Y-86190643D01*
X131197918Y-86072792D01*
X131221488Y-86002081D01*
X131292199Y-85695668D02*
X131716463Y-85931370D01*
X131575042Y-85601387D01*
X131905025Y-85742809D01*
X131669322Y-85318544D01*
X132187867Y-85459966D02*
X131692893Y-84964991D01*
X132046446Y-85224264D02*
X132376429Y-85271404D01*
X132046446Y-84941421D02*
X132046446Y-85318544D01*
X132022876Y-84635008D02*
X132682842Y-84964991D01*
X132352859Y-84305025D01*
X133012825Y-84635008D02*
X132682842Y-84305025D01*
X132517851Y-84140033D02*
X132517851Y-84187174D01*
X132564991Y-84187174D01*
X132564991Y-84140033D01*
X132517851Y-84140033D01*
X132564991Y-84187174D01*
X133201387Y-84399306D02*
X133272098Y-84375735D01*
X133366379Y-84281455D01*
X133389949Y-84210744D01*
X133366379Y-84140033D01*
X133342809Y-84116463D01*
X133272098Y-84092893D01*
X133201387Y-84116463D01*
X133130677Y-84187174D01*
X133059966Y-84210744D01*
X132989255Y-84187174D01*
X132965685Y-84163603D01*
X132942115Y-84092893D01*
X132965685Y-84022182D01*
X133036396Y-83951471D01*
X133107106Y-83927901D01*
X133649221Y-83998612D02*
X133319238Y-83668629D01*
X133154247Y-83503637D02*
X133154247Y-83550778D01*
X133201387Y-83550778D01*
X133201387Y-83503637D01*
X133154247Y-83503637D01*
X133201387Y-83550778D01*
X133955634Y-83692199D02*
X133884924Y-83715769D01*
X133837783Y-83715769D01*
X133767073Y-83692199D01*
X133625651Y-83550778D01*
X133602081Y-83480067D01*
X133602081Y-83432926D01*
X133625651Y-83362216D01*
X133696362Y-83291505D01*
X133767073Y-83267935D01*
X133814213Y-83267935D01*
X133884924Y-83291505D01*
X134026345Y-83432926D01*
X134049915Y-83503637D01*
X134049915Y-83550778D01*
X134026345Y-83621488D01*
X133955634Y-83692199D01*
X134002775Y-82985092D02*
X134332758Y-83315075D01*
X134049915Y-83032233D02*
X134049915Y-82985092D01*
X134073486Y-82914381D01*
X134144196Y-82843671D01*
X134214907Y-82820101D01*
X134285618Y-82843671D01*
X134544890Y-83102943D01*
D10*
X109692857Y-91435714D02*
X109621428Y-91507142D01*
X109407142Y-91578571D01*
X109264285Y-91578571D01*
X109050000Y-91507142D01*
X108907142Y-91364285D01*
X108835714Y-91221428D01*
X108764285Y-90935714D01*
X108764285Y-90721428D01*
X108835714Y-90435714D01*
X108907142Y-90292857D01*
X109050000Y-90150000D01*
X109264285Y-90078571D01*
X109407142Y-90078571D01*
X109621428Y-90150000D01*
X109692857Y-90221428D01*
X110978571Y-90578571D02*
X110978571Y-91578571D01*
X110335714Y-90578571D02*
X110335714Y-91364285D01*
X110407142Y-91507142D01*
X110550000Y-91578571D01*
X110764285Y-91578571D01*
X110907142Y-91507142D01*
X110978571Y-91435714D01*
X111478571Y-90578571D02*
X112050000Y-90578571D01*
X111692857Y-90078571D02*
X111692857Y-91364285D01*
X111764285Y-91507142D01*
X111907142Y-91578571D01*
X112050000Y-91578571D01*
X113978571Y-90078571D02*
X114264285Y-90078571D01*
X114407142Y-90150000D01*
X114550000Y-90292857D01*
X114621428Y-90578571D01*
X114621428Y-91078571D01*
X114550000Y-91364285D01*
X114407142Y-91507142D01*
X114264285Y-91578571D01*
X113978571Y-91578571D01*
X113835714Y-91507142D01*
X113692857Y-91364285D01*
X113621428Y-91078571D01*
X113621428Y-90578571D01*
X113692857Y-90292857D01*
X113835714Y-90150000D01*
X113978571Y-90078571D01*
X115907142Y-90578571D02*
X115907142Y-91578571D01*
X115264285Y-90578571D02*
X115264285Y-91364285D01*
X115335714Y-91507142D01*
X115478571Y-91578571D01*
X115692857Y-91578571D01*
X115835714Y-91507142D01*
X115907142Y-91435714D01*
X116407142Y-90578571D02*
X116978571Y-90578571D01*
X116621428Y-90078571D02*
X116621428Y-91364285D01*
X116692857Y-91507142D01*
X116835714Y-91578571D01*
X116978571Y-91578571D01*
D11*
X123226190Y-96419047D02*
X123226190Y-96133333D01*
X123726190Y-96276190D02*
X123226190Y-96276190D01*
X123226190Y-96014285D02*
X123726190Y-95680952D01*
X123226190Y-95680952D02*
X123726190Y-96014285D01*
X123726190Y-95228571D02*
X123726190Y-95514285D01*
X123726190Y-95371428D02*
X123226190Y-95371428D01*
X123297619Y-95419047D01*
X123345238Y-95466666D01*
X123369047Y-95514285D01*
X102026190Y-89497619D02*
X102526190Y-89330952D01*
X102026190Y-89164285D01*
X102026190Y-88902380D02*
X102026190Y-88807142D01*
X102050000Y-88759523D01*
X102097619Y-88711904D01*
X102192857Y-88688095D01*
X102359523Y-88688095D01*
X102454761Y-88711904D01*
X102502380Y-88759523D01*
X102526190Y-88807142D01*
X102526190Y-88902380D01*
X102502380Y-88950000D01*
X102454761Y-88997619D01*
X102359523Y-89021428D01*
X102192857Y-89021428D01*
X102097619Y-88997619D01*
X102050000Y-88950000D01*
X102026190Y-88902380D01*
X102192857Y-88259523D02*
X102526190Y-88259523D01*
X102192857Y-88473809D02*
X102454761Y-88473809D01*
X102502380Y-88450000D01*
X102526190Y-88402380D01*
X102526190Y-88330952D01*
X102502380Y-88283333D01*
X102478571Y-88259523D01*
X102192857Y-88092857D02*
X102192857Y-87902380D01*
X102026190Y-88021428D02*
X102454761Y-88021428D01*
X102502380Y-87997619D01*
X102526190Y-87950000D01*
X102526190Y-87902380D01*
D12*
X103144047Y-97592857D02*
X103144047Y-97902380D01*
X103453571Y-97933333D01*
X103422619Y-97902380D01*
X103391666Y-97840476D01*
X103391666Y-97685714D01*
X103422619Y-97623809D01*
X103453571Y-97592857D01*
X103515476Y-97561904D01*
X103670238Y-97561904D01*
X103732142Y-97592857D01*
X103763095Y-97623809D01*
X103794047Y-97685714D01*
X103794047Y-97840476D01*
X103763095Y-97902380D01*
X103732142Y-97933333D01*
X103360714Y-97345238D02*
X103794047Y-97190476D01*
X103360714Y-97035714D01*
D11*
X101533273Y-86854594D02*
X101981108Y-87066726D01*
X101768976Y-86618891D01*
X101886827Y-86171057D02*
X101933967Y-86123917D01*
X102004678Y-86100346D01*
X102051818Y-86100346D01*
X102122529Y-86123917D01*
X102240380Y-86194627D01*
X102358231Y-86312478D01*
X102428942Y-86430330D01*
X102452512Y-86501040D01*
X102452512Y-86548181D01*
X102428942Y-86618891D01*
X102381801Y-86666032D01*
X102311091Y-86689602D01*
X102263950Y-86689602D01*
X102193240Y-86666032D01*
X102075389Y-86595321D01*
X101957537Y-86477470D01*
X101886827Y-86359619D01*
X101863256Y-86288908D01*
X101863256Y-86241768D01*
X101886827Y-86171057D01*
X102711785Y-86241768D02*
X102758925Y-86241768D01*
X102758925Y-86288908D01*
X102711785Y-86288908D01*
X102711785Y-86241768D01*
X102758925Y-86288908D01*
X102523223Y-85628942D02*
X102523223Y-85581801D01*
X102546793Y-85511091D01*
X102664644Y-85393240D01*
X102735355Y-85369669D01*
X102782495Y-85369669D01*
X102853206Y-85393240D01*
X102900346Y-85440380D01*
X102947487Y-85534661D01*
X102947487Y-86100346D01*
X103253900Y-85793933D01*
X103418891Y-85534661D02*
X103466032Y-85534661D01*
X103466032Y-85581801D01*
X103418891Y-85581801D01*
X103418891Y-85534661D01*
X103466032Y-85581801D01*
X103961007Y-85086827D02*
X103678164Y-85369669D01*
X103819585Y-85228248D02*
X103324610Y-84733273D01*
X103348181Y-84851124D01*
X103348181Y-84945405D01*
X103324610Y-85016116D01*
X100702943Y-86944890D02*
X100207968Y-86449915D01*
X100443671Y-86685618D02*
X100726513Y-86402775D01*
X100985786Y-86662047D02*
X100490811Y-86167073D01*
X101433620Y-86214213D02*
X101174348Y-85954941D01*
X101103637Y-85931370D01*
X101032926Y-85954941D01*
X100938645Y-86049221D01*
X100915075Y-86119932D01*
X101410050Y-86190643D02*
X101386480Y-86261354D01*
X101268629Y-86379205D01*
X101197918Y-86402775D01*
X101127207Y-86379205D01*
X101080067Y-86332064D01*
X101056497Y-86261354D01*
X101080067Y-86190643D01*
X101197918Y-86072792D01*
X101221488Y-86002081D01*
X101292199Y-85695668D02*
X101716463Y-85931370D01*
X101575042Y-85601387D01*
X101905025Y-85742809D01*
X101669322Y-85318544D01*
X102187867Y-85459966D02*
X101692893Y-84964991D01*
X102046446Y-85224264D02*
X102376429Y-85271404D01*
X102046446Y-84941421D02*
X102046446Y-85318544D01*
X102022876Y-84635008D02*
X102682842Y-84964991D01*
X102352859Y-84305025D01*
X103012825Y-84635008D02*
X102682842Y-84305025D01*
X102517851Y-84140033D02*
X102517851Y-84187174D01*
X102564991Y-84187174D01*
X102564991Y-84140033D01*
X102517851Y-84140033D01*
X102564991Y-84187174D01*
X103201387Y-84399306D02*
X103272098Y-84375735D01*
X103366379Y-84281455D01*
X103389949Y-84210744D01*
X103366379Y-84140033D01*
X103342809Y-84116463D01*
X103272098Y-84092893D01*
X103201387Y-84116463D01*
X103130677Y-84187174D01*
X103059966Y-84210744D01*
X102989255Y-84187174D01*
X102965685Y-84163603D01*
X102942115Y-84092893D01*
X102965685Y-84022182D01*
X103036396Y-83951471D01*
X103107106Y-83927901D01*
X103649221Y-83998612D02*
X103319238Y-83668629D01*
X103154247Y-83503637D02*
X103154247Y-83550778D01*
X103201387Y-83550778D01*
X103201387Y-83503637D01*
X103154247Y-83503637D01*
X103201387Y-83550778D01*
X103955634Y-83692199D02*
X103884924Y-83715769D01*
X103837783Y-83715769D01*
X103767073Y-83692199D01*
X103625651Y-83550778D01*
X103602081Y-83480067D01*
X103602081Y-83432926D01*
X103625651Y-83362216D01*
X103696362Y-83291505D01*
X103767073Y-83267935D01*
X103814213Y-83267935D01*
X103884924Y-83291505D01*
X104026345Y-83432926D01*
X104049915Y-83503637D01*
X104049915Y-83550778D01*
X104026345Y-83621488D01*
X103955634Y-83692199D01*
X104002775Y-82985092D02*
X104332758Y-83315075D01*
X104049915Y-83032233D02*
X104049915Y-82985092D01*
X104073486Y-82914381D01*
X104144196Y-82843671D01*
X104214907Y-82820101D01*
X104285618Y-82843671D01*
X104544890Y-83102943D01*
D13*
G04 #@! TO.C,J2*
X162930000Y-35910000D02*
X161600000Y-35910000D01*
X162930000Y-34580000D02*
X162930000Y-35910000D01*
X162930000Y-33310000D02*
X160270000Y-33310000D01*
X160270000Y-33310000D02*
X160270000Y-28170000D01*
X162930000Y-33310000D02*
X162930000Y-28170000D01*
X162930000Y-28170000D02*
X160270000Y-28170000D01*
X132930000Y-35910000D02*
X131600000Y-35910000D01*
X132930000Y-34580000D02*
X132930000Y-35910000D01*
X132930000Y-33310000D02*
X130270000Y-33310000D01*
X130270000Y-33310000D02*
X130270000Y-28170000D01*
X132930000Y-33310000D02*
X132930000Y-28170000D01*
X132930000Y-28170000D02*
X130270000Y-28170000D01*
X102930000Y-35910000D02*
X101600000Y-35910000D01*
X102930000Y-34580000D02*
X102930000Y-35910000D01*
X102930000Y-33310000D02*
X100270000Y-33310000D01*
X100270000Y-33310000D02*
X100270000Y-28170000D01*
X102930000Y-33310000D02*
X102930000Y-28170000D01*
X102930000Y-28170000D02*
X100270000Y-28170000D01*
X162930000Y-56450000D02*
X161600000Y-56450000D01*
X162930000Y-55120000D02*
X162930000Y-56450000D01*
X162930000Y-53850000D02*
X160270000Y-53850000D01*
X160270000Y-53850000D02*
X160270000Y-48710000D01*
X162930000Y-53850000D02*
X162930000Y-48710000D01*
X162930000Y-48710000D02*
X160270000Y-48710000D01*
X132930000Y-56450000D02*
X131600000Y-56450000D01*
X132930000Y-55120000D02*
X132930000Y-56450000D01*
X132930000Y-53850000D02*
X130270000Y-53850000D01*
X130270000Y-53850000D02*
X130270000Y-48710000D01*
X132930000Y-53850000D02*
X132930000Y-48710000D01*
X132930000Y-48710000D02*
X130270000Y-48710000D01*
X102930000Y-56450000D02*
X101600000Y-56450000D01*
X102930000Y-55120000D02*
X102930000Y-56450000D01*
X102930000Y-53850000D02*
X100270000Y-53850000D01*
X100270000Y-53850000D02*
X100270000Y-48710000D01*
X102930000Y-53850000D02*
X102930000Y-48710000D01*
X102930000Y-48710000D02*
X100270000Y-48710000D01*
X162930000Y-76990000D02*
X161600000Y-76990000D01*
X162930000Y-75660000D02*
X162930000Y-76990000D01*
X162930000Y-74390000D02*
X160270000Y-74390000D01*
X160270000Y-74390000D02*
X160270000Y-69250000D01*
X162930000Y-74390000D02*
X162930000Y-69250000D01*
X162930000Y-69250000D02*
X160270000Y-69250000D01*
X132930000Y-76990000D02*
X131600000Y-76990000D01*
X132930000Y-75660000D02*
X132930000Y-76990000D01*
X132930000Y-74390000D02*
X130270000Y-74390000D01*
X130270000Y-74390000D02*
X130270000Y-69250000D01*
X132930000Y-74390000D02*
X132930000Y-69250000D01*
X132930000Y-69250000D02*
X130270000Y-69250000D01*
X102930000Y-76990000D02*
X101600000Y-76990000D01*
X102930000Y-75660000D02*
X102930000Y-76990000D01*
X102930000Y-74390000D02*
X100270000Y-74390000D01*
X100270000Y-74390000D02*
X100270000Y-69250000D01*
X102930000Y-74390000D02*
X102930000Y-69250000D01*
X102930000Y-69250000D02*
X100270000Y-69250000D01*
X162930000Y-97530000D02*
X161600000Y-97530000D01*
X162930000Y-96200000D02*
X162930000Y-97530000D01*
X162930000Y-94930000D02*
X160270000Y-94930000D01*
X160270000Y-94930000D02*
X160270000Y-89790000D01*
X162930000Y-94930000D02*
X162930000Y-89790000D01*
X162930000Y-89790000D02*
X160270000Y-89790000D01*
X132930000Y-97530000D02*
X131600000Y-97530000D01*
X132930000Y-96200000D02*
X132930000Y-97530000D01*
X132930000Y-94930000D02*
X130270000Y-94930000D01*
X130270000Y-94930000D02*
X130270000Y-89790000D01*
X132930000Y-94930000D02*
X132930000Y-89790000D01*
X132930000Y-89790000D02*
X130270000Y-89790000D01*
G04 #@! TO.C,J1*
X184530000Y-33310000D02*
X183200000Y-33310000D01*
X184530000Y-31980000D02*
X184530000Y-33310000D01*
X184530000Y-30710000D02*
X181870000Y-30710000D01*
X181870000Y-30710000D02*
X181870000Y-23030000D01*
X184530000Y-30710000D02*
X184530000Y-23030000D01*
X184530000Y-23030000D02*
X181870000Y-23030000D01*
X154530000Y-33310000D02*
X153200000Y-33310000D01*
X154530000Y-31980000D02*
X154530000Y-33310000D01*
X154530000Y-30710000D02*
X151870000Y-30710000D01*
X151870000Y-30710000D02*
X151870000Y-23030000D01*
X154530000Y-30710000D02*
X154530000Y-23030000D01*
X154530000Y-23030000D02*
X151870000Y-23030000D01*
X124530000Y-33310000D02*
X123200000Y-33310000D01*
X124530000Y-31980000D02*
X124530000Y-33310000D01*
X124530000Y-30710000D02*
X121870000Y-30710000D01*
X121870000Y-30710000D02*
X121870000Y-23030000D01*
X124530000Y-30710000D02*
X124530000Y-23030000D01*
X124530000Y-23030000D02*
X121870000Y-23030000D01*
X184530000Y-53850000D02*
X183200000Y-53850000D01*
X184530000Y-52520000D02*
X184530000Y-53850000D01*
X184530000Y-51250000D02*
X181870000Y-51250000D01*
X181870000Y-51250000D02*
X181870000Y-43570000D01*
X184530000Y-51250000D02*
X184530000Y-43570000D01*
X184530000Y-43570000D02*
X181870000Y-43570000D01*
X154530000Y-53850000D02*
X153200000Y-53850000D01*
X154530000Y-52520000D02*
X154530000Y-53850000D01*
X154530000Y-51250000D02*
X151870000Y-51250000D01*
X151870000Y-51250000D02*
X151870000Y-43570000D01*
X154530000Y-51250000D02*
X154530000Y-43570000D01*
X154530000Y-43570000D02*
X151870000Y-43570000D01*
X124530000Y-53850000D02*
X123200000Y-53850000D01*
X124530000Y-52520000D02*
X124530000Y-53850000D01*
X124530000Y-51250000D02*
X121870000Y-51250000D01*
X121870000Y-51250000D02*
X121870000Y-43570000D01*
X124530000Y-51250000D02*
X124530000Y-43570000D01*
X124530000Y-43570000D02*
X121870000Y-43570000D01*
X184530000Y-74390000D02*
X183200000Y-74390000D01*
X184530000Y-73060000D02*
X184530000Y-74390000D01*
X184530000Y-71790000D02*
X181870000Y-71790000D01*
X181870000Y-71790000D02*
X181870000Y-64110000D01*
X184530000Y-71790000D02*
X184530000Y-64110000D01*
X184530000Y-64110000D02*
X181870000Y-64110000D01*
X154530000Y-74390000D02*
X153200000Y-74390000D01*
X154530000Y-73060000D02*
X154530000Y-74390000D01*
X154530000Y-71790000D02*
X151870000Y-71790000D01*
X151870000Y-71790000D02*
X151870000Y-64110000D01*
X154530000Y-71790000D02*
X154530000Y-64110000D01*
X154530000Y-64110000D02*
X151870000Y-64110000D01*
X124530000Y-74390000D02*
X123200000Y-74390000D01*
X124530000Y-73060000D02*
X124530000Y-74390000D01*
X124530000Y-71790000D02*
X121870000Y-71790000D01*
X121870000Y-71790000D02*
X121870000Y-64110000D01*
X124530000Y-71790000D02*
X124530000Y-64110000D01*
X124530000Y-64110000D02*
X121870000Y-64110000D01*
X184530000Y-94930000D02*
X183200000Y-94930000D01*
X184530000Y-93600000D02*
X184530000Y-94930000D01*
X184530000Y-92330000D02*
X181870000Y-92330000D01*
X181870000Y-92330000D02*
X181870000Y-84650000D01*
X184530000Y-92330000D02*
X184530000Y-84650000D01*
X184530000Y-84650000D02*
X181870000Y-84650000D01*
X154530000Y-94930000D02*
X153200000Y-94930000D01*
X154530000Y-93600000D02*
X154530000Y-94930000D01*
X154530000Y-92330000D02*
X151870000Y-92330000D01*
X151870000Y-92330000D02*
X151870000Y-84650000D01*
X154530000Y-92330000D02*
X154530000Y-84650000D01*
X154530000Y-84650000D02*
X151870000Y-84650000D01*
G04 #@! TO.C,R1*
X164000000Y-31620000D02*
X164000000Y-30550000D01*
X164000000Y-25760000D02*
X164000000Y-26830000D01*
X164860000Y-30550000D02*
X164860000Y-26830000D01*
X163140000Y-30550000D02*
X164860000Y-30550000D01*
X163140000Y-26830000D02*
X163140000Y-30550000D01*
X164860000Y-26830000D02*
X163140000Y-26830000D01*
X134000000Y-31620000D02*
X134000000Y-30550000D01*
X134000000Y-25760000D02*
X134000000Y-26830000D01*
X134860000Y-30550000D02*
X134860000Y-26830000D01*
X133140000Y-30550000D02*
X134860000Y-30550000D01*
X133140000Y-26830000D02*
X133140000Y-30550000D01*
X134860000Y-26830000D02*
X133140000Y-26830000D01*
X104000000Y-31620000D02*
X104000000Y-30550000D01*
X104000000Y-25760000D02*
X104000000Y-26830000D01*
X104860000Y-30550000D02*
X104860000Y-26830000D01*
X103140000Y-30550000D02*
X104860000Y-30550000D01*
X103140000Y-26830000D02*
X103140000Y-30550000D01*
X104860000Y-26830000D02*
X103140000Y-26830000D01*
X164000000Y-52160000D02*
X164000000Y-51090000D01*
X164000000Y-46300000D02*
X164000000Y-47370000D01*
X164860000Y-51090000D02*
X164860000Y-47370000D01*
X163140000Y-51090000D02*
X164860000Y-51090000D01*
X163140000Y-47370000D02*
X163140000Y-51090000D01*
X164860000Y-47370000D02*
X163140000Y-47370000D01*
X134000000Y-52160000D02*
X134000000Y-51090000D01*
X134000000Y-46300000D02*
X134000000Y-47370000D01*
X134860000Y-51090000D02*
X134860000Y-47370000D01*
X133140000Y-51090000D02*
X134860000Y-51090000D01*
X133140000Y-47370000D02*
X133140000Y-51090000D01*
X134860000Y-47370000D02*
X133140000Y-47370000D01*
X104000000Y-52160000D02*
X104000000Y-51090000D01*
X104000000Y-46300000D02*
X104000000Y-47370000D01*
X104860000Y-51090000D02*
X104860000Y-47370000D01*
X103140000Y-51090000D02*
X104860000Y-51090000D01*
X103140000Y-47370000D02*
X103140000Y-51090000D01*
X104860000Y-47370000D02*
X103140000Y-47370000D01*
X164000000Y-72700000D02*
X164000000Y-71630000D01*
X164000000Y-66840000D02*
X164000000Y-67910000D01*
X164860000Y-71630000D02*
X164860000Y-67910000D01*
X163140000Y-71630000D02*
X164860000Y-71630000D01*
X163140000Y-67910000D02*
X163140000Y-71630000D01*
X164860000Y-67910000D02*
X163140000Y-67910000D01*
X134000000Y-72700000D02*
X134000000Y-71630000D01*
X134000000Y-66840000D02*
X134000000Y-67910000D01*
X134860000Y-71630000D02*
X134860000Y-67910000D01*
X133140000Y-71630000D02*
X134860000Y-71630000D01*
X133140000Y-67910000D02*
X133140000Y-71630000D01*
X134860000Y-67910000D02*
X133140000Y-67910000D01*
X104000000Y-72700000D02*
X104000000Y-71630000D01*
X104000000Y-66840000D02*
X104000000Y-67910000D01*
X104860000Y-71630000D02*
X104860000Y-67910000D01*
X103140000Y-71630000D02*
X104860000Y-71630000D01*
X103140000Y-67910000D02*
X103140000Y-71630000D01*
X104860000Y-67910000D02*
X103140000Y-67910000D01*
X164000000Y-93240000D02*
X164000000Y-92170000D01*
X164000000Y-87380000D02*
X164000000Y-88450000D01*
X164860000Y-92170000D02*
X164860000Y-88450000D01*
X163140000Y-92170000D02*
X164860000Y-92170000D01*
X163140000Y-88450000D02*
X163140000Y-92170000D01*
X164860000Y-88450000D02*
X163140000Y-88450000D01*
X134000000Y-93240000D02*
X134000000Y-92170000D01*
X134000000Y-87380000D02*
X134000000Y-88450000D01*
X134860000Y-92170000D02*
X134860000Y-88450000D01*
X133140000Y-92170000D02*
X134860000Y-92170000D01*
X133140000Y-88450000D02*
X133140000Y-92170000D01*
X134860000Y-88450000D02*
X133140000Y-88450000D01*
G04 #@! TO.C,J2*
X102930000Y-89790000D02*
X100270000Y-89790000D01*
X102930000Y-94930000D02*
X102930000Y-89790000D01*
X100270000Y-94930000D02*
X100270000Y-89790000D01*
X102930000Y-94930000D02*
X100270000Y-94930000D01*
X102930000Y-96200000D02*
X102930000Y-97530000D01*
X102930000Y-97530000D02*
X101600000Y-97530000D01*
G04 #@! TO.C,J1*
X124530000Y-84650000D02*
X121870000Y-84650000D01*
X124530000Y-92330000D02*
X124530000Y-84650000D01*
X121870000Y-92330000D02*
X121870000Y-84650000D01*
X124530000Y-92330000D02*
X121870000Y-92330000D01*
X124530000Y-93600000D02*
X124530000Y-94930000D01*
X124530000Y-94930000D02*
X123200000Y-94930000D01*
G04 #@! TO.C,R1*
X104860000Y-88450000D02*
X103140000Y-88450000D01*
X103140000Y-88450000D02*
X103140000Y-92170000D01*
X103140000Y-92170000D02*
X104860000Y-92170000D01*
X104860000Y-92170000D02*
X104860000Y-88450000D01*
X104000000Y-87380000D02*
X104000000Y-88450000D01*
X104000000Y-93240000D02*
X104000000Y-92170000D01*
G04 #@! TO.C,J2*
D14*
X167702380Y-33313333D02*
X168416666Y-33313333D01*
X168559523Y-33360952D01*
X168654761Y-33456190D01*
X168702380Y-33599047D01*
X168702380Y-33694285D01*
X167797619Y-32884761D02*
X167750000Y-32837142D01*
X167702380Y-32741904D01*
X167702380Y-32503809D01*
X167750000Y-32408571D01*
X167797619Y-32360952D01*
X167892857Y-32313333D01*
X167988095Y-32313333D01*
X168130952Y-32360952D01*
X168702380Y-32932380D01*
X168702380Y-32313333D01*
X137702380Y-33313333D02*
X138416666Y-33313333D01*
X138559523Y-33360952D01*
X138654761Y-33456190D01*
X138702380Y-33599047D01*
X138702380Y-33694285D01*
X137797619Y-32884761D02*
X137750000Y-32837142D01*
X137702380Y-32741904D01*
X137702380Y-32503809D01*
X137750000Y-32408571D01*
X137797619Y-32360952D01*
X137892857Y-32313333D01*
X137988095Y-32313333D01*
X138130952Y-32360952D01*
X138702380Y-32932380D01*
X138702380Y-32313333D01*
X107702380Y-33313333D02*
X108416666Y-33313333D01*
X108559523Y-33360952D01*
X108654761Y-33456190D01*
X108702380Y-33599047D01*
X108702380Y-33694285D01*
X107797619Y-32884761D02*
X107750000Y-32837142D01*
X107702380Y-32741904D01*
X107702380Y-32503809D01*
X107750000Y-32408571D01*
X107797619Y-32360952D01*
X107892857Y-32313333D01*
X107988095Y-32313333D01*
X108130952Y-32360952D01*
X108702380Y-32932380D01*
X108702380Y-32313333D01*
X167702380Y-53853333D02*
X168416666Y-53853333D01*
X168559523Y-53900952D01*
X168654761Y-53996190D01*
X168702380Y-54139047D01*
X168702380Y-54234285D01*
X167797619Y-53424761D02*
X167750000Y-53377142D01*
X167702380Y-53281904D01*
X167702380Y-53043809D01*
X167750000Y-52948571D01*
X167797619Y-52900952D01*
X167892857Y-52853333D01*
X167988095Y-52853333D01*
X168130952Y-52900952D01*
X168702380Y-53472380D01*
X168702380Y-52853333D01*
X137702380Y-53853333D02*
X138416666Y-53853333D01*
X138559523Y-53900952D01*
X138654761Y-53996190D01*
X138702380Y-54139047D01*
X138702380Y-54234285D01*
X137797619Y-53424761D02*
X137750000Y-53377142D01*
X137702380Y-53281904D01*
X137702380Y-53043809D01*
X137750000Y-52948571D01*
X137797619Y-52900952D01*
X137892857Y-52853333D01*
X137988095Y-52853333D01*
X138130952Y-52900952D01*
X138702380Y-53472380D01*
X138702380Y-52853333D01*
X107702380Y-53853333D02*
X108416666Y-53853333D01*
X108559523Y-53900952D01*
X108654761Y-53996190D01*
X108702380Y-54139047D01*
X108702380Y-54234285D01*
X107797619Y-53424761D02*
X107750000Y-53377142D01*
X107702380Y-53281904D01*
X107702380Y-53043809D01*
X107750000Y-52948571D01*
X107797619Y-52900952D01*
X107892857Y-52853333D01*
X107988095Y-52853333D01*
X108130952Y-52900952D01*
X108702380Y-53472380D01*
X108702380Y-52853333D01*
X167702380Y-74393333D02*
X168416666Y-74393333D01*
X168559523Y-74440952D01*
X168654761Y-74536190D01*
X168702380Y-74679047D01*
X168702380Y-74774285D01*
X167797619Y-73964761D02*
X167750000Y-73917142D01*
X167702380Y-73821904D01*
X167702380Y-73583809D01*
X167750000Y-73488571D01*
X167797619Y-73440952D01*
X167892857Y-73393333D01*
X167988095Y-73393333D01*
X168130952Y-73440952D01*
X168702380Y-74012380D01*
X168702380Y-73393333D01*
X137702380Y-74393333D02*
X138416666Y-74393333D01*
X138559523Y-74440952D01*
X138654761Y-74536190D01*
X138702380Y-74679047D01*
X138702380Y-74774285D01*
X137797619Y-73964761D02*
X137750000Y-73917142D01*
X137702380Y-73821904D01*
X137702380Y-73583809D01*
X137750000Y-73488571D01*
X137797619Y-73440952D01*
X137892857Y-73393333D01*
X137988095Y-73393333D01*
X138130952Y-73440952D01*
X138702380Y-74012380D01*
X138702380Y-73393333D01*
X107702380Y-74393333D02*
X108416666Y-74393333D01*
X108559523Y-74440952D01*
X108654761Y-74536190D01*
X108702380Y-74679047D01*
X108702380Y-74774285D01*
X107797619Y-73964761D02*
X107750000Y-73917142D01*
X107702380Y-73821904D01*
X107702380Y-73583809D01*
X107750000Y-73488571D01*
X107797619Y-73440952D01*
X107892857Y-73393333D01*
X107988095Y-73393333D01*
X108130952Y-73440952D01*
X108702380Y-74012380D01*
X108702380Y-73393333D01*
X167702380Y-94933333D02*
X168416666Y-94933333D01*
X168559523Y-94980952D01*
X168654761Y-95076190D01*
X168702380Y-95219047D01*
X168702380Y-95314285D01*
X167797619Y-94504761D02*
X167750000Y-94457142D01*
X167702380Y-94361904D01*
X167702380Y-94123809D01*
X167750000Y-94028571D01*
X167797619Y-93980952D01*
X167892857Y-93933333D01*
X167988095Y-93933333D01*
X168130952Y-93980952D01*
X168702380Y-94552380D01*
X168702380Y-93933333D01*
X137702380Y-94933333D02*
X138416666Y-94933333D01*
X138559523Y-94980952D01*
X138654761Y-95076190D01*
X138702380Y-95219047D01*
X138702380Y-95314285D01*
X137797619Y-94504761D02*
X137750000Y-94457142D01*
X137702380Y-94361904D01*
X137702380Y-94123809D01*
X137750000Y-94028571D01*
X137797619Y-93980952D01*
X137892857Y-93933333D01*
X137988095Y-93933333D01*
X138130952Y-93980952D01*
X138702380Y-94552380D01*
X138702380Y-93933333D01*
G04 #@! TO.C,J1*
X177702380Y-33313333D02*
X178416666Y-33313333D01*
X178559523Y-33360952D01*
X178654761Y-33456190D01*
X178702380Y-33599047D01*
X178702380Y-33694285D01*
X178702380Y-32313333D02*
X178702380Y-32884761D01*
X178702380Y-32599047D02*
X177702380Y-32599047D01*
X177845238Y-32694285D01*
X177940476Y-32789523D01*
X177988095Y-32884761D01*
X147702380Y-33313333D02*
X148416666Y-33313333D01*
X148559523Y-33360952D01*
X148654761Y-33456190D01*
X148702380Y-33599047D01*
X148702380Y-33694285D01*
X148702380Y-32313333D02*
X148702380Y-32884761D01*
X148702380Y-32599047D02*
X147702380Y-32599047D01*
X147845238Y-32694285D01*
X147940476Y-32789523D01*
X147988095Y-32884761D01*
X117702380Y-33313333D02*
X118416666Y-33313333D01*
X118559523Y-33360952D01*
X118654761Y-33456190D01*
X118702380Y-33599047D01*
X118702380Y-33694285D01*
X118702380Y-32313333D02*
X118702380Y-32884761D01*
X118702380Y-32599047D02*
X117702380Y-32599047D01*
X117845238Y-32694285D01*
X117940476Y-32789523D01*
X117988095Y-32884761D01*
X177702380Y-53853333D02*
X178416666Y-53853333D01*
X178559523Y-53900952D01*
X178654761Y-53996190D01*
X178702380Y-54139047D01*
X178702380Y-54234285D01*
X178702380Y-52853333D02*
X178702380Y-53424761D01*
X178702380Y-53139047D02*
X177702380Y-53139047D01*
X177845238Y-53234285D01*
X177940476Y-53329523D01*
X177988095Y-53424761D01*
X147702380Y-53853333D02*
X148416666Y-53853333D01*
X148559523Y-53900952D01*
X148654761Y-53996190D01*
X148702380Y-54139047D01*
X148702380Y-54234285D01*
X148702380Y-52853333D02*
X148702380Y-53424761D01*
X148702380Y-53139047D02*
X147702380Y-53139047D01*
X147845238Y-53234285D01*
X147940476Y-53329523D01*
X147988095Y-53424761D01*
X117702380Y-53853333D02*
X118416666Y-53853333D01*
X118559523Y-53900952D01*
X118654761Y-53996190D01*
X118702380Y-54139047D01*
X118702380Y-54234285D01*
X118702380Y-52853333D02*
X118702380Y-53424761D01*
X118702380Y-53139047D02*
X117702380Y-53139047D01*
X117845238Y-53234285D01*
X117940476Y-53329523D01*
X117988095Y-53424761D01*
X177702380Y-74393333D02*
X178416666Y-74393333D01*
X178559523Y-74440952D01*
X178654761Y-74536190D01*
X178702380Y-74679047D01*
X178702380Y-74774285D01*
X178702380Y-73393333D02*
X178702380Y-73964761D01*
X178702380Y-73679047D02*
X177702380Y-73679047D01*
X177845238Y-73774285D01*
X177940476Y-73869523D01*
X177988095Y-73964761D01*
X147702380Y-74393333D02*
X148416666Y-74393333D01*
X148559523Y-74440952D01*
X148654761Y-74536190D01*
X148702380Y-74679047D01*
X148702380Y-74774285D01*
X148702380Y-73393333D02*
X148702380Y-73964761D01*
X148702380Y-73679047D02*
X147702380Y-73679047D01*
X147845238Y-73774285D01*
X147940476Y-73869523D01*
X147988095Y-73964761D01*
X117702380Y-74393333D02*
X118416666Y-74393333D01*
X118559523Y-74440952D01*
X118654761Y-74536190D01*
X118702380Y-74679047D01*
X118702380Y-74774285D01*
X118702380Y-73393333D02*
X118702380Y-73964761D01*
X118702380Y-73679047D02*
X117702380Y-73679047D01*
X117845238Y-73774285D01*
X117940476Y-73869523D01*
X117988095Y-73964761D01*
X177702380Y-94933333D02*
X178416666Y-94933333D01*
X178559523Y-94980952D01*
X178654761Y-95076190D01*
X178702380Y-95219047D01*
X178702380Y-95314285D01*
X178702380Y-93933333D02*
X178702380Y-94504761D01*
X178702380Y-94219047D02*
X177702380Y-94219047D01*
X177845238Y-94314285D01*
X177940476Y-94409523D01*
X177988095Y-94504761D01*
X147702380Y-94933333D02*
X148416666Y-94933333D01*
X148559523Y-94980952D01*
X148654761Y-95076190D01*
X148702380Y-95219047D01*
X148702380Y-95314285D01*
X148702380Y-93933333D02*
X148702380Y-94504761D01*
X148702380Y-94219047D02*
X147702380Y-94219047D01*
X147845238Y-94314285D01*
X147940476Y-94409523D01*
X147988095Y-94504761D01*
G04 #@! TO.C,R1*
X164552380Y-29046666D02*
X164076190Y-29380000D01*
X164552380Y-29618095D02*
X163552380Y-29618095D01*
X163552380Y-29237142D01*
X163600000Y-29141904D01*
X163647619Y-29094285D01*
X163742857Y-29046666D01*
X163885714Y-29046666D01*
X163980952Y-29094285D01*
X164028571Y-29141904D01*
X164076190Y-29237142D01*
X164076190Y-29618095D01*
X164552380Y-28094285D02*
X164552380Y-28665714D01*
X164552380Y-28380000D02*
X163552380Y-28380000D01*
X163695238Y-28475238D01*
X163790476Y-28570476D01*
X163838095Y-28665714D01*
X134552380Y-29046666D02*
X134076190Y-29380000D01*
X134552380Y-29618095D02*
X133552380Y-29618095D01*
X133552380Y-29237142D01*
X133600000Y-29141904D01*
X133647619Y-29094285D01*
X133742857Y-29046666D01*
X133885714Y-29046666D01*
X133980952Y-29094285D01*
X134028571Y-29141904D01*
X134076190Y-29237142D01*
X134076190Y-29618095D01*
X134552380Y-28094285D02*
X134552380Y-28665714D01*
X134552380Y-28380000D02*
X133552380Y-28380000D01*
X133695238Y-28475238D01*
X133790476Y-28570476D01*
X133838095Y-28665714D01*
X104552380Y-29046666D02*
X104076190Y-29380000D01*
X104552380Y-29618095D02*
X103552380Y-29618095D01*
X103552380Y-29237142D01*
X103600000Y-29141904D01*
X103647619Y-29094285D01*
X103742857Y-29046666D01*
X103885714Y-29046666D01*
X103980952Y-29094285D01*
X104028571Y-29141904D01*
X104076190Y-29237142D01*
X104076190Y-29618095D01*
X104552380Y-28094285D02*
X104552380Y-28665714D01*
X104552380Y-28380000D02*
X103552380Y-28380000D01*
X103695238Y-28475238D01*
X103790476Y-28570476D01*
X103838095Y-28665714D01*
X164552380Y-49586666D02*
X164076190Y-49920000D01*
X164552380Y-50158095D02*
X163552380Y-50158095D01*
X163552380Y-49777142D01*
X163600000Y-49681904D01*
X163647619Y-49634285D01*
X163742857Y-49586666D01*
X163885714Y-49586666D01*
X163980952Y-49634285D01*
X164028571Y-49681904D01*
X164076190Y-49777142D01*
X164076190Y-50158095D01*
X164552380Y-48634285D02*
X164552380Y-49205714D01*
X164552380Y-48920000D02*
X163552380Y-48920000D01*
X163695238Y-49015238D01*
X163790476Y-49110476D01*
X163838095Y-49205714D01*
X134552380Y-49586666D02*
X134076190Y-49920000D01*
X134552380Y-50158095D02*
X133552380Y-50158095D01*
X133552380Y-49777142D01*
X133600000Y-49681904D01*
X133647619Y-49634285D01*
X133742857Y-49586666D01*
X133885714Y-49586666D01*
X133980952Y-49634285D01*
X134028571Y-49681904D01*
X134076190Y-49777142D01*
X134076190Y-50158095D01*
X134552380Y-48634285D02*
X134552380Y-49205714D01*
X134552380Y-48920000D02*
X133552380Y-48920000D01*
X133695238Y-49015238D01*
X133790476Y-49110476D01*
X133838095Y-49205714D01*
X104552380Y-49586666D02*
X104076190Y-49920000D01*
X104552380Y-50158095D02*
X103552380Y-50158095D01*
X103552380Y-49777142D01*
X103600000Y-49681904D01*
X103647619Y-49634285D01*
X103742857Y-49586666D01*
X103885714Y-49586666D01*
X103980952Y-49634285D01*
X104028571Y-49681904D01*
X104076190Y-49777142D01*
X104076190Y-50158095D01*
X104552380Y-48634285D02*
X104552380Y-49205714D01*
X104552380Y-48920000D02*
X103552380Y-48920000D01*
X103695238Y-49015238D01*
X103790476Y-49110476D01*
X103838095Y-49205714D01*
X164552380Y-70126666D02*
X164076190Y-70460000D01*
X164552380Y-70698095D02*
X163552380Y-70698095D01*
X163552380Y-70317142D01*
X163600000Y-70221904D01*
X163647619Y-70174285D01*
X163742857Y-70126666D01*
X163885714Y-70126666D01*
X163980952Y-70174285D01*
X164028571Y-70221904D01*
X164076190Y-70317142D01*
X164076190Y-70698095D01*
X164552380Y-69174285D02*
X164552380Y-69745714D01*
X164552380Y-69460000D02*
X163552380Y-69460000D01*
X163695238Y-69555238D01*
X163790476Y-69650476D01*
X163838095Y-69745714D01*
X134552380Y-70126666D02*
X134076190Y-70460000D01*
X134552380Y-70698095D02*
X133552380Y-70698095D01*
X133552380Y-70317142D01*
X133600000Y-70221904D01*
X133647619Y-70174285D01*
X133742857Y-70126666D01*
X133885714Y-70126666D01*
X133980952Y-70174285D01*
X134028571Y-70221904D01*
X134076190Y-70317142D01*
X134076190Y-70698095D01*
X134552380Y-69174285D02*
X134552380Y-69745714D01*
X134552380Y-69460000D02*
X133552380Y-69460000D01*
X133695238Y-69555238D01*
X133790476Y-69650476D01*
X133838095Y-69745714D01*
X104552380Y-70126666D02*
X104076190Y-70460000D01*
X104552380Y-70698095D02*
X103552380Y-70698095D01*
X103552380Y-70317142D01*
X103600000Y-70221904D01*
X103647619Y-70174285D01*
X103742857Y-70126666D01*
X103885714Y-70126666D01*
X103980952Y-70174285D01*
X104028571Y-70221904D01*
X104076190Y-70317142D01*
X104076190Y-70698095D01*
X104552380Y-69174285D02*
X104552380Y-69745714D01*
X104552380Y-69460000D02*
X103552380Y-69460000D01*
X103695238Y-69555238D01*
X103790476Y-69650476D01*
X103838095Y-69745714D01*
X164552380Y-90666666D02*
X164076190Y-91000000D01*
X164552380Y-91238095D02*
X163552380Y-91238095D01*
X163552380Y-90857142D01*
X163600000Y-90761904D01*
X163647619Y-90714285D01*
X163742857Y-90666666D01*
X163885714Y-90666666D01*
X163980952Y-90714285D01*
X164028571Y-90761904D01*
X164076190Y-90857142D01*
X164076190Y-91238095D01*
X164552380Y-89714285D02*
X164552380Y-90285714D01*
X164552380Y-90000000D02*
X163552380Y-90000000D01*
X163695238Y-90095238D01*
X163790476Y-90190476D01*
X163838095Y-90285714D01*
X134552380Y-90666666D02*
X134076190Y-91000000D01*
X134552380Y-91238095D02*
X133552380Y-91238095D01*
X133552380Y-90857142D01*
X133600000Y-90761904D01*
X133647619Y-90714285D01*
X133742857Y-90666666D01*
X133885714Y-90666666D01*
X133980952Y-90714285D01*
X134028571Y-90761904D01*
X134076190Y-90857142D01*
X134076190Y-91238095D01*
X134552380Y-89714285D02*
X134552380Y-90285714D01*
X134552380Y-90000000D02*
X133552380Y-90000000D01*
X133695238Y-90095238D01*
X133790476Y-90190476D01*
X133838095Y-90285714D01*
G04 #@! TO.C,U1*
X169988095Y-33182380D02*
X169988095Y-33991904D01*
X170035714Y-34087142D01*
X170083333Y-34134761D01*
X170178571Y-34182380D01*
X170369047Y-34182380D01*
X170464285Y-34134761D01*
X170511904Y-34087142D01*
X170559523Y-33991904D01*
X170559523Y-33182380D01*
X171559523Y-34182380D02*
X170988095Y-34182380D01*
X171273809Y-34182380D02*
X171273809Y-33182380D01*
X171178571Y-33325238D01*
X171083333Y-33420476D01*
X170988095Y-33468095D01*
X139988095Y-33182380D02*
X139988095Y-33991904D01*
X140035714Y-34087142D01*
X140083333Y-34134761D01*
X140178571Y-34182380D01*
X140369047Y-34182380D01*
X140464285Y-34134761D01*
X140511904Y-34087142D01*
X140559523Y-33991904D01*
X140559523Y-33182380D01*
X141559523Y-34182380D02*
X140988095Y-34182380D01*
X141273809Y-34182380D02*
X141273809Y-33182380D01*
X141178571Y-33325238D01*
X141083333Y-33420476D01*
X140988095Y-33468095D01*
X109988095Y-33182380D02*
X109988095Y-33991904D01*
X110035714Y-34087142D01*
X110083333Y-34134761D01*
X110178571Y-34182380D01*
X110369047Y-34182380D01*
X110464285Y-34134761D01*
X110511904Y-34087142D01*
X110559523Y-33991904D01*
X110559523Y-33182380D01*
X111559523Y-34182380D02*
X110988095Y-34182380D01*
X111273809Y-34182380D02*
X111273809Y-33182380D01*
X111178571Y-33325238D01*
X111083333Y-33420476D01*
X110988095Y-33468095D01*
X169988095Y-53722380D02*
X169988095Y-54531904D01*
X170035714Y-54627142D01*
X170083333Y-54674761D01*
X170178571Y-54722380D01*
X170369047Y-54722380D01*
X170464285Y-54674761D01*
X170511904Y-54627142D01*
X170559523Y-54531904D01*
X170559523Y-53722380D01*
X171559523Y-54722380D02*
X170988095Y-54722380D01*
X171273809Y-54722380D02*
X171273809Y-53722380D01*
X171178571Y-53865238D01*
X171083333Y-53960476D01*
X170988095Y-54008095D01*
X139988095Y-53722380D02*
X139988095Y-54531904D01*
X140035714Y-54627142D01*
X140083333Y-54674761D01*
X140178571Y-54722380D01*
X140369047Y-54722380D01*
X140464285Y-54674761D01*
X140511904Y-54627142D01*
X140559523Y-54531904D01*
X140559523Y-53722380D01*
X141559523Y-54722380D02*
X140988095Y-54722380D01*
X141273809Y-54722380D02*
X141273809Y-53722380D01*
X141178571Y-53865238D01*
X141083333Y-53960476D01*
X140988095Y-54008095D01*
X109988095Y-53722380D02*
X109988095Y-54531904D01*
X110035714Y-54627142D01*
X110083333Y-54674761D01*
X110178571Y-54722380D01*
X110369047Y-54722380D01*
X110464285Y-54674761D01*
X110511904Y-54627142D01*
X110559523Y-54531904D01*
X110559523Y-53722380D01*
X111559523Y-54722380D02*
X110988095Y-54722380D01*
X111273809Y-54722380D02*
X111273809Y-53722380D01*
X111178571Y-53865238D01*
X111083333Y-53960476D01*
X110988095Y-54008095D01*
X169988095Y-74262380D02*
X169988095Y-75071904D01*
X170035714Y-75167142D01*
X170083333Y-75214761D01*
X170178571Y-75262380D01*
X170369047Y-75262380D01*
X170464285Y-75214761D01*
X170511904Y-75167142D01*
X170559523Y-75071904D01*
X170559523Y-74262380D01*
X171559523Y-75262380D02*
X170988095Y-75262380D01*
X171273809Y-75262380D02*
X171273809Y-74262380D01*
X171178571Y-74405238D01*
X171083333Y-74500476D01*
X170988095Y-74548095D01*
X139988095Y-74262380D02*
X139988095Y-75071904D01*
X140035714Y-75167142D01*
X140083333Y-75214761D01*
X140178571Y-75262380D01*
X140369047Y-75262380D01*
X140464285Y-75214761D01*
X140511904Y-75167142D01*
X140559523Y-75071904D01*
X140559523Y-74262380D01*
X141559523Y-75262380D02*
X140988095Y-75262380D01*
X141273809Y-75262380D02*
X141273809Y-74262380D01*
X141178571Y-74405238D01*
X141083333Y-74500476D01*
X140988095Y-74548095D01*
X109988095Y-74262380D02*
X109988095Y-75071904D01*
X110035714Y-75167142D01*
X110083333Y-75214761D01*
X110178571Y-75262380D01*
X110369047Y-75262380D01*
X110464285Y-75214761D01*
X110511904Y-75167142D01*
X110559523Y-75071904D01*
X110559523Y-74262380D01*
X111559523Y-75262380D02*
X110988095Y-75262380D01*
X111273809Y-75262380D02*
X111273809Y-74262380D01*
X111178571Y-74405238D01*
X111083333Y-74500476D01*
X110988095Y-74548095D01*
X169988095Y-94802380D02*
X169988095Y-95611904D01*
X170035714Y-95707142D01*
X170083333Y-95754761D01*
X170178571Y-95802380D01*
X170369047Y-95802380D01*
X170464285Y-95754761D01*
X170511904Y-95707142D01*
X170559523Y-95611904D01*
X170559523Y-94802380D01*
X171559523Y-95802380D02*
X170988095Y-95802380D01*
X171273809Y-95802380D02*
X171273809Y-94802380D01*
X171178571Y-94945238D01*
X171083333Y-95040476D01*
X170988095Y-95088095D01*
X139988095Y-94802380D02*
X139988095Y-95611904D01*
X140035714Y-95707142D01*
X140083333Y-95754761D01*
X140178571Y-95802380D01*
X140369047Y-95802380D01*
X140464285Y-95754761D01*
X140511904Y-95707142D01*
X140559523Y-95611904D01*
X140559523Y-94802380D01*
X141559523Y-95802380D02*
X140988095Y-95802380D01*
X141273809Y-95802380D02*
X141273809Y-94802380D01*
X141178571Y-94945238D01*
X141083333Y-95040476D01*
X140988095Y-95088095D01*
X109988095Y-94802380D02*
X109988095Y-95611904D01*
X110035714Y-95707142D01*
X110083333Y-95754761D01*
X110178571Y-95802380D01*
X110369047Y-95802380D01*
X110464285Y-95754761D01*
X110511904Y-95707142D01*
X110559523Y-95611904D01*
X110559523Y-94802380D01*
X111559523Y-95802380D02*
X110988095Y-95802380D01*
X111273809Y-95802380D02*
X111273809Y-94802380D01*
X111178571Y-94945238D01*
X111083333Y-95040476D01*
X110988095Y-95088095D01*
G04 #@! TO.C,J2*
X107702380Y-94933333D02*
X108416666Y-94933333D01*
X108559523Y-94980952D01*
X108654761Y-95076190D01*
X108702380Y-95219047D01*
X108702380Y-95314285D01*
X107797619Y-94504761D02*
X107750000Y-94457142D01*
X107702380Y-94361904D01*
X107702380Y-94123809D01*
X107750000Y-94028571D01*
X107797619Y-93980952D01*
X107892857Y-93933333D01*
X107988095Y-93933333D01*
X108130952Y-93980952D01*
X108702380Y-94552380D01*
X108702380Y-93933333D01*
G04 #@! TO.C,J1*
X117702380Y-94933333D02*
X118416666Y-94933333D01*
X118559523Y-94980952D01*
X118654761Y-95076190D01*
X118702380Y-95219047D01*
X118702380Y-95314285D01*
X118702380Y-93933333D02*
X118702380Y-94504761D01*
X118702380Y-94219047D02*
X117702380Y-94219047D01*
X117845238Y-94314285D01*
X117940476Y-94409523D01*
X117988095Y-94504761D01*
G04 #@! TO.C,R1*
X104552380Y-90666666D02*
X104076190Y-91000000D01*
X104552380Y-91238095D02*
X103552380Y-91238095D01*
X103552380Y-90857142D01*
X103600000Y-90761904D01*
X103647619Y-90714285D01*
X103742857Y-90666666D01*
X103885714Y-90666666D01*
X103980952Y-90714285D01*
X104028571Y-90761904D01*
X104076190Y-90857142D01*
X104076190Y-91238095D01*
X104552380Y-89714285D02*
X104552380Y-90285714D01*
X104552380Y-90000000D02*
X103552380Y-90000000D01*
X103695238Y-90095238D01*
X103790476Y-90190476D01*
X103838095Y-90285714D01*
G04 #@! TD*
M02*
