G04 #@! TF.GenerationSoftware,KiCad,Pcbnew,(5.0.0-3-g5ebb6b6)*
G04 #@! TF.CreationDate,2018-09-02T17:25:40-06:00*
G04 #@! TF.ProjectId,Hak5-unify,48616B352D756E6966792E6B69636164,rev?*
G04 #@! TF.SameCoordinates,Original*
G04 #@! TF.FileFunction,Profile,NP*
%FSLAX46Y46*%
G04 Gerber Fmt 4.6, Leading zero omitted, Abs format (unit mm)*
G04 Created by KiCad (PCBNEW (5.0.0-3-g5ebb6b6)) date Sunday, September 02, 2018 at 05:25:40 PM*
%MOMM*%
%LPD*%
G01*
G04 APERTURE LIST*
%ADD10C,0.200000*%
G04 APERTURE END LIST*
D10*
X184400000Y-20880000D02*
X186000000Y-22480000D01*
X154400000Y-20880000D02*
X156000000Y-22480000D01*
X124400000Y-20880000D02*
X126000000Y-22480000D01*
X184400000Y-41420000D02*
X186000000Y-43020000D01*
X154400000Y-41420000D02*
X156000000Y-43020000D01*
X124400000Y-41420000D02*
X126000000Y-43020000D01*
X184400000Y-61960000D02*
X186000000Y-63560000D01*
X154400000Y-61960000D02*
X156000000Y-63560000D01*
X124400000Y-61960000D02*
X126000000Y-63560000D01*
X184400000Y-82500000D02*
X186000000Y-84100000D01*
X154400000Y-82500000D02*
X156000000Y-84100000D01*
X180950000Y-22980000D02*
G75*
G03X180950000Y-22980000I-250000J0D01*
G01*
X150950000Y-22980000D02*
G75*
G03X150950000Y-22980000I-250000J0D01*
G01*
X120950000Y-22980000D02*
G75*
G03X120950000Y-22980000I-250000J0D01*
G01*
X180950000Y-43520000D02*
G75*
G03X180950000Y-43520000I-250000J0D01*
G01*
X150950000Y-43520000D02*
G75*
G03X150950000Y-43520000I-250000J0D01*
G01*
X120950000Y-43520000D02*
G75*
G03X120950000Y-43520000I-250000J0D01*
G01*
X180950000Y-64060000D02*
G75*
G03X180950000Y-64060000I-250000J0D01*
G01*
X150950000Y-64060000D02*
G75*
G03X150950000Y-64060000I-250000J0D01*
G01*
X120950000Y-64060000D02*
G75*
G03X120950000Y-64060000I-250000J0D01*
G01*
X180950000Y-84600000D02*
G75*
G03X180950000Y-84600000I-250000J0D01*
G01*
X150950000Y-84600000D02*
G75*
G03X150950000Y-84600000I-250000J0D01*
G01*
X160000000Y-35980000D02*
X162100000Y-38380000D01*
X130000000Y-35980000D02*
X132100000Y-38380000D01*
X100000000Y-35980000D02*
X102100000Y-38380000D01*
X160000000Y-56520000D02*
X162100000Y-58920000D01*
X130000000Y-56520000D02*
X132100000Y-58920000D01*
X100000000Y-56520000D02*
X102100000Y-58920000D01*
X160000000Y-77060000D02*
X162100000Y-79460000D01*
X130000000Y-77060000D02*
X132100000Y-79460000D01*
X100000000Y-77060000D02*
X102100000Y-79460000D01*
X160000000Y-97600000D02*
X162100000Y-100000000D01*
X130000000Y-97600000D02*
X132100000Y-100000000D01*
X160000000Y-22880000D02*
X161900000Y-20880000D01*
X130000000Y-22880000D02*
X131900000Y-20880000D01*
X100000000Y-22880000D02*
X101900000Y-20880000D01*
X160000000Y-43420000D02*
X161900000Y-41420000D01*
X130000000Y-43420000D02*
X131900000Y-41420000D01*
X100000000Y-43420000D02*
X101900000Y-41420000D01*
X160000000Y-63960000D02*
X161900000Y-61960000D01*
X130000000Y-63960000D02*
X131900000Y-61960000D01*
X100000000Y-63960000D02*
X101900000Y-61960000D01*
X160000000Y-84500000D02*
X161900000Y-82500000D01*
X130000000Y-84500000D02*
X131900000Y-82500000D01*
X186000000Y-33280000D02*
X182700000Y-36030000D01*
X156000000Y-33280000D02*
X152700000Y-36030000D01*
X126000000Y-33280000D02*
X122700000Y-36030000D01*
X186000000Y-53820000D02*
X182700000Y-56570000D01*
X156000000Y-53820000D02*
X152700000Y-56570000D01*
X126000000Y-53820000D02*
X122700000Y-56570000D01*
X186000000Y-74360000D02*
X182700000Y-77110000D01*
X156000000Y-74360000D02*
X152700000Y-77110000D01*
X126000000Y-74360000D02*
X122700000Y-77110000D01*
X186000000Y-94900000D02*
X182700000Y-97650000D01*
X156000000Y-94900000D02*
X152700000Y-97650000D01*
X182700000Y-36080000D02*
X182700000Y-38380000D01*
X152700000Y-36080000D02*
X152700000Y-38380000D01*
X122700000Y-36080000D02*
X122700000Y-38380000D01*
X182700000Y-56620000D02*
X182700000Y-58920000D01*
X152700000Y-56620000D02*
X152700000Y-58920000D01*
X122700000Y-56620000D02*
X122700000Y-58920000D01*
X182700000Y-77160000D02*
X182700000Y-79460000D01*
X152700000Y-77160000D02*
X152700000Y-79460000D01*
X122700000Y-77160000D02*
X122700000Y-79460000D01*
X182700000Y-97700000D02*
X182700000Y-100000000D01*
X152700000Y-97700000D02*
X152700000Y-100000000D01*
X160000000Y-22880000D02*
X160000000Y-35980000D01*
X130000000Y-22880000D02*
X130000000Y-35980000D01*
X100000000Y-22880000D02*
X100000000Y-35980000D01*
X160000000Y-43420000D02*
X160000000Y-56520000D01*
X130000000Y-43420000D02*
X130000000Y-56520000D01*
X100000000Y-43420000D02*
X100000000Y-56520000D01*
X160000000Y-63960000D02*
X160000000Y-77060000D01*
X130000000Y-63960000D02*
X130000000Y-77060000D01*
X100000000Y-63960000D02*
X100000000Y-77060000D01*
X160000000Y-84500000D02*
X160000000Y-97600000D01*
X130000000Y-84500000D02*
X130000000Y-97600000D01*
X186000000Y-22480000D02*
X186000000Y-33230000D01*
X156000000Y-22480000D02*
X156000000Y-33230000D01*
X126000000Y-22480000D02*
X126000000Y-33230000D01*
X186000000Y-43020000D02*
X186000000Y-53770000D01*
X156000000Y-43020000D02*
X156000000Y-53770000D01*
X126000000Y-43020000D02*
X126000000Y-53770000D01*
X186000000Y-63560000D02*
X186000000Y-74310000D01*
X156000000Y-63560000D02*
X156000000Y-74310000D01*
X126000000Y-63560000D02*
X126000000Y-74310000D01*
X186000000Y-84100000D02*
X186000000Y-94850000D01*
X156000000Y-84100000D02*
X156000000Y-94850000D01*
X161900000Y-20880000D02*
X184400000Y-20880000D01*
X131900000Y-20880000D02*
X154400000Y-20880000D01*
X101900000Y-20880000D02*
X124400000Y-20880000D01*
X161900000Y-41420000D02*
X184400000Y-41420000D01*
X131900000Y-41420000D02*
X154400000Y-41420000D01*
X101900000Y-41420000D02*
X124400000Y-41420000D01*
X161900000Y-61960000D02*
X184400000Y-61960000D01*
X131900000Y-61960000D02*
X154400000Y-61960000D01*
X101900000Y-61960000D02*
X124400000Y-61960000D01*
X161900000Y-82500000D02*
X184400000Y-82500000D01*
X131900000Y-82500000D02*
X154400000Y-82500000D01*
X162100000Y-38380000D02*
X182700000Y-38380000D01*
X132100000Y-38380000D02*
X152700000Y-38380000D01*
X102100000Y-38380000D02*
X122700000Y-38380000D01*
X162100000Y-58920000D02*
X182700000Y-58920000D01*
X132100000Y-58920000D02*
X152700000Y-58920000D01*
X102100000Y-58920000D02*
X122700000Y-58920000D01*
X162100000Y-79460000D02*
X182700000Y-79460000D01*
X132100000Y-79460000D02*
X152700000Y-79460000D01*
X102100000Y-79460000D02*
X122700000Y-79460000D01*
X162100000Y-100000000D02*
X182700000Y-100000000D01*
X132100000Y-100000000D02*
X152700000Y-100000000D01*
X166000000Y-22880000D02*
X166000000Y-36180000D01*
X136000000Y-22880000D02*
X136000000Y-36180000D01*
X106000000Y-22880000D02*
X106000000Y-36180000D01*
X166000000Y-43420000D02*
X166000000Y-56720000D01*
X136000000Y-43420000D02*
X136000000Y-56720000D01*
X106000000Y-43420000D02*
X106000000Y-56720000D01*
X166000000Y-63960000D02*
X166000000Y-77260000D01*
X136000000Y-63960000D02*
X136000000Y-77260000D01*
X106000000Y-63960000D02*
X106000000Y-77260000D01*
X166000000Y-84500000D02*
X166000000Y-97800000D01*
X136000000Y-84500000D02*
X136000000Y-97800000D01*
X166000000Y-36280000D02*
X180900000Y-36280000D01*
X136000000Y-36280000D02*
X150900000Y-36280000D01*
X106000000Y-36280000D02*
X120900000Y-36280000D01*
X166000000Y-56820000D02*
X180900000Y-56820000D01*
X136000000Y-56820000D02*
X150900000Y-56820000D01*
X106000000Y-56820000D02*
X120900000Y-56820000D01*
X166000000Y-77360000D02*
X180900000Y-77360000D01*
X136000000Y-77360000D02*
X150900000Y-77360000D01*
X106000000Y-77360000D02*
X120900000Y-77360000D01*
X166000000Y-97900000D02*
X180900000Y-97900000D01*
X136000000Y-97900000D02*
X150900000Y-97900000D01*
X180800000Y-36180000D02*
X180800000Y-22880000D01*
X150800000Y-36180000D02*
X150800000Y-22880000D01*
X120800000Y-36180000D02*
X120800000Y-22880000D01*
X180800000Y-56720000D02*
X180800000Y-43420000D01*
X150800000Y-56720000D02*
X150800000Y-43420000D01*
X120800000Y-56720000D02*
X120800000Y-43420000D01*
X180800000Y-77260000D02*
X180800000Y-63960000D01*
X150800000Y-77260000D02*
X150800000Y-63960000D01*
X120800000Y-77260000D02*
X120800000Y-63960000D01*
X180800000Y-97800000D02*
X180800000Y-84500000D01*
X150800000Y-97800000D02*
X150800000Y-84500000D01*
X180900000Y-22980000D02*
X165900000Y-22980000D01*
X150900000Y-22980000D02*
X135900000Y-22980000D01*
X120900000Y-22980000D02*
X105900000Y-22980000D01*
X180900000Y-43520000D02*
X165900000Y-43520000D01*
X150900000Y-43520000D02*
X135900000Y-43520000D01*
X120900000Y-43520000D02*
X105900000Y-43520000D01*
X180900000Y-64060000D02*
X165900000Y-64060000D01*
X150900000Y-64060000D02*
X135900000Y-64060000D01*
X120900000Y-64060000D02*
X105900000Y-64060000D01*
X180900000Y-84600000D02*
X165900000Y-84600000D01*
X150900000Y-84600000D02*
X135900000Y-84600000D01*
X166250000Y-22980000D02*
G75*
G03X166250000Y-22980000I-250000J0D01*
G01*
X136250000Y-22980000D02*
G75*
G03X136250000Y-22980000I-250000J0D01*
G01*
X106250000Y-22980000D02*
G75*
G03X106250000Y-22980000I-250000J0D01*
G01*
X166250000Y-43520000D02*
G75*
G03X166250000Y-43520000I-250000J0D01*
G01*
X136250000Y-43520000D02*
G75*
G03X136250000Y-43520000I-250000J0D01*
G01*
X106250000Y-43520000D02*
G75*
G03X106250000Y-43520000I-250000J0D01*
G01*
X166250000Y-64060000D02*
G75*
G03X166250000Y-64060000I-250000J0D01*
G01*
X136250000Y-64060000D02*
G75*
G03X136250000Y-64060000I-250000J0D01*
G01*
X106250000Y-64060000D02*
G75*
G03X106250000Y-64060000I-250000J0D01*
G01*
X166250000Y-84600000D02*
G75*
G03X166250000Y-84600000I-250000J0D01*
G01*
X136250000Y-84600000D02*
G75*
G03X136250000Y-84600000I-250000J0D01*
G01*
X181050000Y-36280000D02*
G75*
G03X181050000Y-36280000I-250000J0D01*
G01*
X151050000Y-36280000D02*
G75*
G03X151050000Y-36280000I-250000J0D01*
G01*
X121050000Y-36280000D02*
G75*
G03X121050000Y-36280000I-250000J0D01*
G01*
X181050000Y-56820000D02*
G75*
G03X181050000Y-56820000I-250000J0D01*
G01*
X151050000Y-56820000D02*
G75*
G03X151050000Y-56820000I-250000J0D01*
G01*
X121050000Y-56820000D02*
G75*
G03X121050000Y-56820000I-250000J0D01*
G01*
X181050000Y-77360000D02*
G75*
G03X181050000Y-77360000I-250000J0D01*
G01*
X151050000Y-77360000D02*
G75*
G03X151050000Y-77360000I-250000J0D01*
G01*
X121050000Y-77360000D02*
G75*
G03X121050000Y-77360000I-250000J0D01*
G01*
X181050000Y-97900000D02*
G75*
G03X181050000Y-97900000I-250000J0D01*
G01*
X151050000Y-97900000D02*
G75*
G03X151050000Y-97900000I-250000J0D01*
G01*
X166250000Y-36280000D02*
G75*
G03X166250000Y-36280000I-250000J0D01*
G01*
X136250000Y-36280000D02*
G75*
G03X136250000Y-36280000I-250000J0D01*
G01*
X106250000Y-36280000D02*
G75*
G03X106250000Y-36280000I-250000J0D01*
G01*
X166250000Y-56820000D02*
G75*
G03X166250000Y-56820000I-250000J0D01*
G01*
X136250000Y-56820000D02*
G75*
G03X136250000Y-56820000I-250000J0D01*
G01*
X106250000Y-56820000D02*
G75*
G03X106250000Y-56820000I-250000J0D01*
G01*
X166250000Y-77360000D02*
G75*
G03X166250000Y-77360000I-250000J0D01*
G01*
X136250000Y-77360000D02*
G75*
G03X136250000Y-77360000I-250000J0D01*
G01*
X106250000Y-77360000D02*
G75*
G03X106250000Y-77360000I-250000J0D01*
G01*
X166250000Y-97900000D02*
G75*
G03X166250000Y-97900000I-250000J0D01*
G01*
X136250000Y-97900000D02*
G75*
G03X136250000Y-97900000I-250000J0D01*
G01*
X94900000Y-15100000D02*
X94900000Y-105100000D01*
X94900000Y-15100000D02*
X191000000Y-15100000D01*
X191000000Y-105100000D02*
X191000000Y-15100000D01*
X94900000Y-105100000D02*
X191000000Y-105100000D01*
X106250000Y-84600000D02*
G75*
G03X106250000Y-84600000I-250000J0D01*
G01*
X106250000Y-97900000D02*
G75*
G03X106250000Y-97900000I-250000J0D01*
G01*
X121050000Y-97900000D02*
G75*
G03X121050000Y-97900000I-250000J0D01*
G01*
X120950000Y-84600000D02*
G75*
G03X120950000Y-84600000I-250000J0D01*
G01*
X124400000Y-82500000D02*
X126000000Y-84100000D01*
X100000000Y-84500000D02*
X101900000Y-82500000D01*
X100000000Y-97600000D02*
X102100000Y-100000000D01*
X122700000Y-97700000D02*
X122700000Y-100000000D01*
X126000000Y-94900000D02*
X122700000Y-97650000D01*
X126000000Y-84100000D02*
X126000000Y-94850000D01*
X100000000Y-84500000D02*
X100000000Y-97600000D01*
X102100000Y-100000000D02*
X122700000Y-100000000D01*
X101900000Y-82500000D02*
X124400000Y-82500000D01*
X106000000Y-97900000D02*
X120900000Y-97900000D01*
X106000000Y-84500000D02*
X106000000Y-97800000D01*
X120900000Y-84600000D02*
X105900000Y-84600000D01*
X120800000Y-97800000D02*
X120800000Y-84500000D01*
M02*
