G04 #@! TF.GenerationSoftware,KiCad,Pcbnew,(5.0.0-3-g5ebb6b6)*
G04 #@! TF.CreationDate,2018-09-07T23:46:28-06:00*
G04 #@! TF.ProjectId,Hak5-unify,48616B352D756E6966792E6B69636164,rev?*
G04 #@! TF.SameCoordinates,Original*
G04 #@! TF.FileFunction,Legend,Bot*
G04 #@! TF.FilePolarity,Positive*
%FSLAX46Y46*%
G04 Gerber Fmt 4.6, Leading zero omitted, Abs format (unit mm)*
G04 Created by KiCad (PCBNEW (5.0.0-3-g5ebb6b6)) date Friday, September 07, 2018 at 11:46:28 PM*
%MOMM*%
%LPD*%
G01*
G04 APERTURE LIST*
%ADD10C,0.162500*%
G04 APERTURE END LIST*
D10*
X120507142Y-99244047D02*
X120507142Y-98594047D01*
X120352380Y-98594047D01*
X120259523Y-98625000D01*
X120197619Y-98686904D01*
X120166666Y-98748809D01*
X120135714Y-98872619D01*
X120135714Y-98965476D01*
X120166666Y-99089285D01*
X120197619Y-99151190D01*
X120259523Y-99213095D01*
X120352380Y-99244047D01*
X120507142Y-99244047D01*
X119609523Y-99213095D02*
X119671428Y-99244047D01*
X119795238Y-99244047D01*
X119857142Y-99213095D01*
X119888095Y-99151190D01*
X119888095Y-98903571D01*
X119857142Y-98841666D01*
X119795238Y-98810714D01*
X119671428Y-98810714D01*
X119609523Y-98841666D01*
X119578571Y-98903571D01*
X119578571Y-98965476D01*
X119888095Y-99027380D01*
X119330952Y-99213095D02*
X119269047Y-99244047D01*
X119145238Y-99244047D01*
X119083333Y-99213095D01*
X119052380Y-99151190D01*
X119052380Y-99120238D01*
X119083333Y-99058333D01*
X119145238Y-99027380D01*
X119238095Y-99027380D01*
X119300000Y-98996428D01*
X119330952Y-98934523D01*
X119330952Y-98903571D01*
X119300000Y-98841666D01*
X119238095Y-98810714D01*
X119145238Y-98810714D01*
X119083333Y-98841666D01*
X118773809Y-99244047D02*
X118773809Y-98810714D01*
X118773809Y-98594047D02*
X118804761Y-98625000D01*
X118773809Y-98655952D01*
X118742857Y-98625000D01*
X118773809Y-98594047D01*
X118773809Y-98655952D01*
X118185714Y-98810714D02*
X118185714Y-99336904D01*
X118216666Y-99398809D01*
X118247619Y-99429761D01*
X118309523Y-99460714D01*
X118402380Y-99460714D01*
X118464285Y-99429761D01*
X118185714Y-99213095D02*
X118247619Y-99244047D01*
X118371428Y-99244047D01*
X118433333Y-99213095D01*
X118464285Y-99182142D01*
X118495238Y-99120238D01*
X118495238Y-98934523D01*
X118464285Y-98872619D01*
X118433333Y-98841666D01*
X118371428Y-98810714D01*
X118247619Y-98810714D01*
X118185714Y-98841666D01*
X117876190Y-98810714D02*
X117876190Y-99244047D01*
X117876190Y-98872619D02*
X117845238Y-98841666D01*
X117783333Y-98810714D01*
X117690476Y-98810714D01*
X117628571Y-98841666D01*
X117597619Y-98903571D01*
X117597619Y-99244047D01*
X117040476Y-99213095D02*
X117102380Y-99244047D01*
X117226190Y-99244047D01*
X117288095Y-99213095D01*
X117319047Y-99151190D01*
X117319047Y-98903571D01*
X117288095Y-98841666D01*
X117226190Y-98810714D01*
X117102380Y-98810714D01*
X117040476Y-98841666D01*
X117009523Y-98903571D01*
X117009523Y-98965476D01*
X117319047Y-99027380D01*
X116452380Y-99244047D02*
X116452380Y-98594047D01*
X116452380Y-99213095D02*
X116514285Y-99244047D01*
X116638095Y-99244047D01*
X116700000Y-99213095D01*
X116730952Y-99182142D01*
X116761904Y-99120238D01*
X116761904Y-98934523D01*
X116730952Y-98872619D01*
X116700000Y-98841666D01*
X116638095Y-98810714D01*
X116514285Y-98810714D01*
X116452380Y-98841666D01*
X115647619Y-99244047D02*
X115647619Y-98594047D01*
X115647619Y-98841666D02*
X115585714Y-98810714D01*
X115461904Y-98810714D01*
X115400000Y-98841666D01*
X115369047Y-98872619D01*
X115338095Y-98934523D01*
X115338095Y-99120238D01*
X115369047Y-99182142D01*
X115400000Y-99213095D01*
X115461904Y-99244047D01*
X115585714Y-99244047D01*
X115647619Y-99213095D01*
X115121428Y-98810714D02*
X114966666Y-99244047D01*
X114811904Y-98810714D02*
X114966666Y-99244047D01*
X115028571Y-99398809D01*
X115059523Y-99429761D01*
X115121428Y-99460714D01*
X114100000Y-99213095D02*
X114007142Y-99244047D01*
X113852380Y-99244047D01*
X113790476Y-99213095D01*
X113759523Y-99182142D01*
X113728571Y-99120238D01*
X113728571Y-99058333D01*
X113759523Y-98996428D01*
X113790476Y-98965476D01*
X113852380Y-98934523D01*
X113976190Y-98903571D01*
X114038095Y-98872619D01*
X114069047Y-98841666D01*
X114100000Y-98779761D01*
X114100000Y-98717857D01*
X114069047Y-98655952D01*
X114038095Y-98625000D01*
X113976190Y-98594047D01*
X113821428Y-98594047D01*
X113728571Y-98625000D01*
X113450000Y-98810714D02*
X113450000Y-99460714D01*
X113450000Y-98841666D02*
X113388095Y-98810714D01*
X113264285Y-98810714D01*
X113202380Y-98841666D01*
X113171428Y-98872619D01*
X113140476Y-98934523D01*
X113140476Y-99120238D01*
X113171428Y-99182142D01*
X113202380Y-99213095D01*
X113264285Y-99244047D01*
X113388095Y-99244047D01*
X113450000Y-99213095D01*
X112614285Y-99213095D02*
X112676190Y-99244047D01*
X112800000Y-99244047D01*
X112861904Y-99213095D01*
X112892857Y-99151190D01*
X112892857Y-98903571D01*
X112861904Y-98841666D01*
X112800000Y-98810714D01*
X112676190Y-98810714D01*
X112614285Y-98841666D01*
X112583333Y-98903571D01*
X112583333Y-98965476D01*
X112892857Y-99027380D01*
X112304761Y-98810714D02*
X112304761Y-99244047D01*
X112304761Y-98872619D02*
X112273809Y-98841666D01*
X112211904Y-98810714D01*
X112119047Y-98810714D01*
X112057142Y-98841666D01*
X112026190Y-98903571D01*
X112026190Y-99244047D01*
X111438095Y-99213095D02*
X111500000Y-99244047D01*
X111623809Y-99244047D01*
X111685714Y-99213095D01*
X111716666Y-99182142D01*
X111747619Y-99120238D01*
X111747619Y-98934523D01*
X111716666Y-98872619D01*
X111685714Y-98841666D01*
X111623809Y-98810714D01*
X111500000Y-98810714D01*
X111438095Y-98841666D01*
X110911904Y-99213095D02*
X110973809Y-99244047D01*
X111097619Y-99244047D01*
X111159523Y-99213095D01*
X111190476Y-99151190D01*
X111190476Y-98903571D01*
X111159523Y-98841666D01*
X111097619Y-98810714D01*
X110973809Y-98810714D01*
X110911904Y-98841666D01*
X110880952Y-98903571D01*
X110880952Y-98965476D01*
X111190476Y-99027380D01*
X110602380Y-99244047D02*
X110602380Y-98810714D01*
X110602380Y-98934523D02*
X110571428Y-98872619D01*
X110540476Y-98841666D01*
X110478571Y-98810714D01*
X110416666Y-98810714D01*
X109704761Y-99244047D02*
X109704761Y-98810714D01*
X109704761Y-98594047D02*
X109735714Y-98625000D01*
X109704761Y-98655952D01*
X109673809Y-98625000D01*
X109704761Y-98594047D01*
X109704761Y-98655952D01*
X109395238Y-98810714D02*
X109395238Y-99244047D01*
X109395238Y-98872619D02*
X109364285Y-98841666D01*
X109302380Y-98810714D01*
X109209523Y-98810714D01*
X109147619Y-98841666D01*
X109116666Y-98903571D01*
X109116666Y-99244047D01*
X108311904Y-98594047D02*
X108311904Y-99120238D01*
X108280952Y-99182142D01*
X108250000Y-99213095D01*
X108188095Y-99244047D01*
X108064285Y-99244047D01*
X108002380Y-99213095D01*
X107971428Y-99182142D01*
X107940476Y-99120238D01*
X107940476Y-98594047D01*
X107723809Y-98810714D02*
X107476190Y-98810714D01*
X107630952Y-98594047D02*
X107630952Y-99151190D01*
X107600000Y-99213095D01*
X107538095Y-99244047D01*
X107476190Y-99244047D01*
X106980952Y-99244047D02*
X106980952Y-98903571D01*
X107011904Y-98841666D01*
X107073809Y-98810714D01*
X107197619Y-98810714D01*
X107259523Y-98841666D01*
X106980952Y-99213095D02*
X107042857Y-99244047D01*
X107197619Y-99244047D01*
X107259523Y-99213095D01*
X107290476Y-99151190D01*
X107290476Y-99089285D01*
X107259523Y-99027380D01*
X107197619Y-98996428D01*
X107042857Y-98996428D01*
X106980952Y-98965476D01*
X106671428Y-99244047D02*
X106671428Y-98594047D01*
X106392857Y-99244047D02*
X106392857Y-98903571D01*
X106423809Y-98841666D01*
X106485714Y-98810714D01*
X106578571Y-98810714D01*
X106640476Y-98841666D01*
X106671428Y-98872619D01*
M02*
