G04 #@! TF.GenerationSoftware,KiCad,Pcbnew,(5.0.1-3-g963ef8bb5)*
G04 #@! TF.CreationDate,2018-10-18T19:37:19-06:00*
G04 #@! TF.ProjectId,Hak5-unify,48616B352D756E6966792E6B69636164,rev?*
G04 #@! TF.SameCoordinates,Original*
G04 #@! TF.FileFunction,Copper,L2,Bot,Signal*
G04 #@! TF.FilePolarity,Positive*
%FSLAX46Y46*%
G04 Gerber Fmt 4.6, Leading zero omitted, Abs format (unit mm)*
G04 Created by KiCad (PCBNEW (5.0.1-3-g963ef8bb5)) date Thursday, October 18, 2018 at 07:37:19 PM*
%MOMM*%
%LPD*%
G01*
G04 APERTURE LIST*
G04 #@! TA.AperFunction,SMDPad,CuDef*
%ADD10C,0.500000*%
G04 #@! TD*
G04 #@! TA.AperFunction,Conductor*
%ADD11C,0.100000*%
G04 #@! TD*
G04 #@! TA.AperFunction,ComponentPad*
%ADD12C,1.524000*%
G04 #@! TD*
G04 #@! TA.AperFunction,ComponentPad*
%ADD13O,1.700000X1.700000*%
G04 #@! TD*
G04 #@! TA.AperFunction,ComponentPad*
%ADD14R,1.700000X1.700000*%
G04 #@! TD*
G04 #@! TA.AperFunction,SMDPad,CuDef*
%ADD15R,0.900000X0.800000*%
G04 #@! TD*
G04 #@! TA.AperFunction,ComponentPad*
%ADD16C,1.400000*%
G04 #@! TD*
G04 #@! TA.AperFunction,ComponentPad*
%ADD17O,1.400000X1.400000*%
G04 #@! TD*
G04 #@! TA.AperFunction,ViaPad*
%ADD18C,0.600000*%
G04 #@! TD*
G04 #@! TA.AperFunction,Conductor*
%ADD19C,0.250000*%
G04 #@! TD*
G04 #@! TA.AperFunction,Conductor*
%ADD20C,0.500000*%
G04 #@! TD*
G04 APERTURE END LIST*
D10*
G04 #@! TO.P,JP1,1*
G04 #@! TO.N,Net-(JP1-Pad1)*
X97500000Y-93100000D03*
D11*
G04 #@! TD*
G04 #@! TO.N,Net-(JP1-Pad1)*
G04 #@! TO.C,JP1*
G36*
X98000000Y-93850000D02*
X97500000Y-93850000D01*
X97500000Y-93849398D01*
X97475466Y-93849398D01*
X97426635Y-93844588D01*
X97378510Y-93835016D01*
X97331555Y-93820772D01*
X97286222Y-93801995D01*
X97242949Y-93778864D01*
X97202150Y-93751604D01*
X97164221Y-93720476D01*
X97129524Y-93685779D01*
X97098396Y-93647850D01*
X97071136Y-93607051D01*
X97048005Y-93563778D01*
X97029228Y-93518445D01*
X97014984Y-93471490D01*
X97005412Y-93423365D01*
X97000602Y-93374534D01*
X97000602Y-93350000D01*
X97000000Y-93350000D01*
X97000000Y-92850000D01*
X97000602Y-92850000D01*
X97000602Y-92825466D01*
X97005412Y-92776635D01*
X97014984Y-92728510D01*
X97029228Y-92681555D01*
X97048005Y-92636222D01*
X97071136Y-92592949D01*
X97098396Y-92552150D01*
X97129524Y-92514221D01*
X97164221Y-92479524D01*
X97202150Y-92448396D01*
X97242949Y-92421136D01*
X97286222Y-92398005D01*
X97331555Y-92379228D01*
X97378510Y-92364984D01*
X97426635Y-92355412D01*
X97475466Y-92350602D01*
X97500000Y-92350602D01*
X97500000Y-92350000D01*
X98000000Y-92350000D01*
X98000000Y-93850000D01*
X98000000Y-93850000D01*
G37*
D10*
G04 #@! TO.P,JP1,2*
G04 #@! TO.N,GND*
X98800000Y-93100000D03*
D11*
G04 #@! TD*
G04 #@! TO.N,GND*
G04 #@! TO.C,JP1*
G36*
X98800000Y-92350602D02*
X98824534Y-92350602D01*
X98873365Y-92355412D01*
X98921490Y-92364984D01*
X98968445Y-92379228D01*
X99013778Y-92398005D01*
X99057051Y-92421136D01*
X99097850Y-92448396D01*
X99135779Y-92479524D01*
X99170476Y-92514221D01*
X99201604Y-92552150D01*
X99228864Y-92592949D01*
X99251995Y-92636222D01*
X99270772Y-92681555D01*
X99285016Y-92728510D01*
X99294588Y-92776635D01*
X99299398Y-92825466D01*
X99299398Y-92850000D01*
X99300000Y-92850000D01*
X99300000Y-93350000D01*
X99299398Y-93350000D01*
X99299398Y-93374534D01*
X99294588Y-93423365D01*
X99285016Y-93471490D01*
X99270772Y-93518445D01*
X99251995Y-93563778D01*
X99228864Y-93607051D01*
X99201604Y-93647850D01*
X99170476Y-93685779D01*
X99135779Y-93720476D01*
X99097850Y-93751604D01*
X99057051Y-93778864D01*
X99013778Y-93801995D01*
X98968445Y-93820772D01*
X98921490Y-93835016D01*
X98873365Y-93844588D01*
X98824534Y-93849398D01*
X98800000Y-93849398D01*
X98800000Y-93850000D01*
X98300000Y-93850000D01*
X98300000Y-92350000D01*
X98800000Y-92350000D01*
X98800000Y-92350602D01*
X98800000Y-92350602D01*
G37*
D12*
G04 #@! TO.P,U1,9*
G04 #@! TO.N,Net-(SW1-Pad2)*
X114950000Y-90050000D03*
G04 #@! TO.P,U1,10*
G04 #@! TO.N,Net-(SW1-Pad1)*
X111350000Y-90050000D03*
G04 #@! TO.P,U1,7*
G04 #@! TO.N,Net-(U1-Pad7)*
X117450000Y-101550000D03*
G04 #@! TO.P,U1,6*
G04 #@! TO.N,+5V*
X102500000Y-101850000D03*
G04 #@! TO.P,U1,5*
G04 #@! TO.N,Net-(JP1-Pad1)*
X102500000Y-99850000D03*
G04 #@! TO.P,U1,4*
G04 #@! TO.N,Net-(U1-Pad4)*
X102500000Y-97850000D03*
G04 #@! TO.P,U1,3*
G04 #@! TO.N,Net-(U1-Pad3)*
X102500000Y-95850000D03*
G04 #@! TO.P,U1,2*
G04 #@! TO.N,Net-(J2-Pad3)*
X102500000Y-93850000D03*
G04 #@! TO.P,U1,1*
G04 #@! TO.N,TX*
X102500000Y-91850000D03*
G04 #@! TD*
D13*
G04 #@! TO.P,J2,3*
G04 #@! TO.N,Net-(J2-Pad3)*
X98250000Y-96720000D03*
G04 #@! TO.P,J2,2*
G04 #@! TO.N,GND*
X98250000Y-99260000D03*
D14*
G04 #@! TO.P,J2,1*
G04 #@! TO.N,+5V*
X98250000Y-101800000D03*
G04 #@! TD*
D15*
G04 #@! TO.P,Q2,3*
G04 #@! TO.N,Net-(JP1-Pad1)*
X98700000Y-90150000D03*
G04 #@! TO.P,Q2,2*
G04 #@! TO.N,GND*
X100700000Y-91100000D03*
G04 #@! TO.P,Q2,1*
G04 #@! TO.N,Net-(Q2-Pad1)*
X100700000Y-89200000D03*
G04 #@! TD*
D14*
G04 #@! TO.P,J1,1*
G04 #@! TO.N,TX*
X122390000Y-99200000D03*
D13*
G04 #@! TO.P,J1,2*
G04 #@! TO.N,RX*
X122390000Y-96660000D03*
G04 #@! TO.P,J1,3*
G04 #@! TO.N,+5V*
X122390000Y-94120000D03*
G04 #@! TO.P,J1,4*
G04 #@! TO.N,GND*
X122390000Y-91580000D03*
G04 #@! TD*
D16*
G04 #@! TO.P,R1,1*
G04 #@! TO.N,TX*
X100500000Y-93080000D03*
D17*
G04 #@! TO.P,R1,2*
G04 #@! TO.N,GND*
X100500000Y-100700000D03*
G04 #@! TD*
D16*
G04 #@! TO.P,R2,1*
G04 #@! TO.N,GND*
X118600000Y-96900000D03*
D17*
G04 #@! TO.P,R2,2*
G04 #@! TO.N,Net-(Q2-Pad1)*
X118600000Y-89280000D03*
G04 #@! TD*
G04 #@! TO.P,R3,2*
G04 #@! TO.N,RX*
X120250000Y-98670000D03*
D16*
G04 #@! TO.P,R3,1*
G04 #@! TO.N,Net-(Q2-Pad1)*
X120250000Y-91050000D03*
G04 #@! TD*
D18*
G04 #@! TO.N,Net-(JP1-Pad1)*
X99860798Y-97978526D03*
G04 #@! TD*
D19*
G04 #@! TO.N,GND*
X117602088Y-104250000D02*
X102450000Y-104250000D01*
X100500000Y-102300000D02*
X100500000Y-100700000D01*
X102450000Y-104250000D02*
X100500000Y-102300000D01*
X118600000Y-103252088D02*
X118600000Y-96900000D01*
X117602088Y-104250000D02*
X118600000Y-103252088D01*
D20*
X98800000Y-93000000D02*
X100700000Y-91100000D01*
X98800000Y-93100000D02*
X98800000Y-93000000D01*
X98800000Y-93100000D02*
X98800000Y-93947592D01*
X98800000Y-93947592D02*
X100650000Y-95797592D01*
X100650000Y-95797592D02*
X100650000Y-98300000D01*
X99690000Y-99260000D02*
X98250000Y-99260000D01*
X100650000Y-98300000D02*
X99690000Y-99260000D01*
D19*
G04 #@! TO.N,TX*
X117812444Y-104987556D02*
X119100000Y-103700000D01*
X121290000Y-99200000D02*
X122390000Y-99200000D01*
X99988178Y-99775010D02*
X99974990Y-99775010D01*
X99474999Y-100275001D02*
X99474999Y-102187443D01*
X99474999Y-102187443D02*
X102287556Y-105000000D01*
X99974990Y-99775010D02*
X99474999Y-100275001D01*
X102287556Y-105000000D02*
X117812444Y-105000000D01*
X117812444Y-105000000D02*
X117812444Y-104987556D01*
X119100000Y-103700000D02*
X119100000Y-101390000D01*
X119100000Y-101390000D02*
X121290000Y-99200000D01*
X101225010Y-98538178D02*
X99988178Y-99775010D01*
X100500000Y-93080000D02*
X101225011Y-93805011D01*
X101225011Y-93805011D02*
X101225010Y-98538178D01*
D20*
G04 #@! TO.N,RX*
X120380000Y-98670000D02*
X122390000Y-96660000D01*
X120250000Y-98670000D02*
X120380000Y-98670000D01*
G04 #@! TO.N,Net-(JP1-Pad1)*
X97500000Y-91350000D02*
X98700000Y-90150000D01*
X97500000Y-93100000D02*
X97500000Y-91350000D01*
X99860798Y-97554262D02*
X99860798Y-97978526D01*
X97500000Y-94089965D02*
X99860798Y-96450763D01*
X97500000Y-93100000D02*
X97500000Y-94089965D01*
X99860798Y-96450763D02*
X99860798Y-97554262D01*
G04 #@! TO.N,Net-(Q2-Pad1)*
X117610051Y-89280000D02*
X118600000Y-89280000D01*
X117168050Y-88837999D02*
X117610051Y-89280000D01*
X102012001Y-88837999D02*
X117168050Y-88837999D01*
X101650000Y-89200000D02*
X102012001Y-88837999D01*
X100700000Y-89200000D02*
X101650000Y-89200000D01*
X118600000Y-89400000D02*
X120250000Y-91050000D01*
X118600000Y-89280000D02*
X118600000Y-89400000D01*
G04 #@! TD*
M02*
