M48
;DRILL file {KiCad (5.0.1-3-g963ef8bb5)} date Thursday, October 18, 2018 at 07:37:21 PM
;FORMAT={-:-/ absolute / inch / decimal}
FMAT,2
INCH,TZ
T1C0.0157
T2C0.0276
T3C0.0300
T4C0.0394
%
G90
G05
M72
T1
X3.9315Y-3.8574
T2
X4.6693Y-3.515
X4.6693Y-3.815
X3.9567Y-3.6646
X3.9567Y-3.9646
X4.7343Y-3.5846
X4.7343Y-3.8846
T3
X4.0354Y-3.6161
X4.0354Y-3.6949
X4.0354Y-3.7736
X4.0354Y-3.8524
X4.0354Y-3.9311
X4.0354Y-4.0098
X4.3839Y-3.5453
X4.5256Y-3.5453
X4.624Y-3.998
T4
X3.8681Y-3.8079
X3.8681Y-3.9079
X3.8681Y-4.0079
X4.8185Y-3.6055
X4.8185Y-3.7055
X4.8185Y-3.8055
X4.8185Y-3.9055
T0
M30
