M48
;DRILL file {KiCad (5.0.0-3-g5ebb6b6)} date Monday, September 17, 2018 at 09:24:30 AM
;FORMAT={-:-/ absolute / inch / decimal}
FMAT,2
INCH,TZ
T1C0.0157
T2C0.0276
T3C0.0300
T4C0.0394
%
G90
G05
M72
T1
X3.8839Y-4.0827
X4.0374Y-4.0827
X4.0394Y-3.5492
X4.626Y-3.5453
X4.628Y-4.0827
T2
X4.7362Y-3.5209
X4.7362Y-3.8209
X3.9567Y-3.6181
X3.9567Y-3.9181
X4.6732Y-3.6083
X4.6732Y-3.9083
T3
X4.0354Y-3.6161
X4.0354Y-3.6949
X4.0354Y-3.7736
X4.0354Y-3.8524
X4.0354Y-3.9311
X4.0354Y-4.0098
X4.3839Y-3.5453
X4.5256Y-3.5453
X4.624Y-3.998
T4
X3.8681Y-3.8079
X3.8681Y-3.9079
X3.8681Y-4.0079
X4.8185Y-3.6055
X4.8185Y-3.7055
X4.8185Y-3.8055
X4.8185Y-3.9055
T0
M30
