G04 #@! TF.GenerationSoftware,KiCad,Pcbnew,(5.0.1-3-g963ef8bb5)*
G04 #@! TF.CreationDate,2018-10-18T19:37:19-06:00*
G04 #@! TF.ProjectId,Hak5-unify,48616B352D756E6966792E6B69636164,rev?*
G04 #@! TF.SameCoordinates,Original*
G04 #@! TF.FileFunction,Soldermask,Top*
G04 #@! TF.FilePolarity,Negative*
%FSLAX46Y46*%
G04 Gerber Fmt 4.6, Leading zero omitted, Abs format (unit mm)*
G04 Created by KiCad (PCBNEW (5.0.1-3-g963ef8bb5)) date Thursday, October 18, 2018 at 07:37:19 PM*
%MOMM*%
%LPD*%
G01*
G04 APERTURE LIST*
%ADD10C,0.100000*%
G04 APERTURE END LIST*
D10*
G36*
X99300000Y-102850000D02*
X97200000Y-102850000D01*
X97200000Y-100750000D01*
X99300000Y-100750000D01*
X99300000Y-102850000D01*
X99300000Y-102850000D01*
G37*
G36*
X102780603Y-90924968D02*
X102780606Y-90924969D01*
X102780605Y-90924969D01*
X102955678Y-90997486D01*
X103033923Y-91049768D01*
X103113241Y-91102767D01*
X103247233Y-91236759D01*
X103247234Y-91236761D01*
X103352514Y-91394322D01*
X103386474Y-91476309D01*
X103425032Y-91569397D01*
X103462000Y-91755250D01*
X103462000Y-91944750D01*
X103425032Y-92130603D01*
X103425031Y-92130605D01*
X103352514Y-92305678D01*
X103352513Y-92305679D01*
X103247233Y-92463241D01*
X103113241Y-92597233D01*
X103064202Y-92630000D01*
X102955678Y-92702514D01*
X102878420Y-92734515D01*
X102856809Y-92746066D01*
X102837867Y-92761612D01*
X102822321Y-92780554D01*
X102810770Y-92802165D01*
X102803657Y-92825614D01*
X102801255Y-92850000D01*
X102803657Y-92874386D01*
X102810770Y-92897835D01*
X102822321Y-92919446D01*
X102837867Y-92938388D01*
X102856809Y-92953934D01*
X102878420Y-92965485D01*
X102955678Y-92997486D01*
X103060481Y-93067514D01*
X103113241Y-93102767D01*
X103247233Y-93236759D01*
X103300232Y-93316077D01*
X103352514Y-93394322D01*
X103408603Y-93529734D01*
X103425032Y-93569397D01*
X103462000Y-93755250D01*
X103462000Y-93944750D01*
X103425032Y-94130603D01*
X103425031Y-94130605D01*
X103352514Y-94305678D01*
X103300232Y-94383923D01*
X103247233Y-94463241D01*
X103113241Y-94597233D01*
X103060481Y-94632486D01*
X102955678Y-94702514D01*
X102878420Y-94734515D01*
X102856809Y-94746066D01*
X102837867Y-94761612D01*
X102822321Y-94780554D01*
X102810770Y-94802165D01*
X102803657Y-94825614D01*
X102801255Y-94850000D01*
X102803657Y-94874386D01*
X102810770Y-94897835D01*
X102822321Y-94919446D01*
X102837867Y-94938388D01*
X102856809Y-94953934D01*
X102878420Y-94965485D01*
X102955678Y-94997486D01*
X103060481Y-95067514D01*
X103113241Y-95102767D01*
X103247233Y-95236759D01*
X103247234Y-95236761D01*
X103352514Y-95394322D01*
X103408603Y-95529734D01*
X103425032Y-95569397D01*
X103462000Y-95755250D01*
X103462000Y-95944750D01*
X103425032Y-96130603D01*
X103425031Y-96130605D01*
X103352514Y-96305678D01*
X103345458Y-96316238D01*
X103247233Y-96463241D01*
X103113241Y-96597233D01*
X103060481Y-96632486D01*
X102955678Y-96702514D01*
X102878420Y-96734515D01*
X102856809Y-96746066D01*
X102837867Y-96761612D01*
X102822321Y-96780554D01*
X102810770Y-96802165D01*
X102803657Y-96825614D01*
X102801255Y-96850000D01*
X102803657Y-96874386D01*
X102810770Y-96897835D01*
X102822321Y-96919446D01*
X102837867Y-96938388D01*
X102856809Y-96953934D01*
X102878420Y-96965485D01*
X102955678Y-96997486D01*
X103054866Y-97063762D01*
X103113241Y-97102767D01*
X103247233Y-97236759D01*
X103293613Y-97306171D01*
X103352514Y-97394322D01*
X103382226Y-97466054D01*
X103425032Y-97569397D01*
X103462000Y-97755250D01*
X103462000Y-97944750D01*
X103425032Y-98130603D01*
X103425031Y-98130605D01*
X103352514Y-98305678D01*
X103318589Y-98356450D01*
X103247233Y-98463241D01*
X103113241Y-98597233D01*
X103060481Y-98632486D01*
X102955678Y-98702514D01*
X102878420Y-98734515D01*
X102856809Y-98746066D01*
X102837867Y-98761612D01*
X102822321Y-98780554D01*
X102810770Y-98802165D01*
X102803657Y-98825614D01*
X102801255Y-98850000D01*
X102803657Y-98874386D01*
X102810770Y-98897835D01*
X102822321Y-98919446D01*
X102837867Y-98938388D01*
X102856809Y-98953934D01*
X102878420Y-98965485D01*
X102955678Y-98997486D01*
X103040502Y-99054164D01*
X103113241Y-99102767D01*
X103247233Y-99236759D01*
X103247234Y-99236761D01*
X103352514Y-99394322D01*
X103363955Y-99421944D01*
X103425032Y-99569397D01*
X103462000Y-99755250D01*
X103462000Y-99944750D01*
X103425032Y-100130603D01*
X103425031Y-100130605D01*
X103352514Y-100305678D01*
X103352513Y-100305679D01*
X103247233Y-100463241D01*
X103113241Y-100597233D01*
X103071733Y-100624968D01*
X102955678Y-100702514D01*
X102878420Y-100734515D01*
X102856809Y-100746066D01*
X102837867Y-100761612D01*
X102822321Y-100780554D01*
X102810770Y-100802165D01*
X102803657Y-100825614D01*
X102801255Y-100850000D01*
X102803657Y-100874386D01*
X102810770Y-100897835D01*
X102822321Y-100919446D01*
X102837867Y-100938388D01*
X102856809Y-100953934D01*
X102878420Y-100965485D01*
X102955678Y-100997486D01*
X103060481Y-101067514D01*
X103113241Y-101102767D01*
X103247233Y-101236759D01*
X103247234Y-101236761D01*
X103352514Y-101394322D01*
X103377751Y-101455250D01*
X103425032Y-101569397D01*
X103462000Y-101755250D01*
X103462000Y-101944750D01*
X103425032Y-102130603D01*
X103425031Y-102130605D01*
X103352514Y-102305678D01*
X103352513Y-102305679D01*
X103247233Y-102463241D01*
X103113241Y-102597233D01*
X103033923Y-102650232D01*
X102955678Y-102702514D01*
X102820266Y-102758603D01*
X102780603Y-102775032D01*
X102594750Y-102812000D01*
X102405250Y-102812000D01*
X102219397Y-102775032D01*
X102179734Y-102758603D01*
X102044322Y-102702514D01*
X101966077Y-102650232D01*
X101886759Y-102597233D01*
X101752767Y-102463241D01*
X101647487Y-102305679D01*
X101647486Y-102305678D01*
X101574969Y-102130605D01*
X101574968Y-102130603D01*
X101538000Y-101944750D01*
X101538000Y-101755250D01*
X101574968Y-101569397D01*
X101622249Y-101455250D01*
X101647486Y-101394322D01*
X101752766Y-101236761D01*
X101752767Y-101236759D01*
X101886759Y-101102767D01*
X101939519Y-101067514D01*
X102044322Y-100997486D01*
X102121580Y-100965485D01*
X102143191Y-100953934D01*
X102162133Y-100938388D01*
X102177679Y-100919446D01*
X102189230Y-100897835D01*
X102196343Y-100874386D01*
X102198745Y-100850000D01*
X102196343Y-100825614D01*
X102189230Y-100802165D01*
X102177679Y-100780554D01*
X102162133Y-100761612D01*
X102143191Y-100746066D01*
X102121580Y-100734515D01*
X102044322Y-100702514D01*
X101928267Y-100624968D01*
X101886759Y-100597233D01*
X101752767Y-100463241D01*
X101647487Y-100305679D01*
X101647486Y-100305678D01*
X101574969Y-100130605D01*
X101574968Y-100130603D01*
X101538000Y-99944750D01*
X101538000Y-99755250D01*
X101574968Y-99569397D01*
X101636045Y-99421944D01*
X101647486Y-99394322D01*
X101752766Y-99236761D01*
X101752767Y-99236759D01*
X101886759Y-99102767D01*
X101959498Y-99054164D01*
X102044322Y-98997486D01*
X102121580Y-98965485D01*
X102143191Y-98953934D01*
X102162133Y-98938388D01*
X102177679Y-98919446D01*
X102189230Y-98897835D01*
X102196343Y-98874386D01*
X102198745Y-98850000D01*
X102196343Y-98825614D01*
X102189230Y-98802165D01*
X102177679Y-98780554D01*
X102162133Y-98761612D01*
X102143191Y-98746066D01*
X102121580Y-98734515D01*
X102044322Y-98702514D01*
X101939519Y-98632486D01*
X101886759Y-98597233D01*
X101752767Y-98463241D01*
X101681411Y-98356450D01*
X101647486Y-98305678D01*
X101574969Y-98130605D01*
X101574968Y-98130603D01*
X101538000Y-97944750D01*
X101538000Y-97755250D01*
X101574968Y-97569397D01*
X101617774Y-97466054D01*
X101647486Y-97394322D01*
X101706387Y-97306171D01*
X101752767Y-97236759D01*
X101886759Y-97102767D01*
X101945134Y-97063762D01*
X102044322Y-96997486D01*
X102121580Y-96965485D01*
X102143191Y-96953934D01*
X102162133Y-96938388D01*
X102177679Y-96919446D01*
X102189230Y-96897835D01*
X102196343Y-96874386D01*
X102198745Y-96850000D01*
X102196343Y-96825614D01*
X102189230Y-96802165D01*
X102177679Y-96780554D01*
X102162133Y-96761612D01*
X102143191Y-96746066D01*
X102121580Y-96734515D01*
X102044322Y-96702514D01*
X101939519Y-96632486D01*
X101886759Y-96597233D01*
X101752767Y-96463241D01*
X101654542Y-96316238D01*
X101647486Y-96305678D01*
X101574969Y-96130605D01*
X101574968Y-96130603D01*
X101538000Y-95944750D01*
X101538000Y-95755250D01*
X101574968Y-95569397D01*
X101591397Y-95529734D01*
X101647486Y-95394322D01*
X101752766Y-95236761D01*
X101752767Y-95236759D01*
X101886759Y-95102767D01*
X101939519Y-95067514D01*
X102044322Y-94997486D01*
X102121580Y-94965485D01*
X102143191Y-94953934D01*
X102162133Y-94938388D01*
X102177679Y-94919446D01*
X102189230Y-94897835D01*
X102196343Y-94874386D01*
X102198745Y-94850000D01*
X102196343Y-94825614D01*
X102189230Y-94802165D01*
X102177679Y-94780554D01*
X102162133Y-94761612D01*
X102143191Y-94746066D01*
X102121580Y-94734515D01*
X102044322Y-94702514D01*
X101939519Y-94632486D01*
X101886759Y-94597233D01*
X101752767Y-94463241D01*
X101699768Y-94383923D01*
X101647486Y-94305678D01*
X101574969Y-94130605D01*
X101574968Y-94130603D01*
X101538000Y-93944750D01*
X101538000Y-93755250D01*
X101574968Y-93569397D01*
X101591397Y-93529734D01*
X101647486Y-93394322D01*
X101699768Y-93316077D01*
X101752767Y-93236759D01*
X101886759Y-93102767D01*
X101939519Y-93067514D01*
X102044322Y-92997486D01*
X102121580Y-92965485D01*
X102143191Y-92953934D01*
X102162133Y-92938388D01*
X102177679Y-92919446D01*
X102189230Y-92897835D01*
X102196343Y-92874386D01*
X102198745Y-92850000D01*
X102196343Y-92825614D01*
X102189230Y-92802165D01*
X102177679Y-92780554D01*
X102162133Y-92761612D01*
X102143191Y-92746066D01*
X102121580Y-92734515D01*
X102044322Y-92702514D01*
X101935798Y-92630000D01*
X101886759Y-92597233D01*
X101752767Y-92463241D01*
X101647487Y-92305679D01*
X101647486Y-92305678D01*
X101574969Y-92130605D01*
X101574968Y-92130603D01*
X101538000Y-91944750D01*
X101538000Y-91755250D01*
X101574968Y-91569397D01*
X101613526Y-91476309D01*
X101647486Y-91394322D01*
X101752766Y-91236761D01*
X101752767Y-91236759D01*
X101886759Y-91102767D01*
X101966077Y-91049768D01*
X102044322Y-90997486D01*
X102219395Y-90924969D01*
X102219394Y-90924969D01*
X102219397Y-90924968D01*
X102405250Y-90888000D01*
X102594750Y-90888000D01*
X102780603Y-90924968D01*
X102780603Y-90924968D01*
G37*
G36*
X117730603Y-100624968D02*
X117730606Y-100624969D01*
X117730605Y-100624969D01*
X117905678Y-100697486D01*
X117961095Y-100734515D01*
X118063241Y-100802767D01*
X118197233Y-100936759D01*
X118197234Y-100936761D01*
X118302514Y-101094322D01*
X118347294Y-101202432D01*
X118375032Y-101269397D01*
X118412000Y-101455250D01*
X118412000Y-101644750D01*
X118375032Y-101830603D01*
X118375031Y-101830605D01*
X118302514Y-102005678D01*
X118302513Y-102005679D01*
X118197233Y-102163241D01*
X118063241Y-102297233D01*
X117983923Y-102350232D01*
X117905678Y-102402514D01*
X117770266Y-102458603D01*
X117730603Y-102475032D01*
X117544750Y-102512000D01*
X117355250Y-102512000D01*
X117169397Y-102475032D01*
X117129734Y-102458603D01*
X116994322Y-102402514D01*
X116916077Y-102350232D01*
X116836759Y-102297233D01*
X116702767Y-102163241D01*
X116597487Y-102005679D01*
X116597486Y-102005678D01*
X116524969Y-101830605D01*
X116524968Y-101830603D01*
X116488000Y-101644750D01*
X116488000Y-101455250D01*
X116524968Y-101269397D01*
X116552706Y-101202432D01*
X116597486Y-101094322D01*
X116702766Y-100936761D01*
X116702767Y-100936759D01*
X116836759Y-100802767D01*
X116938905Y-100734515D01*
X116994322Y-100697486D01*
X117169395Y-100624969D01*
X117169394Y-100624969D01*
X117169397Y-100624968D01*
X117355250Y-100588000D01*
X117544750Y-100588000D01*
X117730603Y-100624968D01*
X117730603Y-100624968D01*
G37*
G36*
X100676432Y-99813022D02*
X100846081Y-99864485D01*
X101002433Y-99948056D01*
X101139475Y-100060525D01*
X101251944Y-100197567D01*
X101335515Y-100353919D01*
X101386978Y-100523568D01*
X101404354Y-100700000D01*
X101386978Y-100876432D01*
X101335515Y-101046081D01*
X101251944Y-101202433D01*
X101139475Y-101339475D01*
X101002433Y-101451944D01*
X100846081Y-101535515D01*
X100676432Y-101586978D01*
X100544211Y-101600000D01*
X100455789Y-101600000D01*
X100323568Y-101586978D01*
X100153919Y-101535515D01*
X99997567Y-101451944D01*
X99860525Y-101339475D01*
X99748056Y-101202433D01*
X99664485Y-101046081D01*
X99613022Y-100876432D01*
X99595646Y-100700000D01*
X99613022Y-100523568D01*
X99664485Y-100353919D01*
X99748056Y-100197567D01*
X99860525Y-100060525D01*
X99997567Y-99948056D01*
X100153919Y-99864485D01*
X100323568Y-99813022D01*
X100455789Y-99800000D01*
X100544211Y-99800000D01*
X100676432Y-99813022D01*
X100676432Y-99813022D01*
G37*
G36*
X98378707Y-98217596D02*
X98455836Y-98225193D01*
X98587787Y-98265220D01*
X98653763Y-98285233D01*
X98836172Y-98382733D01*
X98996054Y-98513946D01*
X99127267Y-98673828D01*
X99224767Y-98856237D01*
X99224767Y-98856238D01*
X99284807Y-99054164D01*
X99305080Y-99260000D01*
X99284807Y-99465836D01*
X99257160Y-99556977D01*
X99224767Y-99663763D01*
X99127267Y-99846172D01*
X98996054Y-100006054D01*
X98836172Y-100137267D01*
X98653763Y-100234767D01*
X98587787Y-100254780D01*
X98455836Y-100294807D01*
X98378707Y-100302403D01*
X98301580Y-100310000D01*
X98198420Y-100310000D01*
X98121293Y-100302403D01*
X98044164Y-100294807D01*
X97912213Y-100254780D01*
X97846237Y-100234767D01*
X97663828Y-100137267D01*
X97503946Y-100006054D01*
X97372733Y-99846172D01*
X97275233Y-99663763D01*
X97242840Y-99556977D01*
X97215193Y-99465836D01*
X97194920Y-99260000D01*
X97215193Y-99054164D01*
X97275233Y-98856238D01*
X97275233Y-98856237D01*
X97372733Y-98673828D01*
X97503946Y-98513946D01*
X97663828Y-98382733D01*
X97846237Y-98285233D01*
X97912213Y-98265220D01*
X98044164Y-98225193D01*
X98121293Y-98217596D01*
X98198420Y-98210000D01*
X98301580Y-98210000D01*
X98378707Y-98217596D01*
X98378707Y-98217596D01*
G37*
G36*
X120426432Y-97783022D02*
X120596081Y-97834485D01*
X120752433Y-97918056D01*
X120889475Y-98030525D01*
X121001944Y-98167567D01*
X121085515Y-98323919D01*
X121095383Y-98356450D01*
X121104760Y-98379089D01*
X121118374Y-98399463D01*
X121135701Y-98416790D01*
X121156076Y-98430404D01*
X121178715Y-98439782D01*
X121202748Y-98444562D01*
X121227252Y-98444562D01*
X121251286Y-98439781D01*
X121273925Y-98430404D01*
X121294299Y-98416790D01*
X121311626Y-98399463D01*
X121325240Y-98379088D01*
X121334618Y-98356449D01*
X121340000Y-98320164D01*
X121340000Y-98150000D01*
X123440000Y-98150000D01*
X123440000Y-100250000D01*
X121340000Y-100250000D01*
X121340000Y-99019836D01*
X121337598Y-98995450D01*
X121330485Y-98972001D01*
X121318934Y-98950390D01*
X121303388Y-98931448D01*
X121284446Y-98915902D01*
X121262835Y-98904351D01*
X121239386Y-98897238D01*
X121215000Y-98894836D01*
X121190614Y-98897238D01*
X121167165Y-98904351D01*
X121145554Y-98915902D01*
X121126612Y-98931448D01*
X121111066Y-98950390D01*
X121095383Y-98983550D01*
X121085515Y-99016081D01*
X121001944Y-99172433D01*
X120889475Y-99309475D01*
X120752433Y-99421944D01*
X120596081Y-99505515D01*
X120426432Y-99556978D01*
X120294211Y-99570000D01*
X120205789Y-99570000D01*
X120073568Y-99556978D01*
X119903919Y-99505515D01*
X119747567Y-99421944D01*
X119610525Y-99309475D01*
X119498056Y-99172433D01*
X119414485Y-99016081D01*
X119363022Y-98846432D01*
X119345646Y-98670000D01*
X119363022Y-98493568D01*
X119414485Y-98323919D01*
X119498056Y-98167567D01*
X119610525Y-98030525D01*
X119747567Y-97918056D01*
X119903919Y-97834485D01*
X120073568Y-97783022D01*
X120205789Y-97770000D01*
X120294211Y-97770000D01*
X120426432Y-97783022D01*
X120426432Y-97783022D01*
G37*
G36*
X118862521Y-96034586D02*
X119026309Y-96102429D01*
X119173720Y-96200926D01*
X119299074Y-96326280D01*
X119397571Y-96473691D01*
X119465414Y-96637479D01*
X119500000Y-96811356D01*
X119500000Y-96988644D01*
X119465414Y-97162521D01*
X119397571Y-97326309D01*
X119299074Y-97473720D01*
X119173720Y-97599074D01*
X119026309Y-97697571D01*
X118862521Y-97765414D01*
X118688644Y-97800000D01*
X118511356Y-97800000D01*
X118337479Y-97765414D01*
X118173691Y-97697571D01*
X118026280Y-97599074D01*
X117900926Y-97473720D01*
X117802429Y-97326309D01*
X117734586Y-97162521D01*
X117700000Y-96988644D01*
X117700000Y-96811356D01*
X117734586Y-96637479D01*
X117802429Y-96473691D01*
X117900926Y-96326280D01*
X118026280Y-96200926D01*
X118173691Y-96102429D01*
X118337479Y-96034586D01*
X118511356Y-96000000D01*
X118688644Y-96000000D01*
X118862521Y-96034586D01*
X118862521Y-96034586D01*
G37*
G36*
X98378707Y-95677596D02*
X98455836Y-95685193D01*
X98587787Y-95725220D01*
X98653763Y-95745233D01*
X98836172Y-95842733D01*
X98996054Y-95973946D01*
X99127267Y-96133828D01*
X99224767Y-96316237D01*
X99224767Y-96316238D01*
X99284807Y-96514164D01*
X99305080Y-96720000D01*
X99284807Y-96925836D01*
X99265755Y-96988642D01*
X99224767Y-97123763D01*
X99127267Y-97306172D01*
X98996054Y-97466054D01*
X98836172Y-97597267D01*
X98653763Y-97694767D01*
X98587787Y-97714780D01*
X98455836Y-97754807D01*
X98378707Y-97762404D01*
X98301580Y-97770000D01*
X98198420Y-97770000D01*
X98121293Y-97762403D01*
X98044164Y-97754807D01*
X97912213Y-97714780D01*
X97846237Y-97694767D01*
X97663828Y-97597267D01*
X97503946Y-97466054D01*
X97372733Y-97306172D01*
X97275233Y-97123763D01*
X97234245Y-96988642D01*
X97215193Y-96925836D01*
X97194920Y-96720000D01*
X97215193Y-96514164D01*
X97275233Y-96316238D01*
X97275233Y-96316237D01*
X97372733Y-96133828D01*
X97503946Y-95973946D01*
X97663828Y-95842733D01*
X97846237Y-95745233D01*
X97912213Y-95725220D01*
X98044164Y-95685193D01*
X98121293Y-95677596D01*
X98198420Y-95670000D01*
X98301580Y-95670000D01*
X98378707Y-95677596D01*
X98378707Y-95677596D01*
G37*
G36*
X122518707Y-95617597D02*
X122595836Y-95625193D01*
X122727787Y-95665220D01*
X122793763Y-95685233D01*
X122976172Y-95782733D01*
X123136054Y-95913946D01*
X123267267Y-96073828D01*
X123364767Y-96256237D01*
X123364767Y-96256238D01*
X123424807Y-96454164D01*
X123445080Y-96660000D01*
X123424807Y-96865836D01*
X123398083Y-96953934D01*
X123364767Y-97063763D01*
X123267267Y-97246172D01*
X123136054Y-97406054D01*
X122976172Y-97537267D01*
X122793763Y-97634767D01*
X122727787Y-97654780D01*
X122595836Y-97694807D01*
X122518707Y-97702403D01*
X122441580Y-97710000D01*
X122338420Y-97710000D01*
X122261293Y-97702403D01*
X122184164Y-97694807D01*
X122052213Y-97654780D01*
X121986237Y-97634767D01*
X121803828Y-97537267D01*
X121643946Y-97406054D01*
X121512733Y-97246172D01*
X121415233Y-97063763D01*
X121381917Y-96953934D01*
X121355193Y-96865836D01*
X121334920Y-96660000D01*
X121355193Y-96454164D01*
X121415233Y-96256238D01*
X121415233Y-96256237D01*
X121512733Y-96073828D01*
X121643946Y-95913946D01*
X121803828Y-95782733D01*
X121986237Y-95685233D01*
X122052213Y-95665220D01*
X122184164Y-95625193D01*
X122261293Y-95617597D01*
X122338420Y-95610000D01*
X122441580Y-95610000D01*
X122518707Y-95617597D01*
X122518707Y-95617597D01*
G37*
G36*
X122518707Y-93077596D02*
X122595836Y-93085193D01*
X122727787Y-93125220D01*
X122793763Y-93145233D01*
X122976172Y-93242733D01*
X123136054Y-93373946D01*
X123267267Y-93533828D01*
X123364767Y-93716237D01*
X123383828Y-93779074D01*
X123424807Y-93914164D01*
X123445080Y-94120000D01*
X123424807Y-94325836D01*
X123384780Y-94457787D01*
X123364767Y-94523763D01*
X123267267Y-94706172D01*
X123136054Y-94866054D01*
X122976172Y-94997267D01*
X122793763Y-95094767D01*
X122727787Y-95114780D01*
X122595836Y-95154807D01*
X122518707Y-95162403D01*
X122441580Y-95170000D01*
X122338420Y-95170000D01*
X122261293Y-95162403D01*
X122184164Y-95154807D01*
X122052213Y-95114780D01*
X121986237Y-95094767D01*
X121803828Y-94997267D01*
X121643946Y-94866054D01*
X121512733Y-94706172D01*
X121415233Y-94523763D01*
X121395220Y-94457787D01*
X121355193Y-94325836D01*
X121334920Y-94120000D01*
X121355193Y-93914164D01*
X121396172Y-93779074D01*
X121415233Y-93716237D01*
X121512733Y-93533828D01*
X121643946Y-93373946D01*
X121803828Y-93242733D01*
X121986237Y-93145233D01*
X122052213Y-93125220D01*
X122184164Y-93085193D01*
X122261293Y-93077596D01*
X122338420Y-93070000D01*
X122441580Y-93070000D01*
X122518707Y-93077596D01*
X122518707Y-93077596D01*
G37*
G36*
X100762521Y-92214586D02*
X100926309Y-92282429D01*
X101073720Y-92380926D01*
X101199074Y-92506280D01*
X101297571Y-92653691D01*
X101365414Y-92817479D01*
X101400000Y-92991356D01*
X101400000Y-93168644D01*
X101365414Y-93342521D01*
X101297571Y-93506309D01*
X101199074Y-93653720D01*
X101073720Y-93779074D01*
X100926309Y-93877571D01*
X100762521Y-93945414D01*
X100588644Y-93980000D01*
X100411356Y-93980000D01*
X100237479Y-93945414D01*
X100073691Y-93877571D01*
X99926280Y-93779074D01*
X99800926Y-93653720D01*
X99702429Y-93506309D01*
X99634586Y-93342521D01*
X99600000Y-93168644D01*
X99600000Y-92991356D01*
X99634586Y-92817479D01*
X99702429Y-92653691D01*
X99800926Y-92506280D01*
X99926280Y-92380926D01*
X100073691Y-92282429D01*
X100237479Y-92214586D01*
X100411356Y-92180000D01*
X100588644Y-92180000D01*
X100762521Y-92214586D01*
X100762521Y-92214586D01*
G37*
G36*
X122518707Y-90537597D02*
X122595836Y-90545193D01*
X122727787Y-90585220D01*
X122793763Y-90605233D01*
X122976172Y-90702733D01*
X123136054Y-90833946D01*
X123267267Y-90993828D01*
X123364767Y-91176237D01*
X123364767Y-91176238D01*
X123424807Y-91374164D01*
X123445080Y-91580000D01*
X123424807Y-91785836D01*
X123406080Y-91847570D01*
X123364767Y-91983763D01*
X123267267Y-92166172D01*
X123136054Y-92326054D01*
X122976172Y-92457267D01*
X122793763Y-92554767D01*
X122727787Y-92574780D01*
X122595836Y-92614807D01*
X122518707Y-92622404D01*
X122441580Y-92630000D01*
X122338420Y-92630000D01*
X122261293Y-92622404D01*
X122184164Y-92614807D01*
X122052213Y-92574780D01*
X121986237Y-92554767D01*
X121803828Y-92457267D01*
X121643946Y-92326054D01*
X121512733Y-92166172D01*
X121415233Y-91983763D01*
X121373920Y-91847570D01*
X121355193Y-91785836D01*
X121334920Y-91580000D01*
X121355193Y-91374164D01*
X121355193Y-91374163D01*
X121355362Y-91372450D01*
X121355362Y-91368378D01*
X121357575Y-91364238D01*
X121361708Y-91352687D01*
X121415233Y-91176237D01*
X121512733Y-90993828D01*
X121643946Y-90833946D01*
X121803828Y-90702733D01*
X121986237Y-90605233D01*
X122052213Y-90585220D01*
X122184164Y-90545193D01*
X122261293Y-90537597D01*
X122338420Y-90530000D01*
X122441580Y-90530000D01*
X122518707Y-90537597D01*
X122518707Y-90537597D01*
G37*
G36*
X120512521Y-90184586D02*
X120676309Y-90252429D01*
X120823720Y-90350926D01*
X120949074Y-90476280D01*
X121047571Y-90623691D01*
X121115414Y-90787479D01*
X121138296Y-90902514D01*
X121150000Y-90961358D01*
X121150000Y-91138642D01*
X121119491Y-91292021D01*
X121118016Y-91306998D01*
X121115479Y-91312363D01*
X121047571Y-91476310D01*
X120949074Y-91623720D01*
X120823720Y-91749074D01*
X120676309Y-91847571D01*
X120512521Y-91915414D01*
X120338644Y-91950000D01*
X120161356Y-91950000D01*
X119987479Y-91915414D01*
X119823691Y-91847571D01*
X119676280Y-91749074D01*
X119550926Y-91623720D01*
X119452429Y-91476309D01*
X119384586Y-91312521D01*
X119350000Y-91138644D01*
X119350000Y-90961356D01*
X119384586Y-90787479D01*
X119452429Y-90623691D01*
X119550926Y-90476280D01*
X119676280Y-90350926D01*
X119823691Y-90252429D01*
X119987479Y-90184586D01*
X120161356Y-90150000D01*
X120338644Y-90150000D01*
X120512521Y-90184586D01*
X120512521Y-90184586D01*
G37*
G36*
X112775000Y-90175000D02*
X112408568Y-90175000D01*
X112384182Y-90177402D01*
X112360733Y-90184515D01*
X112339122Y-90196066D01*
X112320180Y-90211612D01*
X112304634Y-90230554D01*
X112293083Y-90252165D01*
X112285970Y-90275614D01*
X112275032Y-90330603D01*
X112275031Y-90330605D01*
X112202514Y-90505678D01*
X112150232Y-90583923D01*
X112097233Y-90663241D01*
X111963241Y-90797233D01*
X111908296Y-90833946D01*
X111805678Y-90902514D01*
X111751466Y-90924969D01*
X111630603Y-90975032D01*
X111444750Y-91012000D01*
X111255250Y-91012000D01*
X111069397Y-90975032D01*
X110948534Y-90924969D01*
X110894322Y-90902514D01*
X110791704Y-90833946D01*
X110736759Y-90797233D01*
X110602767Y-90663241D01*
X110549768Y-90583923D01*
X110497486Y-90505678D01*
X110424969Y-90330605D01*
X110424968Y-90330603D01*
X110414030Y-90275614D01*
X110406917Y-90252165D01*
X110395366Y-90230554D01*
X110379821Y-90211612D01*
X110360879Y-90196067D01*
X110339268Y-90184515D01*
X110315819Y-90177402D01*
X110291432Y-90175000D01*
X110175000Y-90175000D01*
X110175000Y-88175000D01*
X112775000Y-88175000D01*
X112775000Y-90175000D01*
X112775000Y-90175000D01*
G37*
G36*
X115775000Y-89515227D02*
X115777402Y-89539613D01*
X115784515Y-89563062D01*
X115796067Y-89584674D01*
X115802513Y-89594320D01*
X115875032Y-89769397D01*
X115912000Y-89955250D01*
X115912000Y-90144750D01*
X115875032Y-90330603D01*
X115875031Y-90330605D01*
X115802514Y-90505678D01*
X115750232Y-90583923D01*
X115697233Y-90663241D01*
X115563241Y-90797233D01*
X115508296Y-90833946D01*
X115405678Y-90902514D01*
X115351466Y-90924969D01*
X115230603Y-90975032D01*
X115044750Y-91012000D01*
X114855250Y-91012000D01*
X114669397Y-90975032D01*
X114548534Y-90924969D01*
X114494322Y-90902514D01*
X114391704Y-90833946D01*
X114336759Y-90797233D01*
X114202767Y-90663241D01*
X114149768Y-90583923D01*
X114097486Y-90505678D01*
X114024969Y-90330605D01*
X114024968Y-90330603D01*
X114014030Y-90275614D01*
X114006917Y-90252165D01*
X113995366Y-90230554D01*
X113979821Y-90211612D01*
X113960879Y-90196067D01*
X113939268Y-90184515D01*
X113915819Y-90177402D01*
X113891432Y-90175000D01*
X113175000Y-90175000D01*
X113175000Y-88175000D01*
X115775000Y-88175000D01*
X115775000Y-89515227D01*
X115775000Y-89515227D01*
G37*
G36*
X118776432Y-88393022D02*
X118946081Y-88444485D01*
X119102433Y-88528056D01*
X119239475Y-88640525D01*
X119351944Y-88777567D01*
X119435515Y-88933919D01*
X119486978Y-89103568D01*
X119504354Y-89280000D01*
X119486978Y-89456432D01*
X119435515Y-89626081D01*
X119351944Y-89782433D01*
X119239475Y-89919475D01*
X119102433Y-90031944D01*
X118946081Y-90115515D01*
X118776432Y-90166978D01*
X118644211Y-90180000D01*
X118555789Y-90180000D01*
X118423568Y-90166978D01*
X118253919Y-90115515D01*
X118097567Y-90031944D01*
X117960525Y-89919475D01*
X117848056Y-89782433D01*
X117764485Y-89626081D01*
X117713022Y-89456432D01*
X117695646Y-89280000D01*
X117713022Y-89103568D01*
X117764485Y-88933919D01*
X117848056Y-88777567D01*
X117960525Y-88640525D01*
X118097567Y-88528056D01*
X118253919Y-88444485D01*
X118423568Y-88393022D01*
X118555789Y-88380000D01*
X118644211Y-88380000D01*
X118776432Y-88393022D01*
X118776432Y-88393022D01*
G37*
M02*
