G04 #@! TF.GenerationSoftware,KiCad,Pcbnew,(5.0.1-3-g963ef8bb5)*
G04 #@! TF.CreationDate,2018-10-18T19:37:19-06:00*
G04 #@! TF.ProjectId,Hak5-unify,48616B352D756E6966792E6B69636164,rev?*
G04 #@! TF.SameCoordinates,Original*
G04 #@! TF.FileFunction,Legend,Top*
G04 #@! TF.FilePolarity,Positive*
%FSLAX46Y46*%
G04 Gerber Fmt 4.6, Leading zero omitted, Abs format (unit mm)*
G04 Created by KiCad (PCBNEW (5.0.1-3-g963ef8bb5)) date Thursday, October 18, 2018 at 07:37:19 PM*
%MOMM*%
%LPD*%
G01*
G04 APERTURE LIST*
%ADD10C,0.125000*%
%ADD11C,0.162500*%
%ADD12C,0.300000*%
%ADD13C,0.175000*%
%ADD14C,0.120000*%
%ADD15C,0.150000*%
G04 APERTURE END LIST*
D10*
X120682656Y-97687225D02*
X120396446Y-97636717D01*
X120480625Y-97889255D02*
X120127072Y-97535702D01*
X120261759Y-97401015D01*
X120312267Y-97384179D01*
X120345938Y-97384179D01*
X120396446Y-97401015D01*
X120446954Y-97451522D01*
X120463790Y-97502030D01*
X120463790Y-97535702D01*
X120446954Y-97586209D01*
X120312267Y-97720896D01*
X120446954Y-97215820D02*
X121036209Y-97333671D01*
X120682656Y-96980118D02*
X120800507Y-97569374D01*
X120783671Y-96879103D02*
X121002538Y-96660236D01*
X121019374Y-96912774D01*
X121069881Y-96862267D01*
X121120389Y-96845431D01*
X121154061Y-96845431D01*
X121204568Y-96862267D01*
X121288748Y-96946446D01*
X121305583Y-96996954D01*
X121305583Y-97030625D01*
X121288748Y-97081133D01*
X121187732Y-97182148D01*
X121137225Y-97198984D01*
X121103553Y-97198984D01*
X99982952Y-95279822D02*
X100454356Y-95515524D01*
X100218654Y-95044120D01*
X100690059Y-95279822D02*
X100454356Y-95044120D01*
X100336505Y-94926269D02*
X100336505Y-94959940D01*
X100370177Y-94959940D01*
X100370177Y-94926269D01*
X100336505Y-94926269D01*
X100370177Y-94959940D01*
X101009940Y-94959940D02*
X100656387Y-94606387D01*
X100993104Y-94943104D02*
X100976269Y-94993612D01*
X100908925Y-95060956D01*
X100858417Y-95077791D01*
X100824746Y-95077791D01*
X100774238Y-95060956D01*
X100673223Y-94959940D01*
X100656387Y-94909433D01*
X100656387Y-94875761D01*
X100673223Y-94825253D01*
X100740566Y-94757910D01*
X100791074Y-94741074D01*
X101296150Y-94640059D02*
X101279314Y-94690566D01*
X101211971Y-94757910D01*
X101161463Y-94774746D01*
X101110956Y-94757910D01*
X100976269Y-94623223D01*
X100959433Y-94572715D01*
X100976269Y-94522208D01*
X101043612Y-94454864D01*
X101094120Y-94438028D01*
X101144627Y-94454864D01*
X101178299Y-94488536D01*
X101043612Y-94690566D01*
X101531852Y-94438028D02*
X101481345Y-94454864D01*
X101447673Y-94454864D01*
X101397165Y-94438028D01*
X101296150Y-94337013D01*
X101279314Y-94286505D01*
X101279314Y-94252834D01*
X101296150Y-94202326D01*
X101346658Y-94151818D01*
X101397165Y-94134982D01*
X101430837Y-94134982D01*
X101481345Y-94151818D01*
X101582360Y-94252834D01*
X101599196Y-94303341D01*
X101599196Y-94337013D01*
X101582360Y-94387521D01*
X101531852Y-94438028D01*
X100903849Y-99542597D02*
X100853341Y-99559433D01*
X100802834Y-99609940D01*
X100769162Y-99677284D01*
X100769162Y-99744627D01*
X100785998Y-99795135D01*
X100836505Y-99879314D01*
X100887013Y-99929822D01*
X100971192Y-99980330D01*
X101021700Y-99997165D01*
X101089043Y-99997165D01*
X101156387Y-99963494D01*
X101190059Y-99929822D01*
X101223730Y-99862478D01*
X101223730Y-99828807D01*
X101105879Y-99710956D01*
X101038536Y-99778299D01*
X101408925Y-99710956D02*
X101055372Y-99357402D01*
X101610956Y-99508925D01*
X101257402Y-99155372D01*
X101779314Y-99340566D02*
X101425761Y-98987013D01*
X101509940Y-98902834D01*
X101577284Y-98869162D01*
X101644627Y-98869162D01*
X101695135Y-98885998D01*
X101779314Y-98936505D01*
X101829822Y-98987013D01*
X101880330Y-99071192D01*
X101897165Y-99121700D01*
X101897165Y-99189043D01*
X101863494Y-99256387D01*
X101779314Y-99340566D01*
X101105879Y-101706895D02*
X100937521Y-101875253D01*
X101089043Y-102060448D01*
X101089043Y-102026776D01*
X101105879Y-101976269D01*
X101190059Y-101892089D01*
X101240566Y-101875253D01*
X101274238Y-101875253D01*
X101324746Y-101892089D01*
X101408925Y-101976269D01*
X101425761Y-102026776D01*
X101425761Y-102060448D01*
X101408925Y-102110956D01*
X101324746Y-102195135D01*
X101274238Y-102211971D01*
X101240566Y-102211971D01*
X101358417Y-101690059D02*
X101678299Y-101841582D01*
X101526776Y-101521700D01*
D11*
X103042857Y-104844047D02*
X103042857Y-104194047D01*
X103197619Y-104194047D01*
X103290476Y-104225000D01*
X103352380Y-104286904D01*
X103383333Y-104348809D01*
X103414285Y-104472619D01*
X103414285Y-104565476D01*
X103383333Y-104689285D01*
X103352380Y-104751190D01*
X103290476Y-104813095D01*
X103197619Y-104844047D01*
X103042857Y-104844047D01*
X103940476Y-104813095D02*
X103878571Y-104844047D01*
X103754761Y-104844047D01*
X103692857Y-104813095D01*
X103661904Y-104751190D01*
X103661904Y-104503571D01*
X103692857Y-104441666D01*
X103754761Y-104410714D01*
X103878571Y-104410714D01*
X103940476Y-104441666D01*
X103971428Y-104503571D01*
X103971428Y-104565476D01*
X103661904Y-104627380D01*
X104219047Y-104813095D02*
X104280952Y-104844047D01*
X104404761Y-104844047D01*
X104466666Y-104813095D01*
X104497619Y-104751190D01*
X104497619Y-104720238D01*
X104466666Y-104658333D01*
X104404761Y-104627380D01*
X104311904Y-104627380D01*
X104250000Y-104596428D01*
X104219047Y-104534523D01*
X104219047Y-104503571D01*
X104250000Y-104441666D01*
X104311904Y-104410714D01*
X104404761Y-104410714D01*
X104466666Y-104441666D01*
X104776190Y-104844047D02*
X104776190Y-104410714D01*
X104776190Y-104194047D02*
X104745238Y-104225000D01*
X104776190Y-104255952D01*
X104807142Y-104225000D01*
X104776190Y-104194047D01*
X104776190Y-104255952D01*
X105364285Y-104410714D02*
X105364285Y-104936904D01*
X105333333Y-104998809D01*
X105302380Y-105029761D01*
X105240476Y-105060714D01*
X105147619Y-105060714D01*
X105085714Y-105029761D01*
X105364285Y-104813095D02*
X105302380Y-104844047D01*
X105178571Y-104844047D01*
X105116666Y-104813095D01*
X105085714Y-104782142D01*
X105054761Y-104720238D01*
X105054761Y-104534523D01*
X105085714Y-104472619D01*
X105116666Y-104441666D01*
X105178571Y-104410714D01*
X105302380Y-104410714D01*
X105364285Y-104441666D01*
X105673809Y-104410714D02*
X105673809Y-104844047D01*
X105673809Y-104472619D02*
X105704761Y-104441666D01*
X105766666Y-104410714D01*
X105859523Y-104410714D01*
X105921428Y-104441666D01*
X105952380Y-104503571D01*
X105952380Y-104844047D01*
X106509523Y-104813095D02*
X106447619Y-104844047D01*
X106323809Y-104844047D01*
X106261904Y-104813095D01*
X106230952Y-104751190D01*
X106230952Y-104503571D01*
X106261904Y-104441666D01*
X106323809Y-104410714D01*
X106447619Y-104410714D01*
X106509523Y-104441666D01*
X106540476Y-104503571D01*
X106540476Y-104565476D01*
X106230952Y-104627380D01*
X107097619Y-104844047D02*
X107097619Y-104194047D01*
X107097619Y-104813095D02*
X107035714Y-104844047D01*
X106911904Y-104844047D01*
X106850000Y-104813095D01*
X106819047Y-104782142D01*
X106788095Y-104720238D01*
X106788095Y-104534523D01*
X106819047Y-104472619D01*
X106850000Y-104441666D01*
X106911904Y-104410714D01*
X107035714Y-104410714D01*
X107097619Y-104441666D01*
X107902380Y-104844047D02*
X107902380Y-104194047D01*
X107902380Y-104441666D02*
X107964285Y-104410714D01*
X108088095Y-104410714D01*
X108150000Y-104441666D01*
X108180952Y-104472619D01*
X108211904Y-104534523D01*
X108211904Y-104720238D01*
X108180952Y-104782142D01*
X108150000Y-104813095D01*
X108088095Y-104844047D01*
X107964285Y-104844047D01*
X107902380Y-104813095D01*
X108428571Y-104410714D02*
X108583333Y-104844047D01*
X108738095Y-104410714D02*
X108583333Y-104844047D01*
X108521428Y-104998809D01*
X108490476Y-105029761D01*
X108428571Y-105060714D01*
X109450000Y-104813095D02*
X109542857Y-104844047D01*
X109697619Y-104844047D01*
X109759523Y-104813095D01*
X109790476Y-104782142D01*
X109821428Y-104720238D01*
X109821428Y-104658333D01*
X109790476Y-104596428D01*
X109759523Y-104565476D01*
X109697619Y-104534523D01*
X109573809Y-104503571D01*
X109511904Y-104472619D01*
X109480952Y-104441666D01*
X109450000Y-104379761D01*
X109450000Y-104317857D01*
X109480952Y-104255952D01*
X109511904Y-104225000D01*
X109573809Y-104194047D01*
X109728571Y-104194047D01*
X109821428Y-104225000D01*
X110100000Y-104410714D02*
X110100000Y-105060714D01*
X110100000Y-104441666D02*
X110161904Y-104410714D01*
X110285714Y-104410714D01*
X110347619Y-104441666D01*
X110378571Y-104472619D01*
X110409523Y-104534523D01*
X110409523Y-104720238D01*
X110378571Y-104782142D01*
X110347619Y-104813095D01*
X110285714Y-104844047D01*
X110161904Y-104844047D01*
X110100000Y-104813095D01*
X110935714Y-104813095D02*
X110873809Y-104844047D01*
X110750000Y-104844047D01*
X110688095Y-104813095D01*
X110657142Y-104751190D01*
X110657142Y-104503571D01*
X110688095Y-104441666D01*
X110750000Y-104410714D01*
X110873809Y-104410714D01*
X110935714Y-104441666D01*
X110966666Y-104503571D01*
X110966666Y-104565476D01*
X110657142Y-104627380D01*
X111245238Y-104410714D02*
X111245238Y-104844047D01*
X111245238Y-104472619D02*
X111276190Y-104441666D01*
X111338095Y-104410714D01*
X111430952Y-104410714D01*
X111492857Y-104441666D01*
X111523809Y-104503571D01*
X111523809Y-104844047D01*
X112111904Y-104813095D02*
X112050000Y-104844047D01*
X111926190Y-104844047D01*
X111864285Y-104813095D01*
X111833333Y-104782142D01*
X111802380Y-104720238D01*
X111802380Y-104534523D01*
X111833333Y-104472619D01*
X111864285Y-104441666D01*
X111926190Y-104410714D01*
X112050000Y-104410714D01*
X112111904Y-104441666D01*
X112638095Y-104813095D02*
X112576190Y-104844047D01*
X112452380Y-104844047D01*
X112390476Y-104813095D01*
X112359523Y-104751190D01*
X112359523Y-104503571D01*
X112390476Y-104441666D01*
X112452380Y-104410714D01*
X112576190Y-104410714D01*
X112638095Y-104441666D01*
X112669047Y-104503571D01*
X112669047Y-104565476D01*
X112359523Y-104627380D01*
X112947619Y-104844047D02*
X112947619Y-104410714D01*
X112947619Y-104534523D02*
X112978571Y-104472619D01*
X113009523Y-104441666D01*
X113071428Y-104410714D01*
X113133333Y-104410714D01*
X113845238Y-104844047D02*
X113845238Y-104410714D01*
X113845238Y-104194047D02*
X113814285Y-104225000D01*
X113845238Y-104255952D01*
X113876190Y-104225000D01*
X113845238Y-104194047D01*
X113845238Y-104255952D01*
X114154761Y-104410714D02*
X114154761Y-104844047D01*
X114154761Y-104472619D02*
X114185714Y-104441666D01*
X114247619Y-104410714D01*
X114340476Y-104410714D01*
X114402380Y-104441666D01*
X114433333Y-104503571D01*
X114433333Y-104844047D01*
X115238095Y-104194047D02*
X115238095Y-104720238D01*
X115269047Y-104782142D01*
X115300000Y-104813095D01*
X115361904Y-104844047D01*
X115485714Y-104844047D01*
X115547619Y-104813095D01*
X115578571Y-104782142D01*
X115609523Y-104720238D01*
X115609523Y-104194047D01*
X115826190Y-104410714D02*
X116073809Y-104410714D01*
X115919047Y-104194047D02*
X115919047Y-104751190D01*
X115950000Y-104813095D01*
X116011904Y-104844047D01*
X116073809Y-104844047D01*
X116569047Y-104844047D02*
X116569047Y-104503571D01*
X116538095Y-104441666D01*
X116476190Y-104410714D01*
X116352380Y-104410714D01*
X116290476Y-104441666D01*
X116569047Y-104813095D02*
X116507142Y-104844047D01*
X116352380Y-104844047D01*
X116290476Y-104813095D01*
X116259523Y-104751190D01*
X116259523Y-104689285D01*
X116290476Y-104627380D01*
X116352380Y-104596428D01*
X116507142Y-104596428D01*
X116569047Y-104565476D01*
X116878571Y-104844047D02*
X116878571Y-104194047D01*
X117157142Y-104844047D02*
X117157142Y-104503571D01*
X117126190Y-104441666D01*
X117064285Y-104410714D01*
X116971428Y-104410714D01*
X116909523Y-104441666D01*
X116878571Y-104472619D01*
D12*
X106342857Y-97035714D02*
X106271428Y-97107142D01*
X106057142Y-97178571D01*
X105914285Y-97178571D01*
X105700000Y-97107142D01*
X105557142Y-96964285D01*
X105485714Y-96821428D01*
X105414285Y-96535714D01*
X105414285Y-96321428D01*
X105485714Y-96035714D01*
X105557142Y-95892857D01*
X105700000Y-95750000D01*
X105914285Y-95678571D01*
X106057142Y-95678571D01*
X106271428Y-95750000D01*
X106342857Y-95821428D01*
X107628571Y-96178571D02*
X107628571Y-97178571D01*
X106985714Y-96178571D02*
X106985714Y-96964285D01*
X107057142Y-97107142D01*
X107200000Y-97178571D01*
X107414285Y-97178571D01*
X107557142Y-97107142D01*
X107628571Y-97035714D01*
X108128571Y-96178571D02*
X108700000Y-96178571D01*
X108342857Y-95678571D02*
X108342857Y-96964285D01*
X108414285Y-97107142D01*
X108557142Y-97178571D01*
X108700000Y-97178571D01*
X110628571Y-95678571D02*
X110914285Y-95678571D01*
X111057142Y-95750000D01*
X111200000Y-95892857D01*
X111271428Y-96178571D01*
X111271428Y-96678571D01*
X111200000Y-96964285D01*
X111057142Y-97107142D01*
X110914285Y-97178571D01*
X110628571Y-97178571D01*
X110485714Y-97107142D01*
X110342857Y-96964285D01*
X110271428Y-96678571D01*
X110271428Y-96178571D01*
X110342857Y-95892857D01*
X110485714Y-95750000D01*
X110628571Y-95678571D01*
X112557142Y-96178571D02*
X112557142Y-97178571D01*
X111914285Y-96178571D02*
X111914285Y-96964285D01*
X111985714Y-97107142D01*
X112128571Y-97178571D01*
X112342857Y-97178571D01*
X112485714Y-97107142D01*
X112557142Y-97035714D01*
X113057142Y-96178571D02*
X113628571Y-96178571D01*
X113271428Y-95678571D02*
X113271428Y-96964285D01*
X113342857Y-97107142D01*
X113485714Y-97178571D01*
X113628571Y-97178571D01*
D10*
X119968654Y-100294120D02*
X120170685Y-100092089D01*
X120423223Y-100546658D02*
X120069669Y-100193104D01*
X120254864Y-100007910D02*
X120844120Y-100125761D01*
X120490566Y-99772208D02*
X120608417Y-100361463D01*
X120591582Y-99671192D02*
X120810448Y-99452326D01*
X120827284Y-99704864D01*
X120877791Y-99654356D01*
X120928299Y-99637521D01*
X120961971Y-99637521D01*
X121012478Y-99654356D01*
X121096658Y-99738536D01*
X121113494Y-99789043D01*
X121113494Y-99822715D01*
X121096658Y-99873223D01*
X120995643Y-99974238D01*
X120945135Y-99991074D01*
X120911463Y-99991074D01*
X97452380Y-95026190D02*
X97619047Y-95526190D01*
X97785714Y-95026190D01*
X98047619Y-95026190D02*
X98142857Y-95026190D01*
X98190476Y-95050000D01*
X98238095Y-95097619D01*
X98261904Y-95192857D01*
X98261904Y-95359523D01*
X98238095Y-95454761D01*
X98190476Y-95502380D01*
X98142857Y-95526190D01*
X98047619Y-95526190D01*
X98000000Y-95502380D01*
X97952380Y-95454761D01*
X97928571Y-95359523D01*
X97928571Y-95192857D01*
X97952380Y-95097619D01*
X98000000Y-95050000D01*
X98047619Y-95026190D01*
X98690476Y-95192857D02*
X98690476Y-95526190D01*
X98476190Y-95192857D02*
X98476190Y-95454761D01*
X98500000Y-95502380D01*
X98547619Y-95526190D01*
X98619047Y-95526190D01*
X98666666Y-95502380D01*
X98690476Y-95478571D01*
X98857142Y-95192857D02*
X99047619Y-95192857D01*
X98928571Y-95026190D02*
X98928571Y-95454761D01*
X98952380Y-95502380D01*
X99000000Y-95526190D01*
X99047619Y-95526190D01*
X97707142Y-103044047D02*
X97397619Y-103044047D01*
X97366666Y-103353571D01*
X97397619Y-103322619D01*
X97459523Y-103291666D01*
X97614285Y-103291666D01*
X97676190Y-103322619D01*
X97707142Y-103353571D01*
X97738095Y-103415476D01*
X97738095Y-103570238D01*
X97707142Y-103632142D01*
X97676190Y-103663095D01*
X97614285Y-103694047D01*
X97459523Y-103694047D01*
X97397619Y-103663095D01*
X97366666Y-103632142D01*
X97954761Y-103260714D02*
X98109523Y-103694047D01*
X98264285Y-103260714D01*
X99366598Y-91840964D02*
X99878409Y-92083401D01*
X99635972Y-91571590D01*
X99770659Y-91059780D02*
X99824534Y-91005905D01*
X99905346Y-90978967D01*
X99959221Y-90978967D01*
X100040033Y-91005905D01*
X100174720Y-91086717D01*
X100309407Y-91221404D01*
X100390219Y-91356091D01*
X100417157Y-91436903D01*
X100417157Y-91490778D01*
X100390219Y-91571590D01*
X100336345Y-91625465D01*
X100255532Y-91652402D01*
X100201658Y-91652402D01*
X100120845Y-91625465D01*
X99986158Y-91544653D01*
X99851471Y-91409966D01*
X99770659Y-91275279D01*
X99743722Y-91194467D01*
X99743722Y-91140592D01*
X99770659Y-91059780D01*
X100713468Y-91140592D02*
X100767343Y-91140592D01*
X100767343Y-91194467D01*
X100713468Y-91194467D01*
X100713468Y-91140592D01*
X100767343Y-91194467D01*
X100417157Y-90413282D02*
X100794280Y-90036158D01*
X101117529Y-90844280D01*
X101521590Y-90332470D02*
X101575465Y-90332470D01*
X101575465Y-90386345D01*
X101521590Y-90386345D01*
X101521590Y-90332470D01*
X101575465Y-90386345D01*
X101386903Y-89443536D02*
X101440778Y-89389661D01*
X101521590Y-89362723D01*
X101575465Y-89362723D01*
X101656277Y-89389661D01*
X101790964Y-89470473D01*
X101925651Y-89605160D01*
X102006463Y-89739847D01*
X102033401Y-89820659D01*
X102033401Y-89874534D01*
X102006463Y-89955346D01*
X101952589Y-90009221D01*
X101871776Y-90036158D01*
X101817902Y-90036158D01*
X101737089Y-90009221D01*
X101602402Y-89928409D01*
X101467715Y-89793722D01*
X101386903Y-89659035D01*
X101359966Y-89578223D01*
X101359966Y-89524348D01*
X101386903Y-89443536D01*
D13*
X97381725Y-92898097D02*
X96851395Y-92367766D01*
X97103933Y-92620305D02*
X97406979Y-92317259D01*
X97684771Y-92595051D02*
X97154441Y-92064721D01*
X98164593Y-92115228D02*
X97886801Y-91837436D01*
X97811040Y-91812183D01*
X97735278Y-91837436D01*
X97634263Y-91938452D01*
X97609009Y-92014213D01*
X98139339Y-92089975D02*
X98114086Y-92165736D01*
X97987816Y-92292005D01*
X97912055Y-92317259D01*
X97836294Y-92292005D01*
X97785786Y-92241497D01*
X97760532Y-92165736D01*
X97785786Y-92089975D01*
X97912055Y-91963705D01*
X97937309Y-91887944D01*
X98013070Y-91559644D02*
X98467639Y-91812183D01*
X98316116Y-91458629D01*
X98669669Y-91610152D01*
X98417131Y-91155583D01*
X98972715Y-91307106D02*
X98442385Y-90776776D01*
X98821192Y-91054568D02*
X99174746Y-91105076D01*
X98821192Y-90751522D02*
X98821192Y-91155583D01*
X98795938Y-90423223D02*
X99503045Y-90776776D01*
X99149492Y-90069669D01*
X99856599Y-90423223D02*
X99503045Y-90069669D01*
X99326269Y-89892893D02*
X99326269Y-89943400D01*
X99376776Y-89943400D01*
X99376776Y-89892893D01*
X99326269Y-89892893D01*
X99376776Y-89943400D01*
X100058629Y-90170685D02*
X100134391Y-90145431D01*
X100235406Y-90044416D01*
X100260660Y-89968654D01*
X100235406Y-89892893D01*
X100210152Y-89867639D01*
X100134391Y-89842385D01*
X100058629Y-89867639D01*
X99982868Y-89943400D01*
X99907106Y-89968654D01*
X99831345Y-89943400D01*
X99806091Y-89918147D01*
X99780837Y-89842385D01*
X99806091Y-89766624D01*
X99881852Y-89690862D01*
X99957614Y-89665608D01*
X100538452Y-89741370D02*
X100184898Y-89387816D01*
X100008122Y-89211040D02*
X100008122Y-89261547D01*
X100058629Y-89261547D01*
X100058629Y-89211040D01*
X100008122Y-89211040D01*
X100058629Y-89261547D01*
X100866751Y-89413070D02*
X100790990Y-89438324D01*
X100740482Y-89438324D01*
X100664721Y-89413070D01*
X100513198Y-89261547D01*
X100487944Y-89185786D01*
X100487944Y-89135278D01*
X100513198Y-89059517D01*
X100588959Y-88983755D01*
X100664721Y-88958502D01*
X100715228Y-88958502D01*
X100790990Y-88983755D01*
X100942513Y-89135278D01*
X100967766Y-89211040D01*
X100967766Y-89261547D01*
X100942513Y-89337309D01*
X100866751Y-89413070D01*
X100917259Y-88655456D02*
X101270812Y-89009009D01*
X100967766Y-88705963D02*
X100967766Y-88655456D01*
X100993020Y-88579694D01*
X101068782Y-88503933D01*
X101144543Y-88478679D01*
X101220305Y-88503933D01*
X101498097Y-88781725D01*
D14*
G04 #@! TO.C,J2*
X99580000Y-103130000D02*
X98250000Y-103130000D01*
X99580000Y-101800000D02*
X99580000Y-103130000D01*
X99580000Y-100530000D02*
X96920000Y-100530000D01*
X96920000Y-100530000D02*
X96920000Y-95390000D01*
X99580000Y-100530000D02*
X99580000Y-95390000D01*
X99580000Y-95390000D02*
X96920000Y-95390000D01*
G04 #@! TO.C,J1*
X123720000Y-90250000D02*
X121060000Y-90250000D01*
X123720000Y-97930000D02*
X123720000Y-90250000D01*
X121060000Y-97930000D02*
X121060000Y-90250000D01*
X123720000Y-97930000D02*
X121060000Y-97930000D01*
X123720000Y-99200000D02*
X123720000Y-100530000D01*
X123720000Y-100530000D02*
X122390000Y-100530000D01*
G04 #@! TO.C,R1*
X101420000Y-94970000D02*
X99580000Y-94970000D01*
X99580000Y-94970000D02*
X99580000Y-98810000D01*
X99580000Y-98810000D02*
X101420000Y-98810000D01*
X101420000Y-98810000D02*
X101420000Y-94970000D01*
X100500000Y-94020000D02*
X100500000Y-94970000D01*
X100500000Y-99760000D02*
X100500000Y-98810000D01*
G04 #@! TO.C,SW1*
X114735000Y-90935000D02*
X114735000Y-90235000D01*
X114735000Y-87415000D02*
X114735000Y-88115000D01*
X112104437Y-87415000D02*
X114735000Y-87415000D01*
X112104437Y-90935000D02*
X114735000Y-90935000D01*
X111404437Y-88115000D02*
X112104437Y-87415000D01*
X111404437Y-90235000D02*
X112104437Y-90935000D01*
X110600000Y-87740000D02*
X110975000Y-87740000D01*
X110787500Y-87552500D02*
X110787500Y-87927500D01*
G04 #@! TO.C,R2*
X117680000Y-95010000D02*
X119520000Y-95010000D01*
X119520000Y-95010000D02*
X119520000Y-91170000D01*
X119520000Y-91170000D02*
X117680000Y-91170000D01*
X117680000Y-91170000D02*
X117680000Y-95010000D01*
X118600000Y-95960000D02*
X118600000Y-95010000D01*
X118600000Y-90220000D02*
X118600000Y-91170000D01*
G04 #@! TO.C,R3*
X120250000Y-97730000D02*
X120250000Y-96780000D01*
X120250000Y-91990000D02*
X120250000Y-92940000D01*
X121170000Y-96780000D02*
X121170000Y-92940000D01*
X119330000Y-96780000D02*
X121170000Y-96780000D01*
X119330000Y-92940000D02*
X119330000Y-96780000D01*
X121170000Y-92940000D02*
X119330000Y-92940000D01*
G04 #@! TO.C,U1*
D15*
X106638095Y-100402380D02*
X106638095Y-101211904D01*
X106685714Y-101307142D01*
X106733333Y-101354761D01*
X106828571Y-101402380D01*
X107019047Y-101402380D01*
X107114285Y-101354761D01*
X107161904Y-101307142D01*
X107209523Y-101211904D01*
X107209523Y-100402380D01*
X108209523Y-101402380D02*
X107638095Y-101402380D01*
X107923809Y-101402380D02*
X107923809Y-100402380D01*
X107828571Y-100545238D01*
X107733333Y-100640476D01*
X107638095Y-100688095D01*
G04 #@! TD*
M02*
