G04 #@! TF.GenerationSoftware,KiCad,Pcbnew,(5.0.0-3-g5ebb6b6)*
G04 #@! TF.CreationDate,2018-09-02T17:25:40-06:00*
G04 #@! TF.ProjectId,Hak5-unify,48616B352D756E6966792E6B69636164,rev?*
G04 #@! TF.SameCoordinates,Original*
G04 #@! TF.FileFunction,Copper,L2,Bot,Signal*
G04 #@! TF.FilePolarity,Positive*
%FSLAX46Y46*%
G04 Gerber Fmt 4.6, Leading zero omitted, Abs format (unit mm)*
G04 Created by KiCad (PCBNEW (5.0.0-3-g5ebb6b6)) date Sunday, September 02, 2018 at 05:25:40 PM*
%MOMM*%
%LPD*%
G01*
G04 APERTURE LIST*
G04 #@! TA.AperFunction,ComponentPad*
%ADD10O,1.700000X1.700000*%
G04 #@! TD*
G04 #@! TA.AperFunction,ComponentPad*
%ADD11R,1.700000X1.700000*%
G04 #@! TD*
G04 #@! TA.AperFunction,ComponentPad*
%ADD12O,1.400000X1.400000*%
G04 #@! TD*
G04 #@! TA.AperFunction,ComponentPad*
%ADD13C,1.400000*%
G04 #@! TD*
G04 #@! TA.AperFunction,ComponentPad*
%ADD14C,1.524000*%
G04 #@! TD*
G04 APERTURE END LIST*
D10*
G04 #@! TO.P,J2,3*
G04 #@! TO.N,Net-(J2-Pad3)*
X161600000Y-29500000D03*
G04 #@! TO.P,J2,2*
G04 #@! TO.N,GND*
X161600000Y-32040000D03*
D11*
G04 #@! TO.P,J2,1*
G04 #@! TO.N,+5V*
X161600000Y-34580000D03*
G04 #@! TD*
D10*
G04 #@! TO.P,J2,3*
G04 #@! TO.N,Net-(J2-Pad3)*
X131600000Y-29500000D03*
G04 #@! TO.P,J2,2*
G04 #@! TO.N,GND*
X131600000Y-32040000D03*
D11*
G04 #@! TO.P,J2,1*
G04 #@! TO.N,+5V*
X131600000Y-34580000D03*
G04 #@! TD*
D10*
G04 #@! TO.P,J2,3*
G04 #@! TO.N,Net-(J2-Pad3)*
X101600000Y-29500000D03*
G04 #@! TO.P,J2,2*
G04 #@! TO.N,GND*
X101600000Y-32040000D03*
D11*
G04 #@! TO.P,J2,1*
G04 #@! TO.N,+5V*
X101600000Y-34580000D03*
G04 #@! TD*
D10*
G04 #@! TO.P,J2,3*
G04 #@! TO.N,Net-(J2-Pad3)*
X161600000Y-50040000D03*
G04 #@! TO.P,J2,2*
G04 #@! TO.N,GND*
X161600000Y-52580000D03*
D11*
G04 #@! TO.P,J2,1*
G04 #@! TO.N,+5V*
X161600000Y-55120000D03*
G04 #@! TD*
D10*
G04 #@! TO.P,J2,3*
G04 #@! TO.N,Net-(J2-Pad3)*
X131600000Y-50040000D03*
G04 #@! TO.P,J2,2*
G04 #@! TO.N,GND*
X131600000Y-52580000D03*
D11*
G04 #@! TO.P,J2,1*
G04 #@! TO.N,+5V*
X131600000Y-55120000D03*
G04 #@! TD*
D10*
G04 #@! TO.P,J2,3*
G04 #@! TO.N,Net-(J2-Pad3)*
X101600000Y-50040000D03*
G04 #@! TO.P,J2,2*
G04 #@! TO.N,GND*
X101600000Y-52580000D03*
D11*
G04 #@! TO.P,J2,1*
G04 #@! TO.N,+5V*
X101600000Y-55120000D03*
G04 #@! TD*
D10*
G04 #@! TO.P,J2,3*
G04 #@! TO.N,Net-(J2-Pad3)*
X161600000Y-70580000D03*
G04 #@! TO.P,J2,2*
G04 #@! TO.N,GND*
X161600000Y-73120000D03*
D11*
G04 #@! TO.P,J2,1*
G04 #@! TO.N,+5V*
X161600000Y-75660000D03*
G04 #@! TD*
D10*
G04 #@! TO.P,J2,3*
G04 #@! TO.N,Net-(J2-Pad3)*
X131600000Y-70580000D03*
G04 #@! TO.P,J2,2*
G04 #@! TO.N,GND*
X131600000Y-73120000D03*
D11*
G04 #@! TO.P,J2,1*
G04 #@! TO.N,+5V*
X131600000Y-75660000D03*
G04 #@! TD*
D10*
G04 #@! TO.P,J2,3*
G04 #@! TO.N,Net-(J2-Pad3)*
X101600000Y-70580000D03*
G04 #@! TO.P,J2,2*
G04 #@! TO.N,GND*
X101600000Y-73120000D03*
D11*
G04 #@! TO.P,J2,1*
G04 #@! TO.N,+5V*
X101600000Y-75660000D03*
G04 #@! TD*
D10*
G04 #@! TO.P,J2,3*
G04 #@! TO.N,Net-(J2-Pad3)*
X161600000Y-91120000D03*
G04 #@! TO.P,J2,2*
G04 #@! TO.N,GND*
X161600000Y-93660000D03*
D11*
G04 #@! TO.P,J2,1*
G04 #@! TO.N,+5V*
X161600000Y-96200000D03*
G04 #@! TD*
D10*
G04 #@! TO.P,J2,3*
G04 #@! TO.N,Net-(J2-Pad3)*
X131600000Y-91120000D03*
G04 #@! TO.P,J2,2*
G04 #@! TO.N,GND*
X131600000Y-93660000D03*
D11*
G04 #@! TO.P,J2,1*
G04 #@! TO.N,+5V*
X131600000Y-96200000D03*
G04 #@! TD*
D10*
G04 #@! TO.P,J1,4*
G04 #@! TO.N,Net-(J1-Pad4)*
X183200000Y-24360000D03*
G04 #@! TO.P,J1,3*
G04 #@! TO.N,Net-(J1-Pad3)*
X183200000Y-26900000D03*
G04 #@! TO.P,J1,2*
G04 #@! TO.N,RX*
X183200000Y-29440000D03*
D11*
G04 #@! TO.P,J1,1*
G04 #@! TO.N,TX*
X183200000Y-31980000D03*
G04 #@! TD*
D10*
G04 #@! TO.P,J1,4*
G04 #@! TO.N,Net-(J1-Pad4)*
X153200000Y-24360000D03*
G04 #@! TO.P,J1,3*
G04 #@! TO.N,Net-(J1-Pad3)*
X153200000Y-26900000D03*
G04 #@! TO.P,J1,2*
G04 #@! TO.N,RX*
X153200000Y-29440000D03*
D11*
G04 #@! TO.P,J1,1*
G04 #@! TO.N,TX*
X153200000Y-31980000D03*
G04 #@! TD*
D10*
G04 #@! TO.P,J1,4*
G04 #@! TO.N,Net-(J1-Pad4)*
X123200000Y-24360000D03*
G04 #@! TO.P,J1,3*
G04 #@! TO.N,Net-(J1-Pad3)*
X123200000Y-26900000D03*
G04 #@! TO.P,J1,2*
G04 #@! TO.N,RX*
X123200000Y-29440000D03*
D11*
G04 #@! TO.P,J1,1*
G04 #@! TO.N,TX*
X123200000Y-31980000D03*
G04 #@! TD*
D10*
G04 #@! TO.P,J1,4*
G04 #@! TO.N,Net-(J1-Pad4)*
X183200000Y-44900000D03*
G04 #@! TO.P,J1,3*
G04 #@! TO.N,Net-(J1-Pad3)*
X183200000Y-47440000D03*
G04 #@! TO.P,J1,2*
G04 #@! TO.N,RX*
X183200000Y-49980000D03*
D11*
G04 #@! TO.P,J1,1*
G04 #@! TO.N,TX*
X183200000Y-52520000D03*
G04 #@! TD*
D10*
G04 #@! TO.P,J1,4*
G04 #@! TO.N,Net-(J1-Pad4)*
X153200000Y-44900000D03*
G04 #@! TO.P,J1,3*
G04 #@! TO.N,Net-(J1-Pad3)*
X153200000Y-47440000D03*
G04 #@! TO.P,J1,2*
G04 #@! TO.N,RX*
X153200000Y-49980000D03*
D11*
G04 #@! TO.P,J1,1*
G04 #@! TO.N,TX*
X153200000Y-52520000D03*
G04 #@! TD*
D10*
G04 #@! TO.P,J1,4*
G04 #@! TO.N,Net-(J1-Pad4)*
X123200000Y-44900000D03*
G04 #@! TO.P,J1,3*
G04 #@! TO.N,Net-(J1-Pad3)*
X123200000Y-47440000D03*
G04 #@! TO.P,J1,2*
G04 #@! TO.N,RX*
X123200000Y-49980000D03*
D11*
G04 #@! TO.P,J1,1*
G04 #@! TO.N,TX*
X123200000Y-52520000D03*
G04 #@! TD*
D10*
G04 #@! TO.P,J1,4*
G04 #@! TO.N,Net-(J1-Pad4)*
X183200000Y-65440000D03*
G04 #@! TO.P,J1,3*
G04 #@! TO.N,Net-(J1-Pad3)*
X183200000Y-67980000D03*
G04 #@! TO.P,J1,2*
G04 #@! TO.N,RX*
X183200000Y-70520000D03*
D11*
G04 #@! TO.P,J1,1*
G04 #@! TO.N,TX*
X183200000Y-73060000D03*
G04 #@! TD*
D10*
G04 #@! TO.P,J1,4*
G04 #@! TO.N,Net-(J1-Pad4)*
X153200000Y-65440000D03*
G04 #@! TO.P,J1,3*
G04 #@! TO.N,Net-(J1-Pad3)*
X153200000Y-67980000D03*
G04 #@! TO.P,J1,2*
G04 #@! TO.N,RX*
X153200000Y-70520000D03*
D11*
G04 #@! TO.P,J1,1*
G04 #@! TO.N,TX*
X153200000Y-73060000D03*
G04 #@! TD*
D10*
G04 #@! TO.P,J1,4*
G04 #@! TO.N,Net-(J1-Pad4)*
X123200000Y-65440000D03*
G04 #@! TO.P,J1,3*
G04 #@! TO.N,Net-(J1-Pad3)*
X123200000Y-67980000D03*
G04 #@! TO.P,J1,2*
G04 #@! TO.N,RX*
X123200000Y-70520000D03*
D11*
G04 #@! TO.P,J1,1*
G04 #@! TO.N,TX*
X123200000Y-73060000D03*
G04 #@! TD*
D10*
G04 #@! TO.P,J1,4*
G04 #@! TO.N,Net-(J1-Pad4)*
X183200000Y-85980000D03*
G04 #@! TO.P,J1,3*
G04 #@! TO.N,Net-(J1-Pad3)*
X183200000Y-88520000D03*
G04 #@! TO.P,J1,2*
G04 #@! TO.N,RX*
X183200000Y-91060000D03*
D11*
G04 #@! TO.P,J1,1*
G04 #@! TO.N,TX*
X183200000Y-93600000D03*
G04 #@! TD*
D10*
G04 #@! TO.P,J1,4*
G04 #@! TO.N,Net-(J1-Pad4)*
X153200000Y-85980000D03*
G04 #@! TO.P,J1,3*
G04 #@! TO.N,Net-(J1-Pad3)*
X153200000Y-88520000D03*
G04 #@! TO.P,J1,2*
G04 #@! TO.N,RX*
X153200000Y-91060000D03*
D11*
G04 #@! TO.P,J1,1*
G04 #@! TO.N,TX*
X153200000Y-93600000D03*
G04 #@! TD*
D12*
G04 #@! TO.P,R1,2*
G04 #@! TO.N,GND*
X164000000Y-32500000D03*
D13*
G04 #@! TO.P,R1,1*
G04 #@! TO.N,TX*
X164000000Y-24880000D03*
G04 #@! TD*
D12*
G04 #@! TO.P,R1,2*
G04 #@! TO.N,GND*
X134000000Y-32500000D03*
D13*
G04 #@! TO.P,R1,1*
G04 #@! TO.N,TX*
X134000000Y-24880000D03*
G04 #@! TD*
D12*
G04 #@! TO.P,R1,2*
G04 #@! TO.N,GND*
X104000000Y-32500000D03*
D13*
G04 #@! TO.P,R1,1*
G04 #@! TO.N,TX*
X104000000Y-24880000D03*
G04 #@! TD*
D12*
G04 #@! TO.P,R1,2*
G04 #@! TO.N,GND*
X164000000Y-53040000D03*
D13*
G04 #@! TO.P,R1,1*
G04 #@! TO.N,TX*
X164000000Y-45420000D03*
G04 #@! TD*
D12*
G04 #@! TO.P,R1,2*
G04 #@! TO.N,GND*
X134000000Y-53040000D03*
D13*
G04 #@! TO.P,R1,1*
G04 #@! TO.N,TX*
X134000000Y-45420000D03*
G04 #@! TD*
D12*
G04 #@! TO.P,R1,2*
G04 #@! TO.N,GND*
X104000000Y-53040000D03*
D13*
G04 #@! TO.P,R1,1*
G04 #@! TO.N,TX*
X104000000Y-45420000D03*
G04 #@! TD*
D12*
G04 #@! TO.P,R1,2*
G04 #@! TO.N,GND*
X164000000Y-73580000D03*
D13*
G04 #@! TO.P,R1,1*
G04 #@! TO.N,TX*
X164000000Y-65960000D03*
G04 #@! TD*
D12*
G04 #@! TO.P,R1,2*
G04 #@! TO.N,GND*
X134000000Y-73580000D03*
D13*
G04 #@! TO.P,R1,1*
G04 #@! TO.N,TX*
X134000000Y-65960000D03*
G04 #@! TD*
D12*
G04 #@! TO.P,R1,2*
G04 #@! TO.N,GND*
X104000000Y-73580000D03*
D13*
G04 #@! TO.P,R1,1*
G04 #@! TO.N,TX*
X104000000Y-65960000D03*
G04 #@! TD*
D12*
G04 #@! TO.P,R1,2*
G04 #@! TO.N,GND*
X164000000Y-94120000D03*
D13*
G04 #@! TO.P,R1,1*
G04 #@! TO.N,TX*
X164000000Y-86500000D03*
G04 #@! TD*
D12*
G04 #@! TO.P,R1,2*
G04 #@! TO.N,GND*
X134000000Y-94120000D03*
D13*
G04 #@! TO.P,R1,1*
G04 #@! TO.N,TX*
X134000000Y-86500000D03*
G04 #@! TD*
D14*
G04 #@! TO.P,U1,1*
G04 #@! TO.N,TX*
X165850000Y-24630000D03*
G04 #@! TO.P,U1,2*
G04 #@! TO.N,Net-(J2-Pad3)*
X165850000Y-26630000D03*
G04 #@! TO.P,U1,3*
G04 #@! TO.N,Net-(U1-Pad3)*
X165850000Y-28630000D03*
G04 #@! TO.P,U1,4*
G04 #@! TO.N,Net-(U1-Pad4)*
X165850000Y-30630000D03*
G04 #@! TO.P,U1,5*
G04 #@! TO.N,GND*
X165850000Y-32630000D03*
G04 #@! TO.P,U1,6*
G04 #@! TO.N,+5V*
X165850000Y-34630000D03*
G04 #@! TO.P,U1,7*
G04 #@! TO.N,Net-(U1-Pad7)*
X180800000Y-34330000D03*
G04 #@! TO.P,U1,8*
G04 #@! TO.N,Net-(U1-Pad8)*
X180900000Y-31130000D03*
G04 #@! TO.P,U1,10*
G04 #@! TO.N,Net-(SW1-Pad1)*
X174700000Y-22830000D03*
G04 #@! TO.P,U1,9*
G04 #@! TO.N,Net-(SW1-Pad2)*
X178300000Y-22830000D03*
G04 #@! TD*
G04 #@! TO.P,U1,1*
G04 #@! TO.N,TX*
X135850000Y-24630000D03*
G04 #@! TO.P,U1,2*
G04 #@! TO.N,Net-(J2-Pad3)*
X135850000Y-26630000D03*
G04 #@! TO.P,U1,3*
G04 #@! TO.N,Net-(U1-Pad3)*
X135850000Y-28630000D03*
G04 #@! TO.P,U1,4*
G04 #@! TO.N,Net-(U1-Pad4)*
X135850000Y-30630000D03*
G04 #@! TO.P,U1,5*
G04 #@! TO.N,GND*
X135850000Y-32630000D03*
G04 #@! TO.P,U1,6*
G04 #@! TO.N,+5V*
X135850000Y-34630000D03*
G04 #@! TO.P,U1,7*
G04 #@! TO.N,Net-(U1-Pad7)*
X150800000Y-34330000D03*
G04 #@! TO.P,U1,8*
G04 #@! TO.N,Net-(U1-Pad8)*
X150900000Y-31130000D03*
G04 #@! TO.P,U1,10*
G04 #@! TO.N,Net-(SW1-Pad1)*
X144700000Y-22830000D03*
G04 #@! TO.P,U1,9*
G04 #@! TO.N,Net-(SW1-Pad2)*
X148300000Y-22830000D03*
G04 #@! TD*
G04 #@! TO.P,U1,1*
G04 #@! TO.N,TX*
X105850000Y-24630000D03*
G04 #@! TO.P,U1,2*
G04 #@! TO.N,Net-(J2-Pad3)*
X105850000Y-26630000D03*
G04 #@! TO.P,U1,3*
G04 #@! TO.N,Net-(U1-Pad3)*
X105850000Y-28630000D03*
G04 #@! TO.P,U1,4*
G04 #@! TO.N,Net-(U1-Pad4)*
X105850000Y-30630000D03*
G04 #@! TO.P,U1,5*
G04 #@! TO.N,GND*
X105850000Y-32630000D03*
G04 #@! TO.P,U1,6*
G04 #@! TO.N,+5V*
X105850000Y-34630000D03*
G04 #@! TO.P,U1,7*
G04 #@! TO.N,Net-(U1-Pad7)*
X120800000Y-34330000D03*
G04 #@! TO.P,U1,8*
G04 #@! TO.N,Net-(U1-Pad8)*
X120900000Y-31130000D03*
G04 #@! TO.P,U1,10*
G04 #@! TO.N,Net-(SW1-Pad1)*
X114700000Y-22830000D03*
G04 #@! TO.P,U1,9*
G04 #@! TO.N,Net-(SW1-Pad2)*
X118300000Y-22830000D03*
G04 #@! TD*
G04 #@! TO.P,U1,1*
G04 #@! TO.N,TX*
X165850000Y-45170000D03*
G04 #@! TO.P,U1,2*
G04 #@! TO.N,Net-(J2-Pad3)*
X165850000Y-47170000D03*
G04 #@! TO.P,U1,3*
G04 #@! TO.N,Net-(U1-Pad3)*
X165850000Y-49170000D03*
G04 #@! TO.P,U1,4*
G04 #@! TO.N,Net-(U1-Pad4)*
X165850000Y-51170000D03*
G04 #@! TO.P,U1,5*
G04 #@! TO.N,GND*
X165850000Y-53170000D03*
G04 #@! TO.P,U1,6*
G04 #@! TO.N,+5V*
X165850000Y-55170000D03*
G04 #@! TO.P,U1,7*
G04 #@! TO.N,Net-(U1-Pad7)*
X180800000Y-54870000D03*
G04 #@! TO.P,U1,8*
G04 #@! TO.N,Net-(U1-Pad8)*
X180900000Y-51670000D03*
G04 #@! TO.P,U1,10*
G04 #@! TO.N,Net-(SW1-Pad1)*
X174700000Y-43370000D03*
G04 #@! TO.P,U1,9*
G04 #@! TO.N,Net-(SW1-Pad2)*
X178300000Y-43370000D03*
G04 #@! TD*
G04 #@! TO.P,U1,1*
G04 #@! TO.N,TX*
X135850000Y-45170000D03*
G04 #@! TO.P,U1,2*
G04 #@! TO.N,Net-(J2-Pad3)*
X135850000Y-47170000D03*
G04 #@! TO.P,U1,3*
G04 #@! TO.N,Net-(U1-Pad3)*
X135850000Y-49170000D03*
G04 #@! TO.P,U1,4*
G04 #@! TO.N,Net-(U1-Pad4)*
X135850000Y-51170000D03*
G04 #@! TO.P,U1,5*
G04 #@! TO.N,GND*
X135850000Y-53170000D03*
G04 #@! TO.P,U1,6*
G04 #@! TO.N,+5V*
X135850000Y-55170000D03*
G04 #@! TO.P,U1,7*
G04 #@! TO.N,Net-(U1-Pad7)*
X150800000Y-54870000D03*
G04 #@! TO.P,U1,8*
G04 #@! TO.N,Net-(U1-Pad8)*
X150900000Y-51670000D03*
G04 #@! TO.P,U1,10*
G04 #@! TO.N,Net-(SW1-Pad1)*
X144700000Y-43370000D03*
G04 #@! TO.P,U1,9*
G04 #@! TO.N,Net-(SW1-Pad2)*
X148300000Y-43370000D03*
G04 #@! TD*
G04 #@! TO.P,U1,1*
G04 #@! TO.N,TX*
X105850000Y-45170000D03*
G04 #@! TO.P,U1,2*
G04 #@! TO.N,Net-(J2-Pad3)*
X105850000Y-47170000D03*
G04 #@! TO.P,U1,3*
G04 #@! TO.N,Net-(U1-Pad3)*
X105850000Y-49170000D03*
G04 #@! TO.P,U1,4*
G04 #@! TO.N,Net-(U1-Pad4)*
X105850000Y-51170000D03*
G04 #@! TO.P,U1,5*
G04 #@! TO.N,GND*
X105850000Y-53170000D03*
G04 #@! TO.P,U1,6*
G04 #@! TO.N,+5V*
X105850000Y-55170000D03*
G04 #@! TO.P,U1,7*
G04 #@! TO.N,Net-(U1-Pad7)*
X120800000Y-54870000D03*
G04 #@! TO.P,U1,8*
G04 #@! TO.N,Net-(U1-Pad8)*
X120900000Y-51670000D03*
G04 #@! TO.P,U1,10*
G04 #@! TO.N,Net-(SW1-Pad1)*
X114700000Y-43370000D03*
G04 #@! TO.P,U1,9*
G04 #@! TO.N,Net-(SW1-Pad2)*
X118300000Y-43370000D03*
G04 #@! TD*
G04 #@! TO.P,U1,1*
G04 #@! TO.N,TX*
X165850000Y-65710000D03*
G04 #@! TO.P,U1,2*
G04 #@! TO.N,Net-(J2-Pad3)*
X165850000Y-67710000D03*
G04 #@! TO.P,U1,3*
G04 #@! TO.N,Net-(U1-Pad3)*
X165850000Y-69710000D03*
G04 #@! TO.P,U1,4*
G04 #@! TO.N,Net-(U1-Pad4)*
X165850000Y-71710000D03*
G04 #@! TO.P,U1,5*
G04 #@! TO.N,GND*
X165850000Y-73710000D03*
G04 #@! TO.P,U1,6*
G04 #@! TO.N,+5V*
X165850000Y-75710000D03*
G04 #@! TO.P,U1,7*
G04 #@! TO.N,Net-(U1-Pad7)*
X180800000Y-75410000D03*
G04 #@! TO.P,U1,8*
G04 #@! TO.N,Net-(U1-Pad8)*
X180900000Y-72210000D03*
G04 #@! TO.P,U1,10*
G04 #@! TO.N,Net-(SW1-Pad1)*
X174700000Y-63910000D03*
G04 #@! TO.P,U1,9*
G04 #@! TO.N,Net-(SW1-Pad2)*
X178300000Y-63910000D03*
G04 #@! TD*
G04 #@! TO.P,U1,1*
G04 #@! TO.N,TX*
X135850000Y-65710000D03*
G04 #@! TO.P,U1,2*
G04 #@! TO.N,Net-(J2-Pad3)*
X135850000Y-67710000D03*
G04 #@! TO.P,U1,3*
G04 #@! TO.N,Net-(U1-Pad3)*
X135850000Y-69710000D03*
G04 #@! TO.P,U1,4*
G04 #@! TO.N,Net-(U1-Pad4)*
X135850000Y-71710000D03*
G04 #@! TO.P,U1,5*
G04 #@! TO.N,GND*
X135850000Y-73710000D03*
G04 #@! TO.P,U1,6*
G04 #@! TO.N,+5V*
X135850000Y-75710000D03*
G04 #@! TO.P,U1,7*
G04 #@! TO.N,Net-(U1-Pad7)*
X150800000Y-75410000D03*
G04 #@! TO.P,U1,8*
G04 #@! TO.N,Net-(U1-Pad8)*
X150900000Y-72210000D03*
G04 #@! TO.P,U1,10*
G04 #@! TO.N,Net-(SW1-Pad1)*
X144700000Y-63910000D03*
G04 #@! TO.P,U1,9*
G04 #@! TO.N,Net-(SW1-Pad2)*
X148300000Y-63910000D03*
G04 #@! TD*
G04 #@! TO.P,U1,1*
G04 #@! TO.N,TX*
X105850000Y-65710000D03*
G04 #@! TO.P,U1,2*
G04 #@! TO.N,Net-(J2-Pad3)*
X105850000Y-67710000D03*
G04 #@! TO.P,U1,3*
G04 #@! TO.N,Net-(U1-Pad3)*
X105850000Y-69710000D03*
G04 #@! TO.P,U1,4*
G04 #@! TO.N,Net-(U1-Pad4)*
X105850000Y-71710000D03*
G04 #@! TO.P,U1,5*
G04 #@! TO.N,GND*
X105850000Y-73710000D03*
G04 #@! TO.P,U1,6*
G04 #@! TO.N,+5V*
X105850000Y-75710000D03*
G04 #@! TO.P,U1,7*
G04 #@! TO.N,Net-(U1-Pad7)*
X120800000Y-75410000D03*
G04 #@! TO.P,U1,8*
G04 #@! TO.N,Net-(U1-Pad8)*
X120900000Y-72210000D03*
G04 #@! TO.P,U1,10*
G04 #@! TO.N,Net-(SW1-Pad1)*
X114700000Y-63910000D03*
G04 #@! TO.P,U1,9*
G04 #@! TO.N,Net-(SW1-Pad2)*
X118300000Y-63910000D03*
G04 #@! TD*
G04 #@! TO.P,U1,1*
G04 #@! TO.N,TX*
X165850000Y-86250000D03*
G04 #@! TO.P,U1,2*
G04 #@! TO.N,Net-(J2-Pad3)*
X165850000Y-88250000D03*
G04 #@! TO.P,U1,3*
G04 #@! TO.N,Net-(U1-Pad3)*
X165850000Y-90250000D03*
G04 #@! TO.P,U1,4*
G04 #@! TO.N,Net-(U1-Pad4)*
X165850000Y-92250000D03*
G04 #@! TO.P,U1,5*
G04 #@! TO.N,GND*
X165850000Y-94250000D03*
G04 #@! TO.P,U1,6*
G04 #@! TO.N,+5V*
X165850000Y-96250000D03*
G04 #@! TO.P,U1,7*
G04 #@! TO.N,Net-(U1-Pad7)*
X180800000Y-95950000D03*
G04 #@! TO.P,U1,8*
G04 #@! TO.N,Net-(U1-Pad8)*
X180900000Y-92750000D03*
G04 #@! TO.P,U1,10*
G04 #@! TO.N,Net-(SW1-Pad1)*
X174700000Y-84450000D03*
G04 #@! TO.P,U1,9*
G04 #@! TO.N,Net-(SW1-Pad2)*
X178300000Y-84450000D03*
G04 #@! TD*
G04 #@! TO.P,U1,1*
G04 #@! TO.N,TX*
X135850000Y-86250000D03*
G04 #@! TO.P,U1,2*
G04 #@! TO.N,Net-(J2-Pad3)*
X135850000Y-88250000D03*
G04 #@! TO.P,U1,3*
G04 #@! TO.N,Net-(U1-Pad3)*
X135850000Y-90250000D03*
G04 #@! TO.P,U1,4*
G04 #@! TO.N,Net-(U1-Pad4)*
X135850000Y-92250000D03*
G04 #@! TO.P,U1,5*
G04 #@! TO.N,GND*
X135850000Y-94250000D03*
G04 #@! TO.P,U1,6*
G04 #@! TO.N,+5V*
X135850000Y-96250000D03*
G04 #@! TO.P,U1,7*
G04 #@! TO.N,Net-(U1-Pad7)*
X150800000Y-95950000D03*
G04 #@! TO.P,U1,8*
G04 #@! TO.N,Net-(U1-Pad8)*
X150900000Y-92750000D03*
G04 #@! TO.P,U1,10*
G04 #@! TO.N,Net-(SW1-Pad1)*
X144700000Y-84450000D03*
G04 #@! TO.P,U1,9*
G04 #@! TO.N,Net-(SW1-Pad2)*
X148300000Y-84450000D03*
G04 #@! TD*
G04 #@! TO.P,U1,9*
G04 #@! TO.N,Net-(SW1-Pad2)*
X118300000Y-84450000D03*
G04 #@! TO.P,U1,10*
G04 #@! TO.N,Net-(SW1-Pad1)*
X114700000Y-84450000D03*
G04 #@! TO.P,U1,8*
G04 #@! TO.N,Net-(U1-Pad8)*
X120900000Y-92750000D03*
G04 #@! TO.P,U1,7*
G04 #@! TO.N,Net-(U1-Pad7)*
X120800000Y-95950000D03*
G04 #@! TO.P,U1,6*
G04 #@! TO.N,+5V*
X105850000Y-96250000D03*
G04 #@! TO.P,U1,5*
G04 #@! TO.N,GND*
X105850000Y-94250000D03*
G04 #@! TO.P,U1,4*
G04 #@! TO.N,Net-(U1-Pad4)*
X105850000Y-92250000D03*
G04 #@! TO.P,U1,3*
G04 #@! TO.N,Net-(U1-Pad3)*
X105850000Y-90250000D03*
G04 #@! TO.P,U1,2*
G04 #@! TO.N,Net-(J2-Pad3)*
X105850000Y-88250000D03*
G04 #@! TO.P,U1,1*
G04 #@! TO.N,TX*
X105850000Y-86250000D03*
G04 #@! TD*
D11*
G04 #@! TO.P,J2,1*
G04 #@! TO.N,+5V*
X101600000Y-96200000D03*
D10*
G04 #@! TO.P,J2,2*
G04 #@! TO.N,GND*
X101600000Y-93660000D03*
G04 #@! TO.P,J2,3*
G04 #@! TO.N,Net-(J2-Pad3)*
X101600000Y-91120000D03*
G04 #@! TD*
D11*
G04 #@! TO.P,J1,1*
G04 #@! TO.N,TX*
X123200000Y-93600000D03*
D10*
G04 #@! TO.P,J1,2*
G04 #@! TO.N,RX*
X123200000Y-91060000D03*
G04 #@! TO.P,J1,3*
G04 #@! TO.N,Net-(J1-Pad3)*
X123200000Y-88520000D03*
G04 #@! TO.P,J1,4*
G04 #@! TO.N,Net-(J1-Pad4)*
X123200000Y-85980000D03*
G04 #@! TD*
D13*
G04 #@! TO.P,R1,1*
G04 #@! TO.N,TX*
X104000000Y-86500000D03*
D12*
G04 #@! TO.P,R1,2*
G04 #@! TO.N,GND*
X104000000Y-94120000D03*
G04 #@! TD*
M02*
