G04 #@! TF.GenerationSoftware,KiCad,Pcbnew,(5.0.0-3-g5ebb6b6)*
G04 #@! TF.CreationDate,2018-09-02T17:25:40-06:00*
G04 #@! TF.ProjectId,Hak5-unify,48616B352D756E6966792E6B69636164,rev?*
G04 #@! TF.SameCoordinates,Original*
G04 #@! TF.FileFunction,Legend,Bot*
G04 #@! TF.FilePolarity,Positive*
%FSLAX46Y46*%
G04 Gerber Fmt 4.6, Leading zero omitted, Abs format (unit mm)*
G04 Created by KiCad (PCBNEW (5.0.0-3-g5ebb6b6)) date Sunday, September 02, 2018 at 05:25:40 PM*
%MOMM*%
%LPD*%
G01*
G04 APERTURE LIST*
%ADD10C,0.162500*%
G04 APERTURE END LIST*
D10*
X180507142Y-37624047D02*
X180507142Y-36974047D01*
X180352380Y-36974047D01*
X180259523Y-37005000D01*
X180197619Y-37066904D01*
X180166666Y-37128809D01*
X180135714Y-37252619D01*
X180135714Y-37345476D01*
X180166666Y-37469285D01*
X180197619Y-37531190D01*
X180259523Y-37593095D01*
X180352380Y-37624047D01*
X180507142Y-37624047D01*
X179609523Y-37593095D02*
X179671428Y-37624047D01*
X179795238Y-37624047D01*
X179857142Y-37593095D01*
X179888095Y-37531190D01*
X179888095Y-37283571D01*
X179857142Y-37221666D01*
X179795238Y-37190714D01*
X179671428Y-37190714D01*
X179609523Y-37221666D01*
X179578571Y-37283571D01*
X179578571Y-37345476D01*
X179888095Y-37407380D01*
X179330952Y-37593095D02*
X179269047Y-37624047D01*
X179145238Y-37624047D01*
X179083333Y-37593095D01*
X179052380Y-37531190D01*
X179052380Y-37500238D01*
X179083333Y-37438333D01*
X179145238Y-37407380D01*
X179238095Y-37407380D01*
X179300000Y-37376428D01*
X179330952Y-37314523D01*
X179330952Y-37283571D01*
X179300000Y-37221666D01*
X179238095Y-37190714D01*
X179145238Y-37190714D01*
X179083333Y-37221666D01*
X178773809Y-37624047D02*
X178773809Y-37190714D01*
X178773809Y-36974047D02*
X178804761Y-37005000D01*
X178773809Y-37035952D01*
X178742857Y-37005000D01*
X178773809Y-36974047D01*
X178773809Y-37035952D01*
X178185714Y-37190714D02*
X178185714Y-37716904D01*
X178216666Y-37778809D01*
X178247619Y-37809761D01*
X178309523Y-37840714D01*
X178402380Y-37840714D01*
X178464285Y-37809761D01*
X178185714Y-37593095D02*
X178247619Y-37624047D01*
X178371428Y-37624047D01*
X178433333Y-37593095D01*
X178464285Y-37562142D01*
X178495238Y-37500238D01*
X178495238Y-37314523D01*
X178464285Y-37252619D01*
X178433333Y-37221666D01*
X178371428Y-37190714D01*
X178247619Y-37190714D01*
X178185714Y-37221666D01*
X177876190Y-37190714D02*
X177876190Y-37624047D01*
X177876190Y-37252619D02*
X177845238Y-37221666D01*
X177783333Y-37190714D01*
X177690476Y-37190714D01*
X177628571Y-37221666D01*
X177597619Y-37283571D01*
X177597619Y-37624047D01*
X177040476Y-37593095D02*
X177102380Y-37624047D01*
X177226190Y-37624047D01*
X177288095Y-37593095D01*
X177319047Y-37531190D01*
X177319047Y-37283571D01*
X177288095Y-37221666D01*
X177226190Y-37190714D01*
X177102380Y-37190714D01*
X177040476Y-37221666D01*
X177009523Y-37283571D01*
X177009523Y-37345476D01*
X177319047Y-37407380D01*
X176452380Y-37624047D02*
X176452380Y-36974047D01*
X176452380Y-37593095D02*
X176514285Y-37624047D01*
X176638095Y-37624047D01*
X176700000Y-37593095D01*
X176730952Y-37562142D01*
X176761904Y-37500238D01*
X176761904Y-37314523D01*
X176730952Y-37252619D01*
X176700000Y-37221666D01*
X176638095Y-37190714D01*
X176514285Y-37190714D01*
X176452380Y-37221666D01*
X175647619Y-37624047D02*
X175647619Y-36974047D01*
X175647619Y-37221666D02*
X175585714Y-37190714D01*
X175461904Y-37190714D01*
X175400000Y-37221666D01*
X175369047Y-37252619D01*
X175338095Y-37314523D01*
X175338095Y-37500238D01*
X175369047Y-37562142D01*
X175400000Y-37593095D01*
X175461904Y-37624047D01*
X175585714Y-37624047D01*
X175647619Y-37593095D01*
X175121428Y-37190714D02*
X174966666Y-37624047D01*
X174811904Y-37190714D02*
X174966666Y-37624047D01*
X175028571Y-37778809D01*
X175059523Y-37809761D01*
X175121428Y-37840714D01*
X174100000Y-37593095D02*
X174007142Y-37624047D01*
X173852380Y-37624047D01*
X173790476Y-37593095D01*
X173759523Y-37562142D01*
X173728571Y-37500238D01*
X173728571Y-37438333D01*
X173759523Y-37376428D01*
X173790476Y-37345476D01*
X173852380Y-37314523D01*
X173976190Y-37283571D01*
X174038095Y-37252619D01*
X174069047Y-37221666D01*
X174100000Y-37159761D01*
X174100000Y-37097857D01*
X174069047Y-37035952D01*
X174038095Y-37005000D01*
X173976190Y-36974047D01*
X173821428Y-36974047D01*
X173728571Y-37005000D01*
X173450000Y-37190714D02*
X173450000Y-37840714D01*
X173450000Y-37221666D02*
X173388095Y-37190714D01*
X173264285Y-37190714D01*
X173202380Y-37221666D01*
X173171428Y-37252619D01*
X173140476Y-37314523D01*
X173140476Y-37500238D01*
X173171428Y-37562142D01*
X173202380Y-37593095D01*
X173264285Y-37624047D01*
X173388095Y-37624047D01*
X173450000Y-37593095D01*
X172614285Y-37593095D02*
X172676190Y-37624047D01*
X172800000Y-37624047D01*
X172861904Y-37593095D01*
X172892857Y-37531190D01*
X172892857Y-37283571D01*
X172861904Y-37221666D01*
X172800000Y-37190714D01*
X172676190Y-37190714D01*
X172614285Y-37221666D01*
X172583333Y-37283571D01*
X172583333Y-37345476D01*
X172892857Y-37407380D01*
X172304761Y-37190714D02*
X172304761Y-37624047D01*
X172304761Y-37252619D02*
X172273809Y-37221666D01*
X172211904Y-37190714D01*
X172119047Y-37190714D01*
X172057142Y-37221666D01*
X172026190Y-37283571D01*
X172026190Y-37624047D01*
X171438095Y-37593095D02*
X171500000Y-37624047D01*
X171623809Y-37624047D01*
X171685714Y-37593095D01*
X171716666Y-37562142D01*
X171747619Y-37500238D01*
X171747619Y-37314523D01*
X171716666Y-37252619D01*
X171685714Y-37221666D01*
X171623809Y-37190714D01*
X171500000Y-37190714D01*
X171438095Y-37221666D01*
X170911904Y-37593095D02*
X170973809Y-37624047D01*
X171097619Y-37624047D01*
X171159523Y-37593095D01*
X171190476Y-37531190D01*
X171190476Y-37283571D01*
X171159523Y-37221666D01*
X171097619Y-37190714D01*
X170973809Y-37190714D01*
X170911904Y-37221666D01*
X170880952Y-37283571D01*
X170880952Y-37345476D01*
X171190476Y-37407380D01*
X170602380Y-37624047D02*
X170602380Y-37190714D01*
X170602380Y-37314523D02*
X170571428Y-37252619D01*
X170540476Y-37221666D01*
X170478571Y-37190714D01*
X170416666Y-37190714D01*
X169704761Y-37624047D02*
X169704761Y-37190714D01*
X169704761Y-36974047D02*
X169735714Y-37005000D01*
X169704761Y-37035952D01*
X169673809Y-37005000D01*
X169704761Y-36974047D01*
X169704761Y-37035952D01*
X169395238Y-37190714D02*
X169395238Y-37624047D01*
X169395238Y-37252619D02*
X169364285Y-37221666D01*
X169302380Y-37190714D01*
X169209523Y-37190714D01*
X169147619Y-37221666D01*
X169116666Y-37283571D01*
X169116666Y-37624047D01*
X168311904Y-36974047D02*
X168311904Y-37500238D01*
X168280952Y-37562142D01*
X168250000Y-37593095D01*
X168188095Y-37624047D01*
X168064285Y-37624047D01*
X168002380Y-37593095D01*
X167971428Y-37562142D01*
X167940476Y-37500238D01*
X167940476Y-36974047D01*
X167723809Y-37190714D02*
X167476190Y-37190714D01*
X167630952Y-36974047D02*
X167630952Y-37531190D01*
X167600000Y-37593095D01*
X167538095Y-37624047D01*
X167476190Y-37624047D01*
X166980952Y-37624047D02*
X166980952Y-37283571D01*
X167011904Y-37221666D01*
X167073809Y-37190714D01*
X167197619Y-37190714D01*
X167259523Y-37221666D01*
X166980952Y-37593095D02*
X167042857Y-37624047D01*
X167197619Y-37624047D01*
X167259523Y-37593095D01*
X167290476Y-37531190D01*
X167290476Y-37469285D01*
X167259523Y-37407380D01*
X167197619Y-37376428D01*
X167042857Y-37376428D01*
X166980952Y-37345476D01*
X166671428Y-37624047D02*
X166671428Y-36974047D01*
X166392857Y-37624047D02*
X166392857Y-37283571D01*
X166423809Y-37221666D01*
X166485714Y-37190714D01*
X166578571Y-37190714D01*
X166640476Y-37221666D01*
X166671428Y-37252619D01*
X150507142Y-37624047D02*
X150507142Y-36974047D01*
X150352380Y-36974047D01*
X150259523Y-37005000D01*
X150197619Y-37066904D01*
X150166666Y-37128809D01*
X150135714Y-37252619D01*
X150135714Y-37345476D01*
X150166666Y-37469285D01*
X150197619Y-37531190D01*
X150259523Y-37593095D01*
X150352380Y-37624047D01*
X150507142Y-37624047D01*
X149609523Y-37593095D02*
X149671428Y-37624047D01*
X149795238Y-37624047D01*
X149857142Y-37593095D01*
X149888095Y-37531190D01*
X149888095Y-37283571D01*
X149857142Y-37221666D01*
X149795238Y-37190714D01*
X149671428Y-37190714D01*
X149609523Y-37221666D01*
X149578571Y-37283571D01*
X149578571Y-37345476D01*
X149888095Y-37407380D01*
X149330952Y-37593095D02*
X149269047Y-37624047D01*
X149145238Y-37624047D01*
X149083333Y-37593095D01*
X149052380Y-37531190D01*
X149052380Y-37500238D01*
X149083333Y-37438333D01*
X149145238Y-37407380D01*
X149238095Y-37407380D01*
X149300000Y-37376428D01*
X149330952Y-37314523D01*
X149330952Y-37283571D01*
X149300000Y-37221666D01*
X149238095Y-37190714D01*
X149145238Y-37190714D01*
X149083333Y-37221666D01*
X148773809Y-37624047D02*
X148773809Y-37190714D01*
X148773809Y-36974047D02*
X148804761Y-37005000D01*
X148773809Y-37035952D01*
X148742857Y-37005000D01*
X148773809Y-36974047D01*
X148773809Y-37035952D01*
X148185714Y-37190714D02*
X148185714Y-37716904D01*
X148216666Y-37778809D01*
X148247619Y-37809761D01*
X148309523Y-37840714D01*
X148402380Y-37840714D01*
X148464285Y-37809761D01*
X148185714Y-37593095D02*
X148247619Y-37624047D01*
X148371428Y-37624047D01*
X148433333Y-37593095D01*
X148464285Y-37562142D01*
X148495238Y-37500238D01*
X148495238Y-37314523D01*
X148464285Y-37252619D01*
X148433333Y-37221666D01*
X148371428Y-37190714D01*
X148247619Y-37190714D01*
X148185714Y-37221666D01*
X147876190Y-37190714D02*
X147876190Y-37624047D01*
X147876190Y-37252619D02*
X147845238Y-37221666D01*
X147783333Y-37190714D01*
X147690476Y-37190714D01*
X147628571Y-37221666D01*
X147597619Y-37283571D01*
X147597619Y-37624047D01*
X147040476Y-37593095D02*
X147102380Y-37624047D01*
X147226190Y-37624047D01*
X147288095Y-37593095D01*
X147319047Y-37531190D01*
X147319047Y-37283571D01*
X147288095Y-37221666D01*
X147226190Y-37190714D01*
X147102380Y-37190714D01*
X147040476Y-37221666D01*
X147009523Y-37283571D01*
X147009523Y-37345476D01*
X147319047Y-37407380D01*
X146452380Y-37624047D02*
X146452380Y-36974047D01*
X146452380Y-37593095D02*
X146514285Y-37624047D01*
X146638095Y-37624047D01*
X146700000Y-37593095D01*
X146730952Y-37562142D01*
X146761904Y-37500238D01*
X146761904Y-37314523D01*
X146730952Y-37252619D01*
X146700000Y-37221666D01*
X146638095Y-37190714D01*
X146514285Y-37190714D01*
X146452380Y-37221666D01*
X145647619Y-37624047D02*
X145647619Y-36974047D01*
X145647619Y-37221666D02*
X145585714Y-37190714D01*
X145461904Y-37190714D01*
X145400000Y-37221666D01*
X145369047Y-37252619D01*
X145338095Y-37314523D01*
X145338095Y-37500238D01*
X145369047Y-37562142D01*
X145400000Y-37593095D01*
X145461904Y-37624047D01*
X145585714Y-37624047D01*
X145647619Y-37593095D01*
X145121428Y-37190714D02*
X144966666Y-37624047D01*
X144811904Y-37190714D02*
X144966666Y-37624047D01*
X145028571Y-37778809D01*
X145059523Y-37809761D01*
X145121428Y-37840714D01*
X144100000Y-37593095D02*
X144007142Y-37624047D01*
X143852380Y-37624047D01*
X143790476Y-37593095D01*
X143759523Y-37562142D01*
X143728571Y-37500238D01*
X143728571Y-37438333D01*
X143759523Y-37376428D01*
X143790476Y-37345476D01*
X143852380Y-37314523D01*
X143976190Y-37283571D01*
X144038095Y-37252619D01*
X144069047Y-37221666D01*
X144100000Y-37159761D01*
X144100000Y-37097857D01*
X144069047Y-37035952D01*
X144038095Y-37005000D01*
X143976190Y-36974047D01*
X143821428Y-36974047D01*
X143728571Y-37005000D01*
X143450000Y-37190714D02*
X143450000Y-37840714D01*
X143450000Y-37221666D02*
X143388095Y-37190714D01*
X143264285Y-37190714D01*
X143202380Y-37221666D01*
X143171428Y-37252619D01*
X143140476Y-37314523D01*
X143140476Y-37500238D01*
X143171428Y-37562142D01*
X143202380Y-37593095D01*
X143264285Y-37624047D01*
X143388095Y-37624047D01*
X143450000Y-37593095D01*
X142614285Y-37593095D02*
X142676190Y-37624047D01*
X142800000Y-37624047D01*
X142861904Y-37593095D01*
X142892857Y-37531190D01*
X142892857Y-37283571D01*
X142861904Y-37221666D01*
X142800000Y-37190714D01*
X142676190Y-37190714D01*
X142614285Y-37221666D01*
X142583333Y-37283571D01*
X142583333Y-37345476D01*
X142892857Y-37407380D01*
X142304761Y-37190714D02*
X142304761Y-37624047D01*
X142304761Y-37252619D02*
X142273809Y-37221666D01*
X142211904Y-37190714D01*
X142119047Y-37190714D01*
X142057142Y-37221666D01*
X142026190Y-37283571D01*
X142026190Y-37624047D01*
X141438095Y-37593095D02*
X141500000Y-37624047D01*
X141623809Y-37624047D01*
X141685714Y-37593095D01*
X141716666Y-37562142D01*
X141747619Y-37500238D01*
X141747619Y-37314523D01*
X141716666Y-37252619D01*
X141685714Y-37221666D01*
X141623809Y-37190714D01*
X141500000Y-37190714D01*
X141438095Y-37221666D01*
X140911904Y-37593095D02*
X140973809Y-37624047D01*
X141097619Y-37624047D01*
X141159523Y-37593095D01*
X141190476Y-37531190D01*
X141190476Y-37283571D01*
X141159523Y-37221666D01*
X141097619Y-37190714D01*
X140973809Y-37190714D01*
X140911904Y-37221666D01*
X140880952Y-37283571D01*
X140880952Y-37345476D01*
X141190476Y-37407380D01*
X140602380Y-37624047D02*
X140602380Y-37190714D01*
X140602380Y-37314523D02*
X140571428Y-37252619D01*
X140540476Y-37221666D01*
X140478571Y-37190714D01*
X140416666Y-37190714D01*
X139704761Y-37624047D02*
X139704761Y-37190714D01*
X139704761Y-36974047D02*
X139735714Y-37005000D01*
X139704761Y-37035952D01*
X139673809Y-37005000D01*
X139704761Y-36974047D01*
X139704761Y-37035952D01*
X139395238Y-37190714D02*
X139395238Y-37624047D01*
X139395238Y-37252619D02*
X139364285Y-37221666D01*
X139302380Y-37190714D01*
X139209523Y-37190714D01*
X139147619Y-37221666D01*
X139116666Y-37283571D01*
X139116666Y-37624047D01*
X138311904Y-36974047D02*
X138311904Y-37500238D01*
X138280952Y-37562142D01*
X138250000Y-37593095D01*
X138188095Y-37624047D01*
X138064285Y-37624047D01*
X138002380Y-37593095D01*
X137971428Y-37562142D01*
X137940476Y-37500238D01*
X137940476Y-36974047D01*
X137723809Y-37190714D02*
X137476190Y-37190714D01*
X137630952Y-36974047D02*
X137630952Y-37531190D01*
X137600000Y-37593095D01*
X137538095Y-37624047D01*
X137476190Y-37624047D01*
X136980952Y-37624047D02*
X136980952Y-37283571D01*
X137011904Y-37221666D01*
X137073809Y-37190714D01*
X137197619Y-37190714D01*
X137259523Y-37221666D01*
X136980952Y-37593095D02*
X137042857Y-37624047D01*
X137197619Y-37624047D01*
X137259523Y-37593095D01*
X137290476Y-37531190D01*
X137290476Y-37469285D01*
X137259523Y-37407380D01*
X137197619Y-37376428D01*
X137042857Y-37376428D01*
X136980952Y-37345476D01*
X136671428Y-37624047D02*
X136671428Y-36974047D01*
X136392857Y-37624047D02*
X136392857Y-37283571D01*
X136423809Y-37221666D01*
X136485714Y-37190714D01*
X136578571Y-37190714D01*
X136640476Y-37221666D01*
X136671428Y-37252619D01*
X120507142Y-37624047D02*
X120507142Y-36974047D01*
X120352380Y-36974047D01*
X120259523Y-37005000D01*
X120197619Y-37066904D01*
X120166666Y-37128809D01*
X120135714Y-37252619D01*
X120135714Y-37345476D01*
X120166666Y-37469285D01*
X120197619Y-37531190D01*
X120259523Y-37593095D01*
X120352380Y-37624047D01*
X120507142Y-37624047D01*
X119609523Y-37593095D02*
X119671428Y-37624047D01*
X119795238Y-37624047D01*
X119857142Y-37593095D01*
X119888095Y-37531190D01*
X119888095Y-37283571D01*
X119857142Y-37221666D01*
X119795238Y-37190714D01*
X119671428Y-37190714D01*
X119609523Y-37221666D01*
X119578571Y-37283571D01*
X119578571Y-37345476D01*
X119888095Y-37407380D01*
X119330952Y-37593095D02*
X119269047Y-37624047D01*
X119145238Y-37624047D01*
X119083333Y-37593095D01*
X119052380Y-37531190D01*
X119052380Y-37500238D01*
X119083333Y-37438333D01*
X119145238Y-37407380D01*
X119238095Y-37407380D01*
X119300000Y-37376428D01*
X119330952Y-37314523D01*
X119330952Y-37283571D01*
X119300000Y-37221666D01*
X119238095Y-37190714D01*
X119145238Y-37190714D01*
X119083333Y-37221666D01*
X118773809Y-37624047D02*
X118773809Y-37190714D01*
X118773809Y-36974047D02*
X118804761Y-37005000D01*
X118773809Y-37035952D01*
X118742857Y-37005000D01*
X118773809Y-36974047D01*
X118773809Y-37035952D01*
X118185714Y-37190714D02*
X118185714Y-37716904D01*
X118216666Y-37778809D01*
X118247619Y-37809761D01*
X118309523Y-37840714D01*
X118402380Y-37840714D01*
X118464285Y-37809761D01*
X118185714Y-37593095D02*
X118247619Y-37624047D01*
X118371428Y-37624047D01*
X118433333Y-37593095D01*
X118464285Y-37562142D01*
X118495238Y-37500238D01*
X118495238Y-37314523D01*
X118464285Y-37252619D01*
X118433333Y-37221666D01*
X118371428Y-37190714D01*
X118247619Y-37190714D01*
X118185714Y-37221666D01*
X117876190Y-37190714D02*
X117876190Y-37624047D01*
X117876190Y-37252619D02*
X117845238Y-37221666D01*
X117783333Y-37190714D01*
X117690476Y-37190714D01*
X117628571Y-37221666D01*
X117597619Y-37283571D01*
X117597619Y-37624047D01*
X117040476Y-37593095D02*
X117102380Y-37624047D01*
X117226190Y-37624047D01*
X117288095Y-37593095D01*
X117319047Y-37531190D01*
X117319047Y-37283571D01*
X117288095Y-37221666D01*
X117226190Y-37190714D01*
X117102380Y-37190714D01*
X117040476Y-37221666D01*
X117009523Y-37283571D01*
X117009523Y-37345476D01*
X117319047Y-37407380D01*
X116452380Y-37624047D02*
X116452380Y-36974047D01*
X116452380Y-37593095D02*
X116514285Y-37624047D01*
X116638095Y-37624047D01*
X116700000Y-37593095D01*
X116730952Y-37562142D01*
X116761904Y-37500238D01*
X116761904Y-37314523D01*
X116730952Y-37252619D01*
X116700000Y-37221666D01*
X116638095Y-37190714D01*
X116514285Y-37190714D01*
X116452380Y-37221666D01*
X115647619Y-37624047D02*
X115647619Y-36974047D01*
X115647619Y-37221666D02*
X115585714Y-37190714D01*
X115461904Y-37190714D01*
X115400000Y-37221666D01*
X115369047Y-37252619D01*
X115338095Y-37314523D01*
X115338095Y-37500238D01*
X115369047Y-37562142D01*
X115400000Y-37593095D01*
X115461904Y-37624047D01*
X115585714Y-37624047D01*
X115647619Y-37593095D01*
X115121428Y-37190714D02*
X114966666Y-37624047D01*
X114811904Y-37190714D02*
X114966666Y-37624047D01*
X115028571Y-37778809D01*
X115059523Y-37809761D01*
X115121428Y-37840714D01*
X114100000Y-37593095D02*
X114007142Y-37624047D01*
X113852380Y-37624047D01*
X113790476Y-37593095D01*
X113759523Y-37562142D01*
X113728571Y-37500238D01*
X113728571Y-37438333D01*
X113759523Y-37376428D01*
X113790476Y-37345476D01*
X113852380Y-37314523D01*
X113976190Y-37283571D01*
X114038095Y-37252619D01*
X114069047Y-37221666D01*
X114100000Y-37159761D01*
X114100000Y-37097857D01*
X114069047Y-37035952D01*
X114038095Y-37005000D01*
X113976190Y-36974047D01*
X113821428Y-36974047D01*
X113728571Y-37005000D01*
X113450000Y-37190714D02*
X113450000Y-37840714D01*
X113450000Y-37221666D02*
X113388095Y-37190714D01*
X113264285Y-37190714D01*
X113202380Y-37221666D01*
X113171428Y-37252619D01*
X113140476Y-37314523D01*
X113140476Y-37500238D01*
X113171428Y-37562142D01*
X113202380Y-37593095D01*
X113264285Y-37624047D01*
X113388095Y-37624047D01*
X113450000Y-37593095D01*
X112614285Y-37593095D02*
X112676190Y-37624047D01*
X112800000Y-37624047D01*
X112861904Y-37593095D01*
X112892857Y-37531190D01*
X112892857Y-37283571D01*
X112861904Y-37221666D01*
X112800000Y-37190714D01*
X112676190Y-37190714D01*
X112614285Y-37221666D01*
X112583333Y-37283571D01*
X112583333Y-37345476D01*
X112892857Y-37407380D01*
X112304761Y-37190714D02*
X112304761Y-37624047D01*
X112304761Y-37252619D02*
X112273809Y-37221666D01*
X112211904Y-37190714D01*
X112119047Y-37190714D01*
X112057142Y-37221666D01*
X112026190Y-37283571D01*
X112026190Y-37624047D01*
X111438095Y-37593095D02*
X111500000Y-37624047D01*
X111623809Y-37624047D01*
X111685714Y-37593095D01*
X111716666Y-37562142D01*
X111747619Y-37500238D01*
X111747619Y-37314523D01*
X111716666Y-37252619D01*
X111685714Y-37221666D01*
X111623809Y-37190714D01*
X111500000Y-37190714D01*
X111438095Y-37221666D01*
X110911904Y-37593095D02*
X110973809Y-37624047D01*
X111097619Y-37624047D01*
X111159523Y-37593095D01*
X111190476Y-37531190D01*
X111190476Y-37283571D01*
X111159523Y-37221666D01*
X111097619Y-37190714D01*
X110973809Y-37190714D01*
X110911904Y-37221666D01*
X110880952Y-37283571D01*
X110880952Y-37345476D01*
X111190476Y-37407380D01*
X110602380Y-37624047D02*
X110602380Y-37190714D01*
X110602380Y-37314523D02*
X110571428Y-37252619D01*
X110540476Y-37221666D01*
X110478571Y-37190714D01*
X110416666Y-37190714D01*
X109704761Y-37624047D02*
X109704761Y-37190714D01*
X109704761Y-36974047D02*
X109735714Y-37005000D01*
X109704761Y-37035952D01*
X109673809Y-37005000D01*
X109704761Y-36974047D01*
X109704761Y-37035952D01*
X109395238Y-37190714D02*
X109395238Y-37624047D01*
X109395238Y-37252619D02*
X109364285Y-37221666D01*
X109302380Y-37190714D01*
X109209523Y-37190714D01*
X109147619Y-37221666D01*
X109116666Y-37283571D01*
X109116666Y-37624047D01*
X108311904Y-36974047D02*
X108311904Y-37500238D01*
X108280952Y-37562142D01*
X108250000Y-37593095D01*
X108188095Y-37624047D01*
X108064285Y-37624047D01*
X108002380Y-37593095D01*
X107971428Y-37562142D01*
X107940476Y-37500238D01*
X107940476Y-36974047D01*
X107723809Y-37190714D02*
X107476190Y-37190714D01*
X107630952Y-36974047D02*
X107630952Y-37531190D01*
X107600000Y-37593095D01*
X107538095Y-37624047D01*
X107476190Y-37624047D01*
X106980952Y-37624047D02*
X106980952Y-37283571D01*
X107011904Y-37221666D01*
X107073809Y-37190714D01*
X107197619Y-37190714D01*
X107259523Y-37221666D01*
X106980952Y-37593095D02*
X107042857Y-37624047D01*
X107197619Y-37624047D01*
X107259523Y-37593095D01*
X107290476Y-37531190D01*
X107290476Y-37469285D01*
X107259523Y-37407380D01*
X107197619Y-37376428D01*
X107042857Y-37376428D01*
X106980952Y-37345476D01*
X106671428Y-37624047D02*
X106671428Y-36974047D01*
X106392857Y-37624047D02*
X106392857Y-37283571D01*
X106423809Y-37221666D01*
X106485714Y-37190714D01*
X106578571Y-37190714D01*
X106640476Y-37221666D01*
X106671428Y-37252619D01*
X180507142Y-58164047D02*
X180507142Y-57514047D01*
X180352380Y-57514047D01*
X180259523Y-57545000D01*
X180197619Y-57606904D01*
X180166666Y-57668809D01*
X180135714Y-57792619D01*
X180135714Y-57885476D01*
X180166666Y-58009285D01*
X180197619Y-58071190D01*
X180259523Y-58133095D01*
X180352380Y-58164047D01*
X180507142Y-58164047D01*
X179609523Y-58133095D02*
X179671428Y-58164047D01*
X179795238Y-58164047D01*
X179857142Y-58133095D01*
X179888095Y-58071190D01*
X179888095Y-57823571D01*
X179857142Y-57761666D01*
X179795238Y-57730714D01*
X179671428Y-57730714D01*
X179609523Y-57761666D01*
X179578571Y-57823571D01*
X179578571Y-57885476D01*
X179888095Y-57947380D01*
X179330952Y-58133095D02*
X179269047Y-58164047D01*
X179145238Y-58164047D01*
X179083333Y-58133095D01*
X179052380Y-58071190D01*
X179052380Y-58040238D01*
X179083333Y-57978333D01*
X179145238Y-57947380D01*
X179238095Y-57947380D01*
X179300000Y-57916428D01*
X179330952Y-57854523D01*
X179330952Y-57823571D01*
X179300000Y-57761666D01*
X179238095Y-57730714D01*
X179145238Y-57730714D01*
X179083333Y-57761666D01*
X178773809Y-58164047D02*
X178773809Y-57730714D01*
X178773809Y-57514047D02*
X178804761Y-57545000D01*
X178773809Y-57575952D01*
X178742857Y-57545000D01*
X178773809Y-57514047D01*
X178773809Y-57575952D01*
X178185714Y-57730714D02*
X178185714Y-58256904D01*
X178216666Y-58318809D01*
X178247619Y-58349761D01*
X178309523Y-58380714D01*
X178402380Y-58380714D01*
X178464285Y-58349761D01*
X178185714Y-58133095D02*
X178247619Y-58164047D01*
X178371428Y-58164047D01*
X178433333Y-58133095D01*
X178464285Y-58102142D01*
X178495238Y-58040238D01*
X178495238Y-57854523D01*
X178464285Y-57792619D01*
X178433333Y-57761666D01*
X178371428Y-57730714D01*
X178247619Y-57730714D01*
X178185714Y-57761666D01*
X177876190Y-57730714D02*
X177876190Y-58164047D01*
X177876190Y-57792619D02*
X177845238Y-57761666D01*
X177783333Y-57730714D01*
X177690476Y-57730714D01*
X177628571Y-57761666D01*
X177597619Y-57823571D01*
X177597619Y-58164047D01*
X177040476Y-58133095D02*
X177102380Y-58164047D01*
X177226190Y-58164047D01*
X177288095Y-58133095D01*
X177319047Y-58071190D01*
X177319047Y-57823571D01*
X177288095Y-57761666D01*
X177226190Y-57730714D01*
X177102380Y-57730714D01*
X177040476Y-57761666D01*
X177009523Y-57823571D01*
X177009523Y-57885476D01*
X177319047Y-57947380D01*
X176452380Y-58164047D02*
X176452380Y-57514047D01*
X176452380Y-58133095D02*
X176514285Y-58164047D01*
X176638095Y-58164047D01*
X176700000Y-58133095D01*
X176730952Y-58102142D01*
X176761904Y-58040238D01*
X176761904Y-57854523D01*
X176730952Y-57792619D01*
X176700000Y-57761666D01*
X176638095Y-57730714D01*
X176514285Y-57730714D01*
X176452380Y-57761666D01*
X175647619Y-58164047D02*
X175647619Y-57514047D01*
X175647619Y-57761666D02*
X175585714Y-57730714D01*
X175461904Y-57730714D01*
X175400000Y-57761666D01*
X175369047Y-57792619D01*
X175338095Y-57854523D01*
X175338095Y-58040238D01*
X175369047Y-58102142D01*
X175400000Y-58133095D01*
X175461904Y-58164047D01*
X175585714Y-58164047D01*
X175647619Y-58133095D01*
X175121428Y-57730714D02*
X174966666Y-58164047D01*
X174811904Y-57730714D02*
X174966666Y-58164047D01*
X175028571Y-58318809D01*
X175059523Y-58349761D01*
X175121428Y-58380714D01*
X174100000Y-58133095D02*
X174007142Y-58164047D01*
X173852380Y-58164047D01*
X173790476Y-58133095D01*
X173759523Y-58102142D01*
X173728571Y-58040238D01*
X173728571Y-57978333D01*
X173759523Y-57916428D01*
X173790476Y-57885476D01*
X173852380Y-57854523D01*
X173976190Y-57823571D01*
X174038095Y-57792619D01*
X174069047Y-57761666D01*
X174100000Y-57699761D01*
X174100000Y-57637857D01*
X174069047Y-57575952D01*
X174038095Y-57545000D01*
X173976190Y-57514047D01*
X173821428Y-57514047D01*
X173728571Y-57545000D01*
X173450000Y-57730714D02*
X173450000Y-58380714D01*
X173450000Y-57761666D02*
X173388095Y-57730714D01*
X173264285Y-57730714D01*
X173202380Y-57761666D01*
X173171428Y-57792619D01*
X173140476Y-57854523D01*
X173140476Y-58040238D01*
X173171428Y-58102142D01*
X173202380Y-58133095D01*
X173264285Y-58164047D01*
X173388095Y-58164047D01*
X173450000Y-58133095D01*
X172614285Y-58133095D02*
X172676190Y-58164047D01*
X172800000Y-58164047D01*
X172861904Y-58133095D01*
X172892857Y-58071190D01*
X172892857Y-57823571D01*
X172861904Y-57761666D01*
X172800000Y-57730714D01*
X172676190Y-57730714D01*
X172614285Y-57761666D01*
X172583333Y-57823571D01*
X172583333Y-57885476D01*
X172892857Y-57947380D01*
X172304761Y-57730714D02*
X172304761Y-58164047D01*
X172304761Y-57792619D02*
X172273809Y-57761666D01*
X172211904Y-57730714D01*
X172119047Y-57730714D01*
X172057142Y-57761666D01*
X172026190Y-57823571D01*
X172026190Y-58164047D01*
X171438095Y-58133095D02*
X171500000Y-58164047D01*
X171623809Y-58164047D01*
X171685714Y-58133095D01*
X171716666Y-58102142D01*
X171747619Y-58040238D01*
X171747619Y-57854523D01*
X171716666Y-57792619D01*
X171685714Y-57761666D01*
X171623809Y-57730714D01*
X171500000Y-57730714D01*
X171438095Y-57761666D01*
X170911904Y-58133095D02*
X170973809Y-58164047D01*
X171097619Y-58164047D01*
X171159523Y-58133095D01*
X171190476Y-58071190D01*
X171190476Y-57823571D01*
X171159523Y-57761666D01*
X171097619Y-57730714D01*
X170973809Y-57730714D01*
X170911904Y-57761666D01*
X170880952Y-57823571D01*
X170880952Y-57885476D01*
X171190476Y-57947380D01*
X170602380Y-58164047D02*
X170602380Y-57730714D01*
X170602380Y-57854523D02*
X170571428Y-57792619D01*
X170540476Y-57761666D01*
X170478571Y-57730714D01*
X170416666Y-57730714D01*
X169704761Y-58164047D02*
X169704761Y-57730714D01*
X169704761Y-57514047D02*
X169735714Y-57545000D01*
X169704761Y-57575952D01*
X169673809Y-57545000D01*
X169704761Y-57514047D01*
X169704761Y-57575952D01*
X169395238Y-57730714D02*
X169395238Y-58164047D01*
X169395238Y-57792619D02*
X169364285Y-57761666D01*
X169302380Y-57730714D01*
X169209523Y-57730714D01*
X169147619Y-57761666D01*
X169116666Y-57823571D01*
X169116666Y-58164047D01*
X168311904Y-57514047D02*
X168311904Y-58040238D01*
X168280952Y-58102142D01*
X168250000Y-58133095D01*
X168188095Y-58164047D01*
X168064285Y-58164047D01*
X168002380Y-58133095D01*
X167971428Y-58102142D01*
X167940476Y-58040238D01*
X167940476Y-57514047D01*
X167723809Y-57730714D02*
X167476190Y-57730714D01*
X167630952Y-57514047D02*
X167630952Y-58071190D01*
X167600000Y-58133095D01*
X167538095Y-58164047D01*
X167476190Y-58164047D01*
X166980952Y-58164047D02*
X166980952Y-57823571D01*
X167011904Y-57761666D01*
X167073809Y-57730714D01*
X167197619Y-57730714D01*
X167259523Y-57761666D01*
X166980952Y-58133095D02*
X167042857Y-58164047D01*
X167197619Y-58164047D01*
X167259523Y-58133095D01*
X167290476Y-58071190D01*
X167290476Y-58009285D01*
X167259523Y-57947380D01*
X167197619Y-57916428D01*
X167042857Y-57916428D01*
X166980952Y-57885476D01*
X166671428Y-58164047D02*
X166671428Y-57514047D01*
X166392857Y-58164047D02*
X166392857Y-57823571D01*
X166423809Y-57761666D01*
X166485714Y-57730714D01*
X166578571Y-57730714D01*
X166640476Y-57761666D01*
X166671428Y-57792619D01*
X150507142Y-58164047D02*
X150507142Y-57514047D01*
X150352380Y-57514047D01*
X150259523Y-57545000D01*
X150197619Y-57606904D01*
X150166666Y-57668809D01*
X150135714Y-57792619D01*
X150135714Y-57885476D01*
X150166666Y-58009285D01*
X150197619Y-58071190D01*
X150259523Y-58133095D01*
X150352380Y-58164047D01*
X150507142Y-58164047D01*
X149609523Y-58133095D02*
X149671428Y-58164047D01*
X149795238Y-58164047D01*
X149857142Y-58133095D01*
X149888095Y-58071190D01*
X149888095Y-57823571D01*
X149857142Y-57761666D01*
X149795238Y-57730714D01*
X149671428Y-57730714D01*
X149609523Y-57761666D01*
X149578571Y-57823571D01*
X149578571Y-57885476D01*
X149888095Y-57947380D01*
X149330952Y-58133095D02*
X149269047Y-58164047D01*
X149145238Y-58164047D01*
X149083333Y-58133095D01*
X149052380Y-58071190D01*
X149052380Y-58040238D01*
X149083333Y-57978333D01*
X149145238Y-57947380D01*
X149238095Y-57947380D01*
X149300000Y-57916428D01*
X149330952Y-57854523D01*
X149330952Y-57823571D01*
X149300000Y-57761666D01*
X149238095Y-57730714D01*
X149145238Y-57730714D01*
X149083333Y-57761666D01*
X148773809Y-58164047D02*
X148773809Y-57730714D01*
X148773809Y-57514047D02*
X148804761Y-57545000D01*
X148773809Y-57575952D01*
X148742857Y-57545000D01*
X148773809Y-57514047D01*
X148773809Y-57575952D01*
X148185714Y-57730714D02*
X148185714Y-58256904D01*
X148216666Y-58318809D01*
X148247619Y-58349761D01*
X148309523Y-58380714D01*
X148402380Y-58380714D01*
X148464285Y-58349761D01*
X148185714Y-58133095D02*
X148247619Y-58164047D01*
X148371428Y-58164047D01*
X148433333Y-58133095D01*
X148464285Y-58102142D01*
X148495238Y-58040238D01*
X148495238Y-57854523D01*
X148464285Y-57792619D01*
X148433333Y-57761666D01*
X148371428Y-57730714D01*
X148247619Y-57730714D01*
X148185714Y-57761666D01*
X147876190Y-57730714D02*
X147876190Y-58164047D01*
X147876190Y-57792619D02*
X147845238Y-57761666D01*
X147783333Y-57730714D01*
X147690476Y-57730714D01*
X147628571Y-57761666D01*
X147597619Y-57823571D01*
X147597619Y-58164047D01*
X147040476Y-58133095D02*
X147102380Y-58164047D01*
X147226190Y-58164047D01*
X147288095Y-58133095D01*
X147319047Y-58071190D01*
X147319047Y-57823571D01*
X147288095Y-57761666D01*
X147226190Y-57730714D01*
X147102380Y-57730714D01*
X147040476Y-57761666D01*
X147009523Y-57823571D01*
X147009523Y-57885476D01*
X147319047Y-57947380D01*
X146452380Y-58164047D02*
X146452380Y-57514047D01*
X146452380Y-58133095D02*
X146514285Y-58164047D01*
X146638095Y-58164047D01*
X146700000Y-58133095D01*
X146730952Y-58102142D01*
X146761904Y-58040238D01*
X146761904Y-57854523D01*
X146730952Y-57792619D01*
X146700000Y-57761666D01*
X146638095Y-57730714D01*
X146514285Y-57730714D01*
X146452380Y-57761666D01*
X145647619Y-58164047D02*
X145647619Y-57514047D01*
X145647619Y-57761666D02*
X145585714Y-57730714D01*
X145461904Y-57730714D01*
X145400000Y-57761666D01*
X145369047Y-57792619D01*
X145338095Y-57854523D01*
X145338095Y-58040238D01*
X145369047Y-58102142D01*
X145400000Y-58133095D01*
X145461904Y-58164047D01*
X145585714Y-58164047D01*
X145647619Y-58133095D01*
X145121428Y-57730714D02*
X144966666Y-58164047D01*
X144811904Y-57730714D02*
X144966666Y-58164047D01*
X145028571Y-58318809D01*
X145059523Y-58349761D01*
X145121428Y-58380714D01*
X144100000Y-58133095D02*
X144007142Y-58164047D01*
X143852380Y-58164047D01*
X143790476Y-58133095D01*
X143759523Y-58102142D01*
X143728571Y-58040238D01*
X143728571Y-57978333D01*
X143759523Y-57916428D01*
X143790476Y-57885476D01*
X143852380Y-57854523D01*
X143976190Y-57823571D01*
X144038095Y-57792619D01*
X144069047Y-57761666D01*
X144100000Y-57699761D01*
X144100000Y-57637857D01*
X144069047Y-57575952D01*
X144038095Y-57545000D01*
X143976190Y-57514047D01*
X143821428Y-57514047D01*
X143728571Y-57545000D01*
X143450000Y-57730714D02*
X143450000Y-58380714D01*
X143450000Y-57761666D02*
X143388095Y-57730714D01*
X143264285Y-57730714D01*
X143202380Y-57761666D01*
X143171428Y-57792619D01*
X143140476Y-57854523D01*
X143140476Y-58040238D01*
X143171428Y-58102142D01*
X143202380Y-58133095D01*
X143264285Y-58164047D01*
X143388095Y-58164047D01*
X143450000Y-58133095D01*
X142614285Y-58133095D02*
X142676190Y-58164047D01*
X142800000Y-58164047D01*
X142861904Y-58133095D01*
X142892857Y-58071190D01*
X142892857Y-57823571D01*
X142861904Y-57761666D01*
X142800000Y-57730714D01*
X142676190Y-57730714D01*
X142614285Y-57761666D01*
X142583333Y-57823571D01*
X142583333Y-57885476D01*
X142892857Y-57947380D01*
X142304761Y-57730714D02*
X142304761Y-58164047D01*
X142304761Y-57792619D02*
X142273809Y-57761666D01*
X142211904Y-57730714D01*
X142119047Y-57730714D01*
X142057142Y-57761666D01*
X142026190Y-57823571D01*
X142026190Y-58164047D01*
X141438095Y-58133095D02*
X141500000Y-58164047D01*
X141623809Y-58164047D01*
X141685714Y-58133095D01*
X141716666Y-58102142D01*
X141747619Y-58040238D01*
X141747619Y-57854523D01*
X141716666Y-57792619D01*
X141685714Y-57761666D01*
X141623809Y-57730714D01*
X141500000Y-57730714D01*
X141438095Y-57761666D01*
X140911904Y-58133095D02*
X140973809Y-58164047D01*
X141097619Y-58164047D01*
X141159523Y-58133095D01*
X141190476Y-58071190D01*
X141190476Y-57823571D01*
X141159523Y-57761666D01*
X141097619Y-57730714D01*
X140973809Y-57730714D01*
X140911904Y-57761666D01*
X140880952Y-57823571D01*
X140880952Y-57885476D01*
X141190476Y-57947380D01*
X140602380Y-58164047D02*
X140602380Y-57730714D01*
X140602380Y-57854523D02*
X140571428Y-57792619D01*
X140540476Y-57761666D01*
X140478571Y-57730714D01*
X140416666Y-57730714D01*
X139704761Y-58164047D02*
X139704761Y-57730714D01*
X139704761Y-57514047D02*
X139735714Y-57545000D01*
X139704761Y-57575952D01*
X139673809Y-57545000D01*
X139704761Y-57514047D01*
X139704761Y-57575952D01*
X139395238Y-57730714D02*
X139395238Y-58164047D01*
X139395238Y-57792619D02*
X139364285Y-57761666D01*
X139302380Y-57730714D01*
X139209523Y-57730714D01*
X139147619Y-57761666D01*
X139116666Y-57823571D01*
X139116666Y-58164047D01*
X138311904Y-57514047D02*
X138311904Y-58040238D01*
X138280952Y-58102142D01*
X138250000Y-58133095D01*
X138188095Y-58164047D01*
X138064285Y-58164047D01*
X138002380Y-58133095D01*
X137971428Y-58102142D01*
X137940476Y-58040238D01*
X137940476Y-57514047D01*
X137723809Y-57730714D02*
X137476190Y-57730714D01*
X137630952Y-57514047D02*
X137630952Y-58071190D01*
X137600000Y-58133095D01*
X137538095Y-58164047D01*
X137476190Y-58164047D01*
X136980952Y-58164047D02*
X136980952Y-57823571D01*
X137011904Y-57761666D01*
X137073809Y-57730714D01*
X137197619Y-57730714D01*
X137259523Y-57761666D01*
X136980952Y-58133095D02*
X137042857Y-58164047D01*
X137197619Y-58164047D01*
X137259523Y-58133095D01*
X137290476Y-58071190D01*
X137290476Y-58009285D01*
X137259523Y-57947380D01*
X137197619Y-57916428D01*
X137042857Y-57916428D01*
X136980952Y-57885476D01*
X136671428Y-58164047D02*
X136671428Y-57514047D01*
X136392857Y-58164047D02*
X136392857Y-57823571D01*
X136423809Y-57761666D01*
X136485714Y-57730714D01*
X136578571Y-57730714D01*
X136640476Y-57761666D01*
X136671428Y-57792619D01*
X120507142Y-58164047D02*
X120507142Y-57514047D01*
X120352380Y-57514047D01*
X120259523Y-57545000D01*
X120197619Y-57606904D01*
X120166666Y-57668809D01*
X120135714Y-57792619D01*
X120135714Y-57885476D01*
X120166666Y-58009285D01*
X120197619Y-58071190D01*
X120259523Y-58133095D01*
X120352380Y-58164047D01*
X120507142Y-58164047D01*
X119609523Y-58133095D02*
X119671428Y-58164047D01*
X119795238Y-58164047D01*
X119857142Y-58133095D01*
X119888095Y-58071190D01*
X119888095Y-57823571D01*
X119857142Y-57761666D01*
X119795238Y-57730714D01*
X119671428Y-57730714D01*
X119609523Y-57761666D01*
X119578571Y-57823571D01*
X119578571Y-57885476D01*
X119888095Y-57947380D01*
X119330952Y-58133095D02*
X119269047Y-58164047D01*
X119145238Y-58164047D01*
X119083333Y-58133095D01*
X119052380Y-58071190D01*
X119052380Y-58040238D01*
X119083333Y-57978333D01*
X119145238Y-57947380D01*
X119238095Y-57947380D01*
X119300000Y-57916428D01*
X119330952Y-57854523D01*
X119330952Y-57823571D01*
X119300000Y-57761666D01*
X119238095Y-57730714D01*
X119145238Y-57730714D01*
X119083333Y-57761666D01*
X118773809Y-58164047D02*
X118773809Y-57730714D01*
X118773809Y-57514047D02*
X118804761Y-57545000D01*
X118773809Y-57575952D01*
X118742857Y-57545000D01*
X118773809Y-57514047D01*
X118773809Y-57575952D01*
X118185714Y-57730714D02*
X118185714Y-58256904D01*
X118216666Y-58318809D01*
X118247619Y-58349761D01*
X118309523Y-58380714D01*
X118402380Y-58380714D01*
X118464285Y-58349761D01*
X118185714Y-58133095D02*
X118247619Y-58164047D01*
X118371428Y-58164047D01*
X118433333Y-58133095D01*
X118464285Y-58102142D01*
X118495238Y-58040238D01*
X118495238Y-57854523D01*
X118464285Y-57792619D01*
X118433333Y-57761666D01*
X118371428Y-57730714D01*
X118247619Y-57730714D01*
X118185714Y-57761666D01*
X117876190Y-57730714D02*
X117876190Y-58164047D01*
X117876190Y-57792619D02*
X117845238Y-57761666D01*
X117783333Y-57730714D01*
X117690476Y-57730714D01*
X117628571Y-57761666D01*
X117597619Y-57823571D01*
X117597619Y-58164047D01*
X117040476Y-58133095D02*
X117102380Y-58164047D01*
X117226190Y-58164047D01*
X117288095Y-58133095D01*
X117319047Y-58071190D01*
X117319047Y-57823571D01*
X117288095Y-57761666D01*
X117226190Y-57730714D01*
X117102380Y-57730714D01*
X117040476Y-57761666D01*
X117009523Y-57823571D01*
X117009523Y-57885476D01*
X117319047Y-57947380D01*
X116452380Y-58164047D02*
X116452380Y-57514047D01*
X116452380Y-58133095D02*
X116514285Y-58164047D01*
X116638095Y-58164047D01*
X116700000Y-58133095D01*
X116730952Y-58102142D01*
X116761904Y-58040238D01*
X116761904Y-57854523D01*
X116730952Y-57792619D01*
X116700000Y-57761666D01*
X116638095Y-57730714D01*
X116514285Y-57730714D01*
X116452380Y-57761666D01*
X115647619Y-58164047D02*
X115647619Y-57514047D01*
X115647619Y-57761666D02*
X115585714Y-57730714D01*
X115461904Y-57730714D01*
X115400000Y-57761666D01*
X115369047Y-57792619D01*
X115338095Y-57854523D01*
X115338095Y-58040238D01*
X115369047Y-58102142D01*
X115400000Y-58133095D01*
X115461904Y-58164047D01*
X115585714Y-58164047D01*
X115647619Y-58133095D01*
X115121428Y-57730714D02*
X114966666Y-58164047D01*
X114811904Y-57730714D02*
X114966666Y-58164047D01*
X115028571Y-58318809D01*
X115059523Y-58349761D01*
X115121428Y-58380714D01*
X114100000Y-58133095D02*
X114007142Y-58164047D01*
X113852380Y-58164047D01*
X113790476Y-58133095D01*
X113759523Y-58102142D01*
X113728571Y-58040238D01*
X113728571Y-57978333D01*
X113759523Y-57916428D01*
X113790476Y-57885476D01*
X113852380Y-57854523D01*
X113976190Y-57823571D01*
X114038095Y-57792619D01*
X114069047Y-57761666D01*
X114100000Y-57699761D01*
X114100000Y-57637857D01*
X114069047Y-57575952D01*
X114038095Y-57545000D01*
X113976190Y-57514047D01*
X113821428Y-57514047D01*
X113728571Y-57545000D01*
X113450000Y-57730714D02*
X113450000Y-58380714D01*
X113450000Y-57761666D02*
X113388095Y-57730714D01*
X113264285Y-57730714D01*
X113202380Y-57761666D01*
X113171428Y-57792619D01*
X113140476Y-57854523D01*
X113140476Y-58040238D01*
X113171428Y-58102142D01*
X113202380Y-58133095D01*
X113264285Y-58164047D01*
X113388095Y-58164047D01*
X113450000Y-58133095D01*
X112614285Y-58133095D02*
X112676190Y-58164047D01*
X112800000Y-58164047D01*
X112861904Y-58133095D01*
X112892857Y-58071190D01*
X112892857Y-57823571D01*
X112861904Y-57761666D01*
X112800000Y-57730714D01*
X112676190Y-57730714D01*
X112614285Y-57761666D01*
X112583333Y-57823571D01*
X112583333Y-57885476D01*
X112892857Y-57947380D01*
X112304761Y-57730714D02*
X112304761Y-58164047D01*
X112304761Y-57792619D02*
X112273809Y-57761666D01*
X112211904Y-57730714D01*
X112119047Y-57730714D01*
X112057142Y-57761666D01*
X112026190Y-57823571D01*
X112026190Y-58164047D01*
X111438095Y-58133095D02*
X111500000Y-58164047D01*
X111623809Y-58164047D01*
X111685714Y-58133095D01*
X111716666Y-58102142D01*
X111747619Y-58040238D01*
X111747619Y-57854523D01*
X111716666Y-57792619D01*
X111685714Y-57761666D01*
X111623809Y-57730714D01*
X111500000Y-57730714D01*
X111438095Y-57761666D01*
X110911904Y-58133095D02*
X110973809Y-58164047D01*
X111097619Y-58164047D01*
X111159523Y-58133095D01*
X111190476Y-58071190D01*
X111190476Y-57823571D01*
X111159523Y-57761666D01*
X111097619Y-57730714D01*
X110973809Y-57730714D01*
X110911904Y-57761666D01*
X110880952Y-57823571D01*
X110880952Y-57885476D01*
X111190476Y-57947380D01*
X110602380Y-58164047D02*
X110602380Y-57730714D01*
X110602380Y-57854523D02*
X110571428Y-57792619D01*
X110540476Y-57761666D01*
X110478571Y-57730714D01*
X110416666Y-57730714D01*
X109704761Y-58164047D02*
X109704761Y-57730714D01*
X109704761Y-57514047D02*
X109735714Y-57545000D01*
X109704761Y-57575952D01*
X109673809Y-57545000D01*
X109704761Y-57514047D01*
X109704761Y-57575952D01*
X109395238Y-57730714D02*
X109395238Y-58164047D01*
X109395238Y-57792619D02*
X109364285Y-57761666D01*
X109302380Y-57730714D01*
X109209523Y-57730714D01*
X109147619Y-57761666D01*
X109116666Y-57823571D01*
X109116666Y-58164047D01*
X108311904Y-57514047D02*
X108311904Y-58040238D01*
X108280952Y-58102142D01*
X108250000Y-58133095D01*
X108188095Y-58164047D01*
X108064285Y-58164047D01*
X108002380Y-58133095D01*
X107971428Y-58102142D01*
X107940476Y-58040238D01*
X107940476Y-57514047D01*
X107723809Y-57730714D02*
X107476190Y-57730714D01*
X107630952Y-57514047D02*
X107630952Y-58071190D01*
X107600000Y-58133095D01*
X107538095Y-58164047D01*
X107476190Y-58164047D01*
X106980952Y-58164047D02*
X106980952Y-57823571D01*
X107011904Y-57761666D01*
X107073809Y-57730714D01*
X107197619Y-57730714D01*
X107259523Y-57761666D01*
X106980952Y-58133095D02*
X107042857Y-58164047D01*
X107197619Y-58164047D01*
X107259523Y-58133095D01*
X107290476Y-58071190D01*
X107290476Y-58009285D01*
X107259523Y-57947380D01*
X107197619Y-57916428D01*
X107042857Y-57916428D01*
X106980952Y-57885476D01*
X106671428Y-58164047D02*
X106671428Y-57514047D01*
X106392857Y-58164047D02*
X106392857Y-57823571D01*
X106423809Y-57761666D01*
X106485714Y-57730714D01*
X106578571Y-57730714D01*
X106640476Y-57761666D01*
X106671428Y-57792619D01*
X180507142Y-78704047D02*
X180507142Y-78054047D01*
X180352380Y-78054047D01*
X180259523Y-78085000D01*
X180197619Y-78146904D01*
X180166666Y-78208809D01*
X180135714Y-78332619D01*
X180135714Y-78425476D01*
X180166666Y-78549285D01*
X180197619Y-78611190D01*
X180259523Y-78673095D01*
X180352380Y-78704047D01*
X180507142Y-78704047D01*
X179609523Y-78673095D02*
X179671428Y-78704047D01*
X179795238Y-78704047D01*
X179857142Y-78673095D01*
X179888095Y-78611190D01*
X179888095Y-78363571D01*
X179857142Y-78301666D01*
X179795238Y-78270714D01*
X179671428Y-78270714D01*
X179609523Y-78301666D01*
X179578571Y-78363571D01*
X179578571Y-78425476D01*
X179888095Y-78487380D01*
X179330952Y-78673095D02*
X179269047Y-78704047D01*
X179145238Y-78704047D01*
X179083333Y-78673095D01*
X179052380Y-78611190D01*
X179052380Y-78580238D01*
X179083333Y-78518333D01*
X179145238Y-78487380D01*
X179238095Y-78487380D01*
X179300000Y-78456428D01*
X179330952Y-78394523D01*
X179330952Y-78363571D01*
X179300000Y-78301666D01*
X179238095Y-78270714D01*
X179145238Y-78270714D01*
X179083333Y-78301666D01*
X178773809Y-78704047D02*
X178773809Y-78270714D01*
X178773809Y-78054047D02*
X178804761Y-78085000D01*
X178773809Y-78115952D01*
X178742857Y-78085000D01*
X178773809Y-78054047D01*
X178773809Y-78115952D01*
X178185714Y-78270714D02*
X178185714Y-78796904D01*
X178216666Y-78858809D01*
X178247619Y-78889761D01*
X178309523Y-78920714D01*
X178402380Y-78920714D01*
X178464285Y-78889761D01*
X178185714Y-78673095D02*
X178247619Y-78704047D01*
X178371428Y-78704047D01*
X178433333Y-78673095D01*
X178464285Y-78642142D01*
X178495238Y-78580238D01*
X178495238Y-78394523D01*
X178464285Y-78332619D01*
X178433333Y-78301666D01*
X178371428Y-78270714D01*
X178247619Y-78270714D01*
X178185714Y-78301666D01*
X177876190Y-78270714D02*
X177876190Y-78704047D01*
X177876190Y-78332619D02*
X177845238Y-78301666D01*
X177783333Y-78270714D01*
X177690476Y-78270714D01*
X177628571Y-78301666D01*
X177597619Y-78363571D01*
X177597619Y-78704047D01*
X177040476Y-78673095D02*
X177102380Y-78704047D01*
X177226190Y-78704047D01*
X177288095Y-78673095D01*
X177319047Y-78611190D01*
X177319047Y-78363571D01*
X177288095Y-78301666D01*
X177226190Y-78270714D01*
X177102380Y-78270714D01*
X177040476Y-78301666D01*
X177009523Y-78363571D01*
X177009523Y-78425476D01*
X177319047Y-78487380D01*
X176452380Y-78704047D02*
X176452380Y-78054047D01*
X176452380Y-78673095D02*
X176514285Y-78704047D01*
X176638095Y-78704047D01*
X176700000Y-78673095D01*
X176730952Y-78642142D01*
X176761904Y-78580238D01*
X176761904Y-78394523D01*
X176730952Y-78332619D01*
X176700000Y-78301666D01*
X176638095Y-78270714D01*
X176514285Y-78270714D01*
X176452380Y-78301666D01*
X175647619Y-78704047D02*
X175647619Y-78054047D01*
X175647619Y-78301666D02*
X175585714Y-78270714D01*
X175461904Y-78270714D01*
X175400000Y-78301666D01*
X175369047Y-78332619D01*
X175338095Y-78394523D01*
X175338095Y-78580238D01*
X175369047Y-78642142D01*
X175400000Y-78673095D01*
X175461904Y-78704047D01*
X175585714Y-78704047D01*
X175647619Y-78673095D01*
X175121428Y-78270714D02*
X174966666Y-78704047D01*
X174811904Y-78270714D02*
X174966666Y-78704047D01*
X175028571Y-78858809D01*
X175059523Y-78889761D01*
X175121428Y-78920714D01*
X174100000Y-78673095D02*
X174007142Y-78704047D01*
X173852380Y-78704047D01*
X173790476Y-78673095D01*
X173759523Y-78642142D01*
X173728571Y-78580238D01*
X173728571Y-78518333D01*
X173759523Y-78456428D01*
X173790476Y-78425476D01*
X173852380Y-78394523D01*
X173976190Y-78363571D01*
X174038095Y-78332619D01*
X174069047Y-78301666D01*
X174100000Y-78239761D01*
X174100000Y-78177857D01*
X174069047Y-78115952D01*
X174038095Y-78085000D01*
X173976190Y-78054047D01*
X173821428Y-78054047D01*
X173728571Y-78085000D01*
X173450000Y-78270714D02*
X173450000Y-78920714D01*
X173450000Y-78301666D02*
X173388095Y-78270714D01*
X173264285Y-78270714D01*
X173202380Y-78301666D01*
X173171428Y-78332619D01*
X173140476Y-78394523D01*
X173140476Y-78580238D01*
X173171428Y-78642142D01*
X173202380Y-78673095D01*
X173264285Y-78704047D01*
X173388095Y-78704047D01*
X173450000Y-78673095D01*
X172614285Y-78673095D02*
X172676190Y-78704047D01*
X172800000Y-78704047D01*
X172861904Y-78673095D01*
X172892857Y-78611190D01*
X172892857Y-78363571D01*
X172861904Y-78301666D01*
X172800000Y-78270714D01*
X172676190Y-78270714D01*
X172614285Y-78301666D01*
X172583333Y-78363571D01*
X172583333Y-78425476D01*
X172892857Y-78487380D01*
X172304761Y-78270714D02*
X172304761Y-78704047D01*
X172304761Y-78332619D02*
X172273809Y-78301666D01*
X172211904Y-78270714D01*
X172119047Y-78270714D01*
X172057142Y-78301666D01*
X172026190Y-78363571D01*
X172026190Y-78704047D01*
X171438095Y-78673095D02*
X171500000Y-78704047D01*
X171623809Y-78704047D01*
X171685714Y-78673095D01*
X171716666Y-78642142D01*
X171747619Y-78580238D01*
X171747619Y-78394523D01*
X171716666Y-78332619D01*
X171685714Y-78301666D01*
X171623809Y-78270714D01*
X171500000Y-78270714D01*
X171438095Y-78301666D01*
X170911904Y-78673095D02*
X170973809Y-78704047D01*
X171097619Y-78704047D01*
X171159523Y-78673095D01*
X171190476Y-78611190D01*
X171190476Y-78363571D01*
X171159523Y-78301666D01*
X171097619Y-78270714D01*
X170973809Y-78270714D01*
X170911904Y-78301666D01*
X170880952Y-78363571D01*
X170880952Y-78425476D01*
X171190476Y-78487380D01*
X170602380Y-78704047D02*
X170602380Y-78270714D01*
X170602380Y-78394523D02*
X170571428Y-78332619D01*
X170540476Y-78301666D01*
X170478571Y-78270714D01*
X170416666Y-78270714D01*
X169704761Y-78704047D02*
X169704761Y-78270714D01*
X169704761Y-78054047D02*
X169735714Y-78085000D01*
X169704761Y-78115952D01*
X169673809Y-78085000D01*
X169704761Y-78054047D01*
X169704761Y-78115952D01*
X169395238Y-78270714D02*
X169395238Y-78704047D01*
X169395238Y-78332619D02*
X169364285Y-78301666D01*
X169302380Y-78270714D01*
X169209523Y-78270714D01*
X169147619Y-78301666D01*
X169116666Y-78363571D01*
X169116666Y-78704047D01*
X168311904Y-78054047D02*
X168311904Y-78580238D01*
X168280952Y-78642142D01*
X168250000Y-78673095D01*
X168188095Y-78704047D01*
X168064285Y-78704047D01*
X168002380Y-78673095D01*
X167971428Y-78642142D01*
X167940476Y-78580238D01*
X167940476Y-78054047D01*
X167723809Y-78270714D02*
X167476190Y-78270714D01*
X167630952Y-78054047D02*
X167630952Y-78611190D01*
X167600000Y-78673095D01*
X167538095Y-78704047D01*
X167476190Y-78704047D01*
X166980952Y-78704047D02*
X166980952Y-78363571D01*
X167011904Y-78301666D01*
X167073809Y-78270714D01*
X167197619Y-78270714D01*
X167259523Y-78301666D01*
X166980952Y-78673095D02*
X167042857Y-78704047D01*
X167197619Y-78704047D01*
X167259523Y-78673095D01*
X167290476Y-78611190D01*
X167290476Y-78549285D01*
X167259523Y-78487380D01*
X167197619Y-78456428D01*
X167042857Y-78456428D01*
X166980952Y-78425476D01*
X166671428Y-78704047D02*
X166671428Y-78054047D01*
X166392857Y-78704047D02*
X166392857Y-78363571D01*
X166423809Y-78301666D01*
X166485714Y-78270714D01*
X166578571Y-78270714D01*
X166640476Y-78301666D01*
X166671428Y-78332619D01*
X150507142Y-78704047D02*
X150507142Y-78054047D01*
X150352380Y-78054047D01*
X150259523Y-78085000D01*
X150197619Y-78146904D01*
X150166666Y-78208809D01*
X150135714Y-78332619D01*
X150135714Y-78425476D01*
X150166666Y-78549285D01*
X150197619Y-78611190D01*
X150259523Y-78673095D01*
X150352380Y-78704047D01*
X150507142Y-78704047D01*
X149609523Y-78673095D02*
X149671428Y-78704047D01*
X149795238Y-78704047D01*
X149857142Y-78673095D01*
X149888095Y-78611190D01*
X149888095Y-78363571D01*
X149857142Y-78301666D01*
X149795238Y-78270714D01*
X149671428Y-78270714D01*
X149609523Y-78301666D01*
X149578571Y-78363571D01*
X149578571Y-78425476D01*
X149888095Y-78487380D01*
X149330952Y-78673095D02*
X149269047Y-78704047D01*
X149145238Y-78704047D01*
X149083333Y-78673095D01*
X149052380Y-78611190D01*
X149052380Y-78580238D01*
X149083333Y-78518333D01*
X149145238Y-78487380D01*
X149238095Y-78487380D01*
X149300000Y-78456428D01*
X149330952Y-78394523D01*
X149330952Y-78363571D01*
X149300000Y-78301666D01*
X149238095Y-78270714D01*
X149145238Y-78270714D01*
X149083333Y-78301666D01*
X148773809Y-78704047D02*
X148773809Y-78270714D01*
X148773809Y-78054047D02*
X148804761Y-78085000D01*
X148773809Y-78115952D01*
X148742857Y-78085000D01*
X148773809Y-78054047D01*
X148773809Y-78115952D01*
X148185714Y-78270714D02*
X148185714Y-78796904D01*
X148216666Y-78858809D01*
X148247619Y-78889761D01*
X148309523Y-78920714D01*
X148402380Y-78920714D01*
X148464285Y-78889761D01*
X148185714Y-78673095D02*
X148247619Y-78704047D01*
X148371428Y-78704047D01*
X148433333Y-78673095D01*
X148464285Y-78642142D01*
X148495238Y-78580238D01*
X148495238Y-78394523D01*
X148464285Y-78332619D01*
X148433333Y-78301666D01*
X148371428Y-78270714D01*
X148247619Y-78270714D01*
X148185714Y-78301666D01*
X147876190Y-78270714D02*
X147876190Y-78704047D01*
X147876190Y-78332619D02*
X147845238Y-78301666D01*
X147783333Y-78270714D01*
X147690476Y-78270714D01*
X147628571Y-78301666D01*
X147597619Y-78363571D01*
X147597619Y-78704047D01*
X147040476Y-78673095D02*
X147102380Y-78704047D01*
X147226190Y-78704047D01*
X147288095Y-78673095D01*
X147319047Y-78611190D01*
X147319047Y-78363571D01*
X147288095Y-78301666D01*
X147226190Y-78270714D01*
X147102380Y-78270714D01*
X147040476Y-78301666D01*
X147009523Y-78363571D01*
X147009523Y-78425476D01*
X147319047Y-78487380D01*
X146452380Y-78704047D02*
X146452380Y-78054047D01*
X146452380Y-78673095D02*
X146514285Y-78704047D01*
X146638095Y-78704047D01*
X146700000Y-78673095D01*
X146730952Y-78642142D01*
X146761904Y-78580238D01*
X146761904Y-78394523D01*
X146730952Y-78332619D01*
X146700000Y-78301666D01*
X146638095Y-78270714D01*
X146514285Y-78270714D01*
X146452380Y-78301666D01*
X145647619Y-78704047D02*
X145647619Y-78054047D01*
X145647619Y-78301666D02*
X145585714Y-78270714D01*
X145461904Y-78270714D01*
X145400000Y-78301666D01*
X145369047Y-78332619D01*
X145338095Y-78394523D01*
X145338095Y-78580238D01*
X145369047Y-78642142D01*
X145400000Y-78673095D01*
X145461904Y-78704047D01*
X145585714Y-78704047D01*
X145647619Y-78673095D01*
X145121428Y-78270714D02*
X144966666Y-78704047D01*
X144811904Y-78270714D02*
X144966666Y-78704047D01*
X145028571Y-78858809D01*
X145059523Y-78889761D01*
X145121428Y-78920714D01*
X144100000Y-78673095D02*
X144007142Y-78704047D01*
X143852380Y-78704047D01*
X143790476Y-78673095D01*
X143759523Y-78642142D01*
X143728571Y-78580238D01*
X143728571Y-78518333D01*
X143759523Y-78456428D01*
X143790476Y-78425476D01*
X143852380Y-78394523D01*
X143976190Y-78363571D01*
X144038095Y-78332619D01*
X144069047Y-78301666D01*
X144100000Y-78239761D01*
X144100000Y-78177857D01*
X144069047Y-78115952D01*
X144038095Y-78085000D01*
X143976190Y-78054047D01*
X143821428Y-78054047D01*
X143728571Y-78085000D01*
X143450000Y-78270714D02*
X143450000Y-78920714D01*
X143450000Y-78301666D02*
X143388095Y-78270714D01*
X143264285Y-78270714D01*
X143202380Y-78301666D01*
X143171428Y-78332619D01*
X143140476Y-78394523D01*
X143140476Y-78580238D01*
X143171428Y-78642142D01*
X143202380Y-78673095D01*
X143264285Y-78704047D01*
X143388095Y-78704047D01*
X143450000Y-78673095D01*
X142614285Y-78673095D02*
X142676190Y-78704047D01*
X142800000Y-78704047D01*
X142861904Y-78673095D01*
X142892857Y-78611190D01*
X142892857Y-78363571D01*
X142861904Y-78301666D01*
X142800000Y-78270714D01*
X142676190Y-78270714D01*
X142614285Y-78301666D01*
X142583333Y-78363571D01*
X142583333Y-78425476D01*
X142892857Y-78487380D01*
X142304761Y-78270714D02*
X142304761Y-78704047D01*
X142304761Y-78332619D02*
X142273809Y-78301666D01*
X142211904Y-78270714D01*
X142119047Y-78270714D01*
X142057142Y-78301666D01*
X142026190Y-78363571D01*
X142026190Y-78704047D01*
X141438095Y-78673095D02*
X141500000Y-78704047D01*
X141623809Y-78704047D01*
X141685714Y-78673095D01*
X141716666Y-78642142D01*
X141747619Y-78580238D01*
X141747619Y-78394523D01*
X141716666Y-78332619D01*
X141685714Y-78301666D01*
X141623809Y-78270714D01*
X141500000Y-78270714D01*
X141438095Y-78301666D01*
X140911904Y-78673095D02*
X140973809Y-78704047D01*
X141097619Y-78704047D01*
X141159523Y-78673095D01*
X141190476Y-78611190D01*
X141190476Y-78363571D01*
X141159523Y-78301666D01*
X141097619Y-78270714D01*
X140973809Y-78270714D01*
X140911904Y-78301666D01*
X140880952Y-78363571D01*
X140880952Y-78425476D01*
X141190476Y-78487380D01*
X140602380Y-78704047D02*
X140602380Y-78270714D01*
X140602380Y-78394523D02*
X140571428Y-78332619D01*
X140540476Y-78301666D01*
X140478571Y-78270714D01*
X140416666Y-78270714D01*
X139704761Y-78704047D02*
X139704761Y-78270714D01*
X139704761Y-78054047D02*
X139735714Y-78085000D01*
X139704761Y-78115952D01*
X139673809Y-78085000D01*
X139704761Y-78054047D01*
X139704761Y-78115952D01*
X139395238Y-78270714D02*
X139395238Y-78704047D01*
X139395238Y-78332619D02*
X139364285Y-78301666D01*
X139302380Y-78270714D01*
X139209523Y-78270714D01*
X139147619Y-78301666D01*
X139116666Y-78363571D01*
X139116666Y-78704047D01*
X138311904Y-78054047D02*
X138311904Y-78580238D01*
X138280952Y-78642142D01*
X138250000Y-78673095D01*
X138188095Y-78704047D01*
X138064285Y-78704047D01*
X138002380Y-78673095D01*
X137971428Y-78642142D01*
X137940476Y-78580238D01*
X137940476Y-78054047D01*
X137723809Y-78270714D02*
X137476190Y-78270714D01*
X137630952Y-78054047D02*
X137630952Y-78611190D01*
X137600000Y-78673095D01*
X137538095Y-78704047D01*
X137476190Y-78704047D01*
X136980952Y-78704047D02*
X136980952Y-78363571D01*
X137011904Y-78301666D01*
X137073809Y-78270714D01*
X137197619Y-78270714D01*
X137259523Y-78301666D01*
X136980952Y-78673095D02*
X137042857Y-78704047D01*
X137197619Y-78704047D01*
X137259523Y-78673095D01*
X137290476Y-78611190D01*
X137290476Y-78549285D01*
X137259523Y-78487380D01*
X137197619Y-78456428D01*
X137042857Y-78456428D01*
X136980952Y-78425476D01*
X136671428Y-78704047D02*
X136671428Y-78054047D01*
X136392857Y-78704047D02*
X136392857Y-78363571D01*
X136423809Y-78301666D01*
X136485714Y-78270714D01*
X136578571Y-78270714D01*
X136640476Y-78301666D01*
X136671428Y-78332619D01*
X120507142Y-78704047D02*
X120507142Y-78054047D01*
X120352380Y-78054047D01*
X120259523Y-78085000D01*
X120197619Y-78146904D01*
X120166666Y-78208809D01*
X120135714Y-78332619D01*
X120135714Y-78425476D01*
X120166666Y-78549285D01*
X120197619Y-78611190D01*
X120259523Y-78673095D01*
X120352380Y-78704047D01*
X120507142Y-78704047D01*
X119609523Y-78673095D02*
X119671428Y-78704047D01*
X119795238Y-78704047D01*
X119857142Y-78673095D01*
X119888095Y-78611190D01*
X119888095Y-78363571D01*
X119857142Y-78301666D01*
X119795238Y-78270714D01*
X119671428Y-78270714D01*
X119609523Y-78301666D01*
X119578571Y-78363571D01*
X119578571Y-78425476D01*
X119888095Y-78487380D01*
X119330952Y-78673095D02*
X119269047Y-78704047D01*
X119145238Y-78704047D01*
X119083333Y-78673095D01*
X119052380Y-78611190D01*
X119052380Y-78580238D01*
X119083333Y-78518333D01*
X119145238Y-78487380D01*
X119238095Y-78487380D01*
X119300000Y-78456428D01*
X119330952Y-78394523D01*
X119330952Y-78363571D01*
X119300000Y-78301666D01*
X119238095Y-78270714D01*
X119145238Y-78270714D01*
X119083333Y-78301666D01*
X118773809Y-78704047D02*
X118773809Y-78270714D01*
X118773809Y-78054047D02*
X118804761Y-78085000D01*
X118773809Y-78115952D01*
X118742857Y-78085000D01*
X118773809Y-78054047D01*
X118773809Y-78115952D01*
X118185714Y-78270714D02*
X118185714Y-78796904D01*
X118216666Y-78858809D01*
X118247619Y-78889761D01*
X118309523Y-78920714D01*
X118402380Y-78920714D01*
X118464285Y-78889761D01*
X118185714Y-78673095D02*
X118247619Y-78704047D01*
X118371428Y-78704047D01*
X118433333Y-78673095D01*
X118464285Y-78642142D01*
X118495238Y-78580238D01*
X118495238Y-78394523D01*
X118464285Y-78332619D01*
X118433333Y-78301666D01*
X118371428Y-78270714D01*
X118247619Y-78270714D01*
X118185714Y-78301666D01*
X117876190Y-78270714D02*
X117876190Y-78704047D01*
X117876190Y-78332619D02*
X117845238Y-78301666D01*
X117783333Y-78270714D01*
X117690476Y-78270714D01*
X117628571Y-78301666D01*
X117597619Y-78363571D01*
X117597619Y-78704047D01*
X117040476Y-78673095D02*
X117102380Y-78704047D01*
X117226190Y-78704047D01*
X117288095Y-78673095D01*
X117319047Y-78611190D01*
X117319047Y-78363571D01*
X117288095Y-78301666D01*
X117226190Y-78270714D01*
X117102380Y-78270714D01*
X117040476Y-78301666D01*
X117009523Y-78363571D01*
X117009523Y-78425476D01*
X117319047Y-78487380D01*
X116452380Y-78704047D02*
X116452380Y-78054047D01*
X116452380Y-78673095D02*
X116514285Y-78704047D01*
X116638095Y-78704047D01*
X116700000Y-78673095D01*
X116730952Y-78642142D01*
X116761904Y-78580238D01*
X116761904Y-78394523D01*
X116730952Y-78332619D01*
X116700000Y-78301666D01*
X116638095Y-78270714D01*
X116514285Y-78270714D01*
X116452380Y-78301666D01*
X115647619Y-78704047D02*
X115647619Y-78054047D01*
X115647619Y-78301666D02*
X115585714Y-78270714D01*
X115461904Y-78270714D01*
X115400000Y-78301666D01*
X115369047Y-78332619D01*
X115338095Y-78394523D01*
X115338095Y-78580238D01*
X115369047Y-78642142D01*
X115400000Y-78673095D01*
X115461904Y-78704047D01*
X115585714Y-78704047D01*
X115647619Y-78673095D01*
X115121428Y-78270714D02*
X114966666Y-78704047D01*
X114811904Y-78270714D02*
X114966666Y-78704047D01*
X115028571Y-78858809D01*
X115059523Y-78889761D01*
X115121428Y-78920714D01*
X114100000Y-78673095D02*
X114007142Y-78704047D01*
X113852380Y-78704047D01*
X113790476Y-78673095D01*
X113759523Y-78642142D01*
X113728571Y-78580238D01*
X113728571Y-78518333D01*
X113759523Y-78456428D01*
X113790476Y-78425476D01*
X113852380Y-78394523D01*
X113976190Y-78363571D01*
X114038095Y-78332619D01*
X114069047Y-78301666D01*
X114100000Y-78239761D01*
X114100000Y-78177857D01*
X114069047Y-78115952D01*
X114038095Y-78085000D01*
X113976190Y-78054047D01*
X113821428Y-78054047D01*
X113728571Y-78085000D01*
X113450000Y-78270714D02*
X113450000Y-78920714D01*
X113450000Y-78301666D02*
X113388095Y-78270714D01*
X113264285Y-78270714D01*
X113202380Y-78301666D01*
X113171428Y-78332619D01*
X113140476Y-78394523D01*
X113140476Y-78580238D01*
X113171428Y-78642142D01*
X113202380Y-78673095D01*
X113264285Y-78704047D01*
X113388095Y-78704047D01*
X113450000Y-78673095D01*
X112614285Y-78673095D02*
X112676190Y-78704047D01*
X112800000Y-78704047D01*
X112861904Y-78673095D01*
X112892857Y-78611190D01*
X112892857Y-78363571D01*
X112861904Y-78301666D01*
X112800000Y-78270714D01*
X112676190Y-78270714D01*
X112614285Y-78301666D01*
X112583333Y-78363571D01*
X112583333Y-78425476D01*
X112892857Y-78487380D01*
X112304761Y-78270714D02*
X112304761Y-78704047D01*
X112304761Y-78332619D02*
X112273809Y-78301666D01*
X112211904Y-78270714D01*
X112119047Y-78270714D01*
X112057142Y-78301666D01*
X112026190Y-78363571D01*
X112026190Y-78704047D01*
X111438095Y-78673095D02*
X111500000Y-78704047D01*
X111623809Y-78704047D01*
X111685714Y-78673095D01*
X111716666Y-78642142D01*
X111747619Y-78580238D01*
X111747619Y-78394523D01*
X111716666Y-78332619D01*
X111685714Y-78301666D01*
X111623809Y-78270714D01*
X111500000Y-78270714D01*
X111438095Y-78301666D01*
X110911904Y-78673095D02*
X110973809Y-78704047D01*
X111097619Y-78704047D01*
X111159523Y-78673095D01*
X111190476Y-78611190D01*
X111190476Y-78363571D01*
X111159523Y-78301666D01*
X111097619Y-78270714D01*
X110973809Y-78270714D01*
X110911904Y-78301666D01*
X110880952Y-78363571D01*
X110880952Y-78425476D01*
X111190476Y-78487380D01*
X110602380Y-78704047D02*
X110602380Y-78270714D01*
X110602380Y-78394523D02*
X110571428Y-78332619D01*
X110540476Y-78301666D01*
X110478571Y-78270714D01*
X110416666Y-78270714D01*
X109704761Y-78704047D02*
X109704761Y-78270714D01*
X109704761Y-78054047D02*
X109735714Y-78085000D01*
X109704761Y-78115952D01*
X109673809Y-78085000D01*
X109704761Y-78054047D01*
X109704761Y-78115952D01*
X109395238Y-78270714D02*
X109395238Y-78704047D01*
X109395238Y-78332619D02*
X109364285Y-78301666D01*
X109302380Y-78270714D01*
X109209523Y-78270714D01*
X109147619Y-78301666D01*
X109116666Y-78363571D01*
X109116666Y-78704047D01*
X108311904Y-78054047D02*
X108311904Y-78580238D01*
X108280952Y-78642142D01*
X108250000Y-78673095D01*
X108188095Y-78704047D01*
X108064285Y-78704047D01*
X108002380Y-78673095D01*
X107971428Y-78642142D01*
X107940476Y-78580238D01*
X107940476Y-78054047D01*
X107723809Y-78270714D02*
X107476190Y-78270714D01*
X107630952Y-78054047D02*
X107630952Y-78611190D01*
X107600000Y-78673095D01*
X107538095Y-78704047D01*
X107476190Y-78704047D01*
X106980952Y-78704047D02*
X106980952Y-78363571D01*
X107011904Y-78301666D01*
X107073809Y-78270714D01*
X107197619Y-78270714D01*
X107259523Y-78301666D01*
X106980952Y-78673095D02*
X107042857Y-78704047D01*
X107197619Y-78704047D01*
X107259523Y-78673095D01*
X107290476Y-78611190D01*
X107290476Y-78549285D01*
X107259523Y-78487380D01*
X107197619Y-78456428D01*
X107042857Y-78456428D01*
X106980952Y-78425476D01*
X106671428Y-78704047D02*
X106671428Y-78054047D01*
X106392857Y-78704047D02*
X106392857Y-78363571D01*
X106423809Y-78301666D01*
X106485714Y-78270714D01*
X106578571Y-78270714D01*
X106640476Y-78301666D01*
X106671428Y-78332619D01*
X180507142Y-99244047D02*
X180507142Y-98594047D01*
X180352380Y-98594047D01*
X180259523Y-98625000D01*
X180197619Y-98686904D01*
X180166666Y-98748809D01*
X180135714Y-98872619D01*
X180135714Y-98965476D01*
X180166666Y-99089285D01*
X180197619Y-99151190D01*
X180259523Y-99213095D01*
X180352380Y-99244047D01*
X180507142Y-99244047D01*
X179609523Y-99213095D02*
X179671428Y-99244047D01*
X179795238Y-99244047D01*
X179857142Y-99213095D01*
X179888095Y-99151190D01*
X179888095Y-98903571D01*
X179857142Y-98841666D01*
X179795238Y-98810714D01*
X179671428Y-98810714D01*
X179609523Y-98841666D01*
X179578571Y-98903571D01*
X179578571Y-98965476D01*
X179888095Y-99027380D01*
X179330952Y-99213095D02*
X179269047Y-99244047D01*
X179145238Y-99244047D01*
X179083333Y-99213095D01*
X179052380Y-99151190D01*
X179052380Y-99120238D01*
X179083333Y-99058333D01*
X179145238Y-99027380D01*
X179238095Y-99027380D01*
X179300000Y-98996428D01*
X179330952Y-98934523D01*
X179330952Y-98903571D01*
X179300000Y-98841666D01*
X179238095Y-98810714D01*
X179145238Y-98810714D01*
X179083333Y-98841666D01*
X178773809Y-99244047D02*
X178773809Y-98810714D01*
X178773809Y-98594047D02*
X178804761Y-98625000D01*
X178773809Y-98655952D01*
X178742857Y-98625000D01*
X178773809Y-98594047D01*
X178773809Y-98655952D01*
X178185714Y-98810714D02*
X178185714Y-99336904D01*
X178216666Y-99398809D01*
X178247619Y-99429761D01*
X178309523Y-99460714D01*
X178402380Y-99460714D01*
X178464285Y-99429761D01*
X178185714Y-99213095D02*
X178247619Y-99244047D01*
X178371428Y-99244047D01*
X178433333Y-99213095D01*
X178464285Y-99182142D01*
X178495238Y-99120238D01*
X178495238Y-98934523D01*
X178464285Y-98872619D01*
X178433333Y-98841666D01*
X178371428Y-98810714D01*
X178247619Y-98810714D01*
X178185714Y-98841666D01*
X177876190Y-98810714D02*
X177876190Y-99244047D01*
X177876190Y-98872619D02*
X177845238Y-98841666D01*
X177783333Y-98810714D01*
X177690476Y-98810714D01*
X177628571Y-98841666D01*
X177597619Y-98903571D01*
X177597619Y-99244047D01*
X177040476Y-99213095D02*
X177102380Y-99244047D01*
X177226190Y-99244047D01*
X177288095Y-99213095D01*
X177319047Y-99151190D01*
X177319047Y-98903571D01*
X177288095Y-98841666D01*
X177226190Y-98810714D01*
X177102380Y-98810714D01*
X177040476Y-98841666D01*
X177009523Y-98903571D01*
X177009523Y-98965476D01*
X177319047Y-99027380D01*
X176452380Y-99244047D02*
X176452380Y-98594047D01*
X176452380Y-99213095D02*
X176514285Y-99244047D01*
X176638095Y-99244047D01*
X176700000Y-99213095D01*
X176730952Y-99182142D01*
X176761904Y-99120238D01*
X176761904Y-98934523D01*
X176730952Y-98872619D01*
X176700000Y-98841666D01*
X176638095Y-98810714D01*
X176514285Y-98810714D01*
X176452380Y-98841666D01*
X175647619Y-99244047D02*
X175647619Y-98594047D01*
X175647619Y-98841666D02*
X175585714Y-98810714D01*
X175461904Y-98810714D01*
X175400000Y-98841666D01*
X175369047Y-98872619D01*
X175338095Y-98934523D01*
X175338095Y-99120238D01*
X175369047Y-99182142D01*
X175400000Y-99213095D01*
X175461904Y-99244047D01*
X175585714Y-99244047D01*
X175647619Y-99213095D01*
X175121428Y-98810714D02*
X174966666Y-99244047D01*
X174811904Y-98810714D02*
X174966666Y-99244047D01*
X175028571Y-99398809D01*
X175059523Y-99429761D01*
X175121428Y-99460714D01*
X174100000Y-99213095D02*
X174007142Y-99244047D01*
X173852380Y-99244047D01*
X173790476Y-99213095D01*
X173759523Y-99182142D01*
X173728571Y-99120238D01*
X173728571Y-99058333D01*
X173759523Y-98996428D01*
X173790476Y-98965476D01*
X173852380Y-98934523D01*
X173976190Y-98903571D01*
X174038095Y-98872619D01*
X174069047Y-98841666D01*
X174100000Y-98779761D01*
X174100000Y-98717857D01*
X174069047Y-98655952D01*
X174038095Y-98625000D01*
X173976190Y-98594047D01*
X173821428Y-98594047D01*
X173728571Y-98625000D01*
X173450000Y-98810714D02*
X173450000Y-99460714D01*
X173450000Y-98841666D02*
X173388095Y-98810714D01*
X173264285Y-98810714D01*
X173202380Y-98841666D01*
X173171428Y-98872619D01*
X173140476Y-98934523D01*
X173140476Y-99120238D01*
X173171428Y-99182142D01*
X173202380Y-99213095D01*
X173264285Y-99244047D01*
X173388095Y-99244047D01*
X173450000Y-99213095D01*
X172614285Y-99213095D02*
X172676190Y-99244047D01*
X172800000Y-99244047D01*
X172861904Y-99213095D01*
X172892857Y-99151190D01*
X172892857Y-98903571D01*
X172861904Y-98841666D01*
X172800000Y-98810714D01*
X172676190Y-98810714D01*
X172614285Y-98841666D01*
X172583333Y-98903571D01*
X172583333Y-98965476D01*
X172892857Y-99027380D01*
X172304761Y-98810714D02*
X172304761Y-99244047D01*
X172304761Y-98872619D02*
X172273809Y-98841666D01*
X172211904Y-98810714D01*
X172119047Y-98810714D01*
X172057142Y-98841666D01*
X172026190Y-98903571D01*
X172026190Y-99244047D01*
X171438095Y-99213095D02*
X171500000Y-99244047D01*
X171623809Y-99244047D01*
X171685714Y-99213095D01*
X171716666Y-99182142D01*
X171747619Y-99120238D01*
X171747619Y-98934523D01*
X171716666Y-98872619D01*
X171685714Y-98841666D01*
X171623809Y-98810714D01*
X171500000Y-98810714D01*
X171438095Y-98841666D01*
X170911904Y-99213095D02*
X170973809Y-99244047D01*
X171097619Y-99244047D01*
X171159523Y-99213095D01*
X171190476Y-99151190D01*
X171190476Y-98903571D01*
X171159523Y-98841666D01*
X171097619Y-98810714D01*
X170973809Y-98810714D01*
X170911904Y-98841666D01*
X170880952Y-98903571D01*
X170880952Y-98965476D01*
X171190476Y-99027380D01*
X170602380Y-99244047D02*
X170602380Y-98810714D01*
X170602380Y-98934523D02*
X170571428Y-98872619D01*
X170540476Y-98841666D01*
X170478571Y-98810714D01*
X170416666Y-98810714D01*
X169704761Y-99244047D02*
X169704761Y-98810714D01*
X169704761Y-98594047D02*
X169735714Y-98625000D01*
X169704761Y-98655952D01*
X169673809Y-98625000D01*
X169704761Y-98594047D01*
X169704761Y-98655952D01*
X169395238Y-98810714D02*
X169395238Y-99244047D01*
X169395238Y-98872619D02*
X169364285Y-98841666D01*
X169302380Y-98810714D01*
X169209523Y-98810714D01*
X169147619Y-98841666D01*
X169116666Y-98903571D01*
X169116666Y-99244047D01*
X168311904Y-98594047D02*
X168311904Y-99120238D01*
X168280952Y-99182142D01*
X168250000Y-99213095D01*
X168188095Y-99244047D01*
X168064285Y-99244047D01*
X168002380Y-99213095D01*
X167971428Y-99182142D01*
X167940476Y-99120238D01*
X167940476Y-98594047D01*
X167723809Y-98810714D02*
X167476190Y-98810714D01*
X167630952Y-98594047D02*
X167630952Y-99151190D01*
X167600000Y-99213095D01*
X167538095Y-99244047D01*
X167476190Y-99244047D01*
X166980952Y-99244047D02*
X166980952Y-98903571D01*
X167011904Y-98841666D01*
X167073809Y-98810714D01*
X167197619Y-98810714D01*
X167259523Y-98841666D01*
X166980952Y-99213095D02*
X167042857Y-99244047D01*
X167197619Y-99244047D01*
X167259523Y-99213095D01*
X167290476Y-99151190D01*
X167290476Y-99089285D01*
X167259523Y-99027380D01*
X167197619Y-98996428D01*
X167042857Y-98996428D01*
X166980952Y-98965476D01*
X166671428Y-99244047D02*
X166671428Y-98594047D01*
X166392857Y-99244047D02*
X166392857Y-98903571D01*
X166423809Y-98841666D01*
X166485714Y-98810714D01*
X166578571Y-98810714D01*
X166640476Y-98841666D01*
X166671428Y-98872619D01*
X150507142Y-99244047D02*
X150507142Y-98594047D01*
X150352380Y-98594047D01*
X150259523Y-98625000D01*
X150197619Y-98686904D01*
X150166666Y-98748809D01*
X150135714Y-98872619D01*
X150135714Y-98965476D01*
X150166666Y-99089285D01*
X150197619Y-99151190D01*
X150259523Y-99213095D01*
X150352380Y-99244047D01*
X150507142Y-99244047D01*
X149609523Y-99213095D02*
X149671428Y-99244047D01*
X149795238Y-99244047D01*
X149857142Y-99213095D01*
X149888095Y-99151190D01*
X149888095Y-98903571D01*
X149857142Y-98841666D01*
X149795238Y-98810714D01*
X149671428Y-98810714D01*
X149609523Y-98841666D01*
X149578571Y-98903571D01*
X149578571Y-98965476D01*
X149888095Y-99027380D01*
X149330952Y-99213095D02*
X149269047Y-99244047D01*
X149145238Y-99244047D01*
X149083333Y-99213095D01*
X149052380Y-99151190D01*
X149052380Y-99120238D01*
X149083333Y-99058333D01*
X149145238Y-99027380D01*
X149238095Y-99027380D01*
X149300000Y-98996428D01*
X149330952Y-98934523D01*
X149330952Y-98903571D01*
X149300000Y-98841666D01*
X149238095Y-98810714D01*
X149145238Y-98810714D01*
X149083333Y-98841666D01*
X148773809Y-99244047D02*
X148773809Y-98810714D01*
X148773809Y-98594047D02*
X148804761Y-98625000D01*
X148773809Y-98655952D01*
X148742857Y-98625000D01*
X148773809Y-98594047D01*
X148773809Y-98655952D01*
X148185714Y-98810714D02*
X148185714Y-99336904D01*
X148216666Y-99398809D01*
X148247619Y-99429761D01*
X148309523Y-99460714D01*
X148402380Y-99460714D01*
X148464285Y-99429761D01*
X148185714Y-99213095D02*
X148247619Y-99244047D01*
X148371428Y-99244047D01*
X148433333Y-99213095D01*
X148464285Y-99182142D01*
X148495238Y-99120238D01*
X148495238Y-98934523D01*
X148464285Y-98872619D01*
X148433333Y-98841666D01*
X148371428Y-98810714D01*
X148247619Y-98810714D01*
X148185714Y-98841666D01*
X147876190Y-98810714D02*
X147876190Y-99244047D01*
X147876190Y-98872619D02*
X147845238Y-98841666D01*
X147783333Y-98810714D01*
X147690476Y-98810714D01*
X147628571Y-98841666D01*
X147597619Y-98903571D01*
X147597619Y-99244047D01*
X147040476Y-99213095D02*
X147102380Y-99244047D01*
X147226190Y-99244047D01*
X147288095Y-99213095D01*
X147319047Y-99151190D01*
X147319047Y-98903571D01*
X147288095Y-98841666D01*
X147226190Y-98810714D01*
X147102380Y-98810714D01*
X147040476Y-98841666D01*
X147009523Y-98903571D01*
X147009523Y-98965476D01*
X147319047Y-99027380D01*
X146452380Y-99244047D02*
X146452380Y-98594047D01*
X146452380Y-99213095D02*
X146514285Y-99244047D01*
X146638095Y-99244047D01*
X146700000Y-99213095D01*
X146730952Y-99182142D01*
X146761904Y-99120238D01*
X146761904Y-98934523D01*
X146730952Y-98872619D01*
X146700000Y-98841666D01*
X146638095Y-98810714D01*
X146514285Y-98810714D01*
X146452380Y-98841666D01*
X145647619Y-99244047D02*
X145647619Y-98594047D01*
X145647619Y-98841666D02*
X145585714Y-98810714D01*
X145461904Y-98810714D01*
X145400000Y-98841666D01*
X145369047Y-98872619D01*
X145338095Y-98934523D01*
X145338095Y-99120238D01*
X145369047Y-99182142D01*
X145400000Y-99213095D01*
X145461904Y-99244047D01*
X145585714Y-99244047D01*
X145647619Y-99213095D01*
X145121428Y-98810714D02*
X144966666Y-99244047D01*
X144811904Y-98810714D02*
X144966666Y-99244047D01*
X145028571Y-99398809D01*
X145059523Y-99429761D01*
X145121428Y-99460714D01*
X144100000Y-99213095D02*
X144007142Y-99244047D01*
X143852380Y-99244047D01*
X143790476Y-99213095D01*
X143759523Y-99182142D01*
X143728571Y-99120238D01*
X143728571Y-99058333D01*
X143759523Y-98996428D01*
X143790476Y-98965476D01*
X143852380Y-98934523D01*
X143976190Y-98903571D01*
X144038095Y-98872619D01*
X144069047Y-98841666D01*
X144100000Y-98779761D01*
X144100000Y-98717857D01*
X144069047Y-98655952D01*
X144038095Y-98625000D01*
X143976190Y-98594047D01*
X143821428Y-98594047D01*
X143728571Y-98625000D01*
X143450000Y-98810714D02*
X143450000Y-99460714D01*
X143450000Y-98841666D02*
X143388095Y-98810714D01*
X143264285Y-98810714D01*
X143202380Y-98841666D01*
X143171428Y-98872619D01*
X143140476Y-98934523D01*
X143140476Y-99120238D01*
X143171428Y-99182142D01*
X143202380Y-99213095D01*
X143264285Y-99244047D01*
X143388095Y-99244047D01*
X143450000Y-99213095D01*
X142614285Y-99213095D02*
X142676190Y-99244047D01*
X142800000Y-99244047D01*
X142861904Y-99213095D01*
X142892857Y-99151190D01*
X142892857Y-98903571D01*
X142861904Y-98841666D01*
X142800000Y-98810714D01*
X142676190Y-98810714D01*
X142614285Y-98841666D01*
X142583333Y-98903571D01*
X142583333Y-98965476D01*
X142892857Y-99027380D01*
X142304761Y-98810714D02*
X142304761Y-99244047D01*
X142304761Y-98872619D02*
X142273809Y-98841666D01*
X142211904Y-98810714D01*
X142119047Y-98810714D01*
X142057142Y-98841666D01*
X142026190Y-98903571D01*
X142026190Y-99244047D01*
X141438095Y-99213095D02*
X141500000Y-99244047D01*
X141623809Y-99244047D01*
X141685714Y-99213095D01*
X141716666Y-99182142D01*
X141747619Y-99120238D01*
X141747619Y-98934523D01*
X141716666Y-98872619D01*
X141685714Y-98841666D01*
X141623809Y-98810714D01*
X141500000Y-98810714D01*
X141438095Y-98841666D01*
X140911904Y-99213095D02*
X140973809Y-99244047D01*
X141097619Y-99244047D01*
X141159523Y-99213095D01*
X141190476Y-99151190D01*
X141190476Y-98903571D01*
X141159523Y-98841666D01*
X141097619Y-98810714D01*
X140973809Y-98810714D01*
X140911904Y-98841666D01*
X140880952Y-98903571D01*
X140880952Y-98965476D01*
X141190476Y-99027380D01*
X140602380Y-99244047D02*
X140602380Y-98810714D01*
X140602380Y-98934523D02*
X140571428Y-98872619D01*
X140540476Y-98841666D01*
X140478571Y-98810714D01*
X140416666Y-98810714D01*
X139704761Y-99244047D02*
X139704761Y-98810714D01*
X139704761Y-98594047D02*
X139735714Y-98625000D01*
X139704761Y-98655952D01*
X139673809Y-98625000D01*
X139704761Y-98594047D01*
X139704761Y-98655952D01*
X139395238Y-98810714D02*
X139395238Y-99244047D01*
X139395238Y-98872619D02*
X139364285Y-98841666D01*
X139302380Y-98810714D01*
X139209523Y-98810714D01*
X139147619Y-98841666D01*
X139116666Y-98903571D01*
X139116666Y-99244047D01*
X138311904Y-98594047D02*
X138311904Y-99120238D01*
X138280952Y-99182142D01*
X138250000Y-99213095D01*
X138188095Y-99244047D01*
X138064285Y-99244047D01*
X138002380Y-99213095D01*
X137971428Y-99182142D01*
X137940476Y-99120238D01*
X137940476Y-98594047D01*
X137723809Y-98810714D02*
X137476190Y-98810714D01*
X137630952Y-98594047D02*
X137630952Y-99151190D01*
X137600000Y-99213095D01*
X137538095Y-99244047D01*
X137476190Y-99244047D01*
X136980952Y-99244047D02*
X136980952Y-98903571D01*
X137011904Y-98841666D01*
X137073809Y-98810714D01*
X137197619Y-98810714D01*
X137259523Y-98841666D01*
X136980952Y-99213095D02*
X137042857Y-99244047D01*
X137197619Y-99244047D01*
X137259523Y-99213095D01*
X137290476Y-99151190D01*
X137290476Y-99089285D01*
X137259523Y-99027380D01*
X137197619Y-98996428D01*
X137042857Y-98996428D01*
X136980952Y-98965476D01*
X136671428Y-99244047D02*
X136671428Y-98594047D01*
X136392857Y-99244047D02*
X136392857Y-98903571D01*
X136423809Y-98841666D01*
X136485714Y-98810714D01*
X136578571Y-98810714D01*
X136640476Y-98841666D01*
X136671428Y-98872619D01*
X120507142Y-99244047D02*
X120507142Y-98594047D01*
X120352380Y-98594047D01*
X120259523Y-98625000D01*
X120197619Y-98686904D01*
X120166666Y-98748809D01*
X120135714Y-98872619D01*
X120135714Y-98965476D01*
X120166666Y-99089285D01*
X120197619Y-99151190D01*
X120259523Y-99213095D01*
X120352380Y-99244047D01*
X120507142Y-99244047D01*
X119609523Y-99213095D02*
X119671428Y-99244047D01*
X119795238Y-99244047D01*
X119857142Y-99213095D01*
X119888095Y-99151190D01*
X119888095Y-98903571D01*
X119857142Y-98841666D01*
X119795238Y-98810714D01*
X119671428Y-98810714D01*
X119609523Y-98841666D01*
X119578571Y-98903571D01*
X119578571Y-98965476D01*
X119888095Y-99027380D01*
X119330952Y-99213095D02*
X119269047Y-99244047D01*
X119145238Y-99244047D01*
X119083333Y-99213095D01*
X119052380Y-99151190D01*
X119052380Y-99120238D01*
X119083333Y-99058333D01*
X119145238Y-99027380D01*
X119238095Y-99027380D01*
X119300000Y-98996428D01*
X119330952Y-98934523D01*
X119330952Y-98903571D01*
X119300000Y-98841666D01*
X119238095Y-98810714D01*
X119145238Y-98810714D01*
X119083333Y-98841666D01*
X118773809Y-99244047D02*
X118773809Y-98810714D01*
X118773809Y-98594047D02*
X118804761Y-98625000D01*
X118773809Y-98655952D01*
X118742857Y-98625000D01*
X118773809Y-98594047D01*
X118773809Y-98655952D01*
X118185714Y-98810714D02*
X118185714Y-99336904D01*
X118216666Y-99398809D01*
X118247619Y-99429761D01*
X118309523Y-99460714D01*
X118402380Y-99460714D01*
X118464285Y-99429761D01*
X118185714Y-99213095D02*
X118247619Y-99244047D01*
X118371428Y-99244047D01*
X118433333Y-99213095D01*
X118464285Y-99182142D01*
X118495238Y-99120238D01*
X118495238Y-98934523D01*
X118464285Y-98872619D01*
X118433333Y-98841666D01*
X118371428Y-98810714D01*
X118247619Y-98810714D01*
X118185714Y-98841666D01*
X117876190Y-98810714D02*
X117876190Y-99244047D01*
X117876190Y-98872619D02*
X117845238Y-98841666D01*
X117783333Y-98810714D01*
X117690476Y-98810714D01*
X117628571Y-98841666D01*
X117597619Y-98903571D01*
X117597619Y-99244047D01*
X117040476Y-99213095D02*
X117102380Y-99244047D01*
X117226190Y-99244047D01*
X117288095Y-99213095D01*
X117319047Y-99151190D01*
X117319047Y-98903571D01*
X117288095Y-98841666D01*
X117226190Y-98810714D01*
X117102380Y-98810714D01*
X117040476Y-98841666D01*
X117009523Y-98903571D01*
X117009523Y-98965476D01*
X117319047Y-99027380D01*
X116452380Y-99244047D02*
X116452380Y-98594047D01*
X116452380Y-99213095D02*
X116514285Y-99244047D01*
X116638095Y-99244047D01*
X116700000Y-99213095D01*
X116730952Y-99182142D01*
X116761904Y-99120238D01*
X116761904Y-98934523D01*
X116730952Y-98872619D01*
X116700000Y-98841666D01*
X116638095Y-98810714D01*
X116514285Y-98810714D01*
X116452380Y-98841666D01*
X115647619Y-99244047D02*
X115647619Y-98594047D01*
X115647619Y-98841666D02*
X115585714Y-98810714D01*
X115461904Y-98810714D01*
X115400000Y-98841666D01*
X115369047Y-98872619D01*
X115338095Y-98934523D01*
X115338095Y-99120238D01*
X115369047Y-99182142D01*
X115400000Y-99213095D01*
X115461904Y-99244047D01*
X115585714Y-99244047D01*
X115647619Y-99213095D01*
X115121428Y-98810714D02*
X114966666Y-99244047D01*
X114811904Y-98810714D02*
X114966666Y-99244047D01*
X115028571Y-99398809D01*
X115059523Y-99429761D01*
X115121428Y-99460714D01*
X114100000Y-99213095D02*
X114007142Y-99244047D01*
X113852380Y-99244047D01*
X113790476Y-99213095D01*
X113759523Y-99182142D01*
X113728571Y-99120238D01*
X113728571Y-99058333D01*
X113759523Y-98996428D01*
X113790476Y-98965476D01*
X113852380Y-98934523D01*
X113976190Y-98903571D01*
X114038095Y-98872619D01*
X114069047Y-98841666D01*
X114100000Y-98779761D01*
X114100000Y-98717857D01*
X114069047Y-98655952D01*
X114038095Y-98625000D01*
X113976190Y-98594047D01*
X113821428Y-98594047D01*
X113728571Y-98625000D01*
X113450000Y-98810714D02*
X113450000Y-99460714D01*
X113450000Y-98841666D02*
X113388095Y-98810714D01*
X113264285Y-98810714D01*
X113202380Y-98841666D01*
X113171428Y-98872619D01*
X113140476Y-98934523D01*
X113140476Y-99120238D01*
X113171428Y-99182142D01*
X113202380Y-99213095D01*
X113264285Y-99244047D01*
X113388095Y-99244047D01*
X113450000Y-99213095D01*
X112614285Y-99213095D02*
X112676190Y-99244047D01*
X112800000Y-99244047D01*
X112861904Y-99213095D01*
X112892857Y-99151190D01*
X112892857Y-98903571D01*
X112861904Y-98841666D01*
X112800000Y-98810714D01*
X112676190Y-98810714D01*
X112614285Y-98841666D01*
X112583333Y-98903571D01*
X112583333Y-98965476D01*
X112892857Y-99027380D01*
X112304761Y-98810714D02*
X112304761Y-99244047D01*
X112304761Y-98872619D02*
X112273809Y-98841666D01*
X112211904Y-98810714D01*
X112119047Y-98810714D01*
X112057142Y-98841666D01*
X112026190Y-98903571D01*
X112026190Y-99244047D01*
X111438095Y-99213095D02*
X111500000Y-99244047D01*
X111623809Y-99244047D01*
X111685714Y-99213095D01*
X111716666Y-99182142D01*
X111747619Y-99120238D01*
X111747619Y-98934523D01*
X111716666Y-98872619D01*
X111685714Y-98841666D01*
X111623809Y-98810714D01*
X111500000Y-98810714D01*
X111438095Y-98841666D01*
X110911904Y-99213095D02*
X110973809Y-99244047D01*
X111097619Y-99244047D01*
X111159523Y-99213095D01*
X111190476Y-99151190D01*
X111190476Y-98903571D01*
X111159523Y-98841666D01*
X111097619Y-98810714D01*
X110973809Y-98810714D01*
X110911904Y-98841666D01*
X110880952Y-98903571D01*
X110880952Y-98965476D01*
X111190476Y-99027380D01*
X110602380Y-99244047D02*
X110602380Y-98810714D01*
X110602380Y-98934523D02*
X110571428Y-98872619D01*
X110540476Y-98841666D01*
X110478571Y-98810714D01*
X110416666Y-98810714D01*
X109704761Y-99244047D02*
X109704761Y-98810714D01*
X109704761Y-98594047D02*
X109735714Y-98625000D01*
X109704761Y-98655952D01*
X109673809Y-98625000D01*
X109704761Y-98594047D01*
X109704761Y-98655952D01*
X109395238Y-98810714D02*
X109395238Y-99244047D01*
X109395238Y-98872619D02*
X109364285Y-98841666D01*
X109302380Y-98810714D01*
X109209523Y-98810714D01*
X109147619Y-98841666D01*
X109116666Y-98903571D01*
X109116666Y-99244047D01*
X108311904Y-98594047D02*
X108311904Y-99120238D01*
X108280952Y-99182142D01*
X108250000Y-99213095D01*
X108188095Y-99244047D01*
X108064285Y-99244047D01*
X108002380Y-99213095D01*
X107971428Y-99182142D01*
X107940476Y-99120238D01*
X107940476Y-98594047D01*
X107723809Y-98810714D02*
X107476190Y-98810714D01*
X107630952Y-98594047D02*
X107630952Y-99151190D01*
X107600000Y-99213095D01*
X107538095Y-99244047D01*
X107476190Y-99244047D01*
X106980952Y-99244047D02*
X106980952Y-98903571D01*
X107011904Y-98841666D01*
X107073809Y-98810714D01*
X107197619Y-98810714D01*
X107259523Y-98841666D01*
X106980952Y-99213095D02*
X107042857Y-99244047D01*
X107197619Y-99244047D01*
X107259523Y-99213095D01*
X107290476Y-99151190D01*
X107290476Y-99089285D01*
X107259523Y-99027380D01*
X107197619Y-98996428D01*
X107042857Y-98996428D01*
X106980952Y-98965476D01*
X106671428Y-99244047D02*
X106671428Y-98594047D01*
X106392857Y-99244047D02*
X106392857Y-98903571D01*
X106423809Y-98841666D01*
X106485714Y-98810714D01*
X106578571Y-98810714D01*
X106640476Y-98841666D01*
X106671428Y-98872619D01*
M02*
