G04 #@! TF.GenerationSoftware,KiCad,Pcbnew,(5.0.1-3-g963ef8bb5)*
G04 #@! TF.CreationDate,2018-10-18T19:37:19-06:00*
G04 #@! TF.ProjectId,Hak5-unify,48616B352D756E6966792E6B69636164,rev?*
G04 #@! TF.SameCoordinates,Original*
G04 #@! TF.FileFunction,Copper,L1,Top,Signal*
G04 #@! TF.FilePolarity,Positive*
%FSLAX46Y46*%
G04 Gerber Fmt 4.6, Leading zero omitted, Abs format (unit mm)*
G04 Created by KiCad (PCBNEW (5.0.1-3-g963ef8bb5)) date Thursday, October 18, 2018 at 07:37:19 PM*
%MOMM*%
%LPD*%
G01*
G04 APERTURE LIST*
G04 #@! TA.AperFunction,ComponentPad*
%ADD10C,1.524000*%
G04 #@! TD*
G04 #@! TA.AperFunction,ComponentPad*
%ADD11O,1.700000X1.700000*%
G04 #@! TD*
G04 #@! TA.AperFunction,ComponentPad*
%ADD12R,1.700000X1.700000*%
G04 #@! TD*
G04 #@! TA.AperFunction,ComponentPad*
%ADD13C,1.400000*%
G04 #@! TD*
G04 #@! TA.AperFunction,ComponentPad*
%ADD14O,1.400000X1.400000*%
G04 #@! TD*
G04 #@! TA.AperFunction,SMDPad,CuDef*
%ADD15R,2.200000X1.600000*%
G04 #@! TD*
G04 #@! TA.AperFunction,ViaPad*
%ADD16C,0.600000*%
G04 #@! TD*
G04 #@! TA.AperFunction,Conductor*
%ADD17C,0.500000*%
G04 #@! TD*
G04 #@! TA.AperFunction,Conductor*
%ADD18C,0.250000*%
G04 #@! TD*
G04 APERTURE END LIST*
D10*
G04 #@! TO.P,U1,9*
G04 #@! TO.N,Net-(SW1-Pad2)*
X114950000Y-90050000D03*
G04 #@! TO.P,U1,10*
G04 #@! TO.N,Net-(SW1-Pad1)*
X111350000Y-90050000D03*
G04 #@! TO.P,U1,7*
G04 #@! TO.N,Net-(U1-Pad7)*
X117450000Y-101550000D03*
G04 #@! TO.P,U1,6*
G04 #@! TO.N,+5V*
X102500000Y-101850000D03*
G04 #@! TO.P,U1,5*
G04 #@! TO.N,Net-(JP1-Pad1)*
X102500000Y-99850000D03*
G04 #@! TO.P,U1,4*
G04 #@! TO.N,Net-(U1-Pad4)*
X102500000Y-97850000D03*
G04 #@! TO.P,U1,3*
G04 #@! TO.N,Net-(U1-Pad3)*
X102500000Y-95850000D03*
G04 #@! TO.P,U1,2*
G04 #@! TO.N,Net-(J2-Pad3)*
X102500000Y-93850000D03*
G04 #@! TO.P,U1,1*
G04 #@! TO.N,TX*
X102500000Y-91850000D03*
G04 #@! TD*
D11*
G04 #@! TO.P,J2,3*
G04 #@! TO.N,Net-(J2-Pad3)*
X98250000Y-96720000D03*
G04 #@! TO.P,J2,2*
G04 #@! TO.N,GND*
X98250000Y-99260000D03*
D12*
G04 #@! TO.P,J2,1*
G04 #@! TO.N,+5V*
X98250000Y-101800000D03*
G04 #@! TD*
G04 #@! TO.P,J1,1*
G04 #@! TO.N,TX*
X122390000Y-99200000D03*
D11*
G04 #@! TO.P,J1,2*
G04 #@! TO.N,RX*
X122390000Y-96660000D03*
G04 #@! TO.P,J1,3*
G04 #@! TO.N,+5V*
X122390000Y-94120000D03*
G04 #@! TO.P,J1,4*
G04 #@! TO.N,GND*
X122390000Y-91580000D03*
G04 #@! TD*
D13*
G04 #@! TO.P,R1,1*
G04 #@! TO.N,TX*
X100500000Y-93080000D03*
D14*
G04 #@! TO.P,R1,2*
G04 #@! TO.N,GND*
X100500000Y-100700000D03*
G04 #@! TD*
D15*
G04 #@! TO.P,SW1,1*
G04 #@! TO.N,Net-(SW1-Pad1)*
X111475000Y-89175000D03*
G04 #@! TO.P,SW1,2*
G04 #@! TO.N,Net-(SW1-Pad2)*
X114475000Y-89175000D03*
G04 #@! TD*
D13*
G04 #@! TO.P,R2,1*
G04 #@! TO.N,GND*
X118600000Y-96900000D03*
D14*
G04 #@! TO.P,R2,2*
G04 #@! TO.N,Net-(Q2-Pad1)*
X118600000Y-89280000D03*
G04 #@! TD*
G04 #@! TO.P,R3,2*
G04 #@! TO.N,RX*
X120250000Y-98670000D03*
D13*
G04 #@! TO.P,R3,1*
G04 #@! TO.N,Net-(Q2-Pad1)*
X120250000Y-91050000D03*
G04 #@! TD*
D16*
G04 #@! TO.N,Net-(JP1-Pad1)*
X99860798Y-97978526D03*
G04 #@! TD*
D17*
G04 #@! TO.N,GND*
X121940000Y-92030000D02*
X122390000Y-91580000D01*
X122320000Y-91650000D02*
X122390000Y-91580000D01*
D18*
X99710000Y-100720000D02*
X100450000Y-100720000D01*
D17*
X98250000Y-99260000D02*
X99710000Y-100720000D01*
G04 #@! TO.N,TX*
X101149999Y-92400001D02*
X101949999Y-92400001D01*
X101949999Y-92400001D02*
X102099990Y-92250010D01*
X100450000Y-93100000D02*
X101149999Y-92400001D01*
G04 #@! TO.N,Net-(J2-Pad3)*
X99630000Y-96720000D02*
X102099990Y-94250010D01*
X98250000Y-96720000D02*
X99630000Y-96720000D01*
G04 #@! TO.N,+5V*
X98250000Y-101800000D02*
X98250000Y-101850000D01*
X98250000Y-101850000D02*
X99700000Y-103300000D01*
X101050000Y-103300000D02*
X102099990Y-102250010D01*
X99700000Y-103300000D02*
X101050000Y-103300000D01*
D18*
G04 #@! TO.N,Net-(JP1-Pad1)*
X101800000Y-99850000D02*
X102224990Y-99850000D01*
D17*
X101800000Y-99850000D02*
X101732272Y-99850000D01*
X100160797Y-98278525D02*
X99860798Y-97978526D01*
X101732272Y-99850000D02*
X100160797Y-98278525D01*
D18*
G04 #@! TO.N,Net-(SW1-Pad1)*
X111700000Y-89700000D02*
X111625010Y-89774990D01*
X111700000Y-89150000D02*
X111700000Y-89700000D01*
G04 #@! TO.N,Net-(SW1-Pad2)*
X114700000Y-89150000D02*
X114700000Y-89774990D01*
G04 #@! TD*
M02*
