G04 #@! TF.GenerationSoftware,KiCad,Pcbnew,(5.0.0-3-g5ebb6b6)*
G04 #@! TF.CreationDate,2018-09-17T09:24:27-06:00*
G04 #@! TF.ProjectId,Hak5-unify,48616B352D756E6966792E6B69636164,rev?*
G04 #@! TF.SameCoordinates,Original*
G04 #@! TF.FileFunction,Legend,Bot*
G04 #@! TF.FilePolarity,Positive*
%FSLAX46Y46*%
G04 Gerber Fmt 4.6, Leading zero omitted, Abs format (unit mm)*
G04 Created by KiCad (PCBNEW (5.0.0-3-g5ebb6b6)) date Monday, September 17, 2018 at 09:24:27 AM*
%MOMM*%
%LPD*%
G01*
G04 APERTURE LIST*
%ADD10C,0.162500*%
%ADD11C,0.120000*%
G04 APERTURE END LIST*
D10*
X117157142Y-104844047D02*
X117157142Y-104194047D01*
X117002380Y-104194047D01*
X116909523Y-104225000D01*
X116847619Y-104286904D01*
X116816666Y-104348809D01*
X116785714Y-104472619D01*
X116785714Y-104565476D01*
X116816666Y-104689285D01*
X116847619Y-104751190D01*
X116909523Y-104813095D01*
X117002380Y-104844047D01*
X117157142Y-104844047D01*
X116259523Y-104813095D02*
X116321428Y-104844047D01*
X116445238Y-104844047D01*
X116507142Y-104813095D01*
X116538095Y-104751190D01*
X116538095Y-104503571D01*
X116507142Y-104441666D01*
X116445238Y-104410714D01*
X116321428Y-104410714D01*
X116259523Y-104441666D01*
X116228571Y-104503571D01*
X116228571Y-104565476D01*
X116538095Y-104627380D01*
X115980952Y-104813095D02*
X115919047Y-104844047D01*
X115795238Y-104844047D01*
X115733333Y-104813095D01*
X115702380Y-104751190D01*
X115702380Y-104720238D01*
X115733333Y-104658333D01*
X115795238Y-104627380D01*
X115888095Y-104627380D01*
X115950000Y-104596428D01*
X115980952Y-104534523D01*
X115980952Y-104503571D01*
X115950000Y-104441666D01*
X115888095Y-104410714D01*
X115795238Y-104410714D01*
X115733333Y-104441666D01*
X115423809Y-104844047D02*
X115423809Y-104410714D01*
X115423809Y-104194047D02*
X115454761Y-104225000D01*
X115423809Y-104255952D01*
X115392857Y-104225000D01*
X115423809Y-104194047D01*
X115423809Y-104255952D01*
X114835714Y-104410714D02*
X114835714Y-104936904D01*
X114866666Y-104998809D01*
X114897619Y-105029761D01*
X114959523Y-105060714D01*
X115052380Y-105060714D01*
X115114285Y-105029761D01*
X114835714Y-104813095D02*
X114897619Y-104844047D01*
X115021428Y-104844047D01*
X115083333Y-104813095D01*
X115114285Y-104782142D01*
X115145238Y-104720238D01*
X115145238Y-104534523D01*
X115114285Y-104472619D01*
X115083333Y-104441666D01*
X115021428Y-104410714D01*
X114897619Y-104410714D01*
X114835714Y-104441666D01*
X114526190Y-104410714D02*
X114526190Y-104844047D01*
X114526190Y-104472619D02*
X114495238Y-104441666D01*
X114433333Y-104410714D01*
X114340476Y-104410714D01*
X114278571Y-104441666D01*
X114247619Y-104503571D01*
X114247619Y-104844047D01*
X113690476Y-104813095D02*
X113752380Y-104844047D01*
X113876190Y-104844047D01*
X113938095Y-104813095D01*
X113969047Y-104751190D01*
X113969047Y-104503571D01*
X113938095Y-104441666D01*
X113876190Y-104410714D01*
X113752380Y-104410714D01*
X113690476Y-104441666D01*
X113659523Y-104503571D01*
X113659523Y-104565476D01*
X113969047Y-104627380D01*
X113102380Y-104844047D02*
X113102380Y-104194047D01*
X113102380Y-104813095D02*
X113164285Y-104844047D01*
X113288095Y-104844047D01*
X113350000Y-104813095D01*
X113380952Y-104782142D01*
X113411904Y-104720238D01*
X113411904Y-104534523D01*
X113380952Y-104472619D01*
X113350000Y-104441666D01*
X113288095Y-104410714D01*
X113164285Y-104410714D01*
X113102380Y-104441666D01*
X112297619Y-104844047D02*
X112297619Y-104194047D01*
X112297619Y-104441666D02*
X112235714Y-104410714D01*
X112111904Y-104410714D01*
X112050000Y-104441666D01*
X112019047Y-104472619D01*
X111988095Y-104534523D01*
X111988095Y-104720238D01*
X112019047Y-104782142D01*
X112050000Y-104813095D01*
X112111904Y-104844047D01*
X112235714Y-104844047D01*
X112297619Y-104813095D01*
X111771428Y-104410714D02*
X111616666Y-104844047D01*
X111461904Y-104410714D02*
X111616666Y-104844047D01*
X111678571Y-104998809D01*
X111709523Y-105029761D01*
X111771428Y-105060714D01*
X110750000Y-104813095D02*
X110657142Y-104844047D01*
X110502380Y-104844047D01*
X110440476Y-104813095D01*
X110409523Y-104782142D01*
X110378571Y-104720238D01*
X110378571Y-104658333D01*
X110409523Y-104596428D01*
X110440476Y-104565476D01*
X110502380Y-104534523D01*
X110626190Y-104503571D01*
X110688095Y-104472619D01*
X110719047Y-104441666D01*
X110750000Y-104379761D01*
X110750000Y-104317857D01*
X110719047Y-104255952D01*
X110688095Y-104225000D01*
X110626190Y-104194047D01*
X110471428Y-104194047D01*
X110378571Y-104225000D01*
X110100000Y-104410714D02*
X110100000Y-105060714D01*
X110100000Y-104441666D02*
X110038095Y-104410714D01*
X109914285Y-104410714D01*
X109852380Y-104441666D01*
X109821428Y-104472619D01*
X109790476Y-104534523D01*
X109790476Y-104720238D01*
X109821428Y-104782142D01*
X109852380Y-104813095D01*
X109914285Y-104844047D01*
X110038095Y-104844047D01*
X110100000Y-104813095D01*
X109264285Y-104813095D02*
X109326190Y-104844047D01*
X109450000Y-104844047D01*
X109511904Y-104813095D01*
X109542857Y-104751190D01*
X109542857Y-104503571D01*
X109511904Y-104441666D01*
X109450000Y-104410714D01*
X109326190Y-104410714D01*
X109264285Y-104441666D01*
X109233333Y-104503571D01*
X109233333Y-104565476D01*
X109542857Y-104627380D01*
X108954761Y-104410714D02*
X108954761Y-104844047D01*
X108954761Y-104472619D02*
X108923809Y-104441666D01*
X108861904Y-104410714D01*
X108769047Y-104410714D01*
X108707142Y-104441666D01*
X108676190Y-104503571D01*
X108676190Y-104844047D01*
X108088095Y-104813095D02*
X108150000Y-104844047D01*
X108273809Y-104844047D01*
X108335714Y-104813095D01*
X108366666Y-104782142D01*
X108397619Y-104720238D01*
X108397619Y-104534523D01*
X108366666Y-104472619D01*
X108335714Y-104441666D01*
X108273809Y-104410714D01*
X108150000Y-104410714D01*
X108088095Y-104441666D01*
X107561904Y-104813095D02*
X107623809Y-104844047D01*
X107747619Y-104844047D01*
X107809523Y-104813095D01*
X107840476Y-104751190D01*
X107840476Y-104503571D01*
X107809523Y-104441666D01*
X107747619Y-104410714D01*
X107623809Y-104410714D01*
X107561904Y-104441666D01*
X107530952Y-104503571D01*
X107530952Y-104565476D01*
X107840476Y-104627380D01*
X107252380Y-104844047D02*
X107252380Y-104410714D01*
X107252380Y-104534523D02*
X107221428Y-104472619D01*
X107190476Y-104441666D01*
X107128571Y-104410714D01*
X107066666Y-104410714D01*
X106354761Y-104844047D02*
X106354761Y-104410714D01*
X106354761Y-104194047D02*
X106385714Y-104225000D01*
X106354761Y-104255952D01*
X106323809Y-104225000D01*
X106354761Y-104194047D01*
X106354761Y-104255952D01*
X106045238Y-104410714D02*
X106045238Y-104844047D01*
X106045238Y-104472619D02*
X106014285Y-104441666D01*
X105952380Y-104410714D01*
X105859523Y-104410714D01*
X105797619Y-104441666D01*
X105766666Y-104503571D01*
X105766666Y-104844047D01*
X104961904Y-104194047D02*
X104961904Y-104720238D01*
X104930952Y-104782142D01*
X104900000Y-104813095D01*
X104838095Y-104844047D01*
X104714285Y-104844047D01*
X104652380Y-104813095D01*
X104621428Y-104782142D01*
X104590476Y-104720238D01*
X104590476Y-104194047D01*
X104373809Y-104410714D02*
X104126190Y-104410714D01*
X104280952Y-104194047D02*
X104280952Y-104751190D01*
X104250000Y-104813095D01*
X104188095Y-104844047D01*
X104126190Y-104844047D01*
X103630952Y-104844047D02*
X103630952Y-104503571D01*
X103661904Y-104441666D01*
X103723809Y-104410714D01*
X103847619Y-104410714D01*
X103909523Y-104441666D01*
X103630952Y-104813095D02*
X103692857Y-104844047D01*
X103847619Y-104844047D01*
X103909523Y-104813095D01*
X103940476Y-104751190D01*
X103940476Y-104689285D01*
X103909523Y-104627380D01*
X103847619Y-104596428D01*
X103692857Y-104596428D01*
X103630952Y-104565476D01*
X103321428Y-104844047D02*
X103321428Y-104194047D01*
X103042857Y-104844047D02*
X103042857Y-104503571D01*
X103073809Y-104441666D01*
X103135714Y-104410714D01*
X103228571Y-104410714D01*
X103290476Y-104441666D01*
X103321428Y-104472619D01*
D11*
G04 #@! TO.C,Q2*
X98920000Y-102840000D02*
X98920000Y-104300000D01*
X102080000Y-102840000D02*
X102080000Y-105000000D01*
X102080000Y-102840000D02*
X101150000Y-102840000D01*
X98920000Y-102840000D02*
X99850000Y-102840000D01*
G04 #@! TD*
M02*
