G04 #@! TF.GenerationSoftware,KiCad,Pcbnew,(5.0.0-3-g5ebb6b6)*
G04 #@! TF.CreationDate,2018-09-17T09:24:27-06:00*
G04 #@! TF.ProjectId,Hak5-unify,48616B352D756E6966792E6B69636164,rev?*
G04 #@! TF.SameCoordinates,Original*
G04 #@! TF.FileFunction,Soldermask,Top*
G04 #@! TF.FilePolarity,Negative*
%FSLAX46Y46*%
G04 Gerber Fmt 4.6, Leading zero omitted, Abs format (unit mm)*
G04 Created by KiCad (PCBNEW (5.0.0-3-g5ebb6b6)) date Monday, September 17, 2018 at 09:24:27 AM*
%MOMM*%
%LPD*%
G01*
G04 APERTURE LIST*
%ADD10C,1.924000*%
%ADD11O,2.100000X2.100000*%
%ADD12R,2.100000X2.100000*%
%ADD13C,0.500000*%
%ADD14C,0.100000*%
%ADD15C,1.800000*%
%ADD16O,1.800000X1.800000*%
%ADD17R,2.600000X2.000000*%
G04 APERTURE END LIST*
D10*
G04 #@! TO.C,U1*
X114950000Y-90050000D03*
X111350000Y-90050000D03*
X117450000Y-101550000D03*
X102500000Y-101850000D03*
X102500000Y-99850000D03*
X102500000Y-97850000D03*
X102500000Y-95850000D03*
X102500000Y-93850000D03*
X102500000Y-91850000D03*
G04 #@! TD*
D11*
G04 #@! TO.C,J2*
X98250000Y-96720000D03*
X98250000Y-99260000D03*
D12*
X98250000Y-101800000D03*
G04 #@! TD*
G04 #@! TO.C,J1*
X122390000Y-99200000D03*
D11*
X122390000Y-96660000D03*
X122390000Y-94120000D03*
X122390000Y-91580000D03*
G04 #@! TD*
D13*
G04 #@! TO.C,JP1*
X100400000Y-102750000D03*
D14*
G36*
X99453843Y-102210982D02*
X99465224Y-102173463D01*
X99483706Y-102138886D01*
X99508579Y-102108579D01*
X99538886Y-102083706D01*
X99573463Y-102065224D01*
X99610982Y-102053843D01*
X99650000Y-102050000D01*
X101150000Y-102050000D01*
X101189018Y-102053843D01*
X101226537Y-102065224D01*
X101261114Y-102083706D01*
X101291421Y-102108579D01*
X101316294Y-102138886D01*
X101334776Y-102173463D01*
X101346157Y-102210982D01*
X101350000Y-102250000D01*
X101350000Y-102750000D01*
X101349398Y-102756112D01*
X101349398Y-102774534D01*
X101348435Y-102794140D01*
X101343625Y-102842971D01*
X101340746Y-102862380D01*
X101331174Y-102910505D01*
X101326404Y-102929548D01*
X101312160Y-102976503D01*
X101305549Y-102994980D01*
X101286772Y-103040313D01*
X101278377Y-103058061D01*
X101255246Y-103101334D01*
X101245160Y-103118162D01*
X101217900Y-103158961D01*
X101206205Y-103174730D01*
X101175077Y-103212659D01*
X101161897Y-103227200D01*
X101127200Y-103261897D01*
X101112659Y-103275077D01*
X101074730Y-103306205D01*
X101058961Y-103317900D01*
X101018162Y-103345160D01*
X101001334Y-103355246D01*
X100958061Y-103378377D01*
X100940313Y-103386772D01*
X100894980Y-103405549D01*
X100876503Y-103412160D01*
X100829548Y-103426404D01*
X100810505Y-103431174D01*
X100762380Y-103440746D01*
X100742971Y-103443625D01*
X100694140Y-103448435D01*
X100674534Y-103449398D01*
X100656112Y-103449398D01*
X100650000Y-103450000D01*
X100150000Y-103450000D01*
X100143888Y-103449398D01*
X100125466Y-103449398D01*
X100105860Y-103448435D01*
X100057029Y-103443625D01*
X100037620Y-103440746D01*
X99989495Y-103431174D01*
X99970452Y-103426404D01*
X99923497Y-103412160D01*
X99905020Y-103405549D01*
X99859687Y-103386772D01*
X99841939Y-103378377D01*
X99798666Y-103355246D01*
X99781838Y-103345160D01*
X99741039Y-103317900D01*
X99725270Y-103306205D01*
X99687341Y-103275077D01*
X99672800Y-103261897D01*
X99638103Y-103227200D01*
X99624923Y-103212659D01*
X99593795Y-103174730D01*
X99582100Y-103158961D01*
X99554840Y-103118162D01*
X99544754Y-103101334D01*
X99521623Y-103058061D01*
X99513228Y-103040313D01*
X99494451Y-102994980D01*
X99487840Y-102976503D01*
X99473596Y-102929548D01*
X99468826Y-102910505D01*
X99459254Y-102862380D01*
X99456375Y-102842971D01*
X99451565Y-102794140D01*
X99450602Y-102774534D01*
X99450602Y-102756112D01*
X99450000Y-102750000D01*
X99450000Y-102250000D01*
X99453843Y-102210982D01*
X99453843Y-102210982D01*
G37*
D13*
X100400000Y-101450000D03*
D14*
G36*
X99450602Y-101443888D02*
X99450602Y-101425466D01*
X99451565Y-101405860D01*
X99456375Y-101357029D01*
X99459254Y-101337620D01*
X99468826Y-101289495D01*
X99473596Y-101270452D01*
X99487840Y-101223497D01*
X99494451Y-101205020D01*
X99513228Y-101159687D01*
X99521623Y-101141939D01*
X99544754Y-101098666D01*
X99554840Y-101081838D01*
X99582100Y-101041039D01*
X99593795Y-101025270D01*
X99624923Y-100987341D01*
X99638103Y-100972800D01*
X99672800Y-100938103D01*
X99687341Y-100924923D01*
X99725270Y-100893795D01*
X99741039Y-100882100D01*
X99781838Y-100854840D01*
X99798666Y-100844754D01*
X99841939Y-100821623D01*
X99859687Y-100813228D01*
X99905020Y-100794451D01*
X99923497Y-100787840D01*
X99970452Y-100773596D01*
X99989495Y-100768826D01*
X100037620Y-100759254D01*
X100057029Y-100756375D01*
X100105860Y-100751565D01*
X100125466Y-100750602D01*
X100143888Y-100750602D01*
X100150000Y-100750000D01*
X100650000Y-100750000D01*
X100656112Y-100750602D01*
X100674534Y-100750602D01*
X100694140Y-100751565D01*
X100742971Y-100756375D01*
X100762380Y-100759254D01*
X100810505Y-100768826D01*
X100829548Y-100773596D01*
X100876503Y-100787840D01*
X100894980Y-100794451D01*
X100940313Y-100813228D01*
X100958061Y-100821623D01*
X101001334Y-100844754D01*
X101018162Y-100854840D01*
X101058961Y-100882100D01*
X101074730Y-100893795D01*
X101112659Y-100924923D01*
X101127200Y-100938103D01*
X101161897Y-100972800D01*
X101175077Y-100987341D01*
X101206205Y-101025270D01*
X101217900Y-101041039D01*
X101245160Y-101081838D01*
X101255246Y-101098666D01*
X101278377Y-101141939D01*
X101286772Y-101159687D01*
X101305549Y-101205020D01*
X101312160Y-101223497D01*
X101326404Y-101270452D01*
X101331174Y-101289495D01*
X101340746Y-101337620D01*
X101343625Y-101357029D01*
X101348435Y-101405860D01*
X101349398Y-101425466D01*
X101349398Y-101443888D01*
X101350000Y-101450000D01*
X101350000Y-101950000D01*
X101346157Y-101989018D01*
X101334776Y-102026537D01*
X101316294Y-102061114D01*
X101291421Y-102091421D01*
X101261114Y-102116294D01*
X101226537Y-102134776D01*
X101189018Y-102146157D01*
X101150000Y-102150000D01*
X99650000Y-102150000D01*
X99610982Y-102146157D01*
X99573463Y-102134776D01*
X99538886Y-102116294D01*
X99508579Y-102091421D01*
X99483706Y-102061114D01*
X99465224Y-102026537D01*
X99453843Y-101989018D01*
X99450000Y-101950000D01*
X99450000Y-101450000D01*
X99450602Y-101443888D01*
X99450602Y-101443888D01*
G37*
G04 #@! TD*
D15*
G04 #@! TO.C,R1*
X100500000Y-91900000D03*
D16*
X100500000Y-99520000D03*
G04 #@! TD*
D17*
G04 #@! TO.C,SW1*
X111475000Y-89175000D03*
X114475000Y-89175000D03*
G04 #@! TD*
D15*
G04 #@! TO.C,R2*
X118700000Y-91650000D03*
D16*
X118700000Y-99270000D03*
G04 #@! TD*
G04 #@! TO.C,R3*
X120300000Y-89430000D03*
D15*
X120300000Y-97050000D03*
G04 #@! TD*
M02*
